<svg width="21" height="20" viewBox="0 0 21 20" fill="none" xmlns="http://www.w3.org/2000/svg">
<g id="credit-card">
<path id="Vector" d="M4.53882 3.33154C3.15807 3.33154 2.03882 4.45071 2.03882 5.83154V7.49821V14.1649C2.03882 15.5457 3.15807 16.6649 4.53882 16.6649H16.2055C17.5862 16.6649 18.7055 15.5457 18.7055 14.1649V7.49821V5.83154C18.7055 4.45071 17.5862 3.33154 16.2055 3.33154H4.53882ZM4.53882 4.99821H16.2055C16.6657 4.99821 17.0388 5.37154 17.0388 5.83154V6.66488H3.70548V5.83154C3.70548 5.37154 4.07857 4.99821 4.53882 4.99821ZM3.70548 8.33154H17.0388V14.1649C17.0388 14.6249 16.6657 14.9982 16.2055 14.9982H4.53882C4.07857 14.9982 3.70548 14.6249 3.70548 14.1649V8.33154ZM6.20548 9.99821C5.74523 9.99821 5.37215 10.3715 5.37215 10.8315C5.37215 11.0399 5.37215 12.2899 5.37215 12.4982C5.37215 12.9582 5.74523 13.3315 6.20548 13.3315H7.87215C8.3324 13.3315 8.70548 12.9582 8.70548 12.4982V10.8315C8.70548 10.3715 8.3324 9.99821 7.87215 9.99821H6.20548Z" fill="#3F3F3F"/>
</g>
</svg>
