<svg width="21" height="21" viewBox="0 0 21 21" fill="none" xmlns="http://www.w3.org/2000/svg">
<g id="ri:bank-line">
<path id="Vector" d="M2.0271 17.8484C2.0271 17.3881 2.4002 17.015 2.86043 17.015H17.8604C18.3207 17.015 18.6938 17.3881 18.6938 17.8484C18.6938 18.3086 18.3207 18.6817 17.8604 18.6817H2.86043C2.40019 18.6817 2.0271 18.3086 2.0271 17.8484ZM3.69377 11.1817C3.69377 10.7215 4.06686 10.3484 4.5271 10.3484C4.98734 10.3484 5.36043 10.7215 5.36043 11.1817V15.3484C5.36043 15.8086 4.98734 16.1817 4.5271 16.1817C4.06686 16.1817 3.69377 15.8086 3.69377 15.3484V11.1817ZM7.86043 11.1817C7.86043 10.7215 8.23353 10.3484 8.69377 10.3484C9.154 10.3484 9.5271 10.7215 9.5271 11.1817V15.3484C9.5271 15.8086 9.154 16.1817 8.69377 16.1817C8.23353 16.1817 7.86043 15.8086 7.86043 15.3484V11.1817ZM11.1938 11.1817C11.1938 10.7215 11.5669 10.3484 12.0271 10.3484C12.4873 10.3484 12.8604 10.7215 12.8604 11.1817V15.3484C12.8604 15.8086 12.4873 16.1817 12.0271 16.1817C11.5669 16.1817 11.1938 15.8086 11.1938 15.3484V11.1817ZM15.3604 11.1817C15.3604 10.7215 15.7335 10.3484 16.1938 10.3484C16.654 10.3484 17.0271 10.7215 17.0271 11.1817V15.3484C17.0271 15.8086 16.654 16.1817 16.1938 16.1817C15.7335 16.1817 15.3604 15.8086 15.3604 15.3484V11.1817ZM2.0271 7.45493C2.0271 6.67461 2.46797 5.96127 3.1659 5.6123L9.01879 2.68586C9.86338 2.26357 10.8575 2.26357 11.7021 2.68586L17.555 5.6123C18.2529 5.96127 18.6938 6.67461 18.6938 7.45493C18.6938 8.59269 17.7714 9.51504 16.6337 9.51504H4.08721C2.94944 9.51504 2.0271 8.59269 2.0271 7.45493ZM3.91128 7.10295C3.77797 7.1696 3.69377 7.30585 3.69377 7.45489C3.69377 7.6722 3.86993 7.84837 4.08725 7.84837H16.6336C16.8509 7.84837 17.0271 7.6722 17.0271 7.45489C17.0271 7.30585 16.9429 7.1696 16.8096 7.10295L11.7021 4.54919C10.8575 4.1269 9.86337 4.1269 9.01879 4.54919L3.91128 7.10295ZM10.3604 7.01504C10.1394 7.01504 9.92746 6.92724 9.77118 6.77096C9.6149 6.61468 9.5271 6.40272 9.5271 6.18171C9.5271 5.96069 9.6149 5.74873 9.77118 5.59245C9.92746 5.43617 10.1394 5.34837 10.3604 5.34837C10.5814 5.34837 10.7934 5.43617 10.9497 5.59245C11.106 5.74873 11.1938 5.96069 11.1938 6.18171C11.1938 6.40272 11.106 6.61468 10.9497 6.77096C10.7934 6.92724 10.5814 7.01504 10.3604 7.01504Z" fill="#3F3F3F"/>
</g>
</svg>
