<svg width="36" height="36" viewBox="0 0 36 36" fill="none" xmlns="http://www.w3.org/2000/svg">
<rect width="35.9961" height="36" rx="17.998" fill="#EEEEEE"/>
<path d="M10.0271 25.8484C10.0271 25.3881 10.4002 25.015 10.8604 25.015H25.8604C26.3207 25.015 26.6938 25.3881 26.6938 25.8484C26.6938 26.3086 26.3207 26.6817 25.8604 26.6817H10.8604C10.4002 26.6817 10.0271 26.3086 10.0271 25.8484ZM11.6938 19.1817C11.6938 18.7215 12.0669 18.3484 12.5271 18.3484C12.9873 18.3484 13.3604 18.7215 13.3604 19.1817V23.3484C13.3604 23.8086 12.9873 24.1817 12.5271 24.1817C12.0669 24.1817 11.6938 23.8086 11.6938 23.3484V19.1817ZM15.8604 19.1817C15.8604 18.7215 16.2335 18.3484 16.6938 18.3484C17.154 18.3484 17.5271 18.7215 17.5271 19.1817V23.3484C17.5271 23.8086 17.154 24.1817 16.6938 24.1817C16.2335 24.1817 15.8604 23.8086 15.8604 23.3484V19.1817ZM19.1938 19.1817C19.1938 18.7215 19.5669 18.3484 20.0271 18.3484C20.4873 18.3484 20.8604 18.7215 20.8604 19.1817V23.3484C20.8604 23.8086 20.4873 24.1817 20.0271 24.1817C19.5669 24.1817 19.1938 23.8086 19.1938 23.3484V19.1817ZM23.3604 19.1817C23.3604 18.7215 23.7335 18.3484 24.1938 18.3484C24.654 18.3484 25.0271 18.7215 25.0271 19.1817V23.3484C25.0271 23.8086 24.654 24.1817 24.1938 24.1817C23.7335 24.1817 23.3604 23.8086 23.3604 23.3484V19.1817ZM10.0271 15.4549C10.0271 14.6746 10.468 13.9613 11.1659 13.6123L17.0188 10.6859C17.8634 10.2636 18.8575 10.2636 19.7021 10.6859L25.555 13.6123C26.2529 13.9613 26.6938 14.6746 26.6938 15.4549C26.6938 16.5927 25.7714 17.515 24.6337 17.515H12.0872C10.9494 17.515 10.0271 16.5927 10.0271 15.4549ZM11.9113 15.103C11.778 15.1696 11.6938 15.3059 11.6938 15.4549C11.6938 15.6722 11.8699 15.8484 12.0872 15.8484H24.6336C24.8509 15.8484 25.0271 15.6722 25.0271 15.4549C25.0271 15.3059 24.9429 15.1696 24.8096 15.103L19.7021 12.5492C18.8575 12.1269 17.8634 12.1269 17.0188 12.5492L11.9113 15.103ZM18.3604 15.015C18.1394 15.015 17.9275 14.9272 17.7712 14.771C17.6149 14.6147 17.5271 14.4027 17.5271 14.1817C17.5271 13.9607 17.6149 13.7487 17.7712 13.5924C17.9275 13.4362 18.1394 13.3484 18.3604 13.3484C18.5814 13.3484 18.7934 13.4362 18.9497 13.5924C19.106 13.7487 19.1938 13.9607 19.1938 14.1817C19.1938 14.4027 19.106 14.6147 18.9497 14.771C18.7934 14.9272 18.5814 15.015 18.3604 15.015Z" fill="#3F3F3F"/>
</svg>
