<svg width="36" height="36" viewBox="0 0 36 36" fill="none" xmlns="http://www.w3.org/2000/svg">
<rect width="35.9961" height="36" rx="17.998" fill="#EEEEEE"/>
<path d="M12.5388 11.3315C11.1581 11.3315 10.0388 12.4507 10.0388 13.8315V15.4982V22.1649C10.0388 23.5457 11.1581 24.6649 12.5388 24.6649H24.2055C25.5862 24.6649 26.7055 23.5457 26.7055 22.1649V15.4982V13.8315C26.7055 12.4507 25.5862 11.3315 24.2055 11.3315H12.5388ZM12.5388 12.9982H24.2055C24.6657 12.9982 25.0388 13.3715 25.0388 13.8315V14.6649H11.7055V13.8315C11.7055 13.3715 12.0786 12.9982 12.5388 12.9982ZM11.7055 16.3315H25.0388V22.1649C25.0388 22.6249 24.6657 22.9982 24.2055 22.9982H12.5388C12.0786 22.9982 11.7055 22.6249 11.7055 22.1649V16.3315ZM14.2055 17.9982C13.7452 17.9982 13.3722 18.3715 13.3722 18.8315C13.3722 19.0399 13.3722 20.2899 13.3722 20.4982C13.3722 20.9582 13.7452 21.3315 14.2055 21.3315H15.8722C16.3324 21.3315 16.7055 20.9582 16.7055 20.4982V18.8315C16.7055 18.3715 16.3324 17.9982 15.8722 17.9982H14.2055Z" fill="#3F3F3F"/>
</svg>
