<svg width="36" height="37" viewBox="0 0 36 37" fill="none" xmlns="http://www.w3.org/2000/svg">
<rect y="0.300781" width="35.9961" height="36" rx="17.998" fill="#FF8001"/>
<path d="M15.497 9.979C15.2762 9.979 15.0804 10.0573 14.9237 10.2132L13.492 11.6457C13.2529 11.6457 12.997 11.6457 12.997 11.6457C11.1562 11.6457 9.6637 13.1382 9.6637 14.979V22.479C9.6637 24.3198 11.1562 25.8123 12.997 25.8123H22.9971C24.8379 25.8123 26.3304 24.3198 26.3304 22.479V14.979C26.3304 13.1382 24.8379 11.6457 22.9971 11.6457H22.5287L21.0962 10.2132C20.9395 10.0573 20.7179 9.979 20.497 9.979H15.497ZM15.862 11.6457H20.1587L21.5904 13.0782C21.7471 13.234 21.9429 13.3123 22.1637 13.3123H22.9971C23.9179 13.3123 24.6637 14.0582 24.6637 14.979V22.479C24.6637 23.3998 23.9179 24.1457 22.9971 24.1457H12.997C12.0762 24.1457 11.3304 23.3998 11.3304 22.479V14.979C11.3304 14.0582 12.0762 13.3123 12.997 13.3123H13.8304C14.0512 13.3123 14.2729 13.234 14.4295 13.0782L15.862 11.6457ZM17.997 14.1457C15.6962 14.1457 13.8304 16.0115 13.8304 18.3123C13.8304 20.6132 15.6962 22.479 17.997 22.479C20.2979 22.479 22.1637 20.6132 22.1637 18.3123C22.1637 16.0115 20.2979 14.1457 17.997 14.1457ZM22.9971 14.1457C22.537 14.1457 22.1637 14.519 22.1637 14.979C22.1637 15.439 22.537 15.8123 22.9971 15.8123C23.4571 15.8123 23.8304 15.439 23.8304 14.979C23.8304 14.519 23.4571 14.1457 22.9971 14.1457ZM17.997 15.8123C19.3779 15.8123 20.497 16.9315 20.497 18.3123C20.497 19.6932 19.3779 20.8123 17.997 20.8123C16.6162 20.8123 15.497 19.6932 15.497 18.3123C15.497 16.9315 16.6162 15.8123 17.997 15.8123Z" fill="white"/>
</svg>
