<svg width="24" height="24" viewBox="0 0 24 24" fill="none" xmlns="http://www.w3.org/2000/svg">
<path d="M18 16.1786V18H6.75V16.1786C6.75 16.1786 6.75 12.5357 12.375 12.5357C18 12.5357 18 16.1786 18 16.1786ZM15.1875 7.98214C15.1875 7.44178 15.0225 6.91355 14.7135 6.46425C14.4045 6.01495 13.9652 5.66476 13.4513 5.45797C12.9374 5.25118 12.3719 5.19708 11.8263 5.3025C11.2807 5.40792 10.7796 5.66813 10.3863 6.05023C9.99293 6.43232 9.72506 6.91915 9.61654 7.44913C9.50802 7.97911 9.56372 8.52846 9.77659 9.02769C9.98946 9.52692 10.3499 9.95363 10.8125 10.2538C11.275 10.554 11.8187 10.7143 12.375 10.7143C13.1209 10.7143 13.8363 10.4264 14.3637 9.91406C14.8912 9.40168 15.1875 8.70675 15.1875 7.98214ZM18.1875 12.5904C18.7 13.0496 19.1131 13.6035 19.4029 14.2195C19.6926 14.8356 19.8531 15.5016 19.875 16.1786V18H22.6875V16.1786C22.6875 16.1786 22.6875 13.0366 18.1875 12.5904ZM17.0625 5.25C16.7792 5.25017 16.4978 5.29318 16.2281 5.3775C16.7766 6.14156 17.0707 7.05065 17.0707 7.98214C17.0707 8.91364 16.7766 9.82272 16.2281 10.5868C16.4978 10.6711 16.7792 10.7141 17.0625 10.7143C17.8084 10.7143 18.5238 10.4264 19.0512 9.91406C19.5787 9.40168 19.875 8.70675 19.875 7.98214C19.875 7.25753 19.5787 6.5626 19.0512 6.05023C18.5238 5.53785 17.8084 5.25 17.0625 5.25Z" fill="#FF8001"/>
<path d="M18.1875 12.5904C18.7 13.0496 19.1131 13.6035 19.4029 14.2195C19.6926 14.8356 19.8531 15.5016 19.875 16.1786V18H22.6875V16.1786C22.6875 16.1786 22.6875 13.0366 18.1875 12.5904ZM17.0625 5.25C16.7793 5.25016 16.4978 5.29318 16.2281 5.3775C16.7766 6.14156 17.0707 7.05065 17.0707 7.98214C17.0707 8.91364 16.7766 9.82272 16.2281 10.5868C16.4978 10.6711 16.7793 10.7141 17.0625 10.7143C17.8084 10.7143 18.5238 10.4264 19.0513 9.91406C19.5787 9.40168 19.875 8.70675 19.875 7.98214C19.875 7.25753 19.5787 6.5626 19.0513 6.05023C18.5238 5.53785 17.8084 5.25 17.0625 5.25Z" fill="#FFC891"/>
<path d="M6.47812 12.5904C5.96566 13.0496 5.5525 13.6035 5.26277 14.2195C4.97304 14.8356 4.81253 15.5016 4.79063 16.1786V18H1.97813V16.1786C1.97813 16.1786 1.97812 13.0366 6.47812 12.5904ZM7.60313 5.25C7.88638 5.25016 8.16788 5.29318 8.4375 5.3775C7.88901 6.14156 7.59494 7.05065 7.59494 7.98214C7.59494 8.91364 7.88901 9.82272 8.4375 10.5868C8.16788 10.6711 7.88638 10.7141 7.60313 10.7143C6.8572 10.7143 6.14183 10.4264 5.61439 9.91406C5.08694 9.40168 4.79063 8.70675 4.79063 7.98214C4.79063 7.25753 5.08694 6.5626 5.61439 6.05023C6.14183 5.53785 6.8572 5.25 7.60313 5.25Z" fill="#FFC891"/>
</svg>
