<svg width="32" height="32" viewBox="0 0 32 32" fill="none" xmlns="http://www.w3.org/2000/svg">
<path d="M24 21.5714V24H9V21.5714C9 21.5714 9 16.7143 16.5 16.7143C24 16.7143 24 21.5714 24 21.5714ZM20.25 10.6429C20.25 9.92237 20.0301 9.21806 19.618 8.619C19.206 8.01993 18.6203 7.55302 17.9351 7.2773C17.2498 7.00158 16.4958 6.92944 15.7684 7.07C15.041 7.21056 14.3728 7.55751 13.8483 8.06697C13.3239 8.57643 12.9667 9.22553 12.8221 9.93217C12.6774 10.6388 12.7516 11.3713 13.0355 12.0369C13.3193 12.7026 13.7999 13.2715 14.4166 13.6718C15.0333 14.0721 15.7583 14.2857 16.5 14.2857C17.4946 14.2857 18.4484 13.9019 19.1517 13.2187C19.8549 12.5356 20.25 11.609 20.25 10.6429ZM24.25 16.7871C24.9333 17.3995 25.4842 18.138 25.8705 18.9594C26.2568 19.7808 26.4708 20.6688 26.5 21.5714V24H30.25V21.5714C30.25 21.5714 30.25 17.3821 24.25 16.7871ZM22.75 7C22.3723 7.00022 21.997 7.05757 21.6375 7.17C22.3688 8.18875 22.7609 9.40087 22.7609 10.6429C22.7609 11.8849 22.3688 13.097 21.6375 14.1157C21.997 14.2281 22.3723 14.2855 22.75 14.2857C23.7446 14.2857 24.6984 13.9019 25.4017 13.2187C26.1049 12.5356 26.5 11.609 26.5 10.6429C26.5 9.67671 26.1049 8.75014 25.4017 8.06697C24.6984 7.3838 23.7446 7 22.75 7Z" fill="#FF8001"/>
<path d="M8.6375 16.7871C7.95421 17.3995 7.40334 18.138 7.01702 18.9594C6.63071 19.7808 6.41671 20.6688 6.3875 21.5714V24H2.6375V21.5714C2.6375 21.5714 2.6375 17.3821 8.6375 16.7871ZM10.1375 7C10.5152 7.00022 10.8905 7.05757 11.25 7.17C10.5187 8.18875 10.1266 9.40086 10.1266 10.6429C10.1266 11.8848 10.5187 13.097 11.25 14.1157C10.8905 14.2281 10.5152 14.2855 10.1375 14.2857C9.14294 14.2857 8.18911 13.9019 7.48585 13.2187C6.78259 12.5356 6.3875 11.609 6.3875 10.6429C6.3875 9.67671 6.78259 8.75014 7.48585 8.06697C8.18911 7.3838 9.14294 7 10.1375 7Z" fill="#FF8001"/>
</svg>
