<svg width="24" height="24" viewBox="0 0 24 24" fill="none" xmlns="http://www.w3.org/2000/svg">
<path d="M13.9953 6.82973C13.2429 6.33112 12.3698 6.04616 11.4687 6.00515C10.5676 5.96414 9.67235 6.1686 8.87793 6.59681C8.08352 7.02502 7.41968 7.66097 6.95696 8.43709C6.49425 9.21321 6.24994 10.1005 6.25 11.0047C6.25 12.953 6.62009 14.8139 7.29372 16.5221M15.4078 8.24495C15.9486 9.06311 16.2362 10.0232 16.2345 11.0047C16.233 11.9475 16.4984 12.8714 17 13.6689M15.6761 16.0437C14.4266 14.6645 13.7357 12.8676 13.7384 11.0047C13.7384 10.341 13.4754 9.70461 13.0073 9.23536C12.5392 8.76612 11.9043 8.5025 11.2423 8.5025C10.5802 8.5025 9.94534 8.76612 9.47723 9.23536C9.00911 9.70461 8.74613 10.341 8.74613 11.0047C8.74613 11.3563 8.76011 11.7046 8.78873 12.0489M11.2423 11.0047C11.2385 13.3908 12.0888 15.6991 13.6385 17.5102M9.22339 14.4436C9.58383 15.7092 10.1421 16.9096 10.8775 18" stroke="#3F3F3F" stroke-linecap="round" stroke-linejoin="round"/>
</svg>
