<svg width="20" height="20" viewBox="0 0 20 20" fill="none" xmlns="http://www.w3.org/2000/svg">
<path d="M8.99091 0.0266609C6.68527 0.285213 4.61441 1.26772 2.99436 2.86134C-0.123662 5.94517 -0.88908 10.6179 1.08786 14.515C3.58603 19.4463 9.60137 21.416 14.5179 18.9151C18.4811 16.9031 20.6365 12.5359 19.8335 8.15932C19.0728 4.01778 15.7012 0.750608 11.522 0.0971756C10.9632 0.00785828 9.51214 -0.0297508 8.99091 0.0266609ZM10.7237 2.98827C11.738 3.08699 12.7053 3.35964 13.6961 3.83444C14.0201 3.98957 14.2878 4.1447 14.316 4.20111C14.4568 4.46437 14.2737 4.82164 14.0013 4.82164C13.9262 4.82164 13.6539 4.72292 13.4003 4.6054C12.7523 4.29983 12.1841 4.10239 11.5266 3.94726C11.0054 3.82504 10.8927 3.81563 10.0005 3.81563C9.1083 3.81563 8.99561 3.82504 8.47437 3.94726C7.81696 4.10239 7.24876 4.29983 6.60074 4.6054C6.34717 4.72292 6.07481 4.82164 5.99968 4.82164C5.72732 4.82164 5.54418 4.46437 5.68506 4.20111C5.7508 4.07889 6.73222 3.61349 7.38494 3.39725C8.5495 3.00707 9.59197 2.88014 10.7237 2.98827ZM10.7424 4.92036C12.0901 5.06609 13.3721 5.54089 14.3723 6.26013C15.0626 6.76314 16.0111 7.84906 16.0111 8.14522C16.0111 8.30035 15.7717 8.5354 15.612 8.5354C15.4195 8.5354 15.3256 8.46488 15.0579 8.09821C14.0953 6.81015 12.6067 5.99218 10.7753 5.75713C10.2024 5.68192 9.02378 5.72892 8.46967 5.85115C6.88719 6.19432 5.69914 6.94647 4.92903 8.08881C4.79755 8.28154 4.65198 8.46018 4.60502 8.48839C4.37023 8.61061 4.06031 8.45548 4.00865 8.18283C3.94291 7.81145 4.91025 6.65031 5.77897 6.06739C7.13606 5.15541 8.98621 4.72762 10.7424 4.92036ZM11.1134 6.41997C12.278 6.608 13.405 7.20503 14.2972 8.10291C15.6073 9.41918 16.1004 11.0927 15.5322 12.2868C15.3443 12.691 14.917 13.1376 14.5179 13.3445C13.2453 14.0167 11.8084 13.2834 11.0054 11.5487C10.7049 10.9 10.4137 10.6508 9.95355 10.6508C9.48867 10.6508 8.85003 11.0833 8.73264 11.4782C8.4368 12.5077 8.93456 13.9133 9.94416 14.9146C10.3621 15.3283 11.0383 15.789 11.6534 16.0757C12.1277 16.2967 12.2545 16.4142 12.2545 16.6351C12.2545 16.8044 12.0244 17.0441 11.8601 17.0441C11.6863 17.0441 10.5969 16.48 10.1273 16.1462C9.6718 15.8219 9.08013 15.2484 8.76081 14.8206C7.88739 13.6406 7.57277 12.0235 8.02357 11.0457C8.2114 10.6461 8.60585 10.2748 9.10361 10.0256C9.48397 9.83756 9.51684 9.82816 9.94886 9.82816C10.3433 9.82816 10.4372 9.84696 10.672 9.95509C11.0993 10.1572 11.3858 10.491 11.7614 11.2196C12.1418 11.9577 12.5081 12.3808 12.9448 12.6064C13.1749 12.7193 13.2735 12.7428 13.5693 12.7428C13.9732 12.7428 14.1187 12.6769 14.4474 12.3761C14.7668 12.0799 14.8982 11.7885 14.9217 11.309C14.964 10.4346 14.5414 9.5367 13.682 8.66702C12.1324 7.10631 9.94886 6.75373 7.95313 7.73623C6.80266 8.30505 5.89637 9.36747 5.58645 10.5145C5.32348 11.497 5.38922 12.7757 5.77428 14.0449C5.85411 14.2941 5.91515 14.5385 5.91515 14.5902C5.91515 14.7266 5.7461 14.9193 5.59114 14.9522C5.35635 15.0039 5.1873 14.877 5.06991 14.5714C4.60032 13.3069 4.46415 11.5205 4.75529 10.4064C5.27652 8.41787 7.04684 6.83365 9.18344 6.44817C9.62015 6.36825 10.7002 6.35415 11.1134 6.41997ZM10.8692 7.94778C12.0667 8.26274 13.0669 9.17473 13.6257 10.4675C13.8793 11.0598 13.9638 11.4265 13.8933 11.6051C13.8135 11.7932 13.5834 11.8919 13.3862 11.8214C13.2124 11.7603 13.1796 11.7038 13.0246 11.2243C12.9589 11.0269 12.8133 10.6837 12.6959 10.4722C12.1089 9.36277 11.2966 8.77515 10.2212 8.69523C8.39454 8.5542 6.95293 10.2324 7.05623 12.3902C7.11728 13.6124 7.58686 14.6513 8.54011 15.6479C8.7749 15.8971 8.97213 16.1368 8.97213 16.1839C8.98621 16.3813 8.95334 16.4659 8.81716 16.5881C8.60116 16.7903 8.45559 16.7386 8.03766 16.3249C6.80266 15.1073 6.13586 13.4996 6.21568 11.9436C6.31899 9.82816 7.70426 8.13111 9.53093 7.87726C9.89251 7.83025 10.5358 7.86316 10.8692 7.94778ZM10.0897 11.5675C10.1273 11.6051 10.2259 11.8261 10.3104 12.0611C10.8035 13.4479 11.9681 14.4868 13.621 15.0227C13.8746 15.1073 14.0953 15.2061 14.1469 15.2625C14.3535 15.5116 14.161 15.9159 13.8323 15.9159C13.4472 15.9159 12.3343 15.4599 11.691 15.0321C10.611 14.3223 9.75633 13.2082 9.45579 12.1222C9.39005 11.8778 9.38536 11.8214 9.44171 11.7038C9.5591 11.4594 9.91129 11.3842 10.0897 11.5675Z" fill="currentColor"/>
</svg>
