<svg width="20" height="20" viewBox="0 0 20 20" fill="none" xmlns="http://www.w3.org/2000/svg">
<path d="M10 0C4.42857 0 0 4.42857 0 10C0 15.5714 4.42857 20 10 20C15.5714 20 20 15.5714 20 10C20 4.42857 15.5714 0 10 0Z" fill="#FB4646"/>
<path d="M10 10.773L12.2214 12.9944C12.4347 13.2077 12.7806 13.2077 12.994 12.9944C13.2074 12.781 13.2074 12.4351 12.994 12.2217L10.7727 10.0004L12.994 7.77907C13.2074 7.56571 13.2074 7.21979 12.994 7.00644C12.7806 6.79308 12.4347 6.79308 12.2214 7.00644L10 9.22776L7.7787 7.00644C7.56535 6.79308 7.21943 6.79308 7.00607 7.00644C6.79271 7.21979 6.79271 7.56571 7.00607 7.77907L9.2274 10.0004L7.00607 12.2217C6.79271 12.4351 6.79271 12.781 7.00607 12.9944C7.21943 13.2077 7.56535 13.2077 7.7787 12.9944L10 10.773Z" fill="white"/>
</svg>
