<svg width="24" height="24" viewBox="0 0 24 24" fill="none" xmlns="http://www.w3.org/2000/svg">
<path opacity="0.5" d="M10.0001 20H14.0001C17.7711 20 19.6571 20 20.8281 18.828C22.0001 17.657 22.0001 15.771 22.0001 12C22.0001 11.558 21.9981 10.392 21.9961 10H2.00011C1.99811 10.392 2.00011 11.558 2.00011 12C2.00011 15.771 2.00011 17.657 3.17111 18.828C4.34311 20 6.23011 20 10.0001 20Z" fill="#FFC891"/>
<path d="M9.9954 4H14.0054C17.7864 4 19.6774 4 20.8514 5.116C21.6974 5.919 21.9344 7.076 22.0004 9V10H2.0004V9C2.0664 7.075 2.3034 5.92 3.1494 5.116C4.3234 4 6.2144 4 9.9954 4ZM12.5004 15.25C12.3015 15.25 12.1107 15.329 11.9701 15.4697C11.8294 15.6103 11.7504 15.8011 11.7504 16C11.7504 16.1989 11.8294 16.3897 11.9701 16.5303C12.1107 16.671 12.3015 16.75 12.5004 16.75H14.0004C14.1993 16.75 14.3901 16.671 14.5307 16.5303C14.6714 16.3897 14.7504 16.1989 14.7504 16C14.7504 15.8011 14.6714 15.6103 14.5307 15.4697C14.3901 15.329 14.1993 15.25 14.0004 15.25H12.5004ZM6.0004 15.25C5.80148 15.25 5.61072 15.329 5.47007 15.4697C5.32941 15.6103 5.2504 15.8011 5.2504 16C5.2504 16.1989 5.32941 16.3897 5.47007 16.5303C5.61072 16.671 5.80148 16.75 6.0004 16.75H10.0004C10.1993 16.75 10.3901 16.671 10.5307 16.5303C10.6714 16.3897 10.7504 16.1989 10.7504 16C10.7504 15.8011 10.6714 15.6103 10.5307 15.4697C10.3901 15.329 10.1993 15.25 10.0004 15.25H6.0004Z" fill="#FF8001"/>
</svg>
