<svg width="24" height="24" viewBox="0 0 24 24" fill="none" xmlns="http://www.w3.org/2000/svg">
<path opacity="0.5" d="M10.0002 20H14.0002C17.7712 20 19.6572 20 20.8282 18.828C22.0002 17.657 22.0002 15.771 22.0002 12C22.0002 11.558 21.9982 10.392 21.9962 10H2.00016C1.99816 10.392 2.00016 11.558 2.00016 12C2.00016 15.771 2.00016 17.657 3.17116 18.828C4.34316 20 6.23016 20 10.0002 20Z" fill="#FFE19F"/>
<path d="M9.99549 4H14.0055C17.7865 4 19.6775 4 20.8515 5.116C21.6975 5.919 21.9345 7.076 22.0005 9V10H2.00049V9C2.06649 7.075 2.30349 5.92 3.14949 5.116C4.32349 4 6.21449 4 9.99549 4ZM12.5005 15.25C12.3016 15.25 12.1108 15.329 11.9702 15.4697C11.8295 15.6103 11.7505 15.8011 11.7505 16C11.7505 16.1989 11.8295 16.3897 11.9702 16.5303C12.1108 16.671 12.3016 16.75 12.5005 16.75H14.0005C14.1994 16.75 14.3902 16.671 14.5308 16.5303C14.6715 16.3897 14.7505 16.1989 14.7505 16C14.7505 15.8011 14.6715 15.6103 14.5308 15.4697C14.3902 15.329 14.1994 15.25 14.0005 15.25H12.5005ZM6.00049 15.25C5.80158 15.25 5.61081 15.329 5.47016 15.4697C5.32951 15.6103 5.25049 15.8011 5.25049 16C5.25049 16.1989 5.32951 16.3897 5.47016 16.5303C5.61081 16.671 5.80158 16.75 6.00049 16.75H10.0005C10.1994 16.75 10.3902 16.671 10.5308 16.5303C10.6715 16.3897 10.7505 16.1989 10.7505 16C10.7505 15.8011 10.6715 15.6103 10.5308 15.4697C10.3902 15.329 10.1994 15.25 10.0005 15.25H6.00049Z" fill="#FFBE2E"/>
</svg>
