<svg width="65" height="65" viewBox="0 0 65 65" fill="none" xmlns="http://www.w3.org/2000/svg">
<rect x="0.5" y="0.5" width="64" height="64" rx="8" fill="#FF8001"/>
<g clip-path="url(#clip0_4035_9597)">
<path d="M55.7449 43.6147C55.7532 43.8386 55.7615 44.0704 55.7615 44.2943C55.7615 50.875 55.7615 57.4476 55.778 64.0282C55.778 64.42 55.6373 64.484 55.2814 64.484C50.6373 64.476 45.9933 64.476 41.341 64.476C30.836 64.476 20.331 64.476 9.82606 64.476C9.63566 64.476 9.37076 64.612 9.26314 64.3081C9.0893 64.0682 9.23003 63.8124 9.22175 63.5645C9.21347 61.8374 9.21347 60.1023 9.21347 58.3751C9.21347 53.6176 9.21347 48.868 9.21347 44.1104C9.21347 43.9505 9.19692 43.7906 9.23003 43.6307C9.36248 43.4947 9.5446 43.4707 9.71844 43.4627C9.86745 43.4548 10.0247 43.4548 10.1737 43.4548C25.0496 43.4548 39.9171 43.4548 54.7929 43.4548C55.1158 43.4548 55.4552 43.4068 55.7449 43.6147Z" fill="#808185"/>
<path d="M57.3839 36.6662C57.5163 36.7941 57.5081 36.954 57.5081 37.114C57.5081 38.3853 57.5081 39.6647 57.5081 40.936C57.5081 41.0559 57.4832 41.1759 57.4749 41.2878C57.4501 41.5917 57.3011 41.7196 56.9617 41.7036C56.5643 41.6796 56.167 41.7116 55.7696 41.7196C55.6537 41.8236 55.5047 41.8635 55.3557 41.8635C55.1902 41.8635 55.0246 41.8635 54.859 41.8635C39.9336 41.8635 24.9998 41.8635 10.0743 41.8635C9.81766 41.8635 9.55276 41.8955 9.29614 41.8156C9.06435 41.6796 8.82428 41.6237 8.5511 41.6876C8.36071 41.7276 8.17031 41.6956 7.97991 41.6716C7.6074 41.6237 7.53289 41.5277 7.53289 41.1519C7.53289 39.8006 7.55773 38.4493 7.52461 37.098C7.51634 36.9061 7.53289 36.7222 7.71501 36.6022C7.98819 36.4663 8.27793 36.5063 8.56766 36.5063C23.0958 36.5063 37.624 36.5063 52.1521 36.5063C53.6836 36.5063 55.215 36.5063 56.7382 36.5063C56.9534 36.4983 57.1852 36.5063 57.3839 36.6662Z" fill="#B3B5BE"/>
<path d="M57.3839 36.6662C41.0428 36.6662 24.7018 36.6662 8.36071 36.6742C8.1372 36.6742 7.92196 36.6742 7.69845 36.6742C7.67362 36.3704 7.93024 36.2264 8.09581 36.0345C8.39382 35.7067 8.69183 35.3789 8.98985 35.043C10.1074 33.7957 11.2167 32.5403 12.3425 31.293C12.8723 30.7013 13.4269 30.1256 13.9071 29.4859C14.0147 29.342 14.1802 29.3819 14.3292 29.3819C15.1985 29.3739 16.0677 29.3739 16.9369 29.3739C20.4965 29.3739 24.0478 29.3739 27.6074 29.3739C27.7895 29.3739 27.9634 29.3899 28.1455 29.3979C28.2779 29.5658 28.1455 29.7018 28.0627 29.8217C27.6074 30.4774 27.1024 31.1011 26.6554 31.7647C26.5643 31.9006 26.4485 32.0126 26.2581 32.0126C24.7845 32.0446 23.311 32.0366 21.8375 32.0206C21.374 32.0126 21.0925 32.1645 20.8855 32.5483C20.6538 32.9801 20.3475 33.3799 20.1074 33.8197C19.9998 34.0116 20.0163 34.1235 20.273 34.1155C21.7879 34.0835 23.3028 34.2115 24.8094 34.0356C29.2465 34.0276 33.6753 34.0356 38.1124 34.0356C38.3607 34.0356 38.6091 34.0196 38.8574 34.0675C38.9733 34.0995 39.0892 34.1315 39.2216 34.1315C41.0263 34.1315 42.8309 34.1315 44.6355 34.1315C45.1157 34.1315 45.1405 34.0995 44.8922 33.6997C44.619 33.2679 44.3624 32.8282 44.0892 32.3964C43.9236 32.1405 43.7249 32.0286 43.4187 32.0366C42.715 32.0526 42.0114 32.0446 41.3077 32.0366C41.1173 32.0366 40.9187 32.0526 40.7365 31.9646C40.513 31.7407 40.7779 31.6048 40.8607 31.4609C41.1008 31.0371 41.4236 30.6533 41.7299 30.2695C42.0031 29.9257 42.2928 29.5898 42.4501 29.174C42.5081 29.0061 42.624 28.8302 42.8061 29.1021C42.8889 29.4059 43.1455 29.326 43.3524 29.326C45.5793 29.334 47.8061 29.326 50.0329 29.326C50.2481 29.326 50.4716 29.31 50.6786 29.3979C51.4733 30.2375 52.268 31.0691 53.0544 31.9086C53.8657 32.7722 54.6687 33.6438 55.4799 34.5153C55.8938 34.9151 56.2746 35.3469 56.6389 35.7947C56.9451 36.0026 57.1687 36.3224 57.3839 36.6662Z" fill="#E5E6E8"/>
<path d="M26.316 31.9486C26.8541 31.221 27.3922 30.5014 27.922 29.7737C28.0048 29.6618 28.1207 29.5498 28.1289 29.3979C28.6422 29.0541 28.9071 28.5104 29.2713 28.0546C30.1405 26.9672 30.9518 25.8238 31.7879 24.7123C32.9468 23.1771 34.1058 21.6339 35.2647 20.0987C35.8276 19.3551 36.4071 18.6114 36.9783 17.8758C37.2597 17.548 37.2597 17.548 37.7399 17.8678C38.2614 18.2356 38.7746 18.5954 39.2962 18.9633C41.1339 20.2666 42.9717 21.5699 44.8094 22.8653C45.2895 23.2091 45.778 23.5449 46.2664 23.8807C46.465 24.0167 46.5313 24.0966 46.3326 24.3365C45.6703 25.1441 45.066 25.9917 44.4369 26.8312C44.2299 27.0871 44.023 27.343 43.8491 27.6228C43.7415 27.8067 43.5594 27.9507 43.4683 28.1506C43.1869 28.4144 43.0793 28.8222 42.6985 28.9981C42.417 29.0941 42.5495 29.3899 42.4005 29.5658C42.0362 29.9816 41.7217 30.4374 41.374 30.8692C41.1091 31.197 40.9601 31.5968 40.6289 31.8767C40.6869 31.9966 40.6207 32.0846 40.5544 32.1645C40.1074 32.7882 39.6438 33.3959 39.172 33.9956C39.0975 34.0915 39.0147 34.1795 38.874 34.1875C34.4866 34.1875 30.0909 34.1875 25.7034 34.1795C25.3723 34.1795 25.0164 34.3234 24.7101 34.0755C24.6356 33.9476 24.7183 33.8437 24.7846 33.7477C25.1654 33.188 25.6124 32.6683 26.0097 32.1245C26.0842 32.0286 26.1753 31.9486 26.316 31.9486Z" fill="white"/>
<path d="M9.27141 41.6956C14.1555 41.6956 19.0313 41.6956 23.9155 41.6956C34.3956 41.6956 44.8674 41.6956 55.3476 41.6956C55.4883 41.6956 55.6208 41.7116 55.7615 41.7116C55.7532 42.3433 55.7532 42.983 55.7449 43.6147C55.5131 43.7266 55.2896 43.6147 55.0578 43.6147C40.0164 43.6227 24.9751 43.6227 9.93366 43.6227C9.71843 43.6227 9.49492 43.6227 9.27969 43.6307C9.13068 43.2229 9.2383 42.7991 9.22174 42.3833C9.20519 42.1514 9.06446 41.9115 9.27141 41.6956Z" fill="#565759"/>
<path d="M37.7318 17.8598C37.4752 17.7799 37.2186 17.556 36.9702 17.8678C37.1606 17.3801 37.3096 17.3801 37.7318 17.8598Z" fill="#F8E8A6"/>
<path d="M32.5164 59.7664C27.2929 59.7664 22.0611 59.7664 16.8376 59.7664C16.2002 59.7664 16.2002 59.7664 16.2002 59.1507C16.2002 55.6325 16.2085 52.1143 16.1919 48.6041C16.1919 48.2283 16.2995 48.0924 16.7051 48.0924C27.2267 48.1004 37.7482 48.1004 48.2697 48.1004C48.8161 48.1004 48.8161 48.1084 48.8161 48.6361C48.8161 52.1383 48.8161 55.6405 48.8161 59.1427C48.8161 59.7664 48.8161 59.7664 48.1869 59.7664C42.9634 59.7664 37.7399 59.7664 32.5164 59.7664Z" fill="#BCBDBF"/>
<path d="M27.091 56.7696C25.4135 56.7696 24.374 55.6486 24.374 53.8256C24.374 52.0065 25.4094 50.8855 27.091 50.8855C28.4635 50.8855 29.515 51.766 29.6033 52.9839H28.4234C28.307 52.34 27.7813 51.9173 27.091 51.9173C26.18 51.9173 25.6141 52.6465 25.6141 53.8256C25.6141 55.0047 26.18 55.7378 27.095 55.7378C27.7893 55.7378 28.311 55.3422 28.4274 54.7255H29.6073C29.507 55.9356 28.4876 56.7696 27.091 56.7696Z" fill="#221E1F"/>
<path d="M30.6468 56.626V50.7148H31.7946V53.0498H31.8668C32.0715 52.5611 32.5531 52.2663 33.2032 52.2663C34.1544 52.2663 34.7202 52.8443 34.7202 53.8721V56.626H33.5524V54.1398C33.5524 53.5463 33.2674 53.2399 32.7377 53.2399C32.1517 53.2399 31.8146 53.6161 31.8146 54.1708V56.626H30.6468Z" fill="#221E1F"/>
<path d="M35.864 56.626V52.3478H37.0319V56.626H35.864ZM36.45 51.7078C36.0888 51.7078 35.7878 51.4208 35.7878 51.0601C35.7878 50.6993 36.0888 50.4162 36.45 50.4162C36.8152 50.4162 37.1121 50.6993 37.1121 51.0601C37.1121 51.4208 36.8152 51.7078 36.45 51.7078Z" fill="#221E1F"/>
<path d="M38.5489 51.3316H39.7168V52.3905H40.6358V53.2787H39.7168V55.2026C39.7168 55.5749 39.8933 55.7456 40.2907 55.7456C40.4432 55.7456 40.5234 55.7417 40.6358 55.7301V56.5911C40.4913 56.6183 40.2746 56.6416 40.0499 56.6416C38.9743 56.6416 38.5489 56.3041 38.5489 55.4702V53.2787H37.8586V52.3905H38.5489V51.3316Z" fill="#221E1F"/>
<path d="M26.316 31.9486C25.7862 32.6603 25.2481 33.3719 24.7183 34.0755C24.6024 34.1955 24.47 34.2514 24.2879 34.2514C22.8557 34.2435 21.4236 34.2435 19.9832 34.2514C19.7349 34.2514 19.6107 34.2435 19.7928 33.9636C20.1985 33.3479 20.5793 32.7082 20.9683 32.0846C21.0428 31.9726 21.1008 31.8607 21.2746 31.8607C22.9137 31.8687 24.5528 31.8607 26.2001 31.8607C26.2498 31.8607 26.2912 31.8927 26.316 31.9486Z" fill="#171D2D"/>
<path d="M38.874 34.1795C39.4535 33.4039 40.0412 32.6363 40.6207 31.8607C41.6141 31.8607 42.5992 31.8687 43.5926 31.8527C43.8244 31.8527 43.9651 31.9166 44.081 32.1165C44.4866 32.8042 44.9253 33.4838 45.3393 34.1555C45.2648 34.2834 45.1571 34.2355 45.0744 34.2355C43.1042 34.2355 41.1422 34.2355 39.172 34.2355C39.0727 34.2435 38.9568 34.2914 38.874 34.1795Z" fill="#171D2D"/>
</g>
<defs>
<clipPath id="clip0_4035_9597">
<rect width="50" height="47" fill="white" transform="translate(7.5 17.5)"/>
</clipPath>
</defs>
</svg>
