<svg width="375" height="112" viewBox="0 0 343 112" fill="none" xmlns="http://www.w3.org/2000/svg">
<g clip-path="url(#clip0_3795_7348)">
<rect x="0.000732422" width="375" height="112" rx="8" fill="#FF8001"/>
<rect x="27.282" y="24" width="66.7855" height="66.7855" rx="33.3928" fill="#994D00"/>
<g clip-path="url(#clip1_3795_7348)">
<path d="M61.517 100.156C61.8451 99.9003 62.1673 99.6209 62.4715 99.3118L84.6644 76.1829C84.7479 76.171 84.8255 76.0937 84.8315 76.0045L87.6831 73.0324C89.3536 71.3799 89.8666 69.0617 88.4766 67.2427C87.0925 65.4238 84.4914 65.0672 82.6659 66.4522L68.9683 78.1088L74.5225 30.6264C74.8566 28.4151 73.3293 26.3525 71.11 26.0196C68.8908 25.6867 66.8206 27.2085 66.4865 29.4197L64.8101 38.5679C64.8161 38.5203 64.8221 38.4787 64.828 38.4311C64.8698 38.0685 64.9772 37.6643 64.9652 37.3017L64.9712 37.2542C64.9891 37.1056 64.8459 37.0521 64.7326 37.0877L66.3612 23.1545C66.6953 20.9433 65.1681 18.8806 62.9488 18.5477C60.7295 18.2149 58.6593 19.7366 58.3252 21.9478L57.1858 28.1714C57.1559 28.1893 57.1261 28.2071 57.1082 28.2368C57.1381 26.2396 55.6884 24.4801 53.654 24.1769C51.4347 23.844 49.3646 25.3657 49.0305 27.577L45.9163 44.5656C45.9044 44.5656 45.8984 44.5596 45.8865 44.5596L46.8112 36.636C47.0975 34.7338 45.7851 32.9565 43.87 32.6652C41.961 32.3799 40.1772 33.6877 39.8848 35.5957L31.0793 77.7224L-5.71802 103.883L26.0143 135.5L61.517 100.156Z" fill="#FFB6B1"/>
<path d="M30.0608 82.6504L30.0906 82.484C30.1502 82.157 30.2159 81.8301 30.2934 81.5091L31.0809 77.7286L19.364 86.0565C19.7041 88.0715 20.6526 90.0034 22.2157 91.5549C24.8049 94.1346 28.4381 95.0441 31.767 94.2773C30.013 90.7346 29.3687 86.6746 30.0608 82.6504Z" fill="#D16861"/>
<path d="M45.6673 44.737C45.3809 47.0136 45.0945 49.2843 44.8022 51.561C44.3428 55.1869 43.8835 58.8189 43.4241 62.4448C43.3167 63.283 43.2093 64.1211 43.1079 64.9592C43.0781 65.197 43.448 65.1911 43.4778 64.9592C43.7642 62.6826 44.0505 60.4119 44.3428 58.1353C44.8022 54.5093 45.2616 50.8774 45.7209 47.2514C45.8283 46.4133 45.9357 45.5751 46.0371 44.737C46.0491 44.63 45.9834 44.5765 45.8999 44.5646C45.888 44.5646 45.882 44.5587 45.8701 44.5587C45.7806 44.5646 45.6792 44.6241 45.6673 44.737Z" fill="#994D00"/>
<path d="M56.6073 32.0289C56.2434 34.9891 55.8735 37.9553 55.5096 40.9155C55.0682 44.4761 54.6267 48.0308 54.1912 51.5913C53.8094 54.6883 53.4275 57.7852 53.0398 60.8822C52.9145 61.9046 52.7892 62.921 52.6639 63.9434C52.6043 64.413 52.4909 64.9183 52.4849 65.3938L52.479 65.4533C52.4492 65.691 52.825 65.6851 52.8489 65.4533C53.004 64.2169 53.1531 62.9864 53.3082 61.75C53.6721 58.7898 54.042 55.8236 54.4059 52.8634C54.8474 49.3028 55.2889 45.7482 55.7244 42.1876C56.1062 39.0907 56.488 35.9937 56.8758 32.8968C57.0011 31.8744 57.1264 30.8579 57.2516 29.8355C57.3113 29.3659 57.4247 28.8607 57.4306 28.3851L57.4366 28.3257C57.4545 28.1652 57.2934 28.1176 57.1741 28.1771C57.1443 28.1949 57.1144 28.2127 57.0965 28.2425C57.0786 28.2662 57.0667 28.296 57.0667 28.3257C56.9116 29.5561 56.7565 30.7925 56.6073 32.0289Z" fill="#994D00"/>
<path d="M64.5915 37.2534C64.4782 38.2044 64.3648 39.1614 64.2455 40.1125C63.9711 42.401 63.6966 44.6896 63.4222 46.9781C63.0881 49.7481 62.754 52.5181 62.4259 55.2881C62.1395 57.6836 61.8472 60.0791 61.5609 62.4806C61.4654 63.2771 61.37 64.0677 61.2745 64.8642C61.2327 65.2209 61.1254 65.631 61.1373 65.9936L61.1313 66.0412C61.1015 66.279 61.4773 66.273 61.5012 66.0412C61.6146 65.0901 61.7279 64.1331 61.8472 63.182C62.1217 60.8935 62.3961 58.605 62.6705 56.3165C63.0046 53.5464 63.3387 50.7764 63.6668 48.0064C63.9532 45.6109 64.2455 43.2154 64.5319 40.8139C64.6213 40.065 64.7108 39.316 64.8003 38.567C64.8063 38.5195 64.8122 38.4779 64.8182 38.4303C64.86 38.0677 64.9674 37.6635 64.9554 37.3009L64.9614 37.2534C64.9793 37.1047 64.8361 37.0513 64.7228 37.0869C64.6631 37.1107 64.6034 37.1642 64.5915 37.2534Z" fill="#994D00"/>
<path d="M84.7806 75.8738C83.9931 75.0951 83.7723 73.9003 84.2973 72.9076C84.5061 72.5153 84.8343 72.2121 85.1445 71.8971C86.0871 70.9282 87.0297 69.9652 87.9663 68.9963C88.2408 68.711 88.5211 68.4257 88.7956 68.1403C88.9626 67.968 88.7001 67.7064 88.5331 67.8788C87.7516 68.6813 86.9641 69.4897 86.1825 70.2922C85.7172 70.7736 85.2519 71.2492 84.7806 71.7307C84.4047 72.1111 84.0527 72.4856 83.8439 72.9908C83.3965 74.0786 83.6829 75.315 84.5121 76.1353C84.5598 76.1829 84.6135 76.1948 84.6612 76.1829C84.7448 76.171 84.8223 76.0937 84.8283 76.0045C84.8402 75.9629 84.8283 75.9154 84.7806 75.8738Z" fill="#994D00"/>
<path d="M54.7788 78.8871C54.0033 76.5748 52.6848 74.4765 50.9607 72.7468C50.7937 72.5803 50.5312 72.8419 50.6982 73.0083C53.6752 75.9923 55.3277 80.0879 55.2263 84.2964C55.1189 88.5821 53.18 92.6777 49.9525 95.5072C47.7511 97.4331 45.0247 98.6814 42.1372 99.1391C41.8986 99.1747 42 99.5373 42.2327 99.4957C47.1903 98.7051 51.5752 95.5607 53.8661 91.1025C55.7871 87.3517 56.1212 82.8816 54.7788 78.8871Z" fill="#994D00"/>
</g>
</g>
<defs>
<clipPath id="clip0_3795_7348">
<rect x="0.000732422" width="343" height="112" rx="8" fill="white"/>
</clipPath>
<clipPath id="clip1_3795_7348">
<rect width="95" height="117" fill="white" transform="translate(-5.71802 18.5)"/>
</clipPath>
</defs>
</svg>
