<svg width="48" height="48" viewBox="0 0 48 48" fill="none" xmlns="http://www.w3.org/2000/svg">
<rect x="0.361816" y="0.395691" width="48" height="48" rx="8" fill="#FF8001"/>
<g clip-path="url(#clip0_4129_367)">
<path d="M42.6323 31.5584C42.6387 31.7346 42.6452 31.9172 42.6452 32.0934C42.6452 37.2739 42.6452 42.4481 42.6581 47.6286C42.6581 47.9371 42.5483 47.9874 42.2707 47.9874C38.6483 47.9811 35.026 47.9811 31.3972 47.9811C23.2033 47.9811 15.0094 47.9811 6.81556 47.9811C6.66705 47.9811 6.46043 48.0881 6.37649 47.8489C6.24089 47.6601 6.35066 47.4587 6.34421 47.2635C6.33775 45.9039 6.33775 44.5379 6.33775 43.1783C6.33775 39.433 6.33775 35.6939 6.33775 31.9486C6.33775 31.8227 6.32484 31.6968 6.35066 31.5709C6.45397 31.4639 6.59603 31.4451 6.73162 31.4388C6.84785 31.4325 6.97053 31.4325 7.08676 31.4325C18.6899 31.4325 30.2866 31.4325 41.8897 31.4325C42.1416 31.4325 42.4063 31.3947 42.6323 31.5584Z" fill="#808185"/>
<path d="M43.9108 26.0883C44.0141 26.189 44.0077 26.3149 44.0077 26.4408C44.0077 27.4416 44.0077 28.4488 44.0077 29.4496C44.0077 29.544 43.9883 29.6385 43.9818 29.7266C43.9625 29.9658 43.8462 30.0665 43.5815 30.0539C43.2716 30.035 42.9616 30.0602 42.6517 30.0665C42.5613 30.1483 42.4451 30.1798 42.3289 30.1798C42.1997 30.1798 42.0706 30.1798 41.9414 30.1798C30.2996 30.1798 18.6512 30.1798 7.00933 30.1798C6.80916 30.1798 6.60254 30.205 6.40237 30.142C6.22158 30.035 6.03433 29.991 5.82125 30.0413C5.67274 30.0728 5.52423 30.0476 5.37572 30.0287C5.08516 29.991 5.02704 29.9154 5.02704 29.6196C5.02704 28.5558 5.04641 27.492 5.02059 26.4282C5.01413 26.2771 5.02704 26.1323 5.1691 26.0379C5.38218 25.9309 5.60817 25.9624 5.83416 25.9624C17.1661 25.9624 28.4981 25.9624 39.83 25.9624C41.0246 25.9624 42.2191 25.9624 43.4072 25.9624C43.5751 25.9561 43.7558 25.9624 43.9108 26.0883Z" fill="#B3B5BE"/>
<path d="M43.9107 26.0883C31.1647 26.0883 18.4187 26.0883 5.67265 26.0946C5.49831 26.0946 5.33043 26.0946 5.15609 26.0946C5.13672 25.8554 5.33689 25.7421 5.46603 25.591C5.69848 25.333 5.93093 25.0749 6.16338 24.8105C7.03507 23.8285 7.9003 22.8403 8.77844 21.8583C9.19169 21.3925 9.62431 20.9393 9.99881 20.4357C10.0827 20.3224 10.2119 20.3539 10.3281 20.3539C11.0061 20.3476 11.6841 20.3476 12.3621 20.3476C15.1385 20.3476 17.9086 20.3476 20.6851 20.3476C20.8271 20.3476 20.9627 20.3602 21.1048 20.3665C21.2081 20.4987 21.1048 20.6057 21.0402 20.7001C20.6851 21.2162 20.2912 21.7072 19.9425 22.2297C19.8715 22.3367 19.7811 22.4248 19.6326 22.4248C18.4832 22.45 17.3339 22.4437 16.1846 22.4311C15.823 22.4248 15.6034 22.5444 15.442 22.8466C15.2612 23.1865 15.0223 23.5012 14.8351 23.8474C14.7511 23.9985 14.764 24.0866 14.9642 24.0803C16.1458 24.0551 17.3275 24.1558 18.5026 24.0174C21.9635 24.0111 25.418 24.0174 28.8789 24.0174C29.0727 24.0174 29.2664 24.0048 29.4601 24.0425C29.5505 24.0677 29.6409 24.0929 29.7442 24.0929C31.1518 24.0929 32.5594 24.0929 33.967 24.0929C34.3415 24.0929 34.3609 24.0677 34.1672 23.753C33.9541 23.4131 33.7539 23.0669 33.5409 22.727C33.4117 22.5255 33.2568 22.4374 33.0179 22.4437C32.469 22.4563 31.9202 22.45 31.3713 22.4437C31.2228 22.4437 31.0679 22.4563 30.9258 22.3871C30.7515 22.2108 30.9581 22.1038 31.0227 21.9905C31.2099 21.6569 31.4617 21.3547 31.7006 21.0526C31.9137 20.7819 32.1397 20.5175 32.2624 20.1902C32.3076 20.058 32.398 19.9195 32.54 20.1336C32.6046 20.3728 32.8048 20.3098 32.9662 20.3098C34.7031 20.3161 36.44 20.3098 38.177 20.3098C38.3448 20.3098 38.5192 20.2972 38.6806 20.3665C39.3005 21.0274 39.9203 21.682 40.5337 22.343C41.1665 23.0228 41.7928 23.7089 42.4256 24.395C42.7485 24.7098 43.0455 25.0497 43.3296 25.4022C43.5685 25.5659 43.7428 25.8176 43.9107 26.0883Z" fill="#E5E6E8"/>
<path d="M19.6779 22.3745C20.0976 21.8016 20.5173 21.2351 20.9306 20.6623C20.9951 20.5742 21.0855 20.4861 21.092 20.3665C21.4923 20.0958 21.699 19.6678 21.9831 19.309C22.661 18.4529 23.2938 17.5527 23.946 16.6778C24.8499 15.4692 25.7539 14.2543 26.6579 13.0458C27.097 12.4604 27.549 11.875 27.9945 11.2959C28.214 11.0378 28.214 11.0378 28.5885 11.2896C28.9953 11.5791 29.3956 11.8624 29.8024 12.1519C31.2359 13.178 32.6693 14.204 34.1028 15.2237C34.4773 15.4944 34.8582 15.7588 35.2392 16.0231C35.3942 16.1302 35.4458 16.1931 35.2908 16.3819C34.7743 17.0177 34.3029 17.6849 33.8122 18.3459C33.6508 18.5473 33.4894 18.7487 33.3538 18.969C33.2698 19.1138 33.1278 19.2271 33.0567 19.3845C32.8372 19.5922 32.7533 19.9132 32.4562 20.0517C32.2367 20.1273 32.34 20.3602 32.2238 20.4986C31.9397 20.826 31.6943 21.1848 31.4231 21.5247C31.2165 21.7828 31.1003 22.0975 30.842 22.3178C30.8872 22.4122 30.8355 22.4815 30.7839 22.5444C30.4352 23.0354 30.0736 23.5138 29.7056 23.9859C29.6475 24.0614 29.5829 24.1307 29.4731 24.137C26.0509 24.137 22.6223 24.137 19.2001 24.1307C18.9418 24.1307 18.6642 24.244 18.4253 24.0488C18.3672 23.9481 18.4317 23.8663 18.4834 23.7908C18.7804 23.3501 19.1291 22.941 19.439 22.5129C19.4971 22.4374 19.5682 22.3745 19.6779 22.3745Z" fill="white"/>
<path d="M6.38306 30.0476C10.1927 30.0476 13.9958 30.0476 17.8054 30.0476C25.9799 30.0476 34.148 30.0476 42.3225 30.0476C42.4322 30.0476 42.5355 30.0602 42.6453 30.0602C42.6389 30.5575 42.6389 31.0611 42.6324 31.5584C42.4516 31.6465 42.2773 31.5584 42.0965 31.5584C30.3642 31.5647 18.6319 31.5647 6.89962 31.5647C6.73173 31.5647 6.5574 31.5646 6.38952 31.5709C6.27329 31.2499 6.35723 30.9163 6.34432 30.589C6.3314 30.4064 6.22164 30.2176 6.38306 30.0476Z" fill="#565759"/>
<path d="M28.5821 11.2833C28.3819 11.2203 28.1817 11.0441 27.988 11.2896C28.1365 10.9056 28.2528 10.9056 28.5821 11.2833Z" fill="#F8E8A6"/>
<path d="M24.5141 44.2736C20.4398 44.2736 16.359 44.2736 12.2846 44.2736C11.7875 44.2736 11.7875 44.2736 11.7875 43.7889C11.7875 41.0192 11.7939 38.2496 11.781 35.4862C11.781 35.1904 11.8649 35.0834 12.1813 35.0834C20.3881 35.0897 28.5949 35.0897 36.8017 35.0897C37.2279 35.0897 37.2279 35.096 37.2279 35.5114C37.2279 38.2685 37.2279 41.0255 37.2279 43.7826C37.2279 44.2736 37.2279 44.2736 36.7371 44.2736C32.6628 44.2736 28.5885 44.2736 24.5141 44.2736Z" fill="#BCBDBF"/>
<path d="M20.2823 41.9143C18.9738 41.9143 18.1631 41.0319 18.1631 39.5968C18.1631 38.1647 18.9707 37.2822 20.2823 37.2822C21.3529 37.2822 22.1731 37.9754 22.2419 38.9342H21.3216C21.2308 38.4273 20.8208 38.0944 20.2823 38.0944C19.5717 38.0944 19.1304 38.6685 19.1304 39.5968C19.1304 40.525 19.5717 41.1021 20.2855 41.1021C20.827 41.1021 21.234 40.7907 21.3247 40.3052H22.2451C22.1668 41.2578 21.3717 41.9143 20.2823 41.9143Z" fill="#221E1F"/>
<path d="M23.0558 41.8014V37.1479H23.9511V38.9861H24.0075C24.1671 38.6013 24.5427 38.3693 25.0499 38.3693C25.7918 38.3693 26.2331 38.8242 26.2331 39.6334V41.8014H25.3222V39.8441C25.3222 39.3769 25.0999 39.1357 24.6867 39.1357C24.2297 39.1357 23.9668 39.4319 23.9668 39.8685V41.8014H23.0558Z" fill="#221E1F"/>
<path d="M27.1253 41.8014V38.4334H28.0362V41.8014H27.1253ZM27.5823 37.9296C27.3006 37.9296 27.0658 37.7036 27.0658 37.4196C27.0658 37.1357 27.3006 36.9128 27.5823 36.9128C27.8672 36.9128 28.0988 37.1357 28.0988 37.4196C28.0988 37.7036 27.8672 37.9296 27.5823 37.9296Z" fill="#221E1F"/>
<path d="M29.2195 37.6334H30.1304V38.467H30.8473V39.1662H30.1304V40.6807C30.1304 40.9739 30.2682 41.1082 30.5781 41.1082C30.697 41.1082 30.7596 41.1052 30.8473 41.096V41.7739C30.7346 41.7953 30.5655 41.8136 30.3902 41.8136C29.5513 41.8136 29.2195 41.5479 29.2195 40.8914V39.1662H28.6811V38.467H29.2195V37.6334Z" fill="#221E1F"/>
<path d="M19.678 22.3744C19.2647 22.9347 18.845 23.4949 18.4318 24.0488C18.3414 24.1432 18.2381 24.1873 18.096 24.1873C16.979 24.181 15.8619 24.181 14.7384 24.1873C14.5447 24.1873 14.4479 24.181 14.5899 23.9607C14.9063 23.476 15.2033 22.9724 15.5068 22.4815C15.5649 22.3933 15.6101 22.3052 15.7457 22.3052C17.0242 22.3115 18.3027 22.3052 19.5876 22.3052C19.6263 22.3052 19.6586 22.3304 19.678 22.3744Z" fill="#171D2D"/>
<path d="M29.4731 24.1307C29.9251 23.5201 30.3836 22.9158 30.8356 22.3052C31.6104 22.3052 32.3788 22.3115 33.1536 22.2989C33.3344 22.2989 33.4442 22.3493 33.5346 22.5066C33.851 23.048 34.1932 23.583 34.516 24.1118C34.4579 24.2125 34.374 24.1747 34.3094 24.1747C32.7726 24.1747 31.2424 24.1747 29.7056 24.1747C29.6281 24.181 29.5377 24.2188 29.4731 24.1307Z" fill="#171D2D"/>
</g>
<defs>
<clipPath id="clip0_4129_367">
<rect width="39" height="37" fill="white" transform="translate(5.00122 11)"/>
</clipPath>
</defs>
</svg>
