<svg width="33" height="32" viewBox="0 0 33 32" fill="none" xmlns="http://www.w3.org/2000/svg">
<path d="M5.70135 23.8187L10.916 18.604L14.688 22.3747L20.7827 16.28L23.1734 18.6707V12.004H16.5067L18.8974 14.3947L14.688 18.604L10.916 14.832L4.32268 21.4267C3.56259 19.72 3.17096 17.8722 3.17335 16.004C3.17335 8.63999 9.14268 2.67065 16.5067 2.67065C23.8707 2.67065 29.84 8.63999 29.84 16.004C29.84 23.368 23.8707 29.3373 16.5067 29.3373C14.3971 29.3389 12.3174 28.8393 10.4388 27.8796C8.56014 26.9199 6.93642 25.5289 5.70135 23.8187Z" fill="#3F3F3F"/>
<path fill-rule="evenodd" clip-rule="evenodd" d="M29.8379 16.2443C29.8394 16.163 29.8401 16.0816 29.8401 16C29.8401 8.63247 23.8675 2.65991 16.5 2.65991C9.13247 2.65991 3.15991 8.63247 3.15991 16C3.15991 23.3675 9.13247 29.3401 16.5 29.3401C23.7859 29.3401 29.7076 23.4991 29.8379 16.2443ZM10.916 18.604L5.70135 23.8187C6.93642 25.5289 8.56014 26.9199 10.4388 27.8796C12.3174 28.8393 14.3971 29.3389 16.5067 29.3373C23.7904 29.3373 29.7097 23.4974 29.8379 16.2443C29.8393 16.1643 29.84 16.0842 29.84 16.004C29.84 8.63999 23.8707 2.67065 16.5067 2.67065C9.14268 2.67065 3.17335 8.63999 3.17335 16.004C3.17096 17.8722 3.56259 19.72 4.32268 21.4267L10.916 14.832L14.688 18.604L18.8974 14.3947L16.5067 12.004H23.1734V18.6707L20.7827 16.28L14.688 22.3747L10.916 18.604Z" fill="white"/>
</svg>
