<svg width="24" height="24" viewBox="0 0 24 24" fill="none" xmlns="http://www.w3.org/2000/svg">
<g id="Close">
<path id="Vector" d="M11.9987 13.125L8.06384 17.0599C7.91662 17.2071 7.72924 17.2807 7.50172 17.2807C7.27419 17.2807 7.08681 17.2071 6.93959 17.0599C6.79236 16.9126 6.71875 16.7253 6.71875 16.4977C6.71875 16.2702 6.79236 16.0828 6.93959 15.9356L10.8745 12.0007L6.93959 8.0658C6.79236 7.91857 6.71875 7.7312 6.71875 7.50367C6.71875 7.27614 6.79236 7.08876 6.93959 6.94154C7.08681 6.79431 7.27419 6.7207 7.50172 6.7207C7.72924 6.7207 7.91662 6.79431 8.06384 6.94154L11.9987 10.8764L15.9337 6.94154C16.0809 6.79431 16.2683 6.7207 16.4958 6.7207C16.7233 6.7207 16.9107 6.79431 17.0579 6.94154C17.2051 7.08876 17.2788 7.27614 17.2788 7.50367C17.2788 7.7312 17.2051 7.91857 17.0579 8.0658L13.123 12.0007L17.0579 15.9356C17.2051 16.0828 17.2788 16.2702 17.2788 16.4977C17.2788 16.7253 17.2051 16.9126 17.0579 17.0599C16.9107 17.2071 16.7233 17.2807 16.4958 17.2807C16.2683 17.2807 16.0809 17.2071 15.9337 17.0599L11.9987 13.125Z" fill="#3F3F3F"/>
</g>
</svg>
