<svg width="20" height="20" viewBox="0 0 20 20" fill="none" xmlns="http://www.w3.org/2000/svg">
<path d="M9.99888 10.9375L6.71979 14.2166C6.5971 14.3392 6.44096 14.4006 6.25135 14.4006C6.06174 14.4006 5.90559 14.3392 5.78291 14.2166C5.66022 14.0939 5.59888 13.9377 5.59888 13.7481C5.59888 13.5585 5.66022 13.4024 5.78291 13.2797L9.06199 10.0006L5.78291 6.7215C5.66022 6.59881 5.59888 6.44266 5.59888 6.25306C5.59888 6.06345 5.66022 5.9073 5.78291 5.78462C5.90559 5.66193 6.06174 5.60059 6.25135 5.60059C6.44096 5.60059 6.5971 5.66193 6.71979 5.78462L9.99888 9.0637L13.278 5.78462C13.4007 5.66193 13.5568 5.60059 13.7464 5.60059C13.936 5.60059 14.0922 5.66193 14.2148 5.78462C14.3375 5.9073 14.3989 6.06345 14.3989 6.25306C14.3989 6.44266 14.3375 6.59881 14.2148 6.7215L10.9358 10.0006L14.2148 13.2797C14.3375 13.4024 14.3989 13.5585 14.3989 13.7481C14.3989 13.9377 14.3375 14.0939 14.2148 14.2166C14.0922 14.3392 13.936 14.4006 13.7464 14.4006C13.5568 14.4006 13.4007 14.3392 13.278 14.2166L9.99888 10.9375Z" fill="#3F3F3F"/>
</svg>
