<svg width="20" height="20" viewBox="0 0 20 20" fill="none" xmlns="http://www.w3.org/2000/svg">
<path d="M10 0C4.42857 0 0 4.42857 0 10C0 15.5714 4.42857 20 10 20C15.5714 20 20 15.5714 20 10C20 4.42857 15.5714 0 10 0Z" fill="#FB4646"/>
<path d="M9.99991 10.773L12.2212 12.9944C12.4346 13.2077 12.7805 13.2077 12.9939 12.9944C13.2072 12.781 13.2072 12.4351 12.9939 12.2217L10.7725 10.0004L12.9939 7.77907C13.2072 7.56571 13.2072 7.21979 12.9939 7.00644C12.7805 6.79308 12.4346 6.79308 12.2212 7.00644L9.99991 9.22776L7.77858 7.00644C7.56523 6.79308 7.2193 6.79308 7.00595 7.00644C6.79259 7.21979 6.79259 7.56571 7.00595 7.77907L9.22727 10.0004L7.00595 12.2217C6.79259 12.4351 6.79259 12.781 7.00595 12.9944C7.2193 13.2077 7.56523 13.2077 7.77858 12.9944L9.99991 10.773Z" fill="white"/>
</svg>
