<svg width="24" height="24" viewBox="0 0 24 24" fill="none" xmlns="http://www.w3.org/2000/svg">
<g clip-path="url(#clip0_7558_12759)">
<path d="M13.1303 1.12012C13.0616 1.17169 13.01 2.2545 13.01 3.52637V5.81231H12.5975C11.9444 5.81231 11.9272 6.03575 12.5459 7.067C12.8381 7.59981 13.3538 8.45919 13.6631 8.992C14.0413 9.62794 14.3163 9.93731 14.5053 9.90294C14.8319 9.83419 16.9631 6.55137 16.9631 6.1045C16.9631 5.89825 16.8256 5.81231 16.4475 5.81231H15.9319V3.40606V0.999812H14.5913C13.8522 0.999812 13.1819 1.05137 13.1303 1.12012Z" fill="#FFBE2E"/>
<path d="M19.4553 1.80757C19.1975 2.27163 18.7163 3.04507 18.3897 3.54351C17.7022 4.59194 17.7022 5.02163 18.3897 5.09038L18.8538 5.14194V7.54819V9.93726H20.2288H21.6038V7.54819V5.14194L22.0678 5.09038C22.3428 5.05601 22.5663 4.91851 22.6006 4.76382C22.6866 4.33413 20.5725 0.999756 20.2116 0.999756C20.0397 0.999756 19.7303 1.32632 19.4553 1.80757Z" fill="#FFBE2E"/>
<path d="M5.34438 3.11389C5.27563 3.33733 5.72251 5.38264 6.1522 6.77483L6.32407 7.32483L7.18345 6.99827C8.26626 6.58577 9.28032 6.58577 10.2428 7.01545C10.6553 7.20452 11.0334 7.32483 11.0678 7.29045C11.2397 7.11858 12.1506 3.19983 12.0647 3.06233C11.9959 2.9592 10.5694 2.89045 8.69595 2.89045C6.11782 2.89045 5.41313 2.94202 5.34438 3.11389Z" fill="#FFBE2E"/>
<path d="M6.85688 7.5654C4.76001 8.57946 2.66313 11.4498 1.49438 14.9216C1.01313 16.3482 0.84126 19.0466 1.16782 20.1982C1.46001 21.2466 2.68032 22.5529 3.64282 22.8107C4.53657 23.0513 13.3538 23.0685 13.3538 22.8279C13.3538 22.7248 13.2506 22.656 13.1131 22.656C12.6834 22.656 11.4803 21.3326 11.3772 20.731C11.3256 20.4216 11.2913 18.4107 11.3256 16.2623L11.3772 12.3607L11.9788 11.742C12.3053 11.3982 12.8381 10.9685 13.1647 10.8138L13.7491 10.5045L12.4772 9.21539C11.7725 8.51071 10.8444 7.77164 10.4147 7.5654C9.38345 7.06696 7.87095 7.06696 6.85688 7.5654ZM8.88501 11.1232C8.88501 11.5357 8.97095 11.6388 9.40063 11.7076C10.1913 11.8795 11.0678 13.5466 10.3459 13.5466C10.1913 13.5466 10.0881 13.392 10.0881 13.1341C10.0881 12.5841 9.33188 11.9998 8.64438 11.9998C7.8022 12.017 7.30376 12.4982 7.26938 13.3404C7.2522 14.1998 7.6647 14.6982 8.52407 14.8357C8.86782 14.9045 9.3147 15.0076 9.53813 15.0935C10.0022 15.2998 10.6038 16.2451 10.6038 16.7951C10.6038 17.3795 9.91626 18.3248 9.36626 18.5138C9.00532 18.6341 8.88501 18.806 8.88501 19.1154C8.88501 19.3904 8.78188 19.5623 8.6272 19.5623C8.47251 19.5623 8.36938 19.4076 8.36938 19.1326C8.36938 18.8404 8.2147 18.6341 7.87095 18.4451C7.20063 18.1185 6.82251 17.5513 6.82251 16.9326C6.82251 16.5029 6.85688 16.4513 7.08032 16.6404C7.21782 16.7607 7.33813 16.967 7.33813 17.1216C7.33813 17.2763 7.51001 17.5685 7.71626 17.792C8.54126 18.6685 10.0881 17.9982 10.0881 16.7607C10.0881 16.0904 9.57251 15.5232 8.79907 15.3513C7.33813 15.0248 6.82251 14.492 6.82251 13.2888C6.82251 12.8248 6.96001 12.5326 7.32095 12.1545C7.59595 11.8795 7.95688 11.656 8.09438 11.656C8.26626 11.656 8.36938 11.5013 8.36938 11.2607C8.36938 11.0373 8.42095 10.7966 8.4897 10.7451C8.73032 10.5045 8.88501 10.642 8.88501 11.1232Z" fill="#FFBE2E"/>
<path d="M14.9006 10.6763C12.1334 11.3294 11.0162 12.9794 12.3397 14.4747C13.2334 15.4888 14.4365 15.8497 16.9631 15.8497C18.785 15.8497 19.249 15.7982 20.0912 15.4716C21.3975 14.956 22.1194 14.131 22.1194 13.1685C22.1194 12.5669 22.0162 12.3607 21.4662 11.845C21.0881 11.4841 20.4178 11.0888 19.8678 10.8997C18.6647 10.5044 16.1209 10.4013 14.9006 10.6763Z" fill="#FFBE2E"/>
<path d="M11.8069 15.5747C11.8069 16.331 11.8413 16.3997 12.4944 16.7607C14.5569 17.9466 19.1631 17.9638 21.4319 16.8122C22.1022 16.4685 22.1194 16.4341 22.1194 15.6091C22.1194 14.681 21.9991 14.5607 21.535 15.0763C21.1053 15.5575 19.7991 16.0732 18.4413 16.3138C16.4303 16.6575 14.1616 16.2622 12.6319 15.2825L11.8069 14.7497V15.5747Z" fill="#FFBE2E"/>
<path d="M11.8069 17.8091C11.8069 18.9951 12.3053 19.3388 14.5913 19.8201C16.8084 20.3013 19.6616 20.0263 21.3631 19.2013C22.1194 18.8404 22.1194 18.8404 22.1194 17.9295V17.0013L21.2256 17.4138C18.9397 18.4451 14.5913 18.3935 12.46 17.3107L11.8069 16.9841V17.8091Z" fill="#FFBE2E"/>
<path d="M11.8069 20.2326C11.8069 20.9201 11.8928 21.1263 12.3741 21.5904C12.6663 21.8826 13.3194 22.2951 13.7834 22.5185C14.5397 22.8623 14.9006 22.9138 16.9631 22.9138C19.0256 22.9138 19.3866 22.8623 20.1428 22.5185C21.6209 21.831 22.3084 20.9544 22.1709 19.9404C22.1194 19.631 22.0334 19.4076 21.9647 19.4419C21.1741 19.8716 20.2116 20.1638 18.8709 20.3873C16.86 20.731 14.4881 20.5076 12.8725 19.8544L11.8069 19.4248V20.2326Z" fill="#FFBE2E"/>
</g>
<defs>
<clipPath id="clip0_7558_12759">
<rect width="22" height="22" fill="white" transform="translate(1 1)"/>
</clipPath>
</defs>
</svg>
