<svg width="24" height="24" viewBox="0 0 25 24" fill="none" xmlns="http://www.w3.org/2000/svg">
<path d="M16.9875 13.0289L12.3469 11.6711C11.8098 11.5164 11.4359 11.0137 11.4359 10.4551C11.4359 9.75469 12.0031 9.1875 12.7035 9.1875H15.5523C16.0766 9.1875 16.5922 9.34648 17.0219 9.63867C17.284 9.81484 17.6363 9.77187 17.8598 9.55273L19.3551 8.0918C19.6602 7.79531 19.6172 7.30117 19.2777 7.03906C18.225 6.21406 16.9102 5.7543 15.5609 5.75V3.6875C15.5609 3.30937 15.2516 3 14.8734 3H13.4984C13.1203 3 12.8109 3.30937 12.8109 3.6875V5.75H12.7035C9.9664 5.75 7.7664 8.10039 8.01992 10.8891C8.20039 12.8699 9.71289 14.4813 11.6207 15.0398L16.025 16.3289C16.5621 16.4879 16.9359 16.9863 16.9359 17.5449C16.9359 18.2453 16.3687 18.8125 15.6684 18.8125H12.8195C12.2953 18.8125 11.7797 18.6535 11.35 18.3613C11.0879 18.1852 10.7355 18.2281 10.5121 18.4473L9.01679 19.9082C8.71172 20.2047 8.75468 20.6988 9.09414 20.9609C10.1469 21.7859 11.4617 22.2457 12.8109 22.25V24.3125C12.8109 24.6906 13.1203 25 13.4984 25H14.8734C15.2516 25 15.5609 24.6906 15.5609 24.3125V22.2414C17.5633 22.2027 19.441 21.0125 20.1027 19.1176C21.0266 16.4707 19.4754 13.7551 16.9875 13.0289Z" fill="#FF8001"/>
</svg>
