<svg width="25" height="24" viewBox="0 0 25 24" fill="none" xmlns="http://www.w3.org/2000/svg">
<path d="M14.9875 11.0289L10.3469 9.67109C9.80976 9.51641 9.43593 9.01367 9.43593 8.45508C9.43593 7.75469 10.0031 7.1875 10.7035 7.1875H13.5523C14.0766 7.1875 14.5922 7.34648 15.0219 7.63867C15.284 7.81484 15.6363 7.77187 15.8598 7.55273L17.3551 6.0918C17.6602 5.79531 17.6172 5.30117 17.2777 5.03906C16.225 4.21406 14.9102 3.7543 13.5609 3.75V1.6875C13.5609 1.30937 13.2516 1 12.8734 1H11.4984C11.1203 1 10.8109 1.30937 10.8109 1.6875V3.75H10.7035C7.9664 3.75 5.7664 6.10039 6.01992 8.88906C6.20039 10.8699 7.71289 12.4813 9.6207 13.0398L14.025 14.3289C14.5621 14.4879 14.9359 14.9863 14.9359 15.5449C14.9359 16.2453 14.3687 16.8125 13.6684 16.8125H10.8195C10.2953 16.8125 9.77968 16.6535 9.35 16.3613C9.08789 16.1852 8.73554 16.2281 8.51211 16.4473L7.01679 17.9082C6.71172 18.2047 6.75468 18.6988 7.09414 18.9609C8.14687 19.7859 9.46172 20.2457 10.8109 20.25V22.3125C10.8109 22.6906 11.1203 23 11.4984 23H12.8734C13.2516 23 13.5609 22.6906 13.5609 22.3125V20.2414C15.5633 20.2027 17.441 19.0125 18.1027 17.1176C19.0266 14.4707 17.4754 11.7551 14.9875 11.0289Z" fill="#FFBE2E"/>
</svg>
