<svg width="17" height="14" viewBox="0 0 17 14" fill="none" xmlns="http://www.w3.org/2000/svg">
<path d="M15.3 0H1.7C0.765 0 0.00849999 0.7875 0.00849999 1.75L0 12.25C0 13.2125 0.765 14 1.7 14H15.3C16.235 14 17 13.2125 17 12.25V1.75C17 0.7875 16.235 0 15.3 0ZM14.96 3.71875L8.9505 7.58625C8.6785 7.76125 8.3215 7.76125 8.0495 7.58625L2.04 3.71875C1.95477 3.6695 1.88013 3.60295 1.82061 3.52315C1.76108 3.44334 1.7179 3.35193 1.69369 3.25445C1.66948 3.15697 1.66473 3.05544 1.67973 2.95602C1.69474 2.85659 1.72919 2.76134 1.78099 2.67601C1.83279 2.59069 1.90088 2.51707 1.98112 2.45962C2.06136 2.40217 2.15209 2.36207 2.24782 2.34176C2.34355 2.32145 2.44229 2.32135 2.53806 2.34145C2.63383 2.36156 2.72464 2.40147 2.805 2.45875L8.5 6.125L14.195 2.45875C14.2754 2.40147 14.3662 2.36156 14.4619 2.34145C14.5577 2.32135 14.6564 2.32145 14.7522 2.34176C14.8479 2.36207 14.9386 2.40217 15.0189 2.45962C15.0991 2.51707 15.1672 2.59069 15.219 2.67601C15.2708 2.76134 15.3053 2.85659 15.3203 2.95602C15.3353 3.05544 15.3305 3.15697 15.3063 3.25445C15.2821 3.35193 15.2389 3.44334 15.1794 3.52315C15.1199 3.60295 15.0452 3.6695 14.96 3.71875Z" fill="currentColor"/>
</svg>
