<svg width="87" height="86" viewBox="0 0 87 86" fill="none" xmlns="http://www.w3.org/2000/svg">
<g id="iconoir:face-id">
<path id="Vector" d="M25.5833 10.75H18.4167C16.5159 10.75 14.6931 11.5051 13.3491 12.8491C12.0051 14.1931 11.25 16.0159 11.25 17.9167V25.0833M61.4167 10.75H68.5833C70.4841 10.75 72.3069 11.5051 73.6509 12.8491C74.9949 14.1931 75.75 16.0159 75.75 17.9167V25.0833M57.8333 28.6667V35.8333M29.1667 28.6667V35.8333M32.75 57.3333C32.75 57.3333 36.3333 60.9167 43.5 60.9167C50.6667 60.9167 54.25 57.3333 54.25 57.3333M43.5 28.6667V46.5833H39.9167M25.5833 75.25H18.4167C16.5159 75.25 14.6931 74.4949 13.3491 73.1509C12.0051 71.8069 11.25 69.9841 11.25 68.0833V60.9167M61.4167 75.25H68.5833C70.4841 75.25 72.3069 74.4949 73.6509 73.1509C74.9949 71.8069 75.75 69.9841 75.75 68.0833V60.9167" stroke="black" stroke-width="2" stroke-linecap="round" stroke-linejoin="round"/>
</g>
</svg>
