<svg width="20" height="20" viewBox="0 0 20 20" fill="none" xmlns="http://www.w3.org/2000/svg">
<path d="M5.3217 0.019021C4.71871 0.0933557 4.03741 0.202901 3.79465 0.269412C2.38116 0.637172 1.01856 1.85391 0.450815 3.24671C0.270702 3.68489 0.196308 3.98614 0.0905891 4.70601C-0.0268759 5.49631 -0.0268759 5.73496 0.102336 5.93058C0.399914 6.3805 1.03814 6.38832 1.32789 5.94232C1.40228 5.83277 1.43752 5.68801 1.48451 5.31243C1.63721 4.15046 1.75076 3.77096 2.13056 3.20367C2.38116 2.832 2.8471 2.36252 3.19558 2.13169C3.72417 1.78349 4.15879 1.64656 5.13767 1.51745C5.47049 1.47441 5.8033 1.41182 5.8777 1.37269C6.04998 1.29053 6.22618 1.05188 6.26142 0.856264C6.32015 0.511977 6.07739 0.124654 5.7524 0.0346704C5.59578 -0.00836515 5.54488 -0.00836515 5.3217 0.019021Z" fill="currentColor"/>
<path d="M14.2733 0.0309682C13.7643 0.152251 13.5607 0.797789 13.9053 1.20858C14.0658 1.39638 14.1833 1.43159 14.9625 1.53722C16.1723 1.70154 16.6814 1.93237 17.3822 2.63268C18.0831 3.33299 18.3141 3.8416 18.4786 5.05051C18.5334 5.45739 18.6039 5.83689 18.6352 5.89558C18.8662 6.34941 19.5397 6.4081 19.8451 6.00904C20.0174 5.77821 20.0291 5.63345 19.9469 4.99574C19.9038 4.67884 19.8412 4.27587 19.8059 4.09981C19.5358 2.66398 18.4512 1.29466 17.0298 0.586522C16.56 0.351781 16.1214 0.230498 15.3853 0.124865C14.4965 -0.000330448 14.426 -0.0042429 14.2733 0.0309682Z" fill="currentColor"/>
<path d="M9.64658 4.167C8.65205 4.29611 7.83762 4.85949 7.41475 5.72412C7.19156 6.17013 7.125 6.46355 7.125 6.97607C7.125 7.48859 7.19156 7.78201 7.41475 8.22802C7.77889 8.96745 8.35055 9.44085 9.17672 9.69906C9.59568 9.83208 10.2848 9.83208 10.7038 9.69906C11.6983 9.3939 12.3913 8.68968 12.6654 7.71942C12.779 7.32036 12.7868 6.67091 12.685 6.29141C12.4109 5.27811 11.5887 4.46434 10.6255 4.24134C10.3396 4.17483 9.8541 4.13962 9.64658 4.167Z" fill="currentColor"/>
<path d="M7.82928 10.5591C7.37117 10.5747 6.8974 10.606 6.7721 10.6295C6.05948 10.7586 5.47998 11.3337 5.34686 12.038C5.28812 12.3588 5.29987 13.732 5.36252 14.0411C5.53089 14.8275 6.16911 15.4534 6.97962 15.6217C7.38292 15.7038 8.25607 15.7899 9.20362 15.8368C10.39 15.8955 12.1912 15.7938 13.0408 15.6178C13.7652 15.4691 14.3212 14.98 14.5835 14.2563C14.6814 13.9863 14.6853 13.9511 14.6853 13.0395C14.6853 12.2375 14.6736 12.0653 14.6148 11.8658C14.4191 11.2437 13.9492 10.7977 13.3266 10.653C12.8059 10.5317 9.90058 10.4808 7.82928 10.5591Z" fill="currentColor"/>
<path d="M0.467622 13.7842C0.271847 13.8546 0.0760724 14.062 0.0212554 14.2615C-0.0257306 14.4219 0.00167789 14.7427 0.13872 15.5917C0.314918 16.7302 0.7652 17.6026 1.58354 18.4203C2.21394 19.0541 2.98137 19.5158 3.75664 19.727C4.16777 19.8405 5.13098 19.9892 5.49904 19.997C5.8671 20.0009 6.09028 19.864 6.22341 19.5471C6.34087 19.2615 6.25473 18.925 6.01197 18.7216C5.85926 18.5925 5.76138 18.569 4.95087 18.4633C3.85453 18.3147 3.31419 18.0682 2.64072 17.4031C1.89678 16.6676 1.61878 16.0142 1.48565 14.6645C1.43475 14.148 1.3212 13.9368 1.01579 13.7998C0.827848 13.7138 0.679059 13.7098 0.467622 13.7842Z" fill="currentColor"/>
<path d="M19.0829 13.7675C18.9027 13.8223 18.707 13.9748 18.6287 14.1196C18.5973 14.1861 18.5425 14.4443 18.5112 14.6947C18.4172 15.4576 18.3428 15.8254 18.2175 16.1579C17.916 16.9365 17.1917 17.719 16.3929 18.118C16.0836 18.2745 15.5981 18.3997 15.0107 18.474C14.3177 18.564 14.1572 18.6032 14.0005 18.7166C13.6638 18.9748 13.6364 19.4834 13.9496 19.7925C14.1846 20.0312 14.3099 20.0429 15.1595 19.9294C15.5628 19.8747 16.0288 19.7925 16.1971 19.7495C17.7555 19.3387 19.1925 17.9576 19.6858 16.3927C19.866 15.8254 20.0422 14.5304 19.9756 14.2839C19.8699 13.8927 19.4627 13.6579 19.0829 13.7675Z" fill="currentColor"/>
</svg>
