<svg width="180" height="180" viewBox="0 0 180 180" fill="none" xmlns="http://www.w3.org/2000/svg">
<circle cx="90" cy="90" r="48" fill="#FF8001"/>
<g clip-path="url(#clip0_6228_13474)">
<path d="M83.3333 78H80.6667C79.9594 78 79.2811 78.281 78.781 78.781C78.281 79.2811 78 79.9594 78 80.6667V83.3333M96.6667 78H99.3333C100.041 78 100.719 78.281 101.219 78.781C101.719 79.2811 102 79.9594 102 80.6667V83.3333M95.3333 84.6667V87.3333M84.6667 84.6667V87.3333M86 95.3333C86 95.3333 87.3333 96.6667 90 96.6667C92.6667 96.6667 94 95.3333 94 95.3333M90 84.6667V91.3333H88.6667M83.3333 102H80.6667C79.9594 102 79.2811 101.719 78.781 101.219C78.281 100.719 78 100.041 78 99.3333V96.6667M96.6667 102H99.3333C100.041 102 100.719 101.719 101.219 101.219C101.719 100.719 102 100.041 102 99.3333V96.6667" stroke="white" stroke-width="2" stroke-linecap="round" stroke-linejoin="round"/>
</g>
<circle opacity="0.4" cx="90" cy="90" r="67.5" stroke="#FF8001"/>
<circle opacity="0.2" cx="90" cy="90" r="89.5" stroke="#FF8001"/>
<defs>
<clipPath id="clip0_6228_13474">
<rect width="32" height="32" fill="white" transform="translate(74 74)"/>
</clipPath>
</defs>
</svg>
