<svg width="36" height="36" viewBox="0 0 37 36" fill="none" xmlns="http://www.w3.org/2000/svg">
<rect x="0.608154" width="35.9961" height="36" rx="17.998" fill="white"/>
<path d="M25.0259 13.915H17.5259M20.0259 22.2484H12.5259" stroke="#3F3F3F" stroke-width="2" stroke-linecap="round" stroke-linejoin="round"/>
<path d="M22.5259 24.7483C23.9066 24.7483 25.0259 23.629 25.0259 22.2483C25.0259 20.8676 23.9066 19.7483 22.5259 19.7483C21.1452 19.7483 20.0259 20.8676 20.0259 22.2483C20.0259 23.629 21.1452 24.7483 22.5259 24.7483Z" fill="#3F3F3F" stroke="#3F3F3F" stroke-width="2" stroke-linecap="round" stroke-linejoin="round"/>
<path d="M14.1926 16.415C15.5733 16.415 16.6926 15.2958 16.6926 13.915C16.6926 12.5343 15.5733 11.415 14.1926 11.415C12.8119 11.415 11.6926 12.5343 11.6926 13.915C11.6926 15.2958 12.8119 16.415 14.1926 16.415Z" fill="#3F3F3F" stroke="#3F3F3F" stroke-width="2" stroke-linecap="round" stroke-linejoin="round"/>
</svg>
