<svg width="36" height="36" viewBox="0 0 37 36" fill="none" xmlns="http://www.w3.org/2000/svg">
<rect x="0.609375" width="35.9961" height="36" rx="17.998" fill="#FF8001"/>
<path d="M25.0273 13.9151H17.5273M20.0273 22.2484H12.5273" stroke="white" stroke-width="2" stroke-linecap="round" stroke-linejoin="round"/>
<path d="M22.5273 24.7484C23.9081 24.7484 25.0273 23.6292 25.0273 22.2484C25.0273 20.8677 23.9081 19.7484 22.5273 19.7484C21.1466 19.7484 20.0273 20.8677 20.0273 22.2484C20.0273 23.6292 21.1466 24.7484 22.5273 24.7484Z" fill="white" stroke="white" stroke-width="2" stroke-linecap="round" stroke-linejoin="round"/>
<path d="M14.1938 16.4151C15.5746 16.4151 16.6938 15.2958 16.6938 13.9151C16.6938 12.5344 15.5746 11.4151 14.1938 11.4151C12.8131 11.4151 11.6938 12.5344 11.6938 13.9151C11.6938 15.2958 12.8131 16.4151 14.1938 16.4151Z" fill="white" stroke="white" stroke-width="2" stroke-linecap="round" stroke-linejoin="round"/>
</svg>
