<svg width="180" height="180" viewBox="0 0 180 180" fill="none" xmlns="http://www.w3.org/2000/svg">
<g id="Group 1000002357">
<circle id="Ellipse 2339" cx="90" cy="90" r="48" fill="#FF8001"/>
<path id="Vector" d="M95.0124 77.936C93.2625 76.7726 91.232 76.1077 89.1365 76.012C87.041 75.9163 84.9589 76.3934 83.1115 77.3926C81.264 78.3917 79.7202 79.8756 78.6441 81.6865C77.568 83.4975 76.9999 85.5678 77 87.6775C77 92.2237 77.8607 96.5658 79.4272 100.551M98.2972 81.2382C99.5549 83.1473 100.224 85.3875 100.22 87.6775C100.216 89.8774 100.833 92.0332 102 93.8942M98.9211 99.4352C96.0154 96.2172 94.4085 92.0244 94.4149 87.6775C94.4149 86.1291 93.8033 84.6441 92.7146 83.5492C91.626 82.4543 90.1495 81.8392 88.6099 81.8392C87.0703 81.8392 85.5938 82.4543 84.5052 83.5492C83.4165 84.6441 82.805 86.1291 82.805 87.6775C82.805 88.498 82.8375 89.3107 82.904 90.1141M88.6099 87.6775C88.6013 93.2452 90.5786 98.6312 94.1827 102.857M83.9149 95.7018C84.7531 98.6549 86.0515 101.456 87.7616 104" stroke="white" stroke-width="2" stroke-linecap="round" stroke-linejoin="round"/>
<circle id="Ellipse 2340" opacity="0.4" cx="90" cy="90" r="67.5" stroke="#FF8001"/>
<circle id="Ellipse 2341" opacity="0.2" cx="90" cy="90" r="89.5" stroke="#FF8001"/>
</g>
</svg>
