<svg width="20" height="21" viewBox="0 0 20 21" fill="none" xmlns="http://www.w3.org/2000/svg">
<path d="M18.3333 10.5003C18.3333 12.7105 17.4553 14.8301 15.8925 16.3929C14.3297 17.9557 12.2101 18.8337 9.99999 18.8337C7.78985 18.8337 5.67024 17.9557 4.10743 16.3929C2.54463 14.8301 1.66666 12.7105 1.66666 10.5003C1.66666 8.29019 2.54463 6.17057 4.10743 4.60777C5.67024 3.04497 7.78985 2.16699 9.99999 2.16699C12.2101 2.16699 14.3297 3.04497 15.8925 4.60777C17.4553 6.17057 18.3333 8.29019 18.3333 10.5003ZM9.16666 11.3337V13.8337C9.16666 14.0547 9.25445 14.2666 9.41073 14.4229C9.56701 14.5792 9.77898 14.667 9.99999 14.667C10.221 14.667 10.433 14.5792 10.5892 14.4229C10.7455 14.2666 10.8333 14.0547 10.8333 13.8337V11.3337C10.8333 11.1126 10.7455 10.9007 10.5892 10.7444C10.433 10.5881 10.221 10.5003 9.99999 10.5003C9.77898 10.5003 9.56701 10.5881 9.41073 10.7444C9.25445 10.9007 9.16666 11.1126 9.16666 11.3337ZM9.99999 6.75033C9.66847 6.75033 9.35053 6.88202 9.11611 7.11644C8.88169 7.35086 8.74999 7.6688 8.74999 8.00033C8.74999 8.33185 8.88169 8.64979 9.11611 8.88421C9.35053 9.11863 9.66847 9.25033 9.99999 9.25033C10.3315 9.25033 10.6495 9.11863 10.8839 8.88421C11.1183 8.64979 11.25 8.33185 11.25 8.00033C11.25 7.6688 11.1183 7.35086 10.8839 7.11644C10.6495 6.88202 10.3315 6.75033 9.99999 6.75033Z" fill="#808185"/>
</svg>
