<svg width="21" height="20" viewBox="0 0 21 20" fill="none" xmlns="http://www.w3.org/2000/svg">
<g clip-path="url(#clip0_4035_13113)">
<path d="M6.86899 9.09876H14.0771C14.2102 9.09788 14.3414 9.06753 14.4613 9.00988C14.5813 8.95224 14.687 8.86874 14.7708 8.76538C14.8589 8.66405 14.9232 8.54431 14.9591 8.41492C14.995 8.28553 15.0014 8.14976 14.9781 8.01754L14.0771 3.5125C14.0349 3.30592 13.9217 3.12065 13.7571 2.98894C13.5925 2.85724 13.3868 2.78744 13.1761 2.79169H7.77C7.55921 2.78744 7.35361 2.85724 7.18898 2.98894C7.02434 3.12065 6.91111 3.30592 6.86899 3.5125L5.96798 8.01754C5.94219 8.14843 5.94578 8.28341 5.97851 8.41274C6.01123 8.54206 6.07226 8.66251 6.15719 8.76538C6.24294 8.87111 6.35154 8.95604 6.47482 9.01378C6.5981 9.07152 6.73287 9.10057 6.86899 9.09876ZM19.4831 11.6216C19.441 11.415 19.3278 11.2297 19.1631 11.098C18.9985 10.9663 18.7929 10.8965 18.5821 10.9008H13.1761C12.9653 10.8965 12.7597 10.9663 12.595 11.098C12.4304 11.2297 12.3172 11.415 12.275 11.6216L11.374 16.1266C11.3482 16.2575 11.3518 16.3925 11.3846 16.5218C11.4173 16.6512 11.4783 16.7716 11.5633 16.8745C11.649 16.9802 11.7576 17.0651 11.8809 17.1229C12.0042 17.1806 12.1389 17.2097 12.275 17.2078H19.4831C19.6162 17.207 19.7474 17.1766 19.8674 17.119C19.9874 17.0613 20.0931 16.9778 20.1769 16.8745C20.265 16.7731 20.3293 16.6534 20.3652 16.524C20.401 16.3946 20.4075 16.2589 20.3841 16.1266L19.4831 11.6216ZM7.77 10.9008H2.36394C2.15315 10.8965 1.94755 10.9663 1.78292 11.098C1.61829 11.2297 1.50505 11.415 1.46293 11.6216L0.56192 16.1266C0.53613 16.2575 0.539725 16.3925 0.572446 16.5218C0.605168 16.6512 0.666199 16.7716 0.751132 16.8745C0.836884 16.9802 0.94548 17.0651 1.06876 17.1229C1.19204 17.1806 1.32681 17.2097 1.46293 17.2078H8.67101C8.80409 17.207 8.93533 17.1766 9.05529 17.119C9.17525 17.0613 9.28094 16.9778 9.36479 16.8745C9.45287 16.7731 9.51719 16.6534 9.55304 16.524C9.58889 16.3946 9.59538 16.2589 9.57202 16.1266L8.67101 11.6216C8.62889 11.415 8.51565 11.2297 8.35102 11.098C8.18639 10.9663 7.98079 10.8965 7.77 10.9008Z" fill="white"/>
</g>
<defs>
<clipPath id="clip0_4035_13113">
<rect width="20" height="20" fill="white" transform="translate(0.4729)"/>
</clipPath>
</defs>
</svg>
