<svg width="36" height="36" viewBox="0 0 36 36" fill="none" xmlns="http://www.w3.org/2000/svg">
<g clip-path="url(#clip0_4132_3958)">
<rect width="35.9961" height="36" rx="17.998" fill="#FF8001"/>
<path opacity="0.984581" d="M14.3214 9.66576C12.6955 9.66576 11.353 10.8991 11.353 12.4524V23.5457C11.353 25.099 12.6955 26.3324 14.3214 26.3324H15.5197H21.718C23.3439 26.3324 24.6864 25.099 24.6864 23.5457C24.6864 23.0032 24.6864 17.0474 24.6864 15.4991C24.6864 15.4907 24.6864 15.4816 24.6864 15.4732C24.6864 12.5041 21.8205 9.66576 18.853 9.66576C15.3414 9.66576 15.333 9.66576 14.3214 9.66576ZM14.3214 11.3324C15.1472 11.3324 16.0814 11.3324 18.0197 11.3324V13.5457C18.0197 15.0991 19.3622 16.3324 20.988 16.3324H23.0197C23.0197 16.8207 23.0197 17.3066 23.0197 17.9991H15.5197H13.0197V12.4524C13.0197 11.8574 13.5814 11.3324 14.3214 11.3324ZM19.6864 11.5408C21.163 11.9324 22.4547 13.1932 22.8372 14.6657H20.988C20.2472 14.6657 19.6864 14.1407 19.6864 13.5457V11.5408ZM13.0197 19.6657H14.6864V21.3324H13.0197V19.6657ZM16.353 19.6657H23.0197C23.0197 20.3874 23.0197 20.7566 23.0197 21.3324H16.353V19.6657ZM13.0197 22.999H14.6864V24.6657H14.3214C13.5814 24.6657 13.0197 24.1407 13.0197 23.5457V22.999ZM16.353 22.999H23.0197C23.0197 23.0832 23.0197 23.5091 23.0197 23.5457C23.0197 24.1407 22.458 24.6657 21.718 24.6657H16.353V22.999Z" fill="white"/>
</g>
<defs>
<clipPath id="clip0_4132_3958">
<rect width="35.9961" height="36" fill="white"/>
</clipPath>
</defs>
</svg>
