<svg width="88" height="88" viewBox="0 0 88 88" fill="none" xmlns="http://www.w3.org/2000/svg">
<path d="M46.8017 13.4727L66.5578 18.4609C68.6138 18.9836 70.0592 20.8436 69.9974 22.9495C68.6679 67.2056 42.9989 74 42.9989 74C42.9989 74 17.3299 67.2056 16.0005 22.9495C15.9766 21.9243 16.3041 20.9215 16.9291 20.1058C17.5542 19.2901 18.4396 18.71 19.44 18.4609L39.1961 13.4727C41.6927 12.8424 44.3052 12.8424 46.8017 13.4727Z" stroke="black" stroke-width="2" stroke-linecap="round" stroke-linejoin="round"/>
<rect width="28" height="28" transform="translate(46.9993 42)" fill="white"/>
<path d="M67.9993 55H53.9993C52.8947 55 51.9993 55.8954 51.9993 57V64C51.9993 65.1046 52.8947 66 53.9993 66H67.9993C69.1038 66 69.9993 65.1046 69.9993 64V57C69.9993 55.8954 69.1038 55 67.9993 55Z" stroke="black" stroke-width="2" stroke-linecap="round" stroke-linejoin="round"/>
<path d="M55.9993 55V51C55.9993 49.6739 56.5261 48.4021 57.4637 47.4645C58.4014 46.5268 59.6732 46 60.9993 46C62.3254 46 63.5971 46.5268 64.5348 47.4645C65.4725 48.4021 65.9993 49.6739 65.9993 51V55" stroke="black" stroke-width="2" stroke-linecap="round" stroke-linejoin="round"/>
</svg>
