<svg width="32" height="32" viewBox="0 0 32 32" fill="none" xmlns="http://www.w3.org/2000/svg">
<path fill-rule="evenodd" clip-rule="evenodd" d="M11 16C11 15.5582 11.3705 15.2 11.8276 15.2H23.9352L21.7718 13.4074C21.4247 13.1199 21.3845 12.6148 21.682 12.2794C21.9794 11.9439 22.5019 11.9051 22.8489 12.1926L26.711 15.3926C26.8944 15.5445 27 15.7665 27 16C27 16.2335 26.8944 16.4555 26.711 16.6074L22.8489 19.8074C22.5019 20.0949 21.9794 20.0561 21.682 19.7206C21.3845 19.3852 21.4247 18.8801 21.7718 18.5926L23.9352 16.8H11.8276C11.3705 16.8 11 16.4418 11 16Z" fill="#FF8001"/>
<path d="M19 11.6C19 12.3724 19 12.7586 18.8185 13.036C18.7399 13.1562 18.639 13.2593 18.5213 13.3396C18.2497 13.525 17.8716 13.525 17.1154 13.525H12.5384C11.2002 13.525 10.1152 14.633 10.1152 16C10.1152 17.3669 11.2002 18.475 12.5384 18.475H17.1154C17.8716 18.475 18.2498 18.475 18.5214 18.6603C18.639 18.7407 18.7399 18.8437 18.8185 18.9638C19 19.2413 19 19.6275 19 20.4C19 23.5112 19 25.0669 18.0537 26.0334C17.1074 27 15.5846 27 12.5386 27H11.4616C8.41562 27 6.89261 27 5.94631 26.0334C5 25.0669 5 23.5112 5 20.4V11.6C5 8.48874 5 6.9331 5.94631 5.96655C6.89261 5 8.41562 5 11.4616 5H12.5386C15.5846 5 17.1074 5 18.0537 5.96655C19 6.9331 19 8.48873 19 11.6Z" fill="#FF8001"/>
</svg>
