<svg width="40" height="30" viewBox="0 0 40 30" fill="none" xmlns="http://www.w3.org/2000/svg">
<path fill-rule="evenodd" clip-rule="evenodd" d="M20.2982 22.9988C17.8683 20.9506 16.3275 17.9029 16.3275 14.4997C16.3275 11.0964 17.8683 8.04874 20.2982 6.00057C18.3248 4.33717 15.765 3.33301 12.9677 3.33301C6.72629 3.33301 1.6666 8.33249 1.6666 14.4997C1.6666 20.6669 6.72629 25.6663 12.9677 25.6663C15.765 25.6663 18.3248 24.6622 20.2982 22.9988Z" fill="white"/>
<path opacity="0.7" fill-rule="evenodd" clip-rule="evenodd" d="M20.2984 22.9991C22.7283 20.951 24.269 17.9033 24.269 14.5C24.269 11.0968 22.7283 8.04915 20.2984 6.00098C17.8685 8.04915 16.3278 11.0968 16.3278 14.5C16.3278 17.9033 17.8685 20.951 20.2984 22.9991Z" fill="white"/>
<path opacity="0.3" fill-rule="evenodd" clip-rule="evenodd" d="M20.2982 22.9988C22.7281 20.9506 24.2689 17.9029 24.2689 14.4997C24.2689 11.0964 22.7281 8.04874 20.2982 6.00057C22.2716 4.33717 24.8315 3.33301 27.6287 3.33301C33.8701 3.33301 38.9298 8.33249 38.9298 14.4997C38.9298 20.6669 33.8701 25.6663 27.6287 25.6663C24.8315 25.6663 22.2716 24.6622 20.2982 22.9988Z" fill="white"/>
</svg>
