<svg width="36" height="36" viewBox="0 0 36 36" fill="none" xmlns="http://www.w3.org/2000/svg">
<rect width="35.9961" height="36" rx="17.998" fill="#EEEEEE"/>
<path d="M23 21.4821V23H13.625V21.4821C13.625 21.4821 13.625 18.4464 18.3125 18.4464C23 18.4464 23 21.4821 23 21.4821ZM20.6562 14.6518C20.6562 14.2015 20.5188 13.7613 20.2613 13.3869C20.0037 13.0125 19.6377 12.7206 19.2094 12.5483C18.7811 12.376 18.3099 12.3309 17.8553 12.4187C17.4006 12.5066 16.983 12.7234 16.6552 13.0419C16.3274 13.3603 16.1042 13.766 16.0138 14.2076C15.9234 14.6493 15.9698 15.107 16.1472 15.5231C16.3245 15.9391 16.625 16.2947 17.0104 16.5449C17.3958 16.795 17.8489 16.9286 18.3125 16.9286C18.9341 16.9286 19.5302 16.6887 19.9698 16.2617C20.4093 15.8347 20.6562 15.2556 20.6562 14.6518ZM23.1563 18.492C23.5833 18.8747 23.9276 19.3362 24.169 19.8496C24.4105 20.363 24.5442 20.918 24.5625 21.4821V23H26.9062V21.4821C26.9062 21.4821 26.9063 18.8638 23.1563 18.492ZM22.2188 12.375C21.9827 12.3751 21.7481 12.411 21.5234 12.4813C21.9805 13.118 22.2256 13.8755 22.2256 14.6518C22.2256 15.428 21.9805 16.1856 21.5234 16.8223C21.7481 16.8926 21.9827 16.9284 22.2188 16.9286C22.8404 16.9286 23.4365 16.6887 23.876 16.2617C24.3156 15.8347 24.5625 15.2556 24.5625 14.6518C24.5625 14.0479 24.3156 13.4688 23.876 13.0419C23.4365 12.6149 22.8404 12.375 22.2188 12.375Z" fill="#3F3F3F"/>
<path d="M13.3984 18.492C12.9714 18.8747 12.6271 19.3362 12.3856 19.8496C12.1442 20.363 12.0104 20.918 11.9922 21.4821V23H9.64844V21.4821C9.64844 21.4821 9.64844 18.8638 13.3984 18.492ZM14.3359 12.375C14.572 12.3751 14.8066 12.411 15.0312 12.4812C14.5742 13.118 14.3291 13.8755 14.3291 14.6518C14.3291 15.428 14.5742 16.1856 15.0312 16.8223C14.8066 16.8926 14.572 16.9284 14.3359 16.9286C13.7143 16.9286 13.1182 16.6887 12.6787 16.2617C12.2391 15.8347 11.9922 15.2556 11.9922 14.6518C11.9922 14.0479 12.2391 13.4688 12.6787 13.0419C13.1182 12.6149 13.7143 12.375 14.3359 12.375Z" fill="#3F3F3F"/>
</svg>
