<svg width="96" height="72" viewBox="0 0 96 72" fill="none" xmlns="http://www.w3.org/2000/svg">
<g clip-path="url(#clip0_7236_17470)">
<path d="M37.4997 66.0508C54.2675 66.0508 67.8605 52.5229 67.8605 35.8355C67.8605 19.1481 54.2675 5.62024 37.4997 5.62024C20.7319 5.62024 7.13892 19.1481 7.13892 35.8355C7.13892 52.5229 20.7319 66.0508 37.4997 66.0508Z" fill="#F1F1F1"/>
<path d="M73.8392 11.1005C76.9192 11.1005 79.4161 8.61558 79.4161 5.55025C79.4161 2.48493 76.9192 0 73.8392 0C70.7591 0 68.2622 2.48493 68.2622 5.55025C68.2622 8.61558 70.7591 11.1005 73.8392 11.1005Z" fill="#F1F1F1"/>
<path d="M58.4786 28.0761H34.5129L23.2683 72.0005L19.3325 21.3616H82.3035L83.2754 33.8696H62.2665L58.4786 28.0761Z" fill="#707070"/>
<g style="mix-blend-mode:multiply" opacity="0.4">
<path d="M35.8473 30.5238H30.7172L23.2675 72.0005L35.8473 30.5238Z" fill="#515151"/>
</g>
<path d="M23.2675 72.0005L33.0291 33.8696L34.5121 28.0761H58.4778L62.2656 33.8696H96.0001L86.2385 72.0005H23.2675Z" fill="#B4B4B4"/>
<path d="M89.1525 38.8998H80.9999C80.5873 38.8998 80.1682 39.2325 80.063 39.6431C79.9578 40.0537 80.2071 40.3864 80.6196 40.3864H88.7723C89.1848 40.3864 89.6039 40.0537 89.7091 39.6431C89.8143 39.2325 89.565 38.8998 89.1525 38.8998Z" fill="white"/>
<path d="M87.8869 43.8416H70.0882C69.6757 43.8416 69.2566 44.1742 69.1514 44.5849C69.0462 44.9955 69.2955 45.3281 69.708 45.3281H87.5067C87.9192 45.3281 88.3384 44.9955 88.4436 44.5849C88.5487 44.1742 88.2995 43.8416 87.8869 43.8416Z" fill="white"/>
<path d="M86.6224 48.7848H68.8237C68.4112 48.7848 67.9921 49.1175 67.8869 49.5281C67.7817 49.9387 68.031 50.2714 68.4435 50.2714H86.2422C86.6547 50.2714 87.0738 49.9387 87.179 49.5281C87.2842 49.1175 87.0349 48.7848 86.6224 48.7848Z" fill="white"/>
<path opacity="0.3" d="M16.5354 37.8615C23.5802 37.8615 29.2911 32.1779 29.2911 25.1669C29.2911 18.1559 23.5802 12.4723 16.5354 12.4723C9.49059 12.4723 3.77966 18.1559 3.77966 25.1669C3.77966 32.1779 9.49059 37.8615 16.5354 37.8615Z" fill="white"/>
<path d="M16.5113 38.7901C14.0049 38.7901 11.5412 38.1004 9.35413 36.7581C6.24341 34.8487 4.06567 31.8482 3.22253 28.3086C2.37938 24.7695 2.97162 21.1148 4.89021 18.019C6.80879 14.9232 9.82364 12.7559 13.3803 11.9168C16.9364 11.0777 20.6087 11.6671 23.7194 13.5765C26.8302 15.4859 29.0079 18.4868 29.851 22.0259C30.6942 25.565 30.1019 29.2197 28.1834 32.3155C26.2648 35.4113 23.2499 37.5786 19.6932 38.4177C18.637 38.6669 17.5703 38.7901 16.5113 38.7901ZM16.5562 13.3982C12.5848 13.3982 8.70217 15.3839 6.46912 18.9879C3.04557 24.5127 4.7768 31.7795 10.3282 35.1867C13.0176 36.8371 16.1919 37.3469 19.2659 36.6212C22.3405 35.896 24.9466 34.0226 26.605 31.3461C30.0285 25.8213 28.2973 18.5544 22.7459 15.1473C20.8153 13.9625 18.6731 13.3982 16.5562 13.3982Z" fill="#606060"/>
<path d="M8.63772 21.2433C8.47172 21.2433 8.30353 21.1991 8.15177 21.1059C7.71568 20.8382 7.58037 20.2701 7.84937 19.8361C9.28036 17.527 11.5293 15.9104 14.182 15.2845C16.8347 14.6586 19.5735 15.098 21.8936 16.5222C22.8316 17.0979 23.6632 17.8127 24.3644 18.6464C24.6932 19.0373 24.6411 19.6191 24.2488 19.9462C23.856 20.2733 23.2715 20.2221 22.9428 19.8312C22.3692 19.1496 21.6887 18.5646 20.9201 18.093C19.0212 16.9273 16.7805 16.568 14.6099 17.0799C12.4393 17.5919 10.599 18.9146 9.42827 20.8044C9.25296 21.0874 8.94891 21.2428 8.63827 21.2428L8.63772 21.2433Z" fill="#606060"/>
<path d="M7.27375 26.6754C6.7889 26.6754 6.38075 26.3003 6.34898 25.8117C6.30077 25.0675 6.33529 24.3178 6.45143 23.5834C6.53087 23.0801 7.00586 22.7361 7.51153 22.8151C8.0172 22.8942 8.3629 23.3669 8.28346 23.8702C8.18868 24.4705 8.16019 25.0838 8.19963 25.6929C8.23251 26.2016 7.84517 26.6405 7.33402 26.6732C7.31375 26.6743 7.29347 26.6754 7.27375 26.6754Z" fill="#606060"/>
<path d="M9.04729 35.4822L6.53894 39.5304L8.11744 40.4991L10.6258 36.4509L9.04729 35.4822Z" fill="#606060"/>
<path d="M1.50033 49.4305C0.457763 48.791 0.133984 47.4312 0.777165 46.3936L5.9396 38.0625L9.71431 40.3792L4.55188 48.7103C3.90924 49.7478 2.5429 50.0701 1.50033 49.43V49.4305Z" fill="#606060"/>
<path d="M31.7875 11.4759L31.908 10.8543C32.1151 9.55125 32.9194 8.28577 34.4829 7.20185C35.8838 6.24987 36.7237 5.49746 37.014 4.44353C37.3433 3.24947 36.8097 2.24788 35.3338 1.81987C34.4868 1.58869 33.4683 1.61269 32.7577 1.8973L32.5994 0.268147C33.5308 -0.0818918 34.9749 -0.0906164 36.2218 0.250153C38.9271 0.988396 39.6925 2.98503 39.2022 4.76466C38.7633 6.35674 37.5531 7.26019 36.0558 8.28631C34.6851 9.22138 34.0249 10.1488 33.7663 11.362L33.6223 11.977L31.7869 11.4759H31.7875ZM30.3663 14.6126C30.6052 13.7463 31.3613 13.2981 32.1847 13.5227C33.0081 13.7473 33.4048 14.5101 33.1664 15.3765C32.9407 16.196 32.2252 16.6807 31.3547 16.443C30.5313 16.2183 30.1406 15.4321 30.3669 14.6126H30.3663Z" fill="#CBCBCB"/>
</g>
<defs>
<clipPath id="clip0_7236_17470">
<rect width="96" height="72" fill="white"/>
</clipPath>
</defs>
</svg>
