<svg width="96" height="72" viewBox="0 0 96 72" fill="none" xmlns="http://www.w3.org/2000/svg">
<g clip-path="url(#clip0_8545_7024)">
<path d="M37.4997 66.0507C54.2675 66.0507 67.8605 52.5228 67.8605 35.8354C67.8605 19.148 54.2675 5.62012 37.4997 5.62012C20.7319 5.62012 7.13892 19.148 7.13892 35.8354C7.13892 52.5228 20.7319 66.0507 37.4997 66.0507Z" fill="#111418"/>
<path d="M73.8392 11.1005C76.9192 11.1005 79.4161 8.61558 79.4161 5.55025C79.4161 2.48493 76.9192 0 73.8392 0C70.7591 0 68.2622 2.48493 68.2622 5.55025C68.2622 8.61558 70.7591 11.1005 73.8392 11.1005Z" fill="#62676E"/>
<path d="M58.4786 28.0756H34.5129L23.2683 72L19.3325 21.3612H82.3035L83.2754 33.8692H62.2665L58.4786 28.0756Z" fill="#2F3338"/>
<g style="mix-blend-mode:multiply" opacity="0.4">
<path d="M35.8472 30.5233H30.7171L23.2673 72L35.8472 30.5233Z" fill="#515151"/>
</g>
<path d="M23.2673 72L33.0289 33.8692L34.512 28.0756H58.4777L62.2655 33.8692H95.9999L86.2384 72H23.2673Z" fill="#62676E"/>
<path d="M89.1524 38.8992H80.9997C80.5872 38.8992 80.1681 39.2319 80.0629 39.6425C79.9577 40.0531 80.207 40.3857 80.6195 40.3857H88.7721C89.1847 40.3857 89.6038 40.0531 89.709 39.6425C89.8141 39.2319 89.5649 38.8992 89.1524 38.8992Z" fill="white"/>
<path d="M87.8868 43.8416H70.0881C69.6756 43.8416 69.2565 44.1742 69.1513 44.5849C69.0461 44.9955 69.2954 45.3281 69.7079 45.3281H87.5066C87.9191 45.3281 88.3382 44.9955 88.4434 44.5849C88.5486 44.1742 88.2993 43.8416 87.8868 43.8416Z" fill="white"/>
<path d="M86.6224 48.784H68.8237C68.4112 48.784 67.9921 49.1166 67.8869 49.5272C67.7817 49.9379 68.031 50.2705 68.4435 50.2705H86.2422C86.6547 50.2705 87.0738 49.9379 87.179 49.5272C87.2842 49.1166 87.0349 48.784 86.6224 48.784Z" fill="white"/>
<path opacity="0.1" d="M16.5355 37.8609C23.5803 37.8609 29.2912 32.1773 29.2912 25.1663C29.2912 18.1552 23.5803 12.4717 16.5355 12.4717C9.49072 12.4717 3.77979 18.1552 3.77979 25.1663C3.77979 32.1773 9.49072 37.8609 16.5355 37.8609Z" fill="white"/>
<path d="M16.5114 38.7898C14.005 38.7898 11.5413 38.1 9.35425 36.7577C6.24353 34.8483 4.0658 31.8479 3.22265 28.3082C2.3795 24.7691 2.97174 21.1145 4.89033 18.0186C6.80892 14.9228 9.82376 12.7555 13.3804 11.9164C16.9366 11.0773 20.6088 11.6667 23.7196 13.5761C26.8303 15.4855 29.008 18.4864 29.8511 22.0255C30.6943 25.5646 30.1021 29.2193 28.1835 32.3151C26.2649 35.411 23.25 37.5783 19.6934 38.4174C18.6371 38.6665 17.5704 38.7898 16.5114 38.7898ZM16.5563 13.3978C12.5849 13.3978 8.70229 15.3835 6.46924 18.9875C3.04569 24.5123 4.77692 31.7792 10.3283 35.1863C13.0178 36.8367 16.192 37.3465 19.266 36.6208C22.3406 35.8957 24.9467 34.0223 26.6051 31.3457C30.0286 25.8209 28.2974 18.5541 22.746 15.1469C20.8154 13.9621 18.6733 13.3978 16.5563 13.3978Z" fill="#62676E"/>
<path d="M8.63785 21.2426C8.47185 21.2426 8.30365 21.1984 8.15189 21.1052C7.7158 20.8375 7.58049 20.2693 7.84949 19.8353C9.28049 17.5263 11.5294 15.9097 14.1821 15.2837C16.8348 14.6578 19.5736 15.0973 21.8938 16.5214C22.8317 17.0972 23.6633 17.812 24.3646 18.6456C24.6933 19.0366 24.6412 19.6183 24.249 19.9455C23.8562 20.2726 23.2716 20.2214 22.9429 19.8304C22.3693 19.1489 21.6889 18.5639 20.9202 18.0922C19.0214 16.9265 16.7806 16.5672 14.61 17.0792C12.4394 17.5912 10.5992 18.9139 9.4284 20.8037C9.25308 21.0866 8.94903 21.242 8.63839 21.242L8.63785 21.2426Z" fill="#62676E"/>
<path d="M7.27375 26.6753C6.7889 26.6753 6.38075 26.3001 6.34898 25.8116C6.30077 25.0674 6.33529 24.3177 6.45143 23.5833C6.53087 23.08 7.00586 22.736 7.51153 22.815C8.0172 22.8941 8.3629 23.3668 8.28346 23.87C8.18868 24.4703 8.16019 25.0837 8.19963 25.6927C8.23251 26.2014 7.84517 26.6404 7.33402 26.6731C7.31375 26.6742 7.29347 26.6753 7.27375 26.6753Z" fill="#62676E"/>
<path d="M9.04741 35.482L6.53906 39.5303L8.11756 40.499L10.6259 36.4508L9.04741 35.482Z" fill="#62676E"/>
<path d="M1.50033 49.4305C0.457763 48.791 0.133984 47.4312 0.777165 46.3936L5.9396 38.0625L9.71431 40.3792L4.55188 48.7103C3.90924 49.7478 2.5429 50.0701 1.50033 49.43V49.4305Z" fill="#62676E"/>
<path d="M31.7875 11.4759L31.908 10.8543C32.1151 9.55125 32.9194 8.28577 34.4829 7.20185C35.8838 6.24987 36.7237 5.49746 37.014 4.44353C37.3433 3.24947 36.8097 2.24788 35.3338 1.81987C34.4868 1.58869 33.4683 1.61269 32.7577 1.8973L32.5994 0.268147C33.5308 -0.0818918 34.9749 -0.0906164 36.2218 0.250153C38.9271 0.988396 39.6925 2.98503 39.2022 4.76466C38.7633 6.35674 37.5531 7.26019 36.0558 8.28631C34.6851 9.22138 34.0249 10.1488 33.7663 11.362L33.6223 11.977L31.7869 11.4759H31.7875ZM30.3663 14.6126C30.6052 13.7463 31.3613 13.2981 32.1847 13.5227C33.0081 13.7473 33.4048 14.5101 33.1664 15.3765C32.9407 16.196 32.2252 16.6807 31.3547 16.443C30.5313 16.2183 30.1406 15.4321 30.3669 14.6126H30.3663Z" fill="#62676E"/>
</g>
<defs>
<clipPath id="clip0_8545_7024">
<rect width="96" height="72" fill="white"/>
</clipPath>
</defs>
</svg>
