<svg width="36" height="36" viewBox="0 0 36 36" fill="none" xmlns="http://www.w3.org/2000/svg">
<rect width="35.9961" height="36" rx="17.998" fill="#FF8001"/>
<path d="M17.9924 9.66575C15.0321 9.66575 12.9924 11.7058 12.9924 14.6658C12.9924 15.0699 12.9924 16.3074 12.9924 16.3324C12.9924 16.6008 12.8569 16.7833 12.3934 17.1658C12.3408 17.2091 12.1204 17.3983 12.0549 17.4524C11.0004 18.3241 10.4814 19.1408 10.4924 20.4991C10.5034 21.8725 11.6229 22.9833 12.9924 22.9991H15.639C15.639 22.9991 15.4924 23.5083 15.4924 23.8325C15.4924 25.2133 16.6115 26.3325 17.9924 26.3325C19.3732 26.3325 20.4924 25.2133 20.4924 23.8325C20.4924 23.5083 20.3524 22.9991 20.3524 22.9991H22.9924C24.359 23.0041 25.494 21.8783 25.4924 20.4991C25.4907 19.1508 24.9707 18.3199 23.9299 17.4524C23.8615 17.3949 23.6199 17.2108 23.5649 17.1658C23.1115 16.7874 22.9924 16.5974 22.9924 16.3324C22.9924 15.2908 22.9924 14.6658 22.9924 14.6658C22.9924 11.7058 20.9524 9.66575 17.9924 9.66575ZM17.9924 11.3324C20.0324 11.3324 21.3257 12.6258 21.3257 14.6658C21.3257 14.6658 21.3257 15.2908 21.3257 16.3324C21.3257 17.2174 21.699 17.7758 22.4974 18.4416C22.5607 18.4941 22.8282 18.7041 22.8882 18.7541C23.5865 19.3366 23.8249 19.7308 23.8257 20.4991C23.8265 20.9524 23.4382 21.3341 22.9924 21.3324C22.8349 21.3316 20.409 21.3316 17.9924 21.3324C15.5759 21.3333 13.1694 21.3341 12.9924 21.3324C12.5272 21.3266 12.1628 20.9616 12.159 20.4991C12.1529 19.7324 12.3911 19.3374 13.0965 18.7541C13.1541 18.7066 13.4005 18.4916 13.4611 18.4416C14.2721 17.7716 14.659 17.2258 14.659 16.3324C14.659 16.3074 14.659 15.0699 14.659 14.6658C14.659 12.6258 15.9526 11.3324 17.9924 11.3324ZM17.9924 22.9991C18.4524 22.9991 18.8257 23.3725 18.8257 23.8325C18.8257 24.2925 18.4524 24.6658 17.9924 24.6658C17.5324 24.6658 17.159 24.2925 17.159 23.8325C17.159 23.3725 17.5324 22.9991 17.9924 22.9991Z" fill="white"/>
</svg>
