<svg width="32" height="32" viewBox="0 0 32 32" fill="none" xmlns="http://www.w3.org/2000/svg">
<path fill-rule="evenodd" clip-rule="evenodd" d="M18.144 15.5995C18.5045 15.5673 18.8665 15.6428 19.184 15.8165C19.5015 15.9902 19.7604 16.2542 19.9278 16.5752C20.0952 16.8961 20.1635 17.2594 20.1243 17.6192C20.085 17.9791 19.9398 18.3191 19.7071 18.5963C19.4744 18.8736 19.1647 19.0755 18.8172 19.1766C18.4696 19.2777 18.0999 19.2734 17.7548 19.1642C17.4097 19.055 17.1048 18.8458 16.8787 18.5632C16.6526 18.2806 16.5154 17.9372 16.4846 17.5766C16.4433 17.0946 16.5948 16.6158 16.9059 16.2452C17.2169 15.8747 17.6621 15.6424 18.144 15.5995ZM4.22857 7.24288H6.63086C6.69148 7.24288 6.74962 7.26696 6.79248 7.30983C6.83535 7.35269 6.85943 7.41083 6.85943 7.47145V13.2909C6.85943 13.3515 6.83535 13.4096 6.79248 13.4525C6.74962 13.4954 6.69148 13.5195 6.63086 13.5195H4.22857C4.16795 13.5195 4.10981 13.4954 4.06695 13.4525C4.02408 13.4096 4 13.3515 4 13.2909V7.47831C4 7.41769 4.02408 7.35955 4.06695 7.31669C4.10981 7.27382 4.16795 7.24974 4.22857 7.24974V7.24288ZM7.46743 8.28517C7.46076 8.18497 7.48727 8.08537 7.54286 8.00174C7.696 7.79374 8.07086 7.85545 8.30857 7.85545C8.55524 7.86268 8.80197 7.84353 9.04457 7.79831C9.40221 7.70449 9.75342 7.58768 10.096 7.4486C11.3966 6.99145 12.5051 6.69431 13.8606 6.10002C13.9984 6.03494 14.1488 6.0008 14.3012 6.00001C14.4536 5.99922 14.6044 6.0318 14.7429 6.09545C16.0146 6.55933 17.243 7.13451 18.4137 7.81431C18.6463 7.93566 18.8367 8.12449 18.96 8.35602C19.712 9.4486 20.3543 10.5549 20.9737 11.6635C21.1817 12.052 21.2663 12.4223 21.1246 12.6532C20.544 13.6063 19.4994 12.2509 18.3817 11.348C17.9086 10.9686 17.264 10.6303 16.7109 10.2463C16.0023 9.94917 15.6663 9.66574 14.9051 9.50574C13.7349 9.40517 13.6389 11.0852 15.1771 11.1469C16.2217 11.188 18.3771 12.1343 18.976 13.0052C19.5406 13.8189 19.2297 14.6189 18.0823 14.5892L17.1223 14.4109C15.5954 14.1229 15.6366 14.0657 14.0457 14.3606C13.1931 14.5206 12.2971 14.6852 11.4149 14.5206C10.88 14.42 10.5989 14.2075 10.1189 13.8349C9.88149 13.6341 9.62325 13.4594 9.34857 13.3137C9.12989 13.1836 8.89461 13.0837 8.64914 13.0166C8.28343 12.9297 7.76914 13.0532 7.55429 12.7377C7.49669 12.6435 7.4666 12.535 7.46743 12.4246V8.28517ZM22.0869 12.1709L28 21.268L21.216 25.5606L20.6354 24.6669L25.4857 21.6017L25.5497 21.5629C25.6603 21.4907 25.7556 21.3974 25.8302 21.2884C25.9048 21.1794 25.9572 21.0567 25.9843 20.9275C26.0115 20.7982 26.0129 20.6649 25.9886 20.5351C25.9642 20.4052 25.9145 20.2815 25.8423 20.1709L25.5634 19.7412H25.5771L24.2309 17.6977L21.5543 13.5835C21.6865 13.4505 21.8017 13.3015 21.8971 13.14C22.0712 12.8489 22.1383 12.5062 22.0869 12.1709ZM20.8503 13.9309L25.3097 20.788L18.528 25.0852L12.2971 15.4852C12.4709 15.4852 12.6423 15.4715 12.8137 15.4555C13.1086 15.428 13.3943 15.3869 13.6709 15.3389L18.2057 22.228C18.4717 22.0605 18.7933 22.0051 19.1 22.0741C19.4067 22.143 19.6736 22.3307 19.8423 22.596L22.5143 20.8909C22.4314 20.759 22.3753 20.6121 22.3493 20.4585C22.3232 20.305 22.3278 20.1478 22.3626 19.996C22.3974 19.8441 22.4618 19.7007 22.5522 19.5738C22.6426 19.4469 22.7571 19.3391 22.8891 19.2566L19.8743 14.6852C19.888 14.6669 19.8994 14.6463 19.9109 14.628C19.9274 14.6037 19.9427 14.5785 19.9566 14.5526C20.0741 14.328 20.1383 14.0792 20.144 13.8257C20.3676 13.9169 20.6098 13.953 20.8503 13.9309Z" fill="#FF8001"/>
</svg>
