<svg width="48" height="48" viewBox="0 0 48 48" fill="none" xmlns="http://www.w3.org/2000/svg">
<rect width="48" height="48" rx="24" fill="#FFF5EC"/>
<path fill-rule="evenodd" clip-rule="evenodd" d="M26.144 23.5995C26.5045 23.5673 26.8665 23.6428 27.184 23.8165C27.5015 23.9902 27.7604 24.2542 27.9278 24.5752C28.0952 24.8961 28.1635 25.2594 28.1243 25.6192C28.085 25.9791 27.9398 26.3191 27.7071 26.5963C27.4744 26.8736 27.1647 27.0755 26.8172 27.1766C26.4696 27.2777 26.0999 27.2734 25.7548 27.1642C25.4097 27.055 25.1048 26.8458 24.8787 26.5632C24.6526 26.2806 24.5154 25.9372 24.4846 25.5766C24.4433 25.0946 24.5948 24.6158 24.9059 24.2452C25.2169 23.8747 25.6621 23.6424 26.144 23.5995ZM12.2286 15.2429H14.6309C14.6915 15.2429 14.7496 15.267 14.7925 15.3098C14.8353 15.3527 14.8594 15.4108 14.8594 15.4715V21.2909C14.8594 21.3515 14.8353 21.4096 14.7925 21.4525C14.7496 21.4954 14.6915 21.5195 14.6309 21.5195H12.2286C12.168 21.5195 12.1098 21.4954 12.0669 21.4525C12.0241 21.4096 12 21.3515 12 21.2909V15.4783C12 15.4177 12.0241 15.3596 12.0669 15.3167C12.1098 15.2738 12.168 15.2497 12.2286 15.2497V15.2429ZM15.4674 16.2852C15.4608 16.185 15.4873 16.0854 15.5429 16.0017C15.696 15.7937 16.0709 15.8555 16.3086 15.8555C16.5552 15.8627 16.802 15.8435 17.0446 15.7983C17.4022 15.7045 17.7534 15.5877 18.096 15.4486C19.3966 14.9915 20.5051 14.6943 21.8606 14.1C21.9984 14.0349 22.1488 14.0008 22.3012 14C22.4536 13.9992 22.6044 14.0318 22.7429 14.0955C24.0146 14.5593 25.243 15.1345 26.4137 15.8143C26.6463 15.9357 26.8367 16.1245 26.96 16.356C27.712 17.4486 28.3543 18.5549 28.9737 19.6635C29.1817 20.052 29.2663 20.4223 29.1246 20.6532C28.544 21.6063 27.4994 20.2509 26.3817 19.348C25.9086 18.9686 25.264 18.6303 24.7109 18.2463C24.0023 17.9492 23.6663 17.6657 22.9051 17.5057C21.7349 17.4052 21.6389 19.0852 23.1771 19.1469C24.2217 19.188 26.3771 20.1343 26.976 21.0052C27.5406 21.8189 27.2297 22.6189 26.0823 22.5892L25.1223 22.4109C23.5954 22.1229 23.6366 22.0657 22.0457 22.3606C21.1931 22.5206 20.2971 22.6852 19.4149 22.5206C18.88 22.42 18.5989 22.2075 18.1189 21.8349C17.8815 21.6341 17.6232 21.4594 17.3486 21.3137C17.1299 21.1836 16.8946 21.0837 16.6491 21.0166C16.2834 20.9297 15.7691 21.0532 15.5543 20.7377C15.4967 20.6435 15.4666 20.535 15.4674 20.4246V16.2852ZM30.0869 20.1709L36 29.268L29.216 33.5606L28.6354 32.6669L33.4857 29.6017L33.5497 29.5629C33.6603 29.4907 33.7556 29.3974 33.8302 29.2884C33.9048 29.1794 33.9572 29.0567 33.9843 28.9275C34.0115 28.7982 34.0129 28.6649 33.9886 28.5351C33.9642 28.4052 33.9145 28.2815 33.8423 28.1709L33.5634 27.7412H33.5771L32.2309 25.6977L29.5543 21.5835C29.6865 21.4505 29.8017 21.3015 29.8971 21.14C30.0712 20.8489 30.1383 20.5062 30.0869 20.1709ZM28.8503 21.9309L33.3097 28.788L26.528 33.0852L20.2971 23.4852C20.4709 23.4852 20.6423 23.4715 20.8137 23.4555C21.1086 23.428 21.3943 23.3869 21.6709 23.3389L26.2057 30.228C26.4717 30.0605 26.7933 30.0051 27.1 30.0741C27.4067 30.143 27.6736 30.3307 27.8423 30.596L30.5143 28.8909C30.4314 28.759 30.3753 28.6121 30.3493 28.4585C30.3232 28.305 30.3278 28.1478 30.3626 27.996C30.3974 27.8441 30.4618 27.7007 30.5522 27.5738C30.6426 27.4469 30.7571 27.3391 30.8891 27.2566L27.8743 22.6852C27.888 22.6669 27.8994 22.6463 27.9109 22.628C27.9274 22.6037 27.9427 22.5785 27.9566 22.5526C28.0741 22.328 28.1383 22.0792 28.144 21.8257C28.3676 21.9169 28.6098 21.953 28.8503 21.9309Z" fill="#FF8001"/>
</svg>
