<svg width="12" height="12" viewBox="0 0 12 12" fill="none" xmlns="http://www.w3.org/2000/svg">
<path d="M1.48086 11L0.640859 10.16L9.89486 0.92L10.7349 1.76L1.48086 11ZM8.63486 11.21C8.17286 11.21 7.75053 11.098 7.36786 10.874C6.98986 10.6453 6.68653 10.342 6.45786 9.964C6.22919 9.58133 6.11486 9.15667 6.11486 8.69C6.11486 8.23267 6.23153 7.81267 6.46486 7.43C6.69819 7.04733 7.00619 6.74167 7.38886 6.513C7.77153 6.28433 8.18686 6.17 8.63486 6.17C9.09686 6.17 9.51919 6.28433 9.90186 6.513C10.2845 6.737 10.5879 7.04033 10.8119 7.423C11.0405 7.801 11.1549 8.22333 11.1549 8.69C11.1549 9.15667 11.0405 9.58133 10.8119 9.964C10.5879 10.342 10.2845 10.6453 9.90186 10.874C9.51919 11.098 9.09686 11.21 8.63486 11.21ZM8.63486 10.111C8.89153 10.111 9.12719 10.0457 9.34186 9.915C9.56119 9.78433 9.73386 9.61167 9.85986 9.397C9.99053 9.18233 10.0559 8.94667 10.0559 8.69C10.0559 8.43333 9.99053 8.19767 9.85986 7.983C9.73386 7.76367 9.56119 7.591 9.34186 7.465C9.12719 7.33433 8.89153 7.269 8.63486 7.269C8.37819 7.269 8.14253 7.33433 7.92786 7.465C7.71319 7.591 7.54053 7.76367 7.40986 7.983C7.27919 8.19767 7.21386 8.43333 7.21386 8.69C7.21386 8.94667 7.27919 9.18233 7.40986 9.397C7.54053 9.61167 7.71319 9.78433 7.92786 9.915C8.14253 10.0457 8.37819 10.111 8.63486 10.111ZM2.74086 5.75C2.27886 5.75 1.85653 5.638 1.47386 5.414C1.09119 5.18533 0.785526 4.882 0.556859 4.504C0.332859 4.12133 0.220859 3.69667 0.220859 3.23C0.220859 2.77267 0.337526 2.35267 0.570859 1.97C0.804193 1.58733 1.11219 1.28167 1.49486 1.053C1.87753 0.824333 2.29286 0.71 2.74086 0.71C3.20286 0.71 3.62286 0.824333 4.00086 1.053C4.38353 1.277 4.68919 1.58033 4.91786 1.963C5.14653 2.341 5.26086 2.76333 5.26086 3.23C5.26086 3.69667 5.14653 4.12133 4.91786 4.504C4.68919 4.882 4.38353 5.18533 4.00086 5.414C3.62286 5.638 3.20286 5.75 2.74086 5.75ZM2.74086 4.651C2.99753 4.651 3.23319 4.58567 3.44786 4.455C3.66719 4.32433 3.83986 4.15167 3.96586 3.937C4.09653 3.72233 4.16186 3.48667 4.16186 3.23C4.16186 2.97333 4.09653 2.73767 3.96586 2.523C3.83986 2.30367 3.66719 2.131 3.44786 2.005C3.23319 1.87433 2.99753 1.809 2.74086 1.809C2.48419 1.809 2.24853 1.87433 2.03386 2.005C1.81919 2.131 1.64653 2.30367 1.51586 2.523C1.38519 2.73767 1.31986 2.97333 1.31986 3.23C1.31986 3.48667 1.38519 3.72233 1.51586 3.937C1.64653 4.15167 1.81919 4.32433 2.03386 4.455C2.24853 4.58567 2.48419 4.651 2.74086 4.651Z" fill="#808185"/>
</svg>
