<svg width="21" height="21" viewBox="0 0 21 21" fill="none" xmlns="http://www.w3.org/2000/svg">
<g id="Black">
<path id="Vector" d="M9.52553 1.80212C9.05745 3.97872 8.05106 6.17872 7.11489 7.11489C6.17872 8.05106 3.97872 9.05744 1.80213 9.52553C0.819149 9.75957 0 9.99361 0 10.0638C0 10.134 0.819149 10.3681 1.82553 10.6021C4.04894 11.0936 5.94468 11.9596 6.99787 12.9425C8.02766 13.9255 9.03404 16.0319 9.52553 18.3021C9.75957 19.3085 9.99362 20.1277 10.0638 20.1277C10.134 20.1277 10.3681 19.3085 10.6021 18.3021C11.6553 13.6447 13.6447 11.6553 18.2787 10.6021C19.2851 10.3681 20.1277 10.134 20.1277 10.0638C20.1277 9.99361 19.3085 9.75957 18.3255 9.52553C16.0319 9.03404 13.9255 8.02766 12.9426 6.99787C11.9596 5.94468 11.0936 4.04893 10.6021 1.80212C10.3681 0.819145 10.134 -3.8147e-06 10.0638 -3.8147e-06C9.99362 -3.8147e-06 9.75957 0.819145 9.52553 1.80212Z" fill="white"/>
</g>
</svg>
