<svg width="30" height="30" viewBox="0 0 24 24" fill="none" xmlns="http://www.w3.org/2000/svg">
<path d="M7.69531 1.10312C7.23125 1.20625 7.07656 1.25352 6.67695 1.43828C5.81758 1.8293 5.0957 2.53828 4.70039 3.39336C4.44258 3.93906 4.38242 4.22695 4.4082 4.75977C4.42539 5.14648 4.44688 5.2625 4.56719 5.55039C4.76914 6.03164 5.06133 6.44844 5.49961 6.86953C6.27734 7.62148 7.37734 8.20586 8.41289 8.425C8.69219 8.48516 8.56758 8.48945 6.475 8.49375C4.36523 8.49805 4.21484 8.50234 3.96133 8.58398C3.61758 8.69141 3.30391 8.92773 3.10195 9.22852C2.83984 9.61523 2.83555 9.64531 2.81836 11.0633L2.79688 12.3652H12.0008H21.2047L21.1832 11.0633C21.166 9.64531 21.1617 9.61523 20.8996 9.22852C20.6977 8.92773 20.384 8.69141 20.0402 8.58398C19.7867 8.50234 19.6363 8.49805 17.5695 8.49375C15.5801 8.48945 15.3996 8.48516 15.6531 8.4293C16.8605 8.17148 18.1625 7.40664 18.9016 6.52578C19.7008 5.57617 19.8855 4.61367 19.4645 3.59961C19.082 2.67148 18.4676 2.00117 17.5867 1.54141C16.8434 1.15469 16.1645 1 15.348 1.03008C14.9055 1.04297 14.8324 1.05586 14.566 1.18047C13.5176 1.67461 12.6582 3.30742 12.1941 5.6793C12.1297 5.98867 12.0695 6.28945 12.0566 6.34961C12.0395 6.42266 12.0094 6.32812 11.9535 6.02734C11.4723 3.41914 10.6172 1.72617 9.50859 1.18047C9.24219 1.04727 9.20781 1.04297 8.64922 1.03438C8.21523 1.02578 7.97461 1.04297 7.69531 1.10312ZM7.67812 3.46211C8.57188 4.04219 9.41836 5.03047 9.93828 6.11328C10.1445 6.53437 10.5141 7.55273 10.4754 7.58711C10.4453 7.61719 9.82227 7.21328 9.37969 6.88242C8.54609 6.25508 7.82852 5.43437 7.40742 4.63516C7.17969 4.19258 6.96055 3.58672 6.91328 3.24297L6.8832 3.03672L7.19258 3.1957C7.36445 3.28164 7.58359 3.40195 7.67812 3.46211ZM17.1355 3.48789C16.7703 5.01328 15.5758 6.44844 13.7969 7.50547C13.6121 7.61719 13.6035 7.5957 13.6938 7.29492C14.2008 5.66211 15.202 4.24844 16.3836 3.48789C16.491 3.42344 16.7145 3.29453 16.8777 3.2043C17.2344 3.01523 17.2473 3.02812 17.1355 3.48789Z" fill="#FF8001"/>
<path d="M3.84453 17.4871L3.85742 21.7969L3.99492 22.0848C4.1582 22.4328 4.4332 22.7121 4.77266 22.8797L5.01758 23H12H18.9824L19.2273 22.8797C19.5668 22.7121 19.8418 22.4328 20.0051 22.0848L20.1426 21.7969L20.1555 17.4871L20.1641 13.1816H12H3.83594L3.84453 17.4871Z" fill="#FFC891"/>
<path d="M12 15L12 21" stroke="white" stroke-linecap="round"/>
</svg>
