<svg width="243" height="210" viewBox="0 0 243 210" fill="none" xmlns="http://www.w3.org/2000/svg">
<g clip-path="url(#clip0_7082_1063)">
<path d="M216.937 188.914C219.52 193.48 217.329 208.902 217.329 208.902C217.329 208.902 202.985 202.83 200.402 198.266C199.165 196.073 198.849 193.479 199.523 191.054C200.197 188.628 201.807 186.57 203.998 185.33C206.189 184.091 208.783 183.772 211.209 184.444C213.635 185.116 215.695 186.724 216.937 188.914Z" fill="#F1F1F1"/>
<path d="M217.538 208.881L217.233 208.945C214.298 195.001 204.048 185.545 203.945 185.451L204.155 185.221C204.259 185.315 214.581 194.836 217.538 208.881Z" fill="white"/>
<path d="M240.408 194.113C236.902 200.471 217.14 209.085 217.14 209.085C217.14 209.085 213.882 187.775 217.385 181.418C219.068 178.365 221.896 176.106 225.245 175.138C228.594 174.169 232.19 174.571 235.243 176.254C238.296 177.937 240.556 180.765 241.524 184.114C242.493 187.463 242.091 191.06 240.408 194.113Z" fill="#F1F1F1"/>
<path d="M217.314 209.316L217.018 209.004C231.318 195.423 235.02 176.481 235.056 176.291L235.48 176.371C235.444 176.562 231.719 195.637 217.314 209.316Z" fill="white"/>
<path d="M72.2463 145.964C69.9846 145.957 67.7328 145.665 65.5437 145.097L65.1122 144.978L64.712 144.777C50.2414 137.522 38.0333 127.939 28.4269 116.294C20.4747 106.597 14.2749 95.5883 10.1061 83.7615C5.12092 69.6019 2.72255 54.6612 3.0255 39.6527C3.03162 39.3376 3.03679 39.0944 3.03679 38.9268C3.03679 31.6311 7.08648 25.2296 13.3538 22.6182C18.1506 20.6195 61.7025 2.731 64.8493 1.4385C70.7754 -1.53088 77.0976 0.947537 78.1093 1.38095C80.3786 2.30878 120.64 18.7761 129.34 22.919C138.307 27.1888 140.699 34.8594 140.699 38.7185C140.699 56.1903 137.673 72.5191 131.705 87.2513C126.886 99.176 120.055 110.185 111.51 119.798C95.0241 138.351 78.5337 144.928 78.3746 144.986C76.4038 145.664 74.3303 145.995 72.2463 145.964ZM68.3683 136.358C69.798 136.679 73.0895 137.159 75.2349 136.377C77.9603 135.383 91.7625 128.226 104.66 113.711C122.48 93.6573 131.522 68.4478 131.536 38.783C131.504 38.182 131.077 33.8955 125.4 31.1926C116.869 27.1298 75.0207 10.0182 74.599 9.84574L74.4834 9.79672C73.6064 9.42922 70.8154 8.65513 68.8915 9.66331L68.5063 9.8429C68.0398 10.0345 21.8089 29.0225 16.8784 31.0769C13.4293 32.514 12.2004 36.0742 12.2004 38.9268C12.2004 39.1353 12.195 39.4385 12.1874 39.8305C11.7933 60.1282 16.4904 110.075 68.3683 136.358Z" fill="#3F3F3F"/>
<path d="M66.7656 5.60412C66.7656 5.60412 20.1145 24.7644 15.1162 26.847C10.1179 28.9297 7.6187 33.928 7.6187 38.9263C7.6187 43.9247 3.86996 109.146 66.7656 140.681C66.7656 140.681 72.474 142.26 76.8049 140.681C81.1358 139.101 136.118 112.443 136.118 38.7181C136.118 38.7181 136.117 31.2206 127.37 27.0553C118.623 22.89 76.3327 5.60412 76.3327 5.60412C76.3327 5.60412 71.1392 3.31321 66.7656 5.60412Z" fill="#FF8001"/>
<path opacity="0.1" d="M71.7632 20.5996V122.813C71.7632 122.813 24.6956 100.156 25.1121 40.5929L71.7632 20.5996Z" fill="black"/>
<path d="M67.7972 88.9912C65.2702 91.6585 60.9611 91.4485 58.7054 88.5482L51.3907 79.1431C49.5181 76.7353 49.9519 73.2653 52.3597 71.3927C54.7674 69.52 58.2374 69.9538 60.1101 72.3615L63.8187 77.1297L84.0024 55.823C86.1005 53.6081 89.5969 53.5136 91.8117 55.612C94.0262 57.7101 94.1206 61.2062 92.0225 63.4208L67.7972 88.9912Z" fill="white"/>
<path d="M242.17 210H105.166C105.071 210 104.979 209.963 104.912 209.895C104.845 209.828 104.807 209.736 104.807 209.641C104.807 209.545 104.845 209.454 104.912 209.387C104.979 209.319 105.071 209.281 105.166 209.281H242.17C242.265 209.281 242.356 209.319 242.424 209.387C242.491 209.454 242.529 209.545 242.529 209.641C242.529 209.736 242.491 209.828 242.424 209.895C242.356 209.963 242.265 210 242.17 210Z" fill="#CACACA"/>
<path d="M144.769 204.332L150.33 204.331L152.976 182.881L144.768 182.881L144.769 204.332Z" fill="#FFD5AE"/>
<path d="M143.35 202.516L154.302 202.516H154.302C156.153 202.516 157.929 203.251 159.237 204.56C160.546 205.869 161.282 207.644 161.282 209.495V209.722L143.35 209.723L143.35 202.516Z" fill="#3F3F3F"/>
<path d="M163.468 204.332L169.029 204.331L171.675 182.881L163.467 182.881L163.468 204.332Z" fill="#FFD5AE"/>
<path d="M162.049 202.516L173.001 202.516H173.001C174.853 202.516 176.628 203.251 177.937 204.56C179.246 205.869 179.981 207.644 179.981 209.495V209.722L162.049 209.723L162.049 202.516Z" fill="#3F3F3F"/>
<path d="M153.51 129.002L154.844 197.054L144.052 196.385L136.566 153.04L134.201 123.485L153.51 129.002Z" fill="#3F3F3F"/>
<path d="M172.03 117.575L173.542 198.133L160.957 197.774L158.238 149.887L153.51 132.549L134.201 123.486L137.354 101.813L165.725 101.419L172.03 117.575Z" fill="#3F3F3F"/>
<path d="M150.332 45.4636C155.662 45.4636 159.983 41.1428 159.983 35.8129C159.983 30.4829 155.662 26.1621 150.332 26.1621C145.002 26.1621 140.682 30.4829 140.682 35.8129C140.682 41.1428 145.002 45.4636 150.332 45.4636Z" fill="#FFD5AE"/>
<path d="M158.337 49.5293L159.815 51.7688L163.756 62.8021L160.603 105.754L142.083 106.148L139.719 56.8912L144.671 50.7005L158.337 49.5293Z" fill="#CCCCCC"/>
<path d="M132.231 58.0737L129.078 57.6797C129.078 57.6797 128.29 58.0737 127.896 60.8321C127.502 63.5905 122.773 88.0217 122.773 88.0217L129.078 117.97L136.171 108.512L131.837 91.9622L136.171 75.412L132.231 58.0737Z" fill="#3F3F3F"/>
<path d="M172.424 57.6797H174.788L180.699 89.5975L175.182 114.423L169.666 105.36L171.242 95.5085L170.454 86.8395L167.695 81.7164L172.424 57.6797Z" fill="#3F3F3F"/>
<path d="M156.034 35.8131L154.279 35.3745C154.279 35.3745 152.963 27.9171 149.893 28.7944C146.822 29.6718 138.926 30.5491 138.926 27.0397C138.926 23.5304 146.383 20.4597 150.77 20.8984C155.157 21.337 160.759 22.7923 162.175 29.2331C164.446 39.558 157.491 42.1659 157.491 42.1659L157.607 41.7899C157.928 40.7461 157.951 39.6333 157.673 38.5771C157.395 37.5209 156.827 36.5635 156.034 35.8131Z" fill="#3F3F3F"/>
<path d="M129.473 57.6792L142.082 52.5565L145.038 50.3892L153.904 89.5974L158.041 49.207L174.395 57.6792L168.878 84.4747L168.09 94.72L170.454 102.995C170.454 102.995 178.729 108.906 175.971 115.211C173.212 121.516 170.06 121.91 170.06 121.91C170.06 121.91 156.662 109.3 155.874 106.148C155.086 102.995 153.904 97.4784 153.904 97.4784C153.904 97.4784 147.205 122.698 139.324 122.304C131.443 121.91 131.443 113.635 131.443 113.635L133.413 104.965L136.566 95.9022L134.989 80.9282L129.473 57.6792Z" fill="#3F3F3F"/>
</g>
<defs>
<clipPath id="clip0_7082_1063">
<rect width="243" height="210" fill="white"/>
</clipPath>
</defs>
</svg>
