<svg width="17" height="18" viewBox="0 0 17 18" fill="none" xmlns="http://www.w3.org/2000/svg">
<path fill-rule="evenodd" clip-rule="evenodd" d="M9.89917 0.793659C9.59083 0.666992 9.19917 0.666992 8.41667 0.666992C7.63417 0.666992 7.24333 0.666992 6.93417 0.793659C6.52371 0.962168 6.19698 1.2868 6.02583 1.69616C5.9475 1.88199 5.9175 2.09949 5.905 2.41533C5.89944 2.64416 5.83561 2.8678 5.71954 3.06509C5.60347 3.26238 5.43899 3.42681 5.24167 3.54283C5.04062 3.65458 4.81462 3.71378 4.5846 3.71495C4.35459 3.71611 4.128 3.6592 3.92583 3.54949C3.64417 3.40116 3.44 3.31949 3.23833 3.29283C2.79713 3.23489 2.35089 3.35349 1.99667 3.62283C1.73167 3.82449 1.53583 4.16116 1.145 4.83366C0.753333 5.50616 0.558333 5.84199 0.514166 6.17116C0.455833 6.60949 0.575833 7.05282 0.8475 7.40366C0.970833 7.56366 1.145 7.69783 1.41417 7.86616C1.81167 8.11366 2.06667 8.53533 2.06667 9.00033C2.06667 9.46533 1.81167 9.88699 1.415 10.1337C1.145 10.3028 0.970833 10.437 0.846666 10.597C0.712569 10.7703 0.614141 10.9684 0.55707 11.18C0.499999 11.3915 0.485417 11.6123 0.514166 11.8295C0.558333 12.1578 0.753333 12.4945 1.145 13.167C1.53667 13.8395 1.73167 14.1753 1.99667 14.3778C2.35 14.647 2.79667 14.7653 3.23833 14.7078C3.44 14.6812 3.64417 14.5995 3.92583 14.4512C4.1281 14.3413 4.35485 14.2843 4.58502 14.2855C4.8152 14.2866 5.04135 14.3459 5.2425 14.4578C5.6475 14.6912 5.8875 15.1203 5.905 15.5853C5.9175 15.902 5.9475 16.1187 6.02583 16.3045C6.19583 16.7128 6.5225 17.0378 6.93417 17.207C7.2425 17.3337 7.63417 17.3337 8.41667 17.3337C9.19917 17.3337 9.59083 17.3337 9.89917 17.207C10.3096 17.0385 10.6363 16.7139 10.8075 16.3045C10.8858 16.1187 10.9158 15.902 10.9283 15.5853C10.945 15.1203 11.1858 14.6903 11.5917 14.4578C11.7927 14.3461 12.0187 14.2869 12.2487 14.2857C12.4787 14.2845 12.7053 14.3414 12.9075 14.4512C13.1892 14.5995 13.3933 14.6812 13.595 14.7078C14.0367 14.7662 14.4833 14.647 14.8367 14.3778C15.1017 14.1762 15.2975 13.8395 15.6883 13.167C16.08 12.4945 16.275 12.1587 16.3192 11.8295C16.3478 11.6122 16.3331 11.3914 16.2759 11.1799C16.2187 10.9683 16.1201 10.7702 15.9858 10.597C15.8625 10.437 15.6883 10.3028 15.4192 10.1345C15.0217 9.88699 14.7667 9.46533 14.7667 9.00033C14.7667 8.53533 15.0217 8.11366 15.4183 7.86699C15.6883 7.69783 15.8625 7.56366 15.9867 7.40366C16.1208 7.23037 16.2192 7.03223 16.2763 6.82068C16.3333 6.60914 16.3479 6.38838 16.3192 6.17116C16.275 5.84282 16.08 5.50616 15.6883 4.83366C15.2967 4.16116 15.1017 3.82533 14.8367 3.62283C14.4824 3.35349 14.0362 3.23489 13.595 3.29283C13.3933 3.31949 13.1892 3.40116 12.9075 3.54949C12.7052 3.65935 12.4785 3.71634 12.2483 3.71517C12.0181 3.71401 11.792 3.65473 11.5908 3.54283C11.3937 3.42671 11.2294 3.26224 11.1134 3.06495C10.9975 2.86767 10.9338 2.64408 10.9283 2.41533C10.9158 2.09866 10.8858 1.88199 10.8075 1.69616C10.7228 1.49344 10.599 1.30939 10.4431 1.15454C10.2873 0.999686 10.1024 0.877057 9.89917 0.793659ZM8.41667 11.5003C9.80833 11.5003 10.9358 10.3812 10.9358 9.00033C10.9358 7.61949 9.8075 6.50033 8.41667 6.50033C7.025 6.50033 5.8975 7.61949 5.8975 9.00033C5.8975 10.3812 7.02583 11.5003 8.41667 11.5003Z" fill="#808185"/>
</svg>
