<svg width="40" height="40" viewBox="0 0 40 40" fill="none" xmlns="http://www.w3.org/2000/svg">
<rect width="40" height="40" rx="20" fill="#FFD883"/>
<mask id="mask0_8133_1717" style="mask-type:alpha" maskUnits="userSpaceOnUse" x="0" y="0" width="40" height="40">
<rect width="40" height="40" rx="20" fill="#FFBE2E"/>
</mask>
<g mask="url(#mask0_8133_1717)">
<path d="M36.1872 24.4337C35.7421 25.2059 35.5558 25.8237 35.0834 28.0358C34.611 30.2526 32.7531 34.627 30.7862 36.9345C30.7862 36.9345 28.8284 39.5919 24.4813 41.9358C20.3431 41.1772 16.1368 40.0189 11.9577 38.3927C7.22447 36.5484 3.82216 34.1818 1.54639 31.5653C2.66838 29.4485 4.16739 27.3363 5.02137 26.3279C5.07588 26.2643 5.14402 25.9872 5.2167 25.5784C5.48925 24.0203 5.80722 20.5544 5.63915 19.5959C5.63915 19.5959 3.40426 20.2455 3.34066 19.337C3.29524 18.6647 3.91755 18.1696 4.6716 17.947C5.48925 17.7108 5.97529 18.1696 6.12974 18.324C6.28418 18.4785 8.11934 16.8341 7.66055 14.9081C7.66055 14.9081 9.01875 13.6635 11.399 14.6128C13.8247 15.8847 16.264 17.9834 16.1913 18.2332C16.0959 18.5512 12.3711 18.7874 12.3711 18.7874C12.3711 18.7874 12.4256 24.3201 12.1667 25.8555C12.1667 25.8555 13.7384 29.285 19.7526 33.0098C19.7526 33.0098 19.6981 33.1416 19.5936 33.3641C21.9239 35.0994 23.4592 35.8988 25.3853 34.5724C27.3113 33.246 30.541 28.5582 31.2859 25.2831C31.2859 25.2831 30.5637 24.6426 30.3683 23.6206C30.173 22.603 30.0913 22.3396 29.5552 21.9353C29.0419 21.5537 28.3924 21.0677 28.5832 20.3273C27.9336 20.191 27.4475 19.6141 27.4475 18.9282C27.4475 18.2105 27.9745 17.6154 28.6649 17.5155C28.565 17.5064 28.4605 17.4973 28.356 17.4973C27.5293 17.4973 27.3113 16.6706 28.5286 16.557C29.3417 16.4798 30.441 16.448 30.8816 16.6115C31.3041 16.7705 32.5487 17.6063 32.6714 17.6926C32.9212 17.6154 33.1392 17.5927 33.2846 17.6336C33.9614 17.8153 35.0743 18.6284 36.3735 20.2182C37.3547 21.422 36.9322 23.1345 36.1872 24.4337Z" fill="white"/>
<path d="M9.16864 17.4666C9.05962 17.4711 8.96423 17.3848 8.95969 17.2713L8.94152 16.758C8.93697 16.6489 9.02328 16.5535 9.13684 16.549C9.24586 16.5445 9.34125 16.6308 9.3458 16.7443L9.36397 17.2576C9.36397 17.3712 9.27766 17.462 9.16864 17.4666Z" fill="#202D37"/>
<path d="M10.5314 17.366C10.4224 17.3705 10.327 17.2842 10.3224 17.1707L10.3042 16.6574C10.2997 16.5483 10.386 16.453 10.4996 16.4484C10.6086 16.4439 10.704 16.5302 10.7085 16.6437L10.7267 17.157C10.7312 17.2706 10.6449 17.3614 10.5314 17.366Z" fill="#202D37"/>
<path d="M0.160942 35.3038C0.151857 35.3038 0.142772 35.3038 0.133687 35.2993C0.0473799 35.2857 -0.0116719 35.2039 0.00195554 35.1176C0.474372 32.3649 3.41789 27.9678 4.89419 26.2234C4.98958 26.069 5.18945 24.8834 5.35298 23.2254C5.50288 21.6764 5.55739 20.3955 5.50288 19.7868C5.05318 19.9003 3.93119 20.132 3.43152 19.7868C3.27707 19.6778 3.19077 19.5233 3.17714 19.3371C3.14988 18.9555 3.31341 18.5966 3.64047 18.3014C4.20828 17.7972 5.21216 17.5428 6.03435 17.6972C6.12066 17.7154 6.17971 17.7972 6.16154 17.8835C6.14337 17.9698 6.06161 18.0288 5.9753 18.0107C5.25759 17.8744 4.34455 18.1015 3.85397 18.5421C3.59505 18.7738 3.4724 19.0327 3.49511 19.3189C3.49966 19.4097 3.54054 19.4779 3.61322 19.5324C4.01295 19.8095 5.17583 19.5597 5.58919 19.4415C5.63461 19.4279 5.68004 19.437 5.71638 19.4597C5.75272 19.4824 5.77997 19.5233 5.78906 19.5687C5.90262 20.2183 5.79814 21.9308 5.66187 23.3163C5.61645 23.7887 5.37115 26.1599 5.13949 26.4324C3.6859 28.154 0.774175 32.483 0.315385 35.1766C0.301758 35.2493 0.238164 35.3038 0.160942 35.3038Z" fill="#202D37"/>
<path d="M4.09471 19.1744C4.0402 19.1744 3.99023 19.1471 3.95843 19.1017C3.91301 19.029 3.93572 18.9291 4.0084 18.8837C4.49444 18.5793 5.35751 18.5384 5.63006 18.811C5.69365 18.8746 5.69365 18.9745 5.63006 19.0381C5.56646 19.1017 5.46653 19.1017 5.40294 19.0381C5.27575 18.9109 4.58529 18.8973 4.17647 19.1562C4.15376 19.1653 4.12196 19.1744 4.09471 19.1744Z" fill="#202D37"/>
<path d="M16.6592 37.1936C16.6092 37.1936 16.5593 37.1709 16.5275 37.1254C16.4775 37.0527 16.4957 36.9528 16.5683 36.9028C18.299 35.7263 19.3165 33.6005 19.5482 33.069C16.4957 31.1612 14.6196 29.3351 13.5794 28.1359C12.4347 26.8095 12.035 25.9555 12.0168 25.9192C12.0032 25.8919 11.9986 25.8556 12.0032 25.8283C12.2621 24.3248 12.2076 18.842 12.2076 18.7875C12.2076 18.7012 12.2712 18.633 12.3575 18.6285C13.9155 18.5286 15.6235 18.3378 16.0005 18.1788C15.5962 17.6064 12.0577 14.6584 9.35036 13.9452C9.26405 13.9225 9.21408 13.8362 9.23679 13.7499C9.25951 13.6636 9.34581 13.6136 9.43212 13.6363C11.0084 14.0497 12.8117 15.2126 13.7475 15.8712C14.9739 16.7343 16.0959 17.6973 16.3049 18.0652C16.3321 18.1152 16.3685 18.1924 16.3412 18.2742C16.3049 18.4014 16.1686 18.4968 15.5826 18.6058C15.2556 18.6648 14.8149 18.7239 14.2608 18.7829C13.5476 18.8602 12.8299 18.9101 12.5301 18.9328C12.5392 19.8368 12.5619 24.3611 12.3302 25.8283C12.4256 26.0146 12.8526 26.8095 13.8383 27.9451C14.874 29.1398 16.7591 30.9658 19.8389 32.8737C19.9025 32.9146 19.9298 32.9963 19.9025 33.069C19.8571 33.178 18.8123 35.7718 16.7546 37.1709C16.7182 37.1845 16.6864 37.1936 16.6592 37.1936Z" fill="#202D37"/>
<path d="M8.64154 27.3554C8.03285 27.3554 7.49229 27.2873 7.04259 27.1964C5.77524 26.942 4.97577 26.4833 4.93943 26.4651C4.86221 26.4197 4.83949 26.3243 4.88038 26.247C4.9258 26.1698 5.02119 26.1471 5.09841 26.188C5.1075 26.1925 5.89334 26.6422 7.11527 26.8875C8.23726 27.1101 9.96794 27.1964 11.8394 26.3379C11.9212 26.3016 12.012 26.3379 12.0484 26.4151C12.0847 26.4969 12.0484 26.5877 11.9712 26.6241C10.7674 27.1782 9.61817 27.3554 8.64154 27.3554Z" fill="#202D37"/>
<path d="M8.69148 26.3458C6.24309 26.3458 5.18923 25.7462 5.13018 25.7099C5.05296 25.6644 5.03025 25.569 5.07567 25.4918C5.1211 25.4146 5.21649 25.3919 5.29371 25.4373C5.31642 25.4509 7.28785 26.5548 12.1347 25.6962C12.221 25.6826 12.3027 25.7371 12.3209 25.8234C12.3345 25.9097 12.28 25.9915 12.1937 26.0097C10.7992 26.2549 9.64085 26.3458 8.69148 26.3458Z" fill="#202D37"/>
<path d="M6.81113 34.9365C6.6794 34.9365 6.56129 34.9183 6.46136 34.8774C6.37959 34.8456 6.33871 34.7502 6.37505 34.673C6.40685 34.5912 6.50224 34.5504 6.57946 34.5822C6.93377 34.723 7.82864 34.4368 8.20112 34.0643C8.49638 33.7691 8.41462 32.3518 8.33739 31.9793C7.93766 31.9657 6.17518 32.1701 5.7391 32.2519C5.75273 32.3972 5.82087 32.747 5.92989 33.3148L5.97985 33.5783C5.99802 33.6646 5.93897 33.7463 5.85267 33.7645C5.76636 33.7827 5.68459 33.7236 5.66643 33.6373L5.61646 33.3739C5.52107 32.8833 5.46201 32.588 5.43476 32.4018C5.41205 32.2428 5.38479 32.0611 5.52107 31.9793C5.621 31.9203 6.77933 31.7885 7.01099 31.7613C8.4873 31.5978 8.52818 31.6523 8.59177 31.7522C8.67354 31.8749 8.7235 32.5017 8.72805 32.8924C8.73713 33.6101 8.63266 34.0779 8.4237 34.2869C8.08302 34.6367 7.34714 34.9365 6.81113 34.9365Z" fill="#202D37"/>
<path d="M4.66717 17.9431C5.48481 17.7069 5.97085 18.1657 6.1253 18.3202C6.27974 18.4746 8.1149 16.8302 7.65611 14.8997C7.65611 14.8997 9.01431 13.6551 11.3991 14.6044C11.3991 14.6044 11.8034 12.4876 9.27777 12.6285C9.94097 11.7336 8.49646 11.3248 6.82029 13.328C6.5432 12.1152 5.28494 12.0743 5.85729 13.9685C5.85729 13.973 3.66782 13.8822 4.66717 17.9431Z" fill="#202D37"/>
<path d="M6.14776 18.4927C6.09325 18.4927 6.04782 18.4745 6.01148 18.4336C5.64354 18.0657 5.20747 17.9521 4.71234 18.0975C4.67146 18.1111 4.62603 18.102 4.58969 18.0838C4.55335 18.0611 4.5261 18.0248 4.51701 17.9839C4.09911 16.2805 4.17178 15.0631 4.73959 14.3681C5.04848 13.9911 5.42551 13.8684 5.65717 13.8321C5.49364 13.1871 5.52998 12.701 5.76619 12.4603C5.89338 12.3285 6.07508 12.2831 6.25678 12.3376C6.5157 12.4103 6.75191 12.6647 6.89272 13.0144C8.04197 11.7516 9.05494 11.5699 9.43196 11.8652C9.57732 11.9788 9.66817 12.1923 9.55915 12.4693C10.2814 12.4784 10.822 12.6828 11.1717 13.078C11.7305 13.714 11.5669 14.6043 11.5624 14.6406C11.5533 14.6861 11.526 14.7269 11.4806 14.7497C11.4397 14.7724 11.3898 14.7769 11.3443 14.7587C9.35474 13.9638 8.13282 14.7406 7.83756 14.9677C8.19641 16.7438 6.77462 18.1974 6.34763 18.4336C6.27041 18.4699 6.20681 18.4927 6.14776 18.4927ZM5.11208 17.7204C5.44368 17.7204 5.8207 17.8249 6.17956 18.1611C6.32946 18.0793 6.72465 17.7341 7.05171 17.2026C7.37422 16.6802 7.71491 15.8626 7.49687 14.945C7.48324 14.8905 7.50141 14.8314 7.5423 14.7905C7.60135 14.7406 8.92775 13.555 11.2535 14.3908C11.2626 14.1273 11.2308 13.6504 10.9173 13.287C10.5903 12.919 10.0407 12.751 9.27752 12.7919C9.21847 12.7964 9.15941 12.7646 9.12762 12.7101C9.10036 12.6556 9.1049 12.5874 9.14124 12.542C9.25026 12.3921 9.33203 12.2013 9.22301 12.115C8.98226 11.9242 8.03742 12.1241 6.93815 13.4369C6.89727 13.4823 6.83821 13.505 6.77916 13.4914C6.72011 13.4778 6.67468 13.4323 6.66106 13.3733C6.56112 12.9418 6.33854 12.701 6.16138 12.651C6.08871 12.6329 6.02965 12.642 5.98423 12.6919C5.8525 12.8237 5.7889 13.2234 6.00694 13.9366C6.02057 13.9865 6.01148 14.041 5.97969 14.0819C5.94789 14.1228 5.89792 14.1455 5.84796 14.1455C5.82979 14.1455 5.34374 14.1364 4.9758 14.5907C4.6442 14.9995 4.34894 15.8853 4.78502 17.7659C4.88495 17.7295 4.99851 17.7204 5.11208 17.7204Z" fill="#202D37"/>
<path d="M10.1862 20.5229C9.88189 20.5229 9.60025 20.4365 9.36405 20.2685C8.98248 19.9959 8.73265 19.519 8.67359 18.9557C8.66451 18.8694 8.7281 18.7922 8.81441 18.7831C8.90072 18.774 8.97794 18.8376 8.98702 18.9239C9.03699 19.3963 9.2414 19.7915 9.54575 20.0141C9.80921 20.2049 10.1363 20.2594 10.5087 20.1731C10.5951 20.1549 10.6814 20.2094 10.6995 20.2912C10.7177 20.3775 10.6632 20.4638 10.5814 20.482C10.4497 20.5092 10.3134 20.5229 10.1862 20.5229Z" fill="#202D37"/>
<path d="M23.4728 35.3857C22.1873 35.3857 20.9472 34.568 19.4936 33.4869C19.4209 33.4324 19.4073 33.337 19.4618 33.2643C19.5163 33.1962 19.6117 33.178 19.6844 33.2325C22.1327 35.0495 23.5227 35.6582 25.2898 34.4363C27.2112 33.1099 30.3501 28.4811 31.1041 25.3286C30.9088 25.1333 30.3773 24.5292 30.2047 23.6434C30.0094 22.6259 29.9367 22.4169 29.4507 22.0581C28.9237 21.6674 28.1288 21.0723 28.4559 20.1593C28.4831 20.0775 28.5785 20.0321 28.6603 20.0639C28.742 20.0912 28.7875 20.1866 28.7557 20.2683C28.524 20.9134 28.9964 21.3267 29.6414 21.8037C30.2365 22.2488 30.3228 22.5623 30.5181 23.5843C30.6998 24.5337 31.3767 25.1515 31.3858 25.156C31.4266 25.1924 31.4493 25.2514 31.4357 25.3105C31.0905 26.8277 30.1684 28.8036 28.9056 30.7387C27.7245 32.5512 26.439 34.0275 25.4715 34.6997C24.7765 35.1812 24.1178 35.3857 23.4728 35.3857Z" fill="#202D37"/>
<path d="M31.0543 18.9281C31.0088 18.9281 30.9634 18.91 30.9316 18.8691C30.5818 18.4466 29.5916 17.6517 28.3515 17.6517C27.82 17.6517 27.5248 17.3655 27.5111 17.0793C27.4975 16.7932 27.7519 16.4661 28.5059 16.3934C28.9284 16.3525 30.3547 16.2435 30.9316 16.457C31.3359 16.6069 32.3943 17.311 32.7123 17.5245C32.7849 17.5745 32.8031 17.6744 32.7531 17.7471C32.7032 17.8198 32.6032 17.8379 32.5306 17.788C31.8946 17.361 31.1088 16.8613 30.8181 16.7523C30.4092 16.5978 29.3327 16.6342 28.5332 16.7069C28.0608 16.7523 27.82 16.9158 27.8246 17.0612C27.8291 17.1929 28.0335 17.3292 28.347 17.3292C29.7006 17.3292 30.759 18.165 31.1678 18.6601C31.2223 18.7283 31.2132 18.8282 31.1497 18.8827C31.1269 18.9145 31.0906 18.9281 31.0543 18.9281Z" fill="#202D37"/>
<path d="M32.2082 22.3991C32.2037 22.3991 32.2037 22.3991 32.1992 22.3991C32.1583 22.3991 31.2134 22.3492 30.9954 21.7723C30.7319 21.0773 31.6268 20.1143 32.5626 19.1876C32.6262 19.124 32.7261 19.1286 32.7851 19.1876C32.8487 19.2512 32.8442 19.3511 32.7851 19.4102C32.1901 20.0007 31.0817 21.0954 31.2952 21.6542C31.4179 21.9721 31.9993 22.0675 32.2128 22.0766C32.2991 22.0812 32.3672 22.1538 32.3627 22.2401C32.3627 22.331 32.2946 22.3991 32.2082 22.3991Z" fill="#202D37"/>
<path d="M33.4389 23.6032C33.3072 23.6032 33.18 23.5986 33.0528 23.5941C32.5804 23.5714 32.1534 23.1126 32.0444 22.5039C31.9308 21.8589 32.7621 21.0957 33.5888 20.428C33.657 20.3735 33.7569 20.3826 33.8114 20.4507C33.8659 20.5188 33.8568 20.6188 33.7887 20.6733C33.4117 20.9776 32.2624 21.8997 32.3578 22.4448C32.4396 22.9036 32.7439 23.2625 33.0664 23.2761C34.0431 23.317 34.7653 23.1853 34.8607 22.94C34.9379 22.7492 34.8425 22.5539 34.7381 22.4494C34.6563 22.3676 34.5291 22.2949 34.411 22.3358C34.3292 22.3676 34.2384 22.3222 34.2066 22.2404C34.1748 22.1587 34.2202 22.0678 34.302 22.036C34.52 21.9588 34.7744 22.0315 34.9652 22.2268C35.1878 22.4585 35.265 22.7855 35.156 23.0581C34.9834 23.4941 34.193 23.6032 33.4389 23.6032Z" fill="#202D37"/>
<path d="M33.5163 25.629C33.4572 25.629 33.3982 25.5926 33.3709 25.5381C33.0529 24.8431 33.221 23.8302 33.5708 23.3532C33.6207 23.2805 33.7207 23.2669 33.7933 23.3214C33.866 23.3714 33.8797 23.4713 33.8251 23.544C33.5344 23.9392 33.3982 24.8386 33.6571 25.4064C33.6934 25.4882 33.6571 25.579 33.5798 25.6153C33.5571 25.6199 33.5344 25.629 33.5163 25.629Z" fill="#202D37"/>
<path d="M34.0387 22.6758C33.9887 22.6758 33.9388 22.6531 33.9115 22.6077C33.8615 22.535 33.8752 22.4351 33.9478 22.3851C34.2022 22.2034 34.4657 21.6674 34.4748 21.5584C34.4748 21.4721 34.5474 21.3994 34.6338 21.3994C34.7201 21.3994 34.7927 21.4721 34.7927 21.5584C34.7927 21.7492 34.4748 22.3942 34.1341 22.6395C34.1023 22.6668 34.0705 22.6758 34.0387 22.6758Z" fill="#202D37"/>
<path d="M28.8739 20.5419C29.767 20.5419 30.491 19.8178 30.491 18.9247C30.491 18.0316 29.767 17.3076 28.8739 17.3076C27.9808 17.3076 27.2568 18.0316 27.2568 18.9247C27.2568 19.8178 27.9808 20.5419 28.8739 20.5419Z" fill="#FAD932"/>
<path d="M28.8738 20.6098C27.9426 20.6098 27.1885 19.8557 27.1885 18.9245C27.1885 17.9933 27.9426 17.2393 28.8738 17.2393C29.805 17.2393 30.559 17.9933 30.559 18.9245C30.559 19.8557 29.805 20.6098 28.8738 20.6098ZM28.8738 17.3755C28.0198 17.3755 27.3248 18.0705 27.3248 18.9245C27.3248 19.7785 28.0198 20.4735 28.8738 20.4735C29.7278 20.4735 30.4228 19.7785 30.4228 18.9245C30.4228 18.0705 29.7278 17.3755 28.8738 17.3755Z" fill="white"/>
<path d="M29.4009 18.8606C29.4554 18.9333 29.4827 19.006 29.4827 19.0787C29.4827 19.1468 29.4554 19.2195 29.4009 19.2876L29.5417 19.4829C29.5463 19.4875 29.5463 19.4966 29.5463 19.5011C29.5463 19.5056 29.5417 19.5147 29.5372 19.5193L29.2783 19.701C29.2737 19.7055 29.2646 19.7055 29.2601 19.7055C29.2556 19.7055 29.2465 19.701 29.2419 19.6964L29.1193 19.5238C29.0693 19.5556 29.0239 19.5829 28.9785 19.6056C28.9739 19.6101 28.9648 19.6101 28.9603 19.6056C28.9558 19.6056 28.9467 19.601 28.9421 19.5965L28.8149 19.3739C28.8104 19.3648 28.8104 19.3603 28.8149 19.3512C28.8195 19.3421 28.824 19.3376 28.8286 19.3376C28.8467 19.3285 28.8649 19.3194 28.8831 19.3149C28.9012 19.3058 28.924 19.2921 28.9558 19.2785C28.983 19.2649 29.0103 19.2467 29.033 19.2286C29.0602 19.2104 29.0784 19.1922 29.092 19.174C29.1057 19.1559 29.1102 19.1377 29.1102 19.1241C29.1102 19.1104 29.1102 19.0968 29.1057 19.0877C29.1011 19.0787 29.1011 19.0696 29.0966 19.065C29.092 19.0559 29.0829 19.0514 29.0739 19.0469C29.0648 19.0423 29.0511 19.0332 29.033 19.0287C29.0148 19.0196 28.9921 19.0196 28.9648 19.0196C28.9376 19.0241 28.9058 19.0287 28.8694 19.0423C28.8286 19.0605 28.7877 19.0696 28.7468 19.0696C28.7014 19.0741 28.6605 19.0696 28.6105 19.0605C28.5651 19.0514 28.5197 19.0332 28.4743 19.0014C28.4288 18.9696 28.3879 18.9333 28.3562 18.8833C28.3062 18.8152 28.2835 18.747 28.2835 18.6744C28.2835 18.6017 28.3107 18.5336 28.3607 18.4654L28.2199 18.2655C28.2153 18.261 28.2153 18.2519 28.2153 18.2474C28.2153 18.2383 28.2199 18.2338 28.2244 18.2292L28.4833 18.0475C28.4879 18.043 28.497 18.043 28.5015 18.043C28.5106 18.043 28.5151 18.0475 28.5197 18.0521L28.6423 18.2247C28.6877 18.1929 28.7377 18.1656 28.7877 18.1384C28.7922 18.1338 28.8013 18.1338 28.8059 18.1384C28.8149 18.1384 28.8195 18.1429 28.8195 18.152L28.9467 18.3746C28.9512 18.3791 28.9512 18.3882 28.9467 18.3973C28.9467 18.4064 28.9421 18.4109 28.933 18.4109C28.8513 18.4472 28.7786 18.4836 28.7195 18.5245C28.6968 18.5426 28.6741 18.5608 28.665 18.579C28.6514 18.5971 28.6469 18.6153 28.6469 18.6335C28.6469 18.6517 28.6469 18.6607 28.6514 18.6744C28.656 18.6835 28.656 18.6925 28.665 18.7016C28.6696 18.7062 28.6741 18.7153 28.6832 18.7198C28.6923 18.7243 28.7059 18.7334 28.7241 18.738C28.7423 18.7425 28.765 18.747 28.7922 18.7425C28.8195 18.738 28.8513 18.7334 28.8876 18.7198C28.9285 18.7062 28.9694 18.6971 29.0103 18.6925C29.0557 18.688 29.1011 18.6925 29.1465 18.7016C29.192 18.7107 29.2374 18.7289 29.2828 18.7607C29.3237 18.7743 29.3646 18.8106 29.4009 18.8606Z" fill="#202D37"/>
<path d="M29.2599 19.7737C29.2553 19.7737 29.2508 19.7737 29.2463 19.7737C29.2235 19.7692 29.2008 19.7556 29.1872 19.7374L29.1009 19.6147C29.0691 19.6329 29.0418 19.6511 29.0146 19.6647C28.9919 19.6738 28.9692 19.6783 28.9465 19.6738C28.9237 19.6692 28.9056 19.6556 28.8919 19.6374L28.8874 19.6329L28.7602 19.4103C28.7466 19.3876 28.742 19.3604 28.7511 19.3331C28.7602 19.3058 28.7784 19.2877 28.8056 19.2786C28.8238 19.2695 28.842 19.265 28.8556 19.2559C28.8738 19.2468 28.8965 19.2332 28.9237 19.2195C28.951 19.2059 28.9737 19.1923 28.9964 19.1741C29.0146 19.1605 29.0282 19.1514 29.0373 19.1378C29.0418 19.1287 29.0464 19.1241 29.0464 19.1241C29.0464 19.1105 29.0464 19.106 29.0464 19.106C29.0464 19.1014 29.0464 19.1014 29.0464 19.1014C29.0464 19.1014 29.0464 19.1014 29.0418 19.0969C29.0418 19.0969 29.0328 19.0924 29.0191 19.0833C29.0191 19.0833 29.0055 19.0787 28.9828 19.0833C28.9601 19.0833 28.9374 19.0924 28.9101 19.1014C28.8647 19.1196 28.8147 19.1332 28.7648 19.1332C28.7148 19.1378 28.6648 19.1332 28.6103 19.1241C28.5558 19.1151 28.5013 19.0924 28.4468 19.056C28.3923 19.0197 28.3469 18.9742 28.3105 18.9197C28.2515 18.838 28.2242 18.7562 28.2287 18.6699C28.2287 18.6018 28.2515 18.5291 28.2923 18.4609L28.1742 18.2974C28.1606 18.2792 28.1561 18.2565 28.1561 18.2293C28.1606 18.202 28.1742 18.1793 28.1924 18.1657L28.4513 17.984C28.4695 17.9704 28.4968 17.9658 28.5195 17.9658C28.5422 17.9704 28.5649 17.984 28.5785 18.0022L28.6648 18.1248C28.6966 18.1066 28.7284 18.0885 28.7557 18.0703C28.7784 18.0612 28.8011 18.0567 28.8238 18.0612C28.8511 18.0658 28.8738 18.0839 28.8829 18.1066L29.0101 18.3292C29.0237 18.3519 29.0237 18.3792 29.0191 18.4019C29.0101 18.4292 28.9919 18.4519 28.9646 18.4609C28.8874 18.4927 28.8193 18.5291 28.7648 18.57C28.7466 18.5836 28.733 18.5927 28.7284 18.6063C28.7239 18.6154 28.7193 18.6199 28.7193 18.6199C28.7193 18.6336 28.7193 18.6381 28.7193 18.6426C28.7193 18.6472 28.7239 18.6472 28.7239 18.6517C28.7239 18.6517 28.7284 18.6563 28.7466 18.6608C28.7511 18.6608 28.7602 18.6654 28.7875 18.6654C28.8102 18.6654 28.8329 18.6563 28.8601 18.6472C28.9056 18.629 28.9555 18.6199 29.001 18.6154C29.0509 18.6109 29.1009 18.6154 29.1554 18.6245C29.2099 18.6336 29.2644 18.6608 29.3189 18.6926C29.3689 18.729 29.4189 18.7744 29.4552 18.8289C29.5143 18.9152 29.5461 19.0015 29.5506 19.0833C29.5506 19.1559 29.5279 19.2241 29.4825 19.2968L29.5915 19.4512C29.6051 19.4694 29.6097 19.4966 29.6097 19.5193C29.6051 19.5421 29.5915 19.5648 29.5733 19.5784L29.3144 19.7601C29.2962 19.7692 29.2781 19.7737 29.2599 19.7737ZM29.1145 19.4512C29.1372 19.4512 29.1554 19.4603 29.169 19.4785L29.269 19.6147L29.4552 19.483L29.3417 19.324C29.3235 19.3013 29.3235 19.265 29.3417 19.2423C29.3871 19.1832 29.4098 19.1287 29.4098 19.0742C29.4098 19.0197 29.3871 18.9606 29.3417 18.897C29.3144 18.8561 29.2781 18.8198 29.2417 18.7971C29.2054 18.7744 29.1645 18.7562 29.1282 18.7471C29.0873 18.738 29.0509 18.738 29.0146 18.738C28.9783 18.7426 28.9419 18.7471 28.9101 18.7608C28.8692 18.7744 28.8329 18.788 28.7966 18.788C28.7557 18.7925 28.7239 18.788 28.6966 18.7789C28.6739 18.7698 28.6557 18.7608 28.6421 18.7517C28.6285 18.7426 28.6149 18.729 28.6058 18.7153C28.5967 18.7017 28.5876 18.6881 28.5831 18.6699C28.5785 18.6563 28.5785 18.6336 28.5785 18.6154C28.5785 18.5836 28.5876 18.5563 28.6103 18.5245C28.6285 18.4973 28.6512 18.4746 28.683 18.4519C28.733 18.4155 28.792 18.3837 28.8601 18.3519L28.7784 18.2066C28.742 18.2247 28.7102 18.2475 28.6739 18.2702C28.6421 18.2883 28.6012 18.2838 28.5831 18.252L28.4831 18.1112L28.2969 18.2475L28.415 18.4155C28.4332 18.4382 28.4332 18.47 28.415 18.4927C28.3741 18.5518 28.3514 18.6063 28.3514 18.6654C28.3514 18.7199 28.3696 18.7789 28.4104 18.8334C28.4377 18.8743 28.474 18.9107 28.5104 18.9334C28.5467 18.9606 28.5876 18.9742 28.6239 18.9833C28.6648 18.9924 28.7012 18.9924 28.742 18.9924C28.7784 18.9879 28.8147 18.9833 28.8465 18.9697C28.8874 18.9515 28.9283 18.9425 28.9601 18.9425C29.001 18.9379 29.0328 18.9425 29.06 18.9561C29.0827 18.9652 29.1009 18.9742 29.1145 18.9833C29.1282 18.9924 29.1418 19.006 29.1509 19.0197C29.16 19.0333 29.169 19.0469 29.1736 19.0651C29.1781 19.0833 29.1827 19.1014 29.1827 19.1196C29.1827 19.1469 29.1736 19.1787 29.1509 19.2105C29.1327 19.2377 29.11 19.2604 29.0736 19.2831C29.0509 19.3013 29.0237 19.3195 28.9919 19.3331C28.9601 19.3513 28.9374 19.3604 28.9192 19.374C28.9147 19.3785 28.9101 19.3785 28.9056 19.3831L28.9873 19.5284C29.0191 19.5103 29.0509 19.4921 29.0827 19.4694C29.0873 19.4557 29.1009 19.4512 29.1145 19.4512Z" fill="#202D37"/>
<path d="M30.7818 37.0942C30.7455 37.0942 30.7091 37.0806 30.6773 37.0578C30.6092 36.9988 30.6046 36.8989 30.6592 36.8353C32.626 34.5277 34.4657 30.1397 34.9245 28.0047C35.406 25.7607 35.5923 25.143 36.0465 24.3571C36.3872 23.7666 37.4002 21.7361 36.2419 20.3143C35.1153 18.9334 33.9933 17.9886 33.2393 17.7842C32.8123 17.6661 31.5268 18.1794 30.691 19.5285C30.1777 20.3597 30.2004 20.655 30.3003 20.8503C30.4048 21.0547 30.8727 21.1274 31.1089 21.0638C31.1952 21.0411 31.2815 21.0911 31.3042 21.1774C31.3269 21.2637 31.2769 21.35 31.1906 21.3727C30.8908 21.4499 30.2231 21.3909 30.0187 20.9957C29.8188 20.6096 29.9324 20.1508 30.4229 19.3604C31.2906 17.9659 32.7214 17.3163 33.3256 17.4798C34.1432 17.7024 35.3288 18.6881 36.4917 20.119C36.9732 20.7095 37.1731 21.4454 37.0867 22.313C36.9959 23.2033 36.6234 24.0028 36.3236 24.5206C35.8921 25.2747 35.7058 25.8743 35.238 28.0774C34.9881 29.2357 34.3931 30.8983 33.639 32.5245C32.7759 34.3823 31.8084 35.9904 30.9045 37.0442C30.8727 37.076 30.8272 37.0942 30.7818 37.0942Z" fill="#202D37"/>
</g>
</svg>
