<svg width="40" height="40" viewBox="0 0 40 40" fill="none" xmlns="http://www.w3.org/2000/svg">
<rect width="40" height="40" rx="20" fill="#FFBE2E"/>
<path d="M19.9991 11.6279C18.8667 11.6279 17.8843 12.1713 17.1084 12.9821C15.9799 12.9571 14.8818 13.2554 14.0876 14.0496C13.2935 14.8438 12.9945 15.9421 13.0199 17.0704C12.2089 17.8463 11.6658 18.8288 11.6658 19.9613C11.6658 21.0938 12.2089 22.0763 13.0199 22.8521C12.9945 23.9804 13.2935 25.0788 14.0876 25.8729C14.8819 26.6671 15.9799 26.9663 17.1084 26.9404C17.8843 27.7513 18.8667 28.2946 19.9991 28.2946C21.1315 28.2946 22.1139 27.7513 22.8898 26.9404C24.0183 26.9654 25.1164 26.6671 25.9106 25.8729C26.7047 25.0788 27.0037 23.9804 26.9783 22.8521C27.7894 22.0763 28.3324 21.0938 28.3324 19.9613C28.3324 18.8288 27.7894 17.8463 26.9783 17.0704C27.0037 15.9421 26.7047 14.8438 25.9106 14.0496C25.1164 13.2554 24.0183 12.9563 22.8898 12.9821C22.1139 12.1713 21.1315 11.6279 19.9991 11.6279ZM22.4991 17.4613C22.7124 17.4613 22.9354 17.5329 23.0981 17.6954C23.4235 18.0213 23.4235 18.5679 23.0981 18.8938L19.7648 22.2271C19.4393 22.5521 18.8923 22.5521 18.5668 22.2271L16.9001 20.5604C16.5747 20.2346 16.5747 19.6879 16.9001 19.3621C17.2256 19.0371 17.7726 19.0371 18.0981 19.3621L19.1658 20.4296L21.9001 17.6954C22.0629 17.5329 22.2859 17.4613 22.4991 17.4613Z" fill="white"/>
</svg>
