<svg width="48" height="49" viewBox="0 0 48 49" fill="none" xmlns="http://www.w3.org/2000/svg">
<rect y="0.550781" width="47.6914" height="47.6914" rx="23.8457" fill="#FFDA89"/>
<path d="M23.8448 16.0239C22.7124 16.0239 21.73 16.5673 20.9541 17.3781C19.8256 17.3531 18.7275 17.6514 17.9333 18.4456C17.1392 19.2398 16.8402 20.3381 16.8656 21.4664C16.0546 22.2423 15.5115 23.2248 15.5115 24.3573C15.5115 25.4898 16.0546 26.4723 16.8656 27.2481C16.8402 28.3764 17.1392 29.4748 17.9333 30.2689C18.7276 31.0631 19.8256 31.3623 20.9541 31.3364C21.73 32.1473 22.7124 32.6906 23.8448 32.6906C24.9772 32.6906 25.9596 32.1473 26.7355 31.3364C27.864 31.3614 28.9621 31.0631 29.7563 30.2689C30.5504 29.4748 30.8494 28.3764 30.824 27.2481C31.6351 26.4723 32.1781 25.4898 32.1781 24.3573C32.1781 23.2248 31.6351 22.2423 30.824 21.4664C30.8494 20.3381 30.5504 19.2398 29.7563 18.4456C28.9621 17.6514 27.864 17.3523 26.7355 17.3781C25.9596 16.5673 24.9772 16.0239 23.8448 16.0239ZM26.3448 21.8573C26.5581 21.8573 26.7811 21.9289 26.9438 22.0914C27.2692 22.4173 27.2692 22.9639 26.9438 23.2898L23.6105 26.6231C23.285 26.9481 22.738 26.9481 22.4125 26.6231L20.7458 24.9564C20.4204 24.6306 20.4204 24.0839 20.7458 23.7581C21.0713 23.4331 21.6183 23.4331 21.9438 23.7581L23.0115 24.8256L25.7458 22.0914C25.9086 21.9289 26.1316 21.8573 26.3448 21.8573Z" fill="#030507"/>
</svg>
