<svg width="288" height="287" viewBox="0 0 288 287" fill="none" xmlns="http://www.w3.org/2000/svg">
<path d="M123.135 21.8388C113.319 16.4928 101.083 16.0606 90.9471 20.7924C89.2806 21.5658 87.7968 19.0862 89.4861 18.3127C100.581 13.126 113.821 13.49 124.596 19.3592C126.217 20.2464 124.756 22.726 123.135 21.8388Z" fill="#E2B51F"/>
<path d="M171.165 113.085C182.739 102.779 189.108 87.4694 189.245 72.0911C189.314 64.4703 187.876 56.7811 184.748 49.82C180.89 41.2664 174.75 34.0322 168.312 27.3213C160.208 18.8815 151.784 10.7374 143.498 2.45679C142.174 1.13735 144.228 -0.8873 145.552 0.409387C153.245 8.07576 160.984 15.6966 168.586 23.4313C175.366 30.3469 181.986 37.7403 186.369 46.4759C193.537 60.8077 193.88 78.0741 188.218 92.9746C185.022 101.392 179.954 109.081 173.22 115.087C171.828 116.338 169.773 114.313 171.165 113.085Z" fill="#E2B51F"/>
<path d="M154.501 115.519C152.469 110.764 148.566 106.92 143.749 105.191C143.019 104.918 142.516 104.213 142.745 103.416C142.95 102.711 143.795 102.142 144.525 102.415C150.05 104.395 154.684 108.649 156.989 114.063C157.286 114.768 157.195 115.61 156.464 116.042C155.871 116.383 154.798 116.224 154.501 115.519Z" fill="#E2B51F"/>
<path d="M117.998 26.0019C111.036 22.5668 102.681 22.3165 95.5127 25.3649C94.6681 25.7289 93.9376 24.4777 94.7822 24.1137C102.452 20.8379 111.241 21.0426 118.729 24.7507C119.574 25.1602 118.843 26.4113 117.998 26.0019Z" fill="#E2B51F"/>
<path d="M42.9167 72.1821C32.1875 75.3214 23.2389 83.6475 19.4266 94.1347C18.7874 95.8637 16.0023 95.1584 16.6187 93.4068C20.7963 81.9186 30.3841 72.8418 42.1862 69.4067C43.9668 68.8607 44.6973 71.6588 42.9167 72.1821Z" fill="#E2B51F"/>
<path d="M141.626 102.848C142.493 87.4012 136.124 72.0912 125.326 61.1262C119.985 55.6892 113.501 51.2532 106.333 48.5461C97.5445 45.2247 88.0708 44.4285 78.7569 44.2238C67.0461 43.9736 55.3124 44.1328 43.5787 44.1328C41.7068 44.1328 41.7068 41.2437 43.5787 41.2437C54.4449 41.2437 65.334 41.1754 76.223 41.2892C85.9478 41.4029 95.8552 41.9717 105.146 45.0655C120.373 50.1385 132.86 62.1044 139.434 76.641C143.155 84.8533 145.027 93.8391 144.525 102.848C144.411 104.69 141.512 104.69 141.626 102.848Z" fill="#E2B51F"/>
<path d="M131.559 116.315C126.765 114.381 121.263 114.404 116.629 116.588C115.921 116.929 115.054 116.77 114.666 116.042C114.301 115.405 114.506 114.404 115.214 114.086C120.533 111.583 126.833 111.333 132.289 113.54C133.02 113.835 133.545 114.472 133.317 115.291C133.134 115.974 132.289 116.611 131.559 116.315Z" fill="#E2B51F"/>
<path d="M42.2321 78.7339C34.8586 81.2136 28.7635 86.9235 25.8872 94.1349C25.5448 94.9766 24.1522 94.6354 24.4947 93.771C27.5993 86.0591 33.9683 80.0079 41.8669 77.3463C42.7572 77.0505 43.1224 78.4382 42.2321 78.7339Z" fill="#E2B51F"/>
<path d="M21.9148 164.292C16.5502 174.074 16.1164 186.268 20.8647 196.368C21.6409 198.029 19.1526 199.508 18.3764 197.824C13.1716 186.768 13.5369 173.574 19.4265 162.837C20.3168 161.221 22.8051 162.677 21.9148 164.292Z" fill="#E2B51F"/>
<path d="M113.479 116.429C103.138 104.895 87.7742 98.5482 72.3424 98.4117C64.6949 98.3434 56.979 99.7766 49.9936 102.893C41.4102 106.738 34.1509 112.857 27.4165 119.272C18.9473 127.348 10.7748 135.743 2.46537 144C1.14134 145.32 -0.890366 143.272 0.410839 141.953C8.10393 134.287 15.7514 126.575 23.5129 118.999C30.4527 112.243 37.8718 105.646 46.6379 101.278C61.0196 94.1349 78.3462 93.7937 93.2986 99.4354C101.745 102.62 109.461 107.67 115.488 114.381C116.743 115.769 114.711 117.816 113.479 116.429Z" fill="#E2B51F"/>
<path d="M115.921 133.036C111.15 135.06 107.292 138.95 105.557 143.75C105.283 144.478 104.576 144.979 103.777 144.751C103.069 144.546 102.498 143.705 102.772 142.977C104.758 137.472 109.027 132.854 114.46 130.556C115.168 130.26 116.012 130.351 116.446 131.079C116.789 131.671 116.629 132.74 115.921 133.036Z" fill="#E2B51F"/>
<path d="M26.0927 169.411C22.6456 176.349 22.3945 184.675 25.4535 191.819C25.8187 192.66 24.5632 193.388 24.1979 192.547C20.9107 184.903 21.1161 176.145 24.8371 168.683C25.248 167.841 26.5036 168.569 26.0927 169.411Z" fill="#E2B51F"/>
<path d="M72.4337 244.232C75.584 254.924 83.9391 263.842 94.4628 267.641C96.1978 268.278 95.4901 271.053 93.7324 270.439C82.2041 266.276 73.0957 256.721 69.6486 244.96C69.1008 243.186 71.9086 242.458 72.4337 244.232Z" fill="#E2B51F"/>
<path d="M103.206 145.866C87.7059 145.001 72.3425 151.348 61.3394 162.109C55.8834 167.432 51.4319 173.893 48.7154 181.036C45.3825 189.794 44.5835 199.235 44.378 208.516C44.1269 220.187 44.2867 231.879 44.2867 243.572C44.2867 245.438 41.3876 245.438 41.3876 243.572C41.3876 232.744 41.3191 221.893 41.4332 211.041C41.5474 201.35 42.1181 191.477 45.2227 182.219C50.3134 167.045 62.321 154.579 76.9082 148.027C85.1491 144.319 94.1663 142.454 103.206 142.954C105.055 143.091 105.055 145.98 103.206 145.866Z" fill="#E2B51F"/>
<path d="M116.72 155.898C114.78 160.675 114.803 166.158 116.994 170.776C117.336 171.481 117.177 172.345 116.446 172.732C115.807 173.096 114.803 172.891 114.483 172.186C111.972 166.886 111.721 160.607 113.935 155.17C114.232 154.442 114.871 153.919 115.693 154.146C116.378 154.328 117.017 155.17 116.72 155.898Z" fill="#E2B51F"/>
<path d="M79.008 244.914C81.4962 252.262 87.2261 258.336 94.4626 261.203C95.3073 261.544 94.9648 262.932 94.0974 262.59C86.3586 259.497 80.2863 253.15 77.6154 245.278C77.3187 244.391 78.7112 244.027 79.008 244.914Z" fill="#E2B51F"/>
<path d="M164.865 265.161C174.681 270.507 186.917 270.939 197.052 266.207C198.719 265.434 200.203 267.914 198.513 268.687C187.419 273.874 174.179 273.51 163.404 267.641C161.783 266.753 163.244 264.274 164.865 265.161Z" fill="#E2B51F"/>
<path d="M116.835 173.915C105.261 184.22 98.8917 199.53 98.7547 214.909C98.6863 222.53 100.124 230.219 103.252 237.18C107.11 245.733 113.251 252.968 119.688 259.679C127.792 268.118 136.216 276.262 144.502 284.52C145.826 285.84 143.772 287.864 142.448 286.568C134.755 278.901 127.016 271.28 119.414 263.546C112.634 256.63 106.014 249.237 101.631 240.501C94.463 226.169 94.1206 208.903 99.782 194.003C102.978 185.585 108.046 177.896 114.78 171.891C116.173 170.662 118.227 172.687 116.835 173.915Z" fill="#E2B51F"/>
<path d="M133.499 171.481C135.531 176.236 139.434 180.08 144.251 181.809C144.982 182.082 145.484 182.787 145.256 183.584C145.05 184.289 144.205 184.857 143.475 184.584C137.951 182.605 133.316 178.351 131.011 172.937C130.714 172.232 130.805 171.39 131.536 170.958C132.129 170.617 133.202 170.776 133.499 171.481Z" fill="#E2B51F"/>
<path d="M170.001 260.998C176.964 264.433 185.319 264.683 192.487 261.635C193.331 261.271 194.062 262.522 193.217 262.886C185.547 266.162 176.758 265.957 169.27 262.249C168.426 261.84 169.156 260.588 170.001 260.998Z" fill="#E2B51F"/>
<path d="M245.083 214.818C255.812 211.679 264.761 203.352 268.573 192.865C269.212 191.136 271.997 191.842 271.381 193.593C267.204 205.081 257.616 214.158 245.814 217.593C244.033 218.139 243.302 215.341 245.083 214.818Z" fill="#E2B51F"/>
<path d="M146.374 184.152C145.506 199.599 151.875 214.909 162.673 225.874C168.015 231.311 174.498 235.747 181.666 238.454C190.455 241.775 199.929 242.571 209.243 242.776C220.953 243.026 232.687 242.867 244.421 242.867C246.293 242.867 246.293 245.756 244.421 245.756C233.555 245.756 222.666 245.824 211.777 245.711C202.052 245.597 192.144 245.028 182.853 241.934C167.627 236.861 155.117 224.896 148.543 210.359C144.822 202.147 142.95 193.161 143.452 184.152C143.589 182.31 146.488 182.31 146.374 184.152Z" fill="#E2B51F"/>
<path d="M156.441 170.685C161.235 172.619 166.737 172.596 171.371 170.412C172.078 170.071 172.946 170.23 173.334 170.958C173.699 171.595 173.494 172.596 172.786 172.914C167.467 175.417 161.167 175.667 155.711 173.46C154.98 173.164 154.455 172.528 154.683 171.709C154.866 171.026 155.711 170.389 156.441 170.685Z" fill="#E2B51F"/>
<path d="M245.768 208.266C253.141 205.786 259.236 200.076 262.113 192.865C262.455 192.023 263.848 192.365 263.505 193.229C260.401 200.941 254.032 206.992 246.133 209.654C245.243 209.949 244.878 208.562 245.768 208.266Z" fill="#E2B51F"/>
<path d="M266.085 122.707C271.45 112.925 271.883 100.732 267.135 90.6315C266.359 88.9709 268.847 87.4922 269.623 89.1756C274.828 100.232 274.463 113.426 268.573 124.163C267.683 125.779 265.195 124.323 266.085 122.707Z" fill="#E2B51F"/>
<path d="M174.521 170.571C184.862 182.105 200.226 188.452 215.657 188.588C223.305 188.656 231.021 187.223 238.006 184.107C246.59 180.262 253.849 174.143 260.583 167.727C269.052 159.652 277.225 151.257 285.512 142.999C286.836 141.68 288.867 143.727 287.566 145.047C279.873 152.713 272.226 160.425 264.464 168C257.524 174.757 250.105 181.354 241.339 185.722C226.957 192.865 209.631 193.206 194.678 187.565C186.232 184.38 178.516 179.329 172.489 172.619C171.257 171.231 173.288 169.183 174.521 170.571Z" fill="#E2B51F"/>
<path d="M172.079 153.964C176.85 151.94 180.708 148.05 182.443 143.25C182.717 142.522 183.424 142.021 184.223 142.249C184.931 142.453 185.502 143.295 185.228 144.023C183.242 149.528 178.973 154.146 173.54 156.444C172.832 156.74 171.987 156.649 171.554 155.921C171.211 155.329 171.371 154.26 172.079 153.964Z" fill="#E2B51F"/>
<path d="M261.907 117.589C265.354 110.65 265.605 102.324 262.546 95.1812C262.181 94.3395 263.437 93.6116 263.802 94.4533C267.089 102.097 266.884 110.855 263.163 118.317C262.752 119.159 261.496 118.431 261.907 117.589Z" fill="#E2B51F"/>
<path d="M215.566 42.7677C212.416 32.0758 204.061 23.1582 193.537 19.3591C191.802 18.7222 192.51 15.9468 194.268 16.561C205.796 20.7241 214.904 30.2786 218.351 42.0398C218.899 43.8142 216.091 44.5422 215.566 42.7677Z" fill="#E2B51F"/>
<path d="M184.794 141.134C200.294 141.999 215.658 135.652 226.661 124.891C232.117 119.568 236.568 113.107 239.285 105.964C242.618 97.206 243.417 87.7652 243.622 78.4837C243.873 66.8135 243.714 55.1206 243.714 43.4276C243.714 41.5622 246.613 41.5622 246.613 43.4276C246.613 54.2561 246.681 65.1073 246.567 75.9585C246.453 85.6496 245.882 95.5226 242.778 104.781C237.687 119.955 225.679 132.421 211.092 138.973C202.851 142.681 193.834 144.546 184.794 144.046C182.945 143.909 182.945 141.02 184.794 141.134Z" fill="#E2B51F"/>
<path d="M171.279 131.102C173.22 126.325 173.197 120.842 171.005 116.224C170.663 115.519 170.823 114.655 171.553 114.268C172.193 113.904 173.197 114.109 173.517 114.814C176.028 120.114 176.279 126.393 174.064 131.83C173.768 132.558 173.129 133.081 172.307 132.854C171.622 132.672 170.983 131.83 171.279 131.102Z" fill="#E2B51F"/>
<path d="M208.992 42.0854C206.503 34.7375 200.773 28.6636 193.537 25.7972C192.692 25.456 193.035 24.0683 193.902 24.4095C201.641 27.5034 207.713 33.8503 210.384 41.7214C210.681 42.6086 209.288 42.9726 208.992 42.0854Z" fill="#E2B51F"/>
<path d="M123.135 21.8388C113.319 16.4928 101.083 16.0606 90.9471 20.7924C89.2806 21.5658 87.7968 19.0862 89.4861 18.3127C100.581 13.126 113.821 13.49 124.596 19.3592C126.217 20.2464 124.756 22.726 123.135 21.8388Z" fill="#E2B51F"/>
<path d="M171.165 113.085C182.739 102.779 189.108 87.4694 189.245 72.0911C189.314 64.4703 187.876 56.7811 184.748 49.82C180.89 41.2664 174.75 34.0322 168.312 27.3213C160.208 18.8815 151.784 10.7374 143.498 2.45679C142.174 1.13735 144.228 -0.8873 145.552 0.409387C153.245 8.07576 160.984 15.6966 168.586 23.4313C175.366 30.3469 181.986 37.7403 186.369 46.4759C193.537 60.8077 193.88 78.0741 188.218 92.9746C185.022 101.392 179.954 109.081 173.22 115.087C171.828 116.338 169.773 114.313 171.165 113.085Z" fill="#E2B51F"/>
<path d="M154.501 115.519C152.469 110.764 148.566 106.92 143.749 105.191C143.019 104.918 142.516 104.213 142.745 103.416C142.95 102.711 143.795 102.142 144.525 102.415C150.05 104.395 154.684 108.649 156.989 114.063C157.286 114.768 157.195 115.61 156.464 116.042C155.871 116.383 154.798 116.224 154.501 115.519Z" fill="#E2B51F"/>
<path d="M117.998 26.0019C111.036 22.5668 102.681 22.3165 95.5127 25.3649C94.6681 25.7289 93.9376 24.4777 94.7822 24.1137C102.452 20.8379 111.241 21.0426 118.729 24.7507C119.574 25.1602 118.843 26.4113 117.998 26.0019Z" fill="#E2B51F"/>
<path d="M164.865 21.8388C174.681 16.4928 186.917 16.0606 197.052 20.7924C198.719 21.5658 200.203 19.0862 198.513 18.3127C187.419 13.126 174.179 13.49 163.404 19.3592C161.783 20.2464 163.244 22.726 164.865 21.8388Z" fill="#E2B51F"/>
<path d="M116.835 113.085C105.261 102.779 98.8917 87.4694 98.7547 72.0911C98.6863 64.4703 100.124 56.7811 103.252 49.82C107.11 41.2664 113.251 34.0322 119.688 27.3213C127.792 18.8815 136.216 10.7374 144.502 2.45679C145.826 1.13735 143.772 -0.8873 142.448 0.409387C134.778 8.09851 127.016 15.6966 119.414 23.454C112.634 30.3697 106.014 37.7631 101.631 46.4986C94.463 60.8304 94.1206 78.0968 99.782 92.9974C102.978 101.414 108.046 109.104 114.78 115.109C116.173 116.338 118.227 114.313 116.835 113.085Z" fill="#E2B51F"/>
<path d="M133.499 115.519C135.531 110.764 139.434 106.92 144.251 105.191C144.982 104.918 145.484 104.213 145.256 103.416C145.05 102.711 144.205 102.142 143.475 102.415C137.951 104.395 133.316 108.649 131.011 114.063C130.714 114.768 130.805 115.61 131.536 116.042C132.129 116.383 133.202 116.224 133.499 115.519Z" fill="#E2B51F"/>
<path d="M170.001 26.0019C176.964 22.5668 185.319 22.3165 192.487 25.3649C193.331 25.7289 194.062 24.4777 193.217 24.1137C185.547 20.8379 176.758 21.0426 169.27 24.7507C168.426 25.1602 169.156 26.4113 170.001 26.0019Z" fill="#E2B51F"/>
<path d="M245.083 72.1821C255.812 75.3214 264.761 83.6475 268.573 94.1347C269.212 95.8637 271.997 95.1584 271.381 93.4068C267.204 81.9186 257.616 72.8418 245.814 69.4067C244.033 68.8607 243.302 71.6588 245.083 72.1821Z" fill="#E2B51F"/>
<path d="M146.374 102.848C145.506 87.4012 151.875 72.0912 162.673 61.1262C168.015 55.6892 174.498 51.2532 181.666 48.5461C190.455 45.2247 199.929 44.4285 209.243 44.2238C220.953 43.9736 232.687 44.1328 244.421 44.1328C246.293 44.1328 246.293 41.2437 244.421 41.2437C233.555 41.2437 222.666 41.1754 211.777 41.2892C202.052 41.4029 192.144 41.9717 182.853 45.0655C167.627 50.1385 155.117 62.1044 148.543 76.641C144.822 84.8533 142.95 93.8391 143.452 102.848C143.589 104.69 146.488 104.69 146.374 102.848Z" fill="#E2B51F"/>
<path d="M156.441 116.315C161.235 114.381 166.737 114.404 171.371 116.588C172.078 116.929 172.946 116.77 173.334 116.042C173.699 115.405 173.494 114.404 172.786 114.086C167.467 111.583 161.167 111.333 155.711 113.54C154.98 113.835 154.455 114.472 154.683 115.291C154.866 115.974 155.711 116.611 156.441 116.315Z" fill="#E2B51F"/>
<path d="M245.768 78.7339C253.141 81.2136 259.236 86.9235 262.113 94.1349C262.455 94.9766 263.848 94.6354 263.505 93.771C260.401 86.0591 254.032 80.0079 246.133 77.3463C245.243 77.0505 244.878 78.4382 245.768 78.7339Z" fill="#E2B51F"/>
<path d="M266.085 164.292C271.45 174.074 271.883 186.268 267.135 196.368C266.359 198.029 268.847 199.508 269.623 197.824C274.828 186.768 274.463 173.574 268.573 162.837C267.683 161.221 265.195 162.677 266.085 164.292Z" fill="#E2B51F"/>
<path d="M174.521 116.429C184.862 104.895 200.226 98.5482 215.657 98.4117C223.305 98.3434 231.021 99.7766 238.006 102.893C246.59 106.738 253.849 112.857 260.583 119.272C269.052 127.348 277.225 135.743 285.512 144C286.836 145.32 288.867 143.272 287.566 141.953C279.873 134.287 272.226 126.575 264.464 118.999C257.524 112.243 250.105 105.646 241.339 101.278C226.957 94.1349 209.631 93.7937 194.678 99.4354C186.232 102.62 178.516 107.67 172.489 114.381C171.257 115.769 173.288 117.816 174.521 116.429Z" fill="#E2B51F"/>
<path d="M172.079 133.036C176.85 135.06 180.708 138.95 182.443 143.75C182.717 144.478 183.424 144.979 184.223 144.751C184.931 144.546 185.502 143.705 185.228 142.977C183.242 137.472 178.973 132.854 173.54 130.556C172.832 130.26 171.987 130.351 171.554 131.079C171.211 131.671 171.371 132.74 172.079 133.036Z" fill="#E2B51F"/>
<path d="M261.907 169.411C265.354 176.349 265.605 184.675 262.546 191.819C262.181 192.66 263.437 193.388 263.802 192.547C267.089 184.903 266.884 176.145 263.163 168.683C262.752 167.841 261.496 168.569 261.907 169.411Z" fill="#E2B51F"/>
<path d="M215.566 244.232C212.416 254.924 204.061 263.842 193.537 267.641C191.802 268.278 192.51 271.053 194.268 270.439C205.796 266.276 214.904 256.721 218.351 244.96C218.899 243.186 216.091 242.458 215.566 244.232Z" fill="#E2B51F"/>
<path d="M184.794 145.866C200.294 145.001 215.658 151.348 226.661 162.109C232.117 167.432 236.568 173.893 239.285 181.036C242.618 189.794 243.417 199.235 243.622 208.516C243.873 220.187 243.714 231.879 243.714 243.572C243.714 245.438 246.613 245.438 246.613 243.572C246.613 232.744 246.681 221.893 246.567 211.041C246.453 201.35 245.882 191.477 242.778 182.219C237.687 167.045 225.679 154.579 211.092 148.027C202.851 144.319 193.834 142.454 184.794 142.954C182.945 143.091 182.945 145.98 184.794 145.866Z" fill="#E2B51F"/>
<path d="M171.279 155.898C173.22 160.675 173.197 166.158 171.005 170.776C170.663 171.481 170.823 172.345 171.553 172.732C172.193 173.096 173.197 172.891 173.517 172.186C176.028 166.886 176.279 160.607 174.064 155.17C173.768 154.442 173.129 153.919 172.307 154.146C171.622 154.328 170.983 155.17 171.279 155.898Z" fill="#E2B51F"/>
<path d="M208.992 244.914C206.503 252.262 200.773 258.336 193.537 261.203C192.692 261.544 193.035 262.932 193.902 262.59C201.641 259.497 207.713 253.15 210.384 245.278C210.681 244.391 209.288 244.027 208.992 244.914Z" fill="#E2B51F"/>
<path d="M123.135 265.161C113.319 270.507 101.083 270.939 90.9471 266.207C89.2806 265.434 87.7968 267.914 89.4861 268.687C100.581 273.874 113.821 273.51 124.596 267.641C126.217 266.753 124.756 264.274 123.135 265.161Z" fill="#E2B51F"/>
<path d="M171.165 173.915C182.739 184.22 189.108 199.53 189.245 214.909C189.314 222.53 187.876 230.219 184.748 237.18C180.89 245.733 174.75 252.968 168.312 259.679C160.208 268.118 151.784 276.262 143.498 284.52C142.174 285.84 144.228 287.864 145.552 286.568C153.245 278.901 160.984 271.28 168.586 263.546C175.366 256.63 181.986 249.237 186.369 240.501C193.537 226.169 193.88 208.903 188.218 194.003C185.022 185.585 179.954 177.896 173.22 171.891C171.828 170.662 169.773 172.687 171.165 173.915Z" fill="#E2B51F"/>
<path d="M154.501 171.481C152.469 176.236 148.566 180.08 143.749 181.809C143.019 182.082 142.516 182.787 142.745 183.584C142.95 184.289 143.795 184.857 144.525 184.584C150.05 182.605 154.684 178.351 156.989 172.937C157.286 172.232 157.195 171.39 156.464 170.958C155.871 170.617 154.798 170.776 154.501 171.481Z" fill="#E2B51F"/>
<path d="M117.998 260.998C111.036 264.433 102.681 264.683 95.5127 261.635C94.6681 261.271 93.9376 262.522 94.7822 262.886C102.452 266.162 111.241 265.957 118.729 262.249C119.574 261.84 118.843 260.588 117.998 260.998Z" fill="#E2B51F"/>
<path d="M42.9167 214.818C32.1875 211.679 23.2389 203.352 19.4266 192.865C18.7874 191.136 16.0023 191.842 16.6187 193.593C20.7963 205.081 30.3841 214.158 42.1862 217.593C43.9668 218.139 44.6973 215.341 42.9167 214.818Z" fill="#E2B51F"/>
<path d="M141.626 184.152C142.493 199.599 136.124 214.909 125.326 225.874C119.985 231.311 113.501 235.747 106.333 238.454C97.5445 241.775 88.0708 242.571 78.7569 242.776C67.0461 243.026 55.3124 242.867 43.5787 242.867C41.7068 242.867 41.7068 245.756 43.5787 245.756C54.4449 245.756 65.334 245.824 76.223 245.711C85.9478 245.597 95.8552 245.028 105.146 241.934C120.373 236.861 132.882 224.896 139.457 210.359C143.178 202.147 145.05 193.161 144.548 184.152C144.411 182.31 141.512 182.31 141.626 184.152Z" fill="#E2B51F"/>
<path d="M131.559 170.685C126.765 172.619 121.263 172.596 116.629 170.412C115.921 170.071 115.054 170.23 114.666 170.958C114.301 171.595 114.506 172.596 115.214 172.914C120.533 175.417 126.833 175.667 132.289 173.46C133.02 173.164 133.545 172.528 133.317 171.709C133.134 171.026 132.289 170.389 131.559 170.685Z" fill="#E2B51F"/>
<path d="M42.2321 208.266C34.8586 205.786 28.7635 200.076 25.8872 192.865C25.5448 192.023 24.1522 192.365 24.4947 193.229C27.5993 200.941 33.9683 206.992 41.8669 209.654C42.7572 209.949 43.1224 208.562 42.2321 208.266Z" fill="#E2B51F"/>
<path d="M21.9148 122.707C16.5502 112.925 16.1164 100.732 20.8647 90.6315C21.6409 88.9709 19.1526 87.4922 18.3764 89.1756C13.1716 100.232 13.5369 113.426 19.4265 124.163C20.3168 125.779 22.8051 124.323 21.9148 122.707Z" fill="#E2B51F"/>
<path d="M113.479 170.571C103.138 182.105 87.7742 188.452 72.3424 188.588C64.6949 188.656 56.979 187.223 49.9936 184.107C41.4102 180.262 34.1509 174.143 27.4165 167.727C18.9473 159.652 10.7748 151.257 2.46537 142.999C1.14134 141.68 -0.890366 143.727 0.410839 145.047C8.10393 152.713 15.7514 160.425 23.5129 168C30.4527 174.757 37.8718 181.354 46.6379 185.722C61.0196 192.865 78.3462 193.206 93.2986 187.565C101.745 184.38 109.461 179.329 115.488 172.619C116.743 171.231 114.711 169.183 113.479 170.571Z" fill="#E2B51F"/>
<path d="M115.921 153.964C111.15 151.94 107.292 148.05 105.557 143.25C105.283 142.522 104.576 142.021 103.777 142.249C103.069 142.453 102.498 143.295 102.772 144.023C104.758 149.528 109.027 154.146 114.46 156.444C115.168 156.74 116.012 156.649 116.446 155.921C116.789 155.329 116.629 154.26 115.921 153.964Z" fill="#E2B51F"/>
<path d="M26.0927 117.589C22.6456 110.65 22.3945 102.324 25.4535 95.1812C25.8187 94.3395 24.5632 93.6116 24.1979 94.4533C20.9107 102.097 21.1161 110.855 24.8371 118.317C25.248 119.159 26.5036 118.431 26.0927 117.589Z" fill="#E2B51F"/>
<path d="M72.4337 42.7677C75.584 32.0758 83.9391 23.1582 94.4628 19.3591C96.1978 18.7222 95.4901 15.9468 93.7324 16.561C82.2041 20.7241 73.0957 30.2786 69.6486 42.0398C69.1008 43.8142 71.9086 44.5422 72.4337 42.7677Z" fill="#E2B51F"/>
<path d="M103.206 141.134C87.7059 141.999 72.3425 135.652 61.3394 124.891C55.8834 119.568 51.4319 113.107 48.7154 105.964C45.3825 97.206 44.5835 87.7652 44.378 78.4837C44.1269 66.8135 44.2867 55.1206 44.2867 43.4276C44.2867 41.5622 41.3876 41.5622 41.3876 43.4276C41.3876 54.2561 41.3191 65.1073 41.4332 75.9585C41.5474 85.6496 42.1181 95.5226 45.2227 104.781C50.3134 119.955 62.321 132.399 76.9082 138.95C85.1491 142.658 94.1663 144.524 103.206 144.023C105.055 143.909 105.055 141.02 103.206 141.134Z" fill="#E2B51F"/>
<path d="M116.721 131.102C114.78 126.325 114.803 120.842 116.995 116.224C117.337 115.519 117.177 114.655 116.447 114.268C115.807 113.904 114.803 114.109 114.483 114.814C111.972 120.114 111.721 126.393 113.936 131.83C114.232 132.558 114.872 133.081 115.693 132.854C116.378 132.672 117.017 131.83 116.721 131.102Z" fill="#E2B51F"/>
<path d="M79.008 42.0854C81.4962 34.7375 87.2261 28.6636 94.4626 25.7972C95.3073 25.456 94.9648 24.0683 94.0974 24.4095C86.3586 27.5034 80.2863 33.8503 77.6154 41.7214C77.3187 42.6086 78.7112 42.9726 79.008 42.0854Z" fill="#E2B51F"/>
<path d="M164.865 21.8388C174.681 16.4928 186.917 16.0606 197.052 20.7924C198.719 21.5658 200.203 19.0862 198.513 18.3127C187.419 13.126 174.179 13.49 163.404 19.3592C161.783 20.2464 163.244 22.726 164.865 21.8388Z" fill="#E2B51F"/>
<path d="M116.835 113.085C105.261 102.779 98.8917 87.4694 98.7547 72.0911C98.6863 64.4703 100.124 56.7811 103.252 49.82C107.11 41.2664 113.251 34.0322 119.688 27.3213C127.792 18.8815 136.216 10.7374 144.502 2.45679C145.826 1.13735 143.772 -0.8873 142.448 0.409387C134.778 8.09851 127.016 15.6966 119.414 23.454C112.634 30.3697 106.014 37.7631 101.631 46.4986C94.463 60.8304 94.1206 78.0968 99.782 92.9974C102.978 101.414 108.046 109.104 114.78 115.109C116.173 116.338 118.227 114.313 116.835 113.085Z" fill="#E2B51F"/>
<path d="M133.499 115.519C135.531 110.764 139.434 106.92 144.251 105.191C144.982 104.918 145.484 104.213 145.256 103.416C145.05 102.711 144.205 102.142 143.475 102.415C137.951 104.395 133.316 108.649 131.011 114.063C130.714 114.768 130.805 115.61 131.536 116.042C132.129 116.383 133.202 116.224 133.499 115.519Z" fill="#E2B51F"/>
<path d="M170.001 26.0019C176.964 22.5668 185.319 22.3165 192.487 25.3649C193.331 25.7289 194.062 24.4777 193.217 24.1137C185.547 20.8379 176.758 21.0426 169.27 24.7507C168.426 25.1602 169.156 26.4113 170.001 26.0019Z" fill="#E2B51F"/>
</svg>
