<svg width="20" height="21" viewBox="0 0 20 21" fill="none" xmlns="http://www.w3.org/2000/svg">
<path fill-rule="evenodd" clip-rule="evenodd" d="M13.4504 4.19834L14.9754 5.72334C17.2154 7.96501 18.3362 9.08501 18.3362 10.4767C18.3362 11.8692 17.2154 12.9892 14.9746 15.23C12.7337 17.4725 11.6137 18.5917 10.2212 18.5917C8.82957 18.5917 7.70873 17.4708 5.4679 15.23L3.9429 13.705C2.6554 12.4175 2.01123 11.7742 1.77207 10.9383C1.53207 10.1025 1.73707 9.21501 2.14707 7.44084L2.3829 6.41751C2.72707 4.92418 2.89957 4.17751 3.4104 3.66584C3.92207 3.15501 4.66873 2.98251 6.16207 2.63834L7.1854 2.40168C8.9604 1.99251 9.84707 1.78751 10.6829 2.02668C11.5187 2.26668 12.1629 2.91084 13.4504 4.19834ZM9.29207 12.1983C8.73123 11.6383 8.7354 10.8333 9.07123 10.1958C8.98809 10.0758 8.94964 9.93034 8.96254 9.78485C8.97545 9.63936 9.0389 9.50299 9.14189 9.39941C9.24487 9.29583 9.38088 9.2316 9.52629 9.21785C9.6717 9.20411 9.81734 9.24173 9.9379 9.32418C10.2212 9.17418 10.5321 9.09418 10.8421 9.09751C11.0078 9.09906 11.1662 9.16639 11.2823 9.28469C11.3984 9.403 11.4628 9.56258 11.4612 9.72834C11.4597 9.8941 11.3924 10.0525 11.274 10.1686C11.1557 10.2847 10.9962 10.3491 10.8304 10.3475C10.6374 10.3546 10.4551 10.4376 10.3229 10.5783C10.0004 10.9008 10.0846 11.2242 10.1754 11.315C10.2671 11.4058 10.5896 11.49 10.9121 11.1675C11.5654 10.5142 12.6937 10.2975 13.4162 11.02C13.9771 11.5808 13.9729 12.3858 13.6371 13.0233C13.7197 13.1435 13.7577 13.2887 13.7446 13.4339C13.7314 13.5791 13.668 13.7151 13.5651 13.8184C13.4623 13.9217 13.3266 13.9859 13.1814 13.9997C13.0363 14.0135 12.8909 13.9762 12.7704 13.8942C12.3964 14.0993 11.9627 14.1677 11.5437 14.0875C11.3813 14.0541 11.2388 13.9576 11.1475 13.8191C11.0562 13.6807 11.0237 13.5116 11.0571 13.3492C11.0904 13.1867 11.187 13.0442 11.3254 12.9529C11.4639 12.8617 11.633 12.8291 11.7954 12.8625C11.9429 12.8933 12.1812 12.845 12.3854 12.6408C12.7079 12.3175 12.6237 11.995 12.5329 11.9042C12.4412 11.8133 12.1187 11.7292 11.7962 12.0517C11.1429 12.705 10.0146 12.9217 9.29207 12.1983ZM8.35373 8.83584C8.50847 8.68105 8.63121 8.49729 8.71493 8.29506C8.79866 8.09283 8.84173 7.87609 8.84169 7.65722C8.84165 7.43834 8.7985 7.22162 8.71471 7.01942C8.63091 6.81722 8.50811 6.6335 8.35332 6.47876C8.19852 6.32402 8.01476 6.20128 7.81253 6.11756C7.6103 6.03383 7.39356 5.99076 7.17469 5.9908C6.95581 5.99084 6.73909 6.03399 6.53689 6.11778C6.33469 6.20158 6.15097 6.32438 5.99623 6.47918C5.68372 6.7918 5.5082 7.21577 5.50827 7.6578C5.50835 8.09984 5.68403 8.52375 5.99665 8.83626C6.30927 9.14877 6.73324 9.3243 7.17528 9.32422C7.61732 9.32414 8.04122 9.14847 8.35373 8.83584Z" fill="white"/>
</svg>
