<svg width="20" height="20" viewBox="0 0 20 20" fill="none" xmlns="http://www.w3.org/2000/svg">
<path d="M11.6749 3.29459C11.6749 2.37376 10.9287 1.62793 10.0082 1.62793C9.08772 1.62793 8.34155 2.37376 8.34155 3.29459C8.34155 4.21542 9.08772 4.96125 10.0082 4.96125C10.9287 4.96125 11.6749 4.21542 11.6749 3.29459ZM11.6749 9.96124C11.6749 9.04041 10.9287 8.29458 10.0082 8.29458C9.08772 8.29458 8.34155 9.04041 8.34155 9.96124C8.34155 10.8821 9.08772 11.6279 10.0082 11.6279C10.9287 11.6279 11.6749 10.8821 11.6749 9.96124ZM11.6749 16.6279C11.6749 15.7071 10.9287 14.9612 10.0082 14.9612C9.08772 14.9612 8.34155 15.7071 8.34155 16.6279C8.34155 17.5487 9.08772 18.2945 10.0082 18.2945C10.9287 18.2945 11.6749 17.5487 11.6749 16.6279Z" fill="#808185"/>
</svg>
