<svg width="20" height="21" viewBox="0 0 20 21" fill="none" xmlns="http://www.w3.org/2000/svg">
<path d="M11.6699 3.79459C11.6699 2.87376 10.9237 2.12793 10.0032 2.12793C9.08271 2.12793 8.33655 2.87376 8.33655 3.79459C8.33655 4.71542 9.08271 5.46125 10.0032 5.46125C10.9237 5.46125 11.6699 4.71542 11.6699 3.79459ZM11.6699 10.4612C11.6699 9.54041 10.9237 8.79458 10.0032 8.79458C9.08271 8.79458 8.33655 9.54041 8.33655 10.4612C8.33655 11.3821 9.08271 12.1279 10.0032 12.1279C10.9237 12.1279 11.6699 11.3821 11.6699 10.4612ZM11.6699 17.1279C11.6699 16.2071 10.9237 15.4612 10.0032 15.4612C9.08271 15.4612 8.33655 16.2071 8.33655 17.1279C8.33655 18.0487 9.08271 18.7945 10.0032 18.7945C10.9237 18.7945 11.6699 18.0487 11.6699 17.1279Z" fill="white"/>
</svg>
