<svg width="20" height="20" viewBox="0 0 20 20" fill="none" xmlns="http://www.w3.org/2000/svg">
<path d="M11.6709 3.29459C11.6709 2.37376 10.9247 1.62793 10.0042 1.62793C9.08369 1.62793 8.33752 2.37376 8.33752 3.29459C8.33752 4.21542 9.08369 4.96125 10.0042 4.96125C10.9247 4.96125 11.6709 4.21542 11.6709 3.29459ZM11.6709 9.96124C11.6709 9.04041 10.9247 8.29458 10.0042 8.29458C9.08369 8.29458 8.33752 9.04041 8.33752 9.96124C8.33752 10.8821 9.08369 11.6279 10.0042 11.6279C10.9247 11.6279 11.6709 10.8821 11.6709 9.96124ZM11.6709 16.6279C11.6709 15.7071 10.9247 14.9612 10.0042 14.9612C9.08369 14.9612 8.33752 15.7071 8.33752 16.6279C8.33752 17.5487 9.08369 18.2945 10.0042 18.2945C10.9247 18.2945 11.6709 17.5487 11.6709 16.6279Z" fill="#3F3F3F"/>
</svg>
