<svg width="36" height="36" viewBox="0 0 36 36" fill="none" xmlns="http://www.w3.org/2000/svg">
<rect width="35.9961" height="36" rx="17.998" fill="#E3FFE6"/>
<path d="M12.1725 24.6641C12.3858 24.6641 12.6083 24.5924 12.7716 24.4297L23.0058 14.1957V17.1641C23.0058 17.6243 23.3789 17.9974 23.8391 17.9974C24.2994 17.9974 24.6725 17.6243 24.6725 17.1641V12.1641C24.6725 11.7041 24.2991 11.3307 23.8391 11.3307H18.8391C18.3789 11.3307 18.0058 11.7038 18.0058 12.1641C18.0058 12.6243 18.3789 12.9974 18.8391 12.9974H21.8083L11.5733 23.2317C11.2483 23.5572 11.2483 24.1042 11.5733 24.4297C11.7366 24.5924 11.9591 24.6641 12.1725 24.6641Z" fill="#10BF21"/>
</svg>
