<svg width="275" height="280" viewBox="0 0 275 280" fill="none" xmlns="http://www.w3.org/2000/svg">
<g clip-path="url(#clip0_5331_4316)">
<path d="M37.1057 130.861C37.1057 134.162 39.7855 136.842 43.0862 136.842C46.3868 136.842 49.0667 134.162 49.0667 130.861C49.0667 127.561 46.3868 124.881 43.0862 124.881C39.7855 124.881 37.1057 127.561 37.1057 130.861Z" fill="#E6E6E6"/>
<path d="M56.3369 135.367C53.848 132.879 53.848 128.843 56.3369 126.354C58.8258 123.865 62.8612 123.865 65.3501 126.354C67.839 128.843 67.839 132.879 65.3501 135.367C62.8612 137.856 58.8258 137.856 56.3369 135.367Z" fill="#E6E6E6"/>
<path d="M74.49 126.351C70.7567 126.351 67.7303 123.324 67.7303 119.591C67.7303 115.857 70.7567 112.831 74.49 112.831C78.2233 112.831 81.2498 115.857 81.2498 119.591C81.2498 123.324 78.2233 126.351 74.49 126.351Z" fill="#E6E6E6"/>
<path d="M70.2948 103.523C69.6053 99.683 72.1591 96.0113 75.9989 95.3217C79.8388 94.6322 83.5105 97.1861 84.2 101.026C84.8895 104.866 82.3357 108.537 78.4959 109.227C74.656 109.916 70.9843 107.363 70.2948 103.523Z" fill="#E6E6E6"/>
<path d="M68.611 94.3892C64.5803 94.3892 61.3127 91.1217 61.3127 87.091C61.3127 83.0603 64.5803 79.7927 68.611 79.7927C72.6417 79.7927 75.9092 83.0603 75.9092 87.091C75.9092 91.1217 72.6417 94.3892 68.611 94.3892Z" fill="#E6E6E6"/>
<path d="M48.9192 88.4502C44.8644 86.7557 42.951 82.095 44.6455 78.0403C46.34 73.9855 51.0007 72.0721 55.0554 73.7666C59.1102 75.4611 61.0236 80.1218 59.3291 84.1765C57.6346 88.2313 52.9739 90.1447 48.9192 88.4502Z" fill="#E6E6E6"/>
<path d="M24.2658 120.769C23.5355 117.663 25.4616 114.553 28.5679 113.822C31.6742 113.092 34.7843 115.018 35.5146 118.124C36.2449 121.231 34.3188 124.341 31.2125 125.071C28.1062 125.801 24.9961 123.875 24.2658 120.769Z" fill="#E6E6E6"/>
<path d="M24.8822 107.049C22.118 105.99 20.7356 102.891 21.7945 100.127C22.8533 97.3624 25.9525 95.98 28.7167 97.0388C31.4809 98.0977 32.8633 101.197 31.8044 103.961C30.7456 106.725 27.6464 108.108 24.8822 107.049Z" fill="#E6E6E6"/>
<path d="M30.8629 87.6866C30.4305 85.0168 32.2443 82.5019 34.9141 82.0695C37.5839 81.637 40.0988 83.4508 40.5312 86.1207C40.9637 88.7905 39.1499 91.3054 36.48 91.7378C33.8102 92.1702 31.2953 90.3564 30.8629 87.6866Z" fill="#E6E6E6"/>
<path fill-rule="evenodd" clip-rule="evenodd" d="M208.766 58.12C207.29 59.6974 206.055 61.446 205.073 63.3086L199.168 63.2832L196.976 72.8051L202.298 75.3709C202.368 77.4806 202.71 79.5902 203.35 81.6555L199.156 85.8178L204.338 94.1043L209.913 92.1594C211.49 93.6355 213.239 94.8709 215.101 95.8528L215.076 101.764L224.598 103.962L227.164 98.6404C229.273 98.5707 231.383 98.2222 233.448 97.5887L237.611 101.783L245.897 96.6004L243.952 91.0254C245.428 89.4479 246.664 87.6993 247.646 85.8368L253.557 85.8621L255.749 76.3402L250.427 73.7744C250.357 71.6648 250.009 69.5551 249.375 67.4898L253.569 63.3276L248.387 55.041L242.812 56.9859C241.234 55.5098 239.486 54.2745 237.623 53.2862L237.649 47.3753L228.127 45.177L225.561 50.4986C223.451 50.5683 221.342 50.9168 219.276 51.5503L215.12 47.3563L206.834 52.5386L208.779 58.1136L208.766 58.12ZM220.423 65.9187C225.333 62.8461 231.801 64.3412 234.874 69.251C237.946 74.1609 236.451 80.6292 231.541 83.7018C226.632 86.7744 220.163 85.2793 217.091 80.3694C214.018 75.4596 215.513 68.9913 220.423 65.9187Z" fill="#E6E6E6"/>
<path fill-rule="evenodd" clip-rule="evenodd" d="M203.007 18.0619C202.19 18.9362 201.506 19.9055 200.961 20.9381L197.692 20.9255L196.476 26.1964L199.422 27.6155C199.46 28.7812 199.65 29.9532 200.004 31.0936L197.686 33.3996L200.556 37.9864L203.641 36.9094C204.515 37.7266 205.484 38.4108 206.517 38.9557L206.504 42.2247L211.775 43.441L213.194 40.4951C214.36 40.4571 215.532 40.2671 216.673 39.9123L218.972 42.231L223.559 39.3611L222.482 36.2758C223.299 35.4016 223.983 34.4323 224.528 33.3996L227.797 33.4123L229.014 28.1413L226.068 26.7222C226.03 25.5566 225.84 24.3845 225.485 23.2442L227.804 20.9445L224.934 16.3577L221.848 17.4347C220.974 16.6175 220.005 15.9333 218.972 15.3884L218.985 12.1194L213.714 10.9031L212.295 13.849C211.129 13.887 209.957 14.077 208.817 14.4318L206.517 12.1131L201.93 14.983L203.007 18.0683V18.0619ZM209.463 22.3763C212.181 20.6784 215.76 21.502 217.464 24.2198C219.162 26.9376 218.339 30.5171 215.621 32.2213C212.903 33.9191 209.324 33.0955 207.619 30.3777C205.922 27.6599 206.745 24.0804 209.463 22.3763Z" fill="#E6E6E6"/>
<path d="M248.887 27.8055C248.887 27.8055 248.792 27.8498 248.621 27.9512C248.45 28.0525 248.216 28.2299 247.95 28.496C247.418 29.0155 246.74 29.9785 246.6 31.3532C246.537 32.0311 246.6 32.7977 246.892 33.5516C247.19 34.2991 247.677 35.0467 248.406 35.6042C248.761 35.8893 249.166 36.1237 249.61 36.3011C250.053 36.4785 250.528 36.5988 251.022 36.6305C252.011 36.7192 253.056 36.4658 253.956 35.9146C254.843 35.3508 255.533 34.5209 255.882 33.5896C256.072 33.1334 256.173 32.652 256.205 32.1768C256.243 31.7017 256.211 31.2329 256.11 30.7894C255.926 29.8961 255.47 29.1232 254.931 28.534C254.386 27.9385 253.721 27.5457 253.081 27.3113C251.783 26.8425 250.623 27.0262 249.926 27.2796C249.572 27.4063 249.306 27.5394 249.141 27.6471C248.97 27.7548 248.887 27.8118 248.894 27.8181C248.913 27.8498 249.255 27.6091 249.964 27.3873C250.661 27.1719 251.783 27.0326 253.012 27.5077C253.62 27.7485 254.241 28.1286 254.754 28.7051C255.261 29.2753 255.685 30.0101 255.85 30.8527C255.945 31.2709 255.97 31.7143 255.932 32.1641C255.901 32.6139 255.799 33.0637 255.622 33.4945C255.286 34.3625 254.64 35.1417 253.804 35.6739C252.961 36.187 251.979 36.4278 251.054 36.3518C250.592 36.3201 250.135 36.2187 249.724 36.0477C249.306 35.8893 248.919 35.6675 248.583 35.4015C247.893 34.882 247.424 34.1788 247.133 33.4755C246.841 32.766 246.771 32.0374 246.822 31.3849C246.936 30.0672 247.551 29.1232 248.051 28.591C248.558 28.0525 248.925 27.8435 248.906 27.8181L248.887 27.8055Z" fill="#E6E6E6"/>
<path d="M243.661 24.3085C243.661 24.3085 243.648 24.2578 243.617 24.1501C243.579 24.0298 243.528 23.8714 243.465 23.675C243.319 23.2379 243.11 22.6107 242.837 21.7934L242.818 21.8504C243.775 21.2612 245.029 20.4883 246.55 19.5507L246.455 19.5381C247.019 20.1082 247.646 20.7481 248.311 21.426L248.349 21.464L248.4 21.4513C249.249 21.1916 250.193 21.0205 251.194 20.9952H251.251L251.276 20.9381C251.637 20.1969 252.03 19.3923 252.435 18.5561L252.315 18.6131C253.658 18.9299 255.083 19.2593 256.585 19.6077L256.496 19.4937C256.496 20.3173 256.484 21.2169 256.484 22.1419V22.2179L256.547 22.2559C257.326 22.6677 258.124 23.2188 258.847 23.8967L258.904 23.9474L258.98 23.9221C259.753 23.6496 260.608 23.3582 261.482 23.0541L261.324 22.9971C262.052 24.1628 262.838 25.4235 263.642 26.7159L263.661 26.5449C263.072 27.1277 262.432 27.7612 261.78 28.4074L261.716 28.4708L261.742 28.5531C262.002 29.3957 262.173 30.3587 262.204 31.3343V31.423L262.287 31.461C263.034 31.8221 263.851 32.2149 264.675 32.6141L264.599 32.4493C264.289 33.8051 263.953 35.2495 263.611 36.7193L263.756 36.6053C262.92 36.6053 262.014 36.5989 261.108 36.5926H261.02L260.975 36.675C260.557 37.4669 260.006 38.2651 259.341 38.9683C259.328 39.038 259.372 38.8163 259.309 39.1204V39.1267V39.1394L259.322 39.1584L259.334 39.1964L259.36 39.2724L259.417 39.4308L259.524 39.7476L259.746 40.3748C259.892 40.7929 260.038 41.2047 260.183 41.6228L260.247 41.4454C258.992 42.231 257.751 43.0039 256.528 43.7705L256.712 43.7895C256.084 43.1559 255.464 42.5288 254.843 41.9079L254.779 41.8445L254.697 41.8699C253.785 42.155 252.847 42.307 251.916 42.3387H251.827L251.789 42.4211C251.403 43.2256 251.016 44.0239 250.642 44.8095L250.801 44.7334C249.344 44.3977 247.918 44.0746 246.531 43.7515L246.639 43.8845C246.639 42.9849 246.639 42.1043 246.639 41.2364V41.154L246.569 41.116C245.714 40.6662 244.941 40.115 244.269 39.4815L244.212 39.4308L244.136 39.4561C243.281 39.7602 242.451 40.0517 241.64 40.3367L241.786 40.3874C240.962 39.0824 240.189 37.847 239.454 36.675L239.435 36.8143C240.094 36.1555 240.715 35.5409 241.311 34.9454L241.355 34.9011L241.336 34.8377C241.038 33.8748 240.892 32.9372 240.861 32.0439V31.9869L240.804 31.9615C239.936 31.5434 239.15 31.1696 238.415 30.8212L238.466 30.9225C238.84 29.269 239.157 27.8563 239.429 26.6462L239.366 26.6969C240.424 26.6969 241.292 26.6969 242.014 26.6906H242.045L242.058 26.6652C242.502 25.81 242.932 25.2335 243.224 24.866C243.37 24.6886 243.477 24.5556 243.56 24.4542C243.636 24.3592 243.674 24.3148 243.667 24.3148C243.667 24.3148 243.617 24.3529 243.541 24.4352C243.458 24.5176 243.338 24.6506 243.186 24.8343C242.882 25.1955 242.432 25.7656 241.969 26.6209L242.014 26.5955C241.292 26.5892 240.424 26.5765 239.366 26.5639H239.315L239.302 26.6146C239.017 27.8183 238.688 29.231 238.295 30.8845L238.276 30.9542L238.339 30.9859C239.074 31.347 239.853 31.7271 240.721 32.1452L240.664 32.0629C240.69 32.9688 240.829 33.9255 241.133 34.9138L241.158 34.8061C240.557 35.4016 239.936 36.0098 239.271 36.6686L239.207 36.732L239.258 36.808C239.993 37.9864 240.759 39.2217 241.577 40.5331L241.627 40.6155L241.722 40.5838C242.533 40.2987 243.369 40.0137 244.225 39.7159L244.092 39.6906C244.782 40.3368 245.574 40.9069 246.448 41.3694L246.379 41.249C246.379 42.117 246.372 42.9976 246.366 43.8972V44.0049L246.474 44.0302C247.861 44.3533 249.287 44.6827 250.744 45.0185L250.851 45.0439L250.902 44.9425C251.282 44.1569 251.662 43.365 252.055 42.5541L251.928 42.6365C252.885 42.6048 253.848 42.4464 254.786 42.1613L254.64 42.1233C255.254 42.7442 255.875 43.3713 256.503 44.0049L256.585 44.0872L256.686 44.0239C257.909 43.2573 259.151 42.4844 260.405 41.6988L260.506 41.6355L260.468 41.5214C260.323 41.1097 260.177 40.6915 260.031 40.2734L259.81 39.6462L259.702 39.3294L259.645 39.1711L259.619 39.095L259.607 39.057V39.038L259.594 39.0253V39.019C259.531 39.3231 259.575 39.1014 259.562 39.1711C260.247 38.4425 260.811 37.6253 261.241 36.8143L261.108 36.8967C262.021 36.8967 262.92 36.903 263.756 36.903H263.877L263.902 36.789C264.238 35.3192 264.574 33.8684 264.884 32.519L264.909 32.405L264.802 32.3543C263.978 31.9552 263.161 31.5624 262.413 31.2076L262.496 31.3343C262.464 30.327 262.287 29.3451 262.014 28.4771L261.976 28.6165C262.629 27.9703 263.269 27.3304 263.851 26.7476L263.927 26.6716L263.87 26.5765C263.06 25.2841 262.274 24.0298 261.539 22.8641L261.482 22.7754L261.381 22.8134C260.513 23.1175 259.657 23.4216 258.885 23.694L259.018 23.7193C258.276 23.0288 257.453 22.4649 256.661 22.0468L256.724 22.1545C256.724 21.2296 256.724 20.3236 256.724 19.5064V19.4113L256.636 19.3923C255.134 19.0502 253.709 18.7271 252.359 18.4167L252.277 18.3977L252.239 18.4737C251.84 19.31 251.453 20.1209 251.092 20.8621L251.175 20.8051C250.155 20.8431 249.198 21.0205 248.33 21.2929L248.419 21.3119C247.741 20.6404 247.114 20.0069 246.543 19.443L246.499 19.3987L246.448 19.4304C244.941 20.387 243.693 21.1789 242.749 21.7807L242.717 21.7997L242.73 21.8378C243.021 22.636 243.243 23.2505 243.401 23.6813C243.477 23.8841 243.534 24.0424 243.579 24.1565C243.623 24.2642 243.642 24.3212 243.648 24.3212L243.661 24.3085Z" fill="#E6E6E6"/>
<path d="M92.0071 0.557635L110.633 0.468941C113.129 0.456271 115.163 2.56592 115.175 5.17605L115.188 8.55275C115.201 11.1629 117.234 13.2725 119.73 13.2599L156.038 13.0951C158.534 13.0825 160.548 10.9602 160.542 8.34368L160.529 4.96698C160.517 2.35685 162.538 0.228201 165.034 0.215531L171.584 0.183854L187.885 0.107831C195.982 0.0698193 202.577 6.60782 202.608 14.7043L203.603 249.794C203.635 257.884 197.109 264.472 189.013 264.51L93.1348 264.954C85.0383 264.992 78.4433 258.454 78.4116 250.357L77.417 15.2681C77.3853 7.17799 83.9106 0.589312 92.0071 0.5513V0.557635Z" fill="white"/>
<path d="M92.0072 0.557554C92.0072 0.557554 91.8362 0.557554 91.5067 0.57656C91.1773 0.608236 90.6705 0.57656 90.0243 0.69693C88.7255 0.855312 86.7553 1.28611 84.5379 2.62285C83.4166 3.26272 82.2826 4.17499 81.2056 5.34702C80.1349 6.51904 79.1403 7.98249 78.4371 9.73103C77.7212 11.4732 77.3347 13.5132 77.3664 15.6798C77.3727 17.8465 77.3791 20.1462 77.3854 22.5916C77.4551 42.1233 77.5565 70.3723 77.6832 105.286C77.8225 140.2 77.9872 181.772 78.1646 227.93C78.19 233.702 78.209 239.543 78.2343 245.454C78.2343 246.93 78.247 248.412 78.2533 249.901C78.2787 251.39 78.38 252.917 78.8298 254.361C79.2543 255.806 79.8625 257.212 80.7114 258.473C81.5603 259.734 82.593 260.868 83.7714 261.837C86.1534 263.737 89.1373 264.941 92.2226 265.081C92.9955 265.131 93.7557 265.119 94.5223 265.119L96.822 265.106C98.3552 265.1 99.8946 265.093 101.434 265.087C107.598 265.061 113.82 265.03 120.098 265.004C132.654 264.947 145.439 264.89 158.407 264.827C164.895 264.795 171.426 264.77 178.002 264.738C181.29 264.726 184.591 264.707 187.898 264.694C191.218 264.852 194.645 263.959 197.407 262.027C200.182 260.107 202.222 257.212 203.166 254C203.673 252.397 203.761 250.699 203.755 249.052C203.749 247.405 203.742 245.758 203.736 244.111C203.711 237.535 203.679 230.997 203.654 224.509C203.597 211.535 203.546 198.75 203.489 186.194C203.381 161.074 203.274 136.842 203.172 113.756C203.071 90.6705 202.969 68.7377 202.881 48.2051C202.836 37.942 202.792 28.0273 202.748 18.499C202.748 17.308 202.735 16.1233 202.729 14.945C202.716 14.3558 202.672 13.7603 202.64 13.1711C202.532 12.5882 202.488 11.9991 202.336 11.4289C201.791 9.14185 200.72 7.00053 199.238 5.24566C197.737 3.49712 195.861 2.11603 193.796 1.21009C191.731 0.291473 189.469 -0.0316261 187.29 0.00638556C182.925 0.0253914 178.667 0.0507325 174.511 0.0697383C172.433 0.0824088 170.387 0.0887441 168.366 0.101415C167.353 0.101415 166.352 0.114085 165.357 0.114085C164.35 0.0697383 163.311 0.34849 162.493 0.925C161.67 1.50151 161.043 2.33777 160.72 3.27539C160.352 4.21301 160.441 5.22031 160.434 6.16427C160.434 6.63942 160.434 7.11456 160.441 7.58971C160.441 8.06485 160.46 8.53366 160.403 8.9898C160.289 9.90208 159.909 10.7763 159.313 11.4606C158.73 12.1511 157.926 12.6516 157.064 12.867C156.627 12.9747 156.19 13.0127 155.74 13C155.29 13 154.84 13 154.391 13.0064C152.598 13.0127 150.837 13.0254 149.101 13.0317C142.17 13.0697 135.714 13.1014 129.772 13.1331C126.801 13.1521 123.962 13.1647 121.251 13.1774C120.579 13.1711 119.895 13.2154 119.255 13.1584C118.609 13.0887 117.988 12.867 117.45 12.5312C116.366 11.866 115.631 10.751 115.378 9.57265C115.239 8.98347 115.264 8.38162 115.258 7.79244C115.258 7.19692 115.251 6.61407 115.245 6.03756C115.232 5.46739 115.27 4.89088 115.163 4.33338C115.068 3.77587 114.871 3.24371 114.605 2.76856C114.073 1.8056 113.218 1.08338 112.267 0.715936C111.304 0.304143 110.284 0.430849 109.36 0.418178C105.603 0.443519 102.422 0.462525 99.8503 0.475196C97.2845 0.494202 95.3205 0.506872 94.0028 0.519543C92.6851 0.532213 92.0135 0.544884 92.0135 0.544884C92.0135 0.544884 92.6914 0.551219 94.0028 0.551219C95.3205 0.551219 97.2845 0.551219 99.8503 0.538548C102.422 0.532213 105.603 0.519543 109.36 0.513207C110.291 0.532213 111.298 0.405508 112.229 0.810965C113.161 1.17208 113.997 1.88163 114.51 2.81925C114.77 3.28806 114.954 3.80121 115.049 4.34605C115.15 4.89088 115.118 5.45472 115.125 6.03123C115.125 6.60774 115.125 7.19058 115.125 7.7861C115.125 8.37528 115.106 8.9898 115.245 9.59799C115.505 10.808 116.259 11.9484 117.374 12.6389C117.925 12.9874 118.565 13.2154 119.236 13.2915C119.908 13.3485 120.573 13.3041 121.251 13.3105C123.962 13.2978 126.801 13.2915 129.772 13.2788C135.714 13.2534 142.164 13.2281 149.101 13.2028C150.837 13.1964 152.598 13.1901 154.391 13.1838C154.84 13.1838 155.29 13.1838 155.74 13.1838C156.19 13.1901 156.665 13.1584 157.115 13.0444C158.014 12.8163 158.857 12.2968 159.465 11.5746C160.086 10.865 160.485 9.95276 160.606 9.00247C160.669 8.52099 160.65 8.04585 160.65 7.57704C160.65 7.10189 160.65 6.62675 160.65 6.1516C160.656 5.19497 160.568 4.22568 160.929 3.3324C161.239 2.4328 161.841 1.64089 162.626 1.08972C163.418 0.538548 164.388 0.272467 165.376 0.316814C166.371 0.316814 167.378 0.310479 168.385 0.304143C170.406 0.297808 172.452 0.285138 174.53 0.278802C178.68 0.259796 182.944 0.240791 187.309 0.22812C189.475 0.196444 191.686 0.513207 193.72 1.41915C195.747 2.30609 197.597 3.66817 199.067 5.39137C200.53 7.1209 201.576 9.22421 202.114 11.4732C202.266 12.0307 202.311 12.6136 202.412 13.1838C202.444 13.7666 202.488 14.3431 202.501 14.9323C202.501 16.1106 202.507 17.2953 202.513 18.4864C202.551 28.0146 202.589 37.9293 202.627 48.1925C202.71 68.7188 202.798 90.6578 202.887 113.744C202.982 136.829 203.084 161.062 203.185 186.181C203.236 198.744 203.293 211.528 203.343 224.497C203.369 230.984 203.4 237.516 203.426 244.098C203.432 245.745 203.438 247.392 203.445 249.04C203.445 250.68 203.362 252.321 202.868 253.892C201.943 257.028 199.948 259.86 197.236 261.742C194.525 263.63 191.211 264.504 187.911 264.352C184.604 264.365 181.303 264.384 178.015 264.396C171.439 264.428 164.907 264.46 158.42 264.485C145.452 264.548 132.667 264.605 120.11 264.662C113.832 264.694 107.611 264.719 101.447 264.751C99.9073 264.757 98.3678 264.764 96.8347 264.77L94.535 264.783C93.7684 264.783 93.0019 264.795 92.2543 264.751C89.2324 264.618 86.3181 263.44 83.9804 261.583C82.8274 260.633 81.8201 259.518 80.9838 258.289C80.1476 257.054 79.5584 255.679 79.1403 254.266C78.6968 252.847 78.5954 251.371 78.5701 249.895C78.5638 248.406 78.5574 246.93 78.5511 245.447C78.5258 239.537 78.5004 233.696 78.4751 227.924C78.266 181.765 78.076 140.193 77.9239 105.28C77.7529 70.3659 77.6198 42.1169 77.5248 22.5853C77.5121 20.1462 77.4994 17.8402 77.4868 15.6735C77.4551 13.5132 77.8289 11.4986 78.5321 9.7627C79.229 8.0205 80.2109 6.56339 81.2689 5.3977C82.3333 4.23201 83.4609 3.3134 84.5696 2.67354C86.7679 1.33679 88.7319 0.893324 90.0243 0.728607C90.6705 0.595566 91.1773 0.627242 91.5067 0.589231C91.8362 0.570225 92.0072 0.551219 92.0072 0.551219V0.557554Z" fill="#263238"/>
<path d="M109.22 74.5789L110.658 72.8683L106.376 70.575L126.275 63.8406L119.54 83.1251L117.089 79.9132C117.089 79.9132 104.215 102.568 117.089 116.341C129.873 130.019 144.945 127.054 144.945 127.054L142.037 136.544C142.037 136.544 118.311 138.229 105.609 116.797C92.9069 95.3712 109.22 74.5789 109.22 74.5789Z" fill="#FF8001"/>
<path d="M168.886 122.112L167.448 123.823L171.73 126.116L151.831 132.851L158.566 113.566L161.017 116.778C161.017 116.778 173.891 94.1231 161.017 80.3503C148.233 66.6724 133.161 69.6373 133.161 69.6373L136.069 60.1471C136.069 60.1471 159.795 58.4619 172.497 79.8941C185.199 101.32 168.886 122.112 168.886 122.112Z" fill="#FF8001"/>
<path d="M109.22 74.5789L110.658 72.8683L106.376 70.575L126.275 63.8406L119.54 83.1251L117.089 79.9132C117.089 79.9132 104.215 102.568 117.089 116.341C129.873 130.019 144.945 127.054 144.945 127.054L142.037 136.544C142.037 136.544 118.311 138.229 105.609 116.797C92.9069 95.3712 109.22 74.5789 109.22 74.5789Z" fill="#FF8001"/>
<path d="M168.886 122.112L167.448 123.823L171.73 126.116L151.831 132.851L158.566 113.566L161.017 116.778C161.017 116.778 173.891 94.1231 161.017 80.3503C148.233 66.6724 133.161 69.6373 133.161 69.6373L136.069 60.1471C136.069 60.1471 159.795 58.4619 172.497 79.8941C185.199 101.32 168.886 122.112 168.886 122.112Z" fill="#FF8001"/>
<g opacity="0.8">
<path d="M109.22 74.5789L110.658 72.8683L106.376 70.575L126.275 63.8406L119.54 83.1251L117.089 79.9132C117.089 79.9132 104.215 102.568 117.089 116.341C129.873 130.019 144.945 127.054 144.945 127.054L142.037 136.544C142.037 136.544 118.311 138.229 105.609 116.797C92.9069 95.3712 109.22 74.5789 109.22 74.5789Z" fill="white"/>
</g>
<g opacity="0.8">
<path d="M168.886 122.112L167.448 123.823L171.73 126.116L151.831 132.851L158.566 113.566L161.017 116.778C161.017 116.778 173.891 94.1231 161.017 80.3503C148.233 66.6724 133.161 69.6373 133.161 69.6373L136.069 60.1471C136.069 60.1471 159.795 58.4619 172.497 79.8941C185.199 101.32 168.886 122.112 168.886 122.112Z" fill="white"/>
</g>
<path fill-rule="evenodd" clip-rule="evenodd" d="M127.707 87.0974C126.75 88.1174 125.952 89.2514 125.312 90.4551L121.485 90.4424L120.066 96.6066L123.513 98.2665C123.557 99.6286 123.779 100.997 124.191 102.334L121.479 105.026L124.837 110.392L128.448 109.131C129.468 110.088 130.602 110.886 131.806 111.526L131.793 115.353L137.957 116.772L139.617 113.325C140.979 113.281 142.347 113.059 143.684 112.641L146.377 115.353L151.743 112.001L150.482 108.39C151.439 107.37 152.237 106.236 152.877 105.033L156.703 105.045L158.122 98.881L154.676 97.2212C154.632 95.8591 154.41 94.4906 153.998 93.1539L156.71 90.4614L153.358 85.0954L149.747 86.3562C148.727 85.3995 147.593 84.6013 146.389 83.9614L146.402 80.1349L140.238 78.7158L138.578 82.1622C137.216 82.2066 135.847 82.4283 134.511 82.8401L131.818 80.1286L126.452 83.4799L127.713 87.0911L127.707 87.0974ZM135.252 92.1466C138.432 90.1573 142.62 91.1266 144.603 94.3006C146.592 97.4809 145.623 101.669 142.449 103.651C139.269 105.641 135.081 104.671 133.098 101.497C131.109 98.3172 132.078 94.1295 135.252 92.1466Z" fill="#FF8001"/>
<g opacity="0.6">
<path fill-rule="evenodd" clip-rule="evenodd" d="M135.252 92.1466C138.432 90.1573 142.62 91.1266 144.603 94.3006C146.592 97.4809 145.623 101.669 142.449 103.651C139.268 105.641 135.081 104.671 133.098 101.497C131.109 98.3172 132.078 94.1296 135.252 92.1466Z" fill="white"/>
</g>
<path d="M86.4511 23.3708C86.4511 23.4405 89.0169 23.5102 92.1846 23.5419C95.3522 23.5672 97.918 23.5355 97.9243 23.4659C97.9243 23.3962 95.3585 23.3265 92.1909 23.2948C89.0233 23.2695 86.4575 23.3011 86.4575 23.3708H86.4511Z" fill="#263238"/>
<path d="M86.4257 26.3042C86.4257 26.3739 88.9915 26.4435 92.1592 26.4752C95.3268 26.5006 97.8926 26.4689 97.8989 26.3992C97.8989 26.3295 95.3331 26.2598 92.1655 26.2282C88.9979 26.2028 86.4321 26.2345 86.4321 26.3042H86.4257Z" fill="#263238"/>
<path d="M86.4003 29.2373C86.4003 29.307 88.9661 29.3767 92.1338 29.4083C95.3014 29.4337 97.8672 29.402 97.8735 29.3323C97.8735 29.2626 95.3078 29.1929 92.1401 29.1613C88.9725 29.1359 86.4067 29.1676 86.4067 29.2373H86.4003Z" fill="#263238"/>
<path d="M190.78 32.5887C190.78 32.5887 190.692 32.576 190.54 32.576C190.35 32.5697 190.134 32.5634 189.875 32.557C189.247 32.5444 188.43 32.5254 187.423 32.5L187.492 32.5697C187.499 32.0249 187.511 31.4357 187.524 30.7958C187.524 30.4664 187.55 30.156 187.524 29.7758C187.461 29.3957 187.119 29.06 186.701 29.0219C186.308 29.0156 185.959 28.9966 185.529 29.0219C185.085 29.079 184.711 29.5034 184.724 29.9659C184.718 30.7958 184.705 31.6574 184.692 32.557L184.806 32.443C183.812 32.4303 182.779 32.424 181.715 32.4113L181.835 32.5317C181.848 31.29 181.86 29.9976 181.867 28.6798C181.867 28.3504 181.867 28.021 181.873 27.6979C181.873 27.3938 182.057 27.1911 182.31 26.9693C182.766 26.5195 183.216 26.076 183.66 25.6389C184.103 25.2018 184.534 24.771 184.965 24.3529C185.18 24.1438 185.389 23.9347 185.598 23.732C185.814 23.5229 185.985 23.3075 186.238 23.2569C186.479 23.1935 186.751 23.2442 186.948 23.3899C187.138 23.5483 187.334 23.77 187.524 23.9537C187.904 24.3402 188.272 24.7076 188.633 25.0751C189.33 25.7973 190.058 26.4625 190.584 27.0897C190.806 27.4381 190.723 27.8563 190.742 28.2427C190.742 28.6228 190.742 28.9903 190.742 29.3324C190.742 29.9976 190.749 30.5868 190.755 31.0872C190.755 31.5371 190.761 31.9045 190.768 32.2086C190.768 32.4683 190.774 32.6077 190.78 32.614C190.78 32.614 190.793 32.4937 190.799 32.2403C190.806 31.9425 190.819 31.5751 190.831 31.1379C190.844 30.6311 190.857 30.0419 190.869 29.3704C190.876 29.0219 190.882 28.6482 190.888 28.2617C190.888 28.0653 190.888 27.8626 190.895 27.6535C190.895 27.4318 190.838 27.2101 190.723 27.0073C190.153 26.3041 189.469 25.6896 188.766 24.942C188.411 24.5809 188.044 24.2008 187.664 23.8144C187.467 23.618 187.302 23.4279 187.068 23.2252C186.821 23.0351 186.479 22.9654 186.175 23.0478C185.845 23.1175 185.63 23.3899 185.434 23.58C185.224 23.7827 185.015 23.9917 184.8 24.2008C184.376 24.6189 183.938 25.0497 183.495 25.4805C183.051 25.9177 182.602 26.3611 182.139 26.8109C182.031 26.925 181.898 27.0263 181.797 27.1847C181.696 27.3368 181.639 27.5205 181.632 27.7042C181.632 28.0336 181.632 28.3567 181.626 28.6925C181.613 30.0103 181.607 31.2963 181.594 32.5444V32.6647H181.715C182.779 32.6711 183.812 32.6774 184.806 32.6837H184.92V32.5697C184.92 31.6701 184.927 30.8085 184.933 29.9786C184.92 29.6048 185.212 29.2754 185.56 29.231C185.915 29.212 186.333 29.2247 186.682 29.231C187.011 29.2564 187.29 29.5224 187.347 29.8329C187.378 30.1433 187.353 30.5044 187.359 30.8212C187.359 31.461 187.359 32.0565 187.359 32.595V32.6647H187.429C188.449 32.6584 189.285 32.6521 189.919 32.6457C190.172 32.6457 190.381 32.6394 190.565 32.6331C190.711 32.6331 190.78 32.6267 190.78 32.6204V32.5887Z" fill="#263238"/>
<path d="M114.852 30.0863C114.852 30.175 124.507 30.2511 136.411 30.2511C148.315 30.2511 157.97 30.175 157.97 30.0863C157.97 29.9977 148.321 29.9216 136.411 29.9216C124.501 29.9216 114.852 29.9977 114.852 30.0863Z" fill="#263238"/>
<path d="M115.973 229.813H161.245C166.753 229.813 171.211 225.349 171.211 219.847C171.211 214.339 166.747 209.881 161.245 209.881H115.973C110.466 209.881 106.008 214.345 106.008 219.847C106.008 225.354 110.472 229.813 115.973 229.813Z" stroke="#FF8001"/>
<path d="M123.615 224.15C123.122 224.15 122.672 224.063 122.265 223.89C121.859 223.717 121.509 223.468 121.215 223.145C120.922 222.818 120.695 222.425 120.535 221.965C120.379 221.502 120.3 220.98 120.3 220.4C120.3 219.633 120.437 218.97 120.71 218.41C120.984 217.85 121.369 217.418 121.865 217.115C122.362 216.808 122.945 216.655 123.615 216.655C124.422 216.655 125.072 216.843 125.565 217.22C126.059 217.593 126.399 218.105 126.585 218.755L125.685 218.94C125.535 218.503 125.289 218.155 124.945 217.895C124.602 217.635 124.174 217.505 123.66 217.505C123.124 217.502 122.677 217.622 122.32 217.865C121.967 218.105 121.7 218.443 121.52 218.88C121.34 219.317 121.249 219.823 121.245 220.4C121.242 220.973 121.33 221.477 121.51 221.91C121.69 222.343 121.959 222.683 122.315 222.93C122.675 223.173 123.124 223.297 123.66 223.3C124.124 223.303 124.514 223.215 124.83 223.035C125.147 222.855 125.392 222.595 125.565 222.255C125.739 221.915 125.844 221.507 125.88 221.03H124.35V220.295H126.82C126.83 220.362 126.835 220.442 126.835 220.535C126.839 220.625 126.84 220.687 126.84 220.72C126.84 221.377 126.717 221.965 126.47 222.485C126.227 223.002 125.865 223.408 125.385 223.705C124.909 224.002 124.319 224.15 123.615 224.15ZM129.969 224.15C129.432 224.15 128.969 224.028 128.579 223.785C128.192 223.542 127.894 223.205 127.684 222.775C127.474 222.345 127.369 221.852 127.369 221.295C127.369 220.728 127.476 220.232 127.689 219.805C127.902 219.378 128.204 219.047 128.594 218.81C128.984 218.57 129.442 218.45 129.969 218.45C130.509 218.45 130.974 218.572 131.364 218.815C131.754 219.055 132.052 219.39 132.259 219.82C132.469 220.247 132.574 220.738 132.574 221.295C132.574 221.858 132.469 222.355 132.259 222.785C132.049 223.212 131.749 223.547 131.359 223.79C130.969 224.03 130.506 224.15 129.969 224.15ZM129.969 223.305C130.529 223.305 130.946 223.118 131.219 222.745C131.492 222.372 131.629 221.888 131.629 221.295C131.629 220.685 131.491 220.2 131.214 219.84C130.937 219.477 130.522 219.295 129.969 219.295C129.592 219.295 129.282 219.38 129.039 219.55C128.796 219.72 128.614 219.955 128.494 220.255C128.374 220.555 128.314 220.902 128.314 221.295C128.314 221.902 128.454 222.388 128.734 222.755C129.014 223.122 129.426 223.305 129.969 223.305ZM135.337 224V216.8H138.142C138.572 216.8 138.938 216.888 139.242 217.065C139.548 217.242 139.782 217.475 139.942 217.765C140.105 218.052 140.187 218.362 140.187 218.695C140.187 219.085 140.087 219.427 139.887 219.72C139.687 220.013 139.417 220.215 139.077 220.325L139.067 220.08C139.53 220.203 139.89 220.43 140.147 220.76C140.403 221.09 140.532 221.483 140.532 221.94C140.532 222.36 140.445 222.723 140.272 223.03C140.102 223.337 139.855 223.575 139.532 223.745C139.212 223.915 138.832 224 138.392 224H135.337ZM136.237 223.15H138.222C138.488 223.15 138.727 223.102 138.937 223.005C139.147 222.905 139.312 222.765 139.432 222.585C139.555 222.405 139.617 222.188 139.617 221.935C139.617 221.692 139.562 221.473 139.452 221.28C139.345 221.087 139.193 220.933 138.997 220.82C138.803 220.703 138.578 220.645 138.322 220.645H136.237V223.15ZM136.237 219.805H138.132C138.345 219.805 138.537 219.76 138.707 219.67C138.88 219.577 139.017 219.447 139.117 219.28C139.22 219.113 139.272 218.918 139.272 218.695C139.272 218.385 139.167 218.132 138.957 217.935C138.747 217.738 138.472 217.64 138.132 217.64H136.237V219.805ZM142.893 224.15C142.49 224.15 142.151 224.077 141.878 223.93C141.608 223.78 141.403 223.583 141.263 223.34C141.126 223.097 141.058 222.83 141.058 222.54C141.058 222.257 141.111 222.012 141.218 221.805C141.328 221.595 141.481 221.422 141.678 221.285C141.875 221.145 142.11 221.035 142.383 220.955C142.64 220.885 142.926 220.825 143.243 220.775C143.563 220.722 143.886 220.673 144.213 220.63C144.54 220.587 144.845 220.545 145.128 220.505L144.808 220.69C144.818 220.21 144.721 219.855 144.518 219.625C144.318 219.395 143.971 219.28 143.478 219.28C143.151 219.28 142.865 219.355 142.618 219.505C142.375 219.652 142.203 219.892 142.103 220.225L141.258 219.97C141.388 219.497 141.64 219.125 142.013 218.855C142.386 218.585 142.878 218.45 143.488 218.45C143.978 218.45 144.398 218.538 144.748 218.715C145.101 218.888 145.355 219.152 145.508 219.505C145.585 219.672 145.633 219.853 145.653 220.05C145.673 220.243 145.683 220.447 145.683 220.66V224H144.893V222.705L145.078 222.825C144.875 223.262 144.59 223.592 144.223 223.815C143.86 224.038 143.416 224.15 142.893 224.15ZM143.028 223.405C143.348 223.405 143.625 223.348 143.858 223.235C144.095 223.118 144.285 222.967 144.428 222.78C144.571 222.59 144.665 222.383 144.708 222.16C144.758 221.993 144.785 221.808 144.788 221.605C144.795 221.398 144.798 221.24 144.798 221.13L145.108 221.265C144.818 221.305 144.533 221.343 144.253 221.38C143.973 221.417 143.708 221.457 143.458 221.5C143.208 221.54 142.983 221.588 142.783 221.645C142.636 221.692 142.498 221.752 142.368 221.825C142.241 221.898 142.138 221.993 142.058 222.11C141.981 222.223 141.943 222.365 141.943 222.535C141.943 222.682 141.98 222.822 142.053 222.955C142.13 223.088 142.246 223.197 142.403 223.28C142.563 223.363 142.771 223.405 143.028 223.405ZM149.088 224.15C148.541 224.15 148.076 224.028 147.693 223.785C147.313 223.538 147.023 223.2 146.823 222.77C146.623 222.34 146.52 221.85 146.513 221.3C146.52 220.737 146.625 220.242 146.828 219.815C147.035 219.385 147.33 219.05 147.713 218.81C148.096 218.57 148.558 218.45 149.098 218.45C149.668 218.45 150.158 218.59 150.568 218.87C150.981 219.15 151.258 219.533 151.398 220.02L150.518 220.285C150.405 219.972 150.22 219.728 149.963 219.555C149.71 219.382 149.418 219.295 149.088 219.295C148.718 219.295 148.413 219.382 148.173 219.555C147.933 219.725 147.755 219.962 147.638 220.265C147.521 220.565 147.461 220.91 147.458 221.3C147.465 221.9 147.603 222.385 147.873 222.755C148.146 223.122 148.551 223.305 149.088 223.305C149.441 223.305 149.735 223.225 149.968 223.065C150.201 222.902 150.378 222.667 150.498 222.36L151.398 222.595C151.211 223.098 150.92 223.483 150.523 223.75C150.126 224.017 149.648 224.15 149.088 224.15ZM152.244 224L152.249 216.8H153.149V221.2L155.414 218.6H156.569L154.184 221.3L156.849 224H155.604L153.149 221.4V224H152.244Z" fill="#FF8001"/>
<path d="M95.5867 180.638C95.5867 180.726 115.049 180.802 139.053 180.802C163.057 180.802 182.526 180.726 182.526 180.638C182.526 180.549 163.064 180.473 139.053 180.473C115.042 180.473 95.5867 180.549 95.5867 180.638Z" fill="#263238"/>
<path d="M112.901 185.972C112.901 186.061 124.609 186.137 139.047 186.137C153.485 186.137 165.199 186.061 165.199 185.972C165.199 185.883 153.491 185.807 139.047 185.807C124.602 185.807 112.901 185.883 112.901 185.972Z" fill="#263238"/>
<path d="M233.195 264.466L237.047 278.695L224.535 279.842L221.906 266.29L233.195 264.466Z" fill="#FF8001"/>
<path d="M224.174 278.682C224.174 278.726 224.877 278.714 226.005 278.619C227.132 278.53 228.685 278.359 230.395 278.137C232.042 277.915 233.531 277.719 234.766 277.548C235.881 277.39 236.578 277.282 236.572 277.238C236.572 277.193 235.869 277.212 234.741 277.307C233.613 277.402 232.061 277.573 230.351 277.795C228.704 278.017 227.215 278.213 225.979 278.378C224.864 278.53 224.168 278.638 224.174 278.682Z" fill="#263238"/>
<g opacity="0.6">
<path d="M237.047 278.695L224.535 279.842L224.332 278.796L236.686 277.225L237.034 278.556" fill="white"/>
</g>
<path d="M230.832 278.061C230.908 278.042 230.376 275.603 229.641 272.607C228.906 269.616 228.247 267.203 228.165 267.222C228.089 267.241 228.621 269.68 229.356 272.676C230.091 275.666 230.75 278.08 230.832 278.061Z" fill="#263238"/>
<path d="M224.864 278.587C224.94 278.587 224.465 277.567 224.833 275.939C225.023 275.147 225.441 274.228 226.201 273.462C226.955 272.695 228.076 272.157 229.312 272.03C230.547 271.91 231.757 272.207 232.663 272.79C233.582 273.367 234.209 274.146 234.608 274.862C235.406 276.319 235.324 277.415 235.4 277.402C235.413 277.402 235.419 277.339 235.419 277.212C235.425 277.086 235.419 276.908 235.387 276.667C235.337 276.199 235.178 275.521 234.792 274.761C234.399 274.013 233.759 273.177 232.809 272.562C231.865 271.935 230.585 271.612 229.286 271.739C227.988 271.872 226.797 272.448 226.011 273.272C225.213 274.089 224.807 275.065 224.63 275.895C224.465 276.731 224.522 277.434 224.63 277.89C224.687 278.118 224.731 278.296 224.782 278.41C224.826 278.524 224.852 278.587 224.864 278.581V278.587Z" fill="#263238"/>
<path d="M181.55 260.646L182.386 273.291C182.386 273.291 169.805 277.466 169.728 279.816L194.316 279.994L193.822 260.24L181.55 260.646Z" fill="#FF8001"/>
<g opacity="0.6">
<path d="M189.951 271.998C190.432 272.112 190.774 272.638 190.679 273.12C190.584 273.601 190.052 273.956 189.57 273.855C189.089 273.747 188.658 273.132 188.804 272.657C188.956 272.188 189.596 271.802 190.039 272.024" fill="white"/>
</g>
<g opacity="0.6">
<path d="M194.316 280L194.265 278.011L170.52 278.663C170.52 278.663 169.728 279.005 169.608 280H194.322H194.316Z" fill="white"/>
</g>
<path d="M181.981 273.177C181.987 273.297 182.589 273.335 183.191 273.703C183.805 274.057 184.122 274.564 184.23 274.514C184.338 274.488 184.141 273.772 183.4 273.342C182.665 272.904 181.949 273.069 181.975 273.177H181.981Z" fill="#263238"/>
<path d="M179.44 274.324C179.415 274.438 179.941 274.628 180.365 275.122C180.803 275.603 180.923 276.148 181.043 276.142C181.157 276.154 181.221 275.451 180.682 274.849C180.15 274.241 179.44 274.21 179.447 274.324H179.44Z" fill="#263238"/>
<path d="M178.066 277.453C178.174 277.479 178.326 276.87 177.996 276.224C177.673 275.572 177.097 275.331 177.052 275.432C176.989 275.534 177.363 275.876 177.622 276.408C177.895 276.94 177.945 277.44 178.066 277.453Z" fill="#263238"/>
<path d="M182.114 270.275C182.165 270.383 182.716 270.199 183.394 270.225C184.071 270.237 184.61 270.446 184.667 270.345C184.737 270.256 184.204 269.826 183.406 269.807C182.608 269.781 182.057 270.18 182.114 270.275Z" fill="#263238"/>
<path d="M181.987 267.722C181.987 267.773 182.462 267.83 183.216 267.678C183.59 267.602 184.034 267.463 184.49 267.241C184.718 267.133 184.952 267 185.187 266.842C185.301 266.766 185.427 266.69 185.548 266.544C185.674 266.417 185.744 266.094 185.586 265.904C185.453 265.72 185.231 265.644 185.054 265.644C184.87 265.644 184.724 265.682 184.591 265.72C184.319 265.796 184.065 265.891 183.831 266.005C183.368 266.233 182.995 266.512 182.716 266.785C182.165 267.329 181.981 267.786 182.025 267.805C182.082 267.843 182.348 267.456 182.912 267.006C183.197 266.778 183.558 266.544 183.989 266.354C184.205 266.259 184.439 266.176 184.686 266.113C184.946 266.037 185.168 266.031 185.237 266.145C185.263 266.189 185.269 266.208 185.212 266.284C185.155 266.354 185.054 266.43 184.946 266.506C184.73 266.652 184.515 266.785 184.306 266.899C183.881 267.127 183.476 267.279 183.128 267.393C182.431 267.608 181.968 267.659 181.968 267.722H181.987Z" fill="#263238"/>
<path d="M182.152 267.887C182.196 267.906 182.418 267.469 182.443 266.69C182.45 266.303 182.399 265.841 182.234 265.347C182.152 265.099 182.038 264.852 181.898 264.612C181.746 264.371 181.563 264.054 181.094 264.016C180.853 264.016 180.657 264.213 180.593 264.377C180.517 264.548 180.505 264.688 180.479 264.833C180.441 265.125 180.454 265.404 180.505 265.663C180.6 266.183 180.828 266.614 181.069 266.918C181.569 267.539 182.076 267.665 182.082 267.627C182.12 267.564 181.696 267.348 181.309 266.747C181.119 266.449 180.948 266.056 180.885 265.6C180.853 265.372 180.853 265.131 180.885 264.89C180.917 264.631 181.005 264.415 181.107 264.441C181.227 264.441 181.442 264.624 181.55 264.833C181.683 265.049 181.791 265.271 181.873 265.492C182.038 265.929 182.12 266.354 182.146 266.715C182.203 267.437 182.089 267.887 182.152 267.906V267.887Z" fill="#263238"/>
<path d="M181.544 150.805L219.01 150.52L237.11 269.42L221.564 271.397L201.639 173.631L195.678 271.745L195.659 272.037L178.845 271.739L181.544 150.805Z" fill="#263238"/>
<path d="M198.585 160.441C198.585 160.441 198.326 160.415 197.813 160.39C197.249 160.371 196.495 160.339 195.557 160.308C193.549 160.251 190.768 160.175 187.461 160.08H187.309V160.232C187.309 162.582 187.296 165.211 187.29 167.999V168.075L187.347 168.125C187.797 168.537 188.272 168.981 188.759 169.424C190.204 170.748 191.598 172.028 192.915 173.232L193.023 173.333L193.137 173.232C195.196 171.394 197.078 169.722 198.681 168.29L198.725 168.252V168.195C198.693 165.832 198.674 163.893 198.655 162.5C198.642 161.866 198.63 161.353 198.623 160.967C198.611 160.618 198.604 160.441 198.592 160.447C198.579 160.453 198.573 160.65 198.56 161.017C198.554 161.416 198.541 161.936 198.528 162.582C198.509 163.957 198.49 165.87 198.459 168.201L198.503 168.1C196.888 169.513 194.993 171.173 192.922 172.991H193.143C191.826 171.781 190.432 170.501 188.994 169.177C188.512 168.734 188.031 168.296 187.581 167.885L187.638 168.011C187.632 165.224 187.625 162.595 187.619 160.244L187.467 160.396C190.73 160.428 193.486 160.453 195.469 160.472C196.419 160.472 197.185 160.472 197.756 160.472C198.003 160.472 198.199 160.472 198.37 160.466C198.509 160.466 198.585 160.46 198.592 160.453L198.585 160.441Z" fill="#455A64"/>
<path d="M216.217 159.928C216.217 159.928 215.989 159.928 215.526 159.966C215.019 160.01 214.348 160.061 213.512 160.13C211.706 160.295 209.204 160.523 206.226 160.789L206.074 160.802L206.093 160.954C206.365 163.254 206.682 165.87 207.012 168.664V168.734L207.075 168.778C207.588 169.19 208.139 169.627 208.69 170.07C210.072 171.166 211.402 172.231 212.675 173.238L212.808 173.339L212.91 173.206C214.519 171.173 215.995 169.304 217.268 167.701L217.306 167.657V167.6C216.983 165.268 216.724 163.349 216.54 161.955C216.451 161.328 216.375 160.821 216.318 160.434C216.267 160.092 216.236 159.915 216.223 159.921C216.217 159.934 216.223 160.13 216.261 160.491C216.299 160.891 216.35 161.41 216.419 162.05C216.572 163.425 216.781 165.319 217.028 167.625L217.059 167.524C215.773 169.12 214.284 170.97 212.656 172.991L212.891 172.966C211.624 171.952 210.287 170.888 208.912 169.785C208.361 169.342 207.81 168.911 207.297 168.499L207.36 168.613C207.012 165.819 206.682 163.203 206.397 160.91L206.264 161.074C209.197 160.745 211.662 160.472 213.442 160.276C214.291 160.175 214.969 160.092 215.482 160.029C215.957 159.972 216.217 159.934 216.229 159.921L216.217 159.928Z" fill="#455A64"/>
<path d="M193.296 177.971C193.321 178.015 193.961 177.685 194.993 177.147C196.026 176.608 197.451 175.861 199.035 175.069C200.625 174.277 202.076 173.587 203.128 173.086C204.18 172.586 204.826 172.269 204.807 172.224C204.788 172.18 204.104 172.421 203.027 172.864C201.95 173.308 200.473 173.967 198.883 174.759C197.293 175.557 195.88 176.336 194.873 176.932C193.872 177.527 193.27 177.926 193.296 177.971Z" fill="#455A64"/>
<path d="M193.777 180.859C193.79 180.897 194.296 180.758 195.057 180.378C195.811 180.004 196.805 179.352 197.73 178.446C198.655 177.533 199.314 176.551 199.707 175.804C200.1 175.05 200.245 174.55 200.207 174.537C200.106 174.48 199.314 176.437 197.496 178.205C195.697 179.998 193.733 180.764 193.79 180.866L193.777 180.859Z" fill="#455A64"/>
<path d="M183.204 215.216C183.204 215.216 183.235 215.444 183.375 215.836C183.514 216.229 183.761 216.78 184.154 217.408C184.927 218.668 186.403 220.239 188.525 221.139C190.647 222.032 192.808 221.994 194.252 221.671C194.981 221.513 195.545 221.304 195.925 221.133C196.305 220.962 196.495 220.841 196.489 220.822C196.463 220.759 195.64 221.183 194.208 221.437C192.789 221.697 190.705 221.69 188.665 220.829C186.625 219.967 185.167 218.478 184.363 217.281C183.539 216.077 183.273 215.197 183.21 215.222L183.204 215.216Z" fill="#455A64"/>
<path d="M185.668 214.202C185.649 214.24 186.175 214.538 187.1 214.836C188.018 215.14 189.349 215.399 190.825 215.45C192.301 215.513 193.638 215.374 194.588 215.228C195.538 215.076 196.115 214.918 196.109 214.874C196.09 214.76 193.746 215.209 190.838 215.102C189.387 215.051 188.088 214.836 187.163 214.595C186.238 214.36 185.687 214.145 185.668 214.196V214.202Z" fill="#455A64"/>
<path d="M213.518 214.911C213.518 214.911 213.948 215.437 214.823 216.09C215.691 216.749 216.996 217.534 218.554 218.117C220.119 218.7 221.62 218.953 222.704 219.029C223.793 219.099 224.465 219.029 224.459 218.991C224.459 218.934 223.787 218.922 222.723 218.789C221.659 218.656 220.201 218.364 218.668 217.8C217.141 217.23 215.843 216.495 214.956 215.9C214.063 215.304 213.549 214.873 213.511 214.918L213.518 214.911Z" fill="#455A64"/>
<path d="M216.806 214.766C216.787 214.848 218.32 215.209 220.239 215.051C222.159 214.905 223.622 214.31 223.584 214.227C223.553 214.126 222.083 214.563 220.208 214.709C218.339 214.867 216.812 214.664 216.799 214.766H216.806Z" fill="#455A64"/>
<path d="M201.861 174.454C201.842 174.492 202.475 174.822 203.546 175.215C204.617 175.614 206.144 176.057 207.867 176.336C209.596 176.608 211.18 176.665 212.327 176.621C213.467 176.577 214.17 176.463 214.164 176.425C214.164 176.374 213.454 176.399 212.32 176.38C211.186 176.361 209.622 176.273 207.917 176C206.213 175.728 204.699 175.322 203.616 174.987C202.532 174.651 201.874 174.404 201.855 174.454H201.861Z" fill="#455A64"/>
<path d="M202.881 170.615C202.786 170.615 202.704 170.907 202.704 171.274C202.704 171.635 202.773 171.933 202.868 171.933C202.963 171.933 203.046 171.642 203.046 171.274C203.046 170.913 202.976 170.615 202.881 170.615Z" fill="#455A64"/>
<path d="M202.881 167.98C202.786 167.98 202.71 168.277 202.716 168.639C202.716 169 202.798 169.297 202.894 169.297C202.989 169.297 203.065 169 203.058 168.639C203.058 168.277 202.976 167.98 202.881 167.98Z" fill="#455A64"/>
<path d="M202.824 165.344C202.729 165.344 202.659 165.642 202.672 166.01C202.678 166.371 202.767 166.668 202.862 166.662C202.957 166.662 203.027 166.364 203.014 165.997C203.008 165.636 202.919 165.338 202.824 165.344Z" fill="#455A64"/>
<path d="M202.722 162.715C202.627 162.715 202.564 163.019 202.583 163.38C202.602 163.741 202.691 164.033 202.786 164.033C202.881 164.033 202.944 163.729 202.925 163.368C202.906 163.007 202.817 162.715 202.722 162.715Z" fill="#455A64"/>
<path d="M202.564 160.086C202.469 160.092 202.412 160.39 202.437 160.751C202.463 161.112 202.558 161.404 202.653 161.397C202.748 161.397 202.805 161.093 202.779 160.732C202.754 160.371 202.659 160.08 202.564 160.086Z" fill="#455A64"/>
<path d="M202.355 157.457C202.26 157.463 202.209 157.767 202.241 158.128C202.273 158.49 202.374 158.775 202.469 158.768C202.564 158.762 202.615 158.458 202.583 158.097C202.551 157.736 202.45 157.444 202.355 157.457Z" fill="#455A64"/>
<path d="M202.152 155.309C202.057 155.322 202 155.512 202.026 155.746C202.051 155.981 202.146 156.158 202.241 156.152C202.336 156.146 202.393 155.949 202.368 155.715C202.342 155.48 202.247 155.303 202.152 155.309Z" fill="#455A64"/>
<path d="M223.331 268.787C223.236 268.806 223.223 269.11 223.293 269.465C223.363 269.819 223.496 270.098 223.591 270.079C223.686 270.06 223.699 269.756 223.629 269.401C223.559 269.047 223.426 268.768 223.331 268.787Z" fill="#455A64"/>
<path d="M222.812 266.208C222.717 266.227 222.704 266.531 222.774 266.886C222.843 267.241 222.976 267.52 223.071 267.501C223.166 267.482 223.179 267.177 223.109 266.823C223.04 266.468 222.907 266.189 222.812 266.208Z" fill="#455A64"/>
<path d="M222.298 263.623C222.203 263.642 222.191 263.947 222.26 264.301C222.33 264.656 222.463 264.935 222.558 264.916C222.653 264.897 222.666 264.593 222.596 264.238C222.526 263.883 222.393 263.604 222.298 263.623Z" fill="#455A64"/>
<path d="M221.779 261.039C221.684 261.058 221.671 261.362 221.741 261.717C221.811 262.071 221.944 262.35 222.039 262.331C222.134 262.312 222.146 262.008 222.077 261.653C222.007 261.299 221.874 261.02 221.779 261.039Z" fill="#455A64"/>
<path d="M221.26 258.46C221.165 258.479 221.152 258.783 221.222 259.138C221.291 259.493 221.424 259.772 221.519 259.753C221.614 259.734 221.627 259.429 221.557 259.075C221.488 258.72 221.355 258.441 221.26 258.46Z" fill="#455A64"/>
<path d="M220.746 255.875C220.651 255.894 220.639 256.199 220.708 256.553C220.778 256.908 220.911 257.187 221.006 257.168C221.101 257.149 221.114 256.845 221.044 256.49C220.974 256.135 220.841 255.856 220.746 255.875Z" fill="#455A64"/>
<path d="M220.227 253.291C220.132 253.31 220.119 253.614 220.189 253.969C220.259 254.323 220.392 254.602 220.487 254.583C220.582 254.564 220.594 254.26 220.525 253.905C220.455 253.55 220.322 253.272 220.227 253.291Z" fill="#455A64"/>
<path d="M219.714 250.712C219.619 250.731 219.606 251.035 219.676 251.39C219.745 251.745 219.878 252.024 219.973 252.004C220.068 251.985 220.081 251.681 220.011 251.327C219.942 250.972 219.809 250.693 219.714 250.712Z" fill="#455A64"/>
<path d="M219.194 248.127C219.099 248.146 219.086 248.45 219.156 248.805C219.226 249.16 219.359 249.439 219.454 249.42C219.549 249.401 219.562 249.097 219.492 248.742C219.422 248.387 219.289 248.108 219.194 248.127Z" fill="#455A64"/>
<path d="M218.681 245.543C218.586 245.562 218.573 245.866 218.643 246.221C218.713 246.575 218.846 246.854 218.941 246.835C219.036 246.816 219.048 246.512 218.979 246.157C218.909 245.802 218.776 245.524 218.681 245.543Z" fill="#455A64"/>
<path d="M218.161 242.964C218.066 242.983 218.054 243.287 218.123 243.642C218.193 243.997 218.326 244.275 218.421 244.256C218.516 244.237 218.529 243.933 218.459 243.579C218.39 243.224 218.256 242.945 218.161 242.964Z" fill="#455A64"/>
<path d="M217.648 240.379C217.553 240.398 217.541 240.702 217.61 241.057C217.68 241.412 217.813 241.691 217.908 241.672C218.003 241.653 218.016 241.349 217.946 240.994C217.876 240.639 217.743 240.36 217.648 240.379Z" fill="#455A64"/>
<path d="M217.129 237.795C217.034 237.814 217.021 238.118 217.091 238.472C217.161 238.827 217.294 239.106 217.389 239.087C217.484 239.068 217.496 238.764 217.427 238.409C217.357 238.054 217.224 237.776 217.129 237.795Z" fill="#455A64"/>
<path d="M216.616 235.216C216.521 235.235 216.508 235.539 216.578 235.894C216.647 236.249 216.78 236.527 216.876 236.508C216.971 236.489 216.983 236.185 216.914 235.831C216.844 235.476 216.711 235.197 216.616 235.216Z" fill="#455A64"/>
<path d="M216.096 232.631C216.001 232.65 215.989 232.954 216.058 233.309C216.128 233.664 216.261 233.943 216.356 233.924C216.451 233.905 216.464 233.601 216.394 233.246C216.324 232.891 216.191 232.612 216.096 232.631Z" fill="#455A64"/>
<path d="M215.577 230.047C215.482 230.066 215.469 230.37 215.539 230.724C215.608 231.079 215.741 231.358 215.836 231.339C215.931 231.32 215.944 231.016 215.874 230.661C215.805 230.306 215.672 230.028 215.577 230.047Z" fill="#455A64"/>
<path d="M215.064 227.468C214.969 227.487 214.956 227.791 215.026 228.146C215.095 228.501 215.228 228.779 215.323 228.76C215.418 228.741 215.431 228.437 215.361 228.082C215.292 227.728 215.159 227.449 215.064 227.468Z" fill="#455A64"/>
<path d="M214.544 224.883C214.449 224.902 214.436 225.206 214.506 225.561C214.576 225.916 214.709 226.195 214.804 226.176C214.899 226.157 214.911 225.853 214.842 225.498C214.772 225.143 214.639 224.864 214.544 224.883Z" fill="#455A64"/>
<path d="M214.031 222.299C213.936 222.318 213.923 222.622 213.993 222.976C214.062 223.331 214.196 223.61 214.291 223.591C214.386 223.572 214.398 223.268 214.329 222.913C214.259 222.558 214.126 222.28 214.031 222.299Z" fill="#455A64"/>
<path d="M213.512 219.72C213.417 219.739 213.404 220.043 213.474 220.398C213.543 220.753 213.676 221.032 213.771 221.013C213.866 220.994 213.879 220.689 213.809 220.335C213.74 219.98 213.607 219.701 213.512 219.72Z" fill="#455A64"/>
<path d="M212.998 217.135C212.903 217.154 212.891 217.458 212.96 217.813C213.03 218.168 213.163 218.447 213.258 218.428C213.353 218.409 213.366 218.104 213.296 217.75C213.226 217.395 213.093 217.116 212.998 217.135Z" fill="#455A64"/>
<path d="M212.479 214.557C212.384 214.576 212.371 214.88 212.441 215.235C212.51 215.589 212.644 215.868 212.739 215.849C212.834 215.83 212.846 215.526 212.777 215.171C212.707 214.817 212.574 214.538 212.479 214.557Z" fill="#455A64"/>
<path d="M211.966 211.972C211.871 211.991 211.858 212.295 211.928 212.65C211.997 213.005 212.13 213.284 212.225 213.265C212.32 213.246 212.333 212.941 212.263 212.587C212.194 212.232 212.061 211.953 211.966 211.972Z" fill="#455A64"/>
<path d="M211.446 209.387C211.351 209.406 211.338 209.71 211.408 210.065C211.478 210.42 211.611 210.699 211.706 210.68C211.801 210.661 211.814 210.356 211.744 210.002C211.674 209.647 211.541 209.368 211.446 209.387Z" fill="#455A64"/>
<path d="M210.927 206.809C210.832 206.828 210.819 207.132 210.889 207.487C210.958 207.841 211.091 208.12 211.186 208.101C211.281 208.082 211.294 207.778 211.224 207.423C211.155 207.069 211.022 206.79 210.927 206.809Z" fill="#455A64"/>
<path d="M210.413 204.224C210.318 204.243 210.306 204.547 210.375 204.902C210.445 205.257 210.578 205.535 210.673 205.516C210.768 205.497 210.781 205.193 210.711 204.839C210.641 204.484 210.508 204.205 210.413 204.224Z" fill="#455A64"/>
<path d="M209.894 201.639C209.799 201.658 209.786 201.962 209.856 202.317C209.926 202.672 210.059 202.951 210.154 202.932C210.249 202.912 210.262 202.608 210.192 202.254C210.122 201.899 209.989 201.62 209.894 201.639Z" fill="#455A64"/>
<path d="M209.381 199.061C209.286 199.08 209.273 199.384 209.343 199.739C209.413 200.093 209.546 200.372 209.641 200.353C209.736 200.334 209.748 200.03 209.679 199.675C209.609 199.32 209.476 199.042 209.381 199.061Z" fill="#455A64"/>
<path d="M208.861 196.476C208.766 196.495 208.754 196.799 208.823 197.154C208.893 197.509 209.026 197.787 209.121 197.768C209.216 197.749 209.229 197.445 209.159 197.091C209.089 196.736 208.956 196.457 208.861 196.476Z" fill="#455A64"/>
<path d="M208.348 193.891C208.253 193.91 208.241 194.214 208.31 194.569C208.38 194.924 208.513 195.202 208.608 195.183C208.703 195.164 208.716 194.86 208.646 194.506C208.576 194.151 208.443 193.872 208.348 193.891Z" fill="#455A64"/>
<path d="M207.829 191.313C207.734 191.332 207.721 191.636 207.791 191.991C207.86 192.345 207.993 192.624 208.088 192.605C208.183 192.586 208.196 192.282 208.126 191.927C208.057 191.572 207.924 191.294 207.829 191.313Z" fill="#455A64"/>
<path d="M207.315 188.728C207.22 188.747 207.208 189.051 207.277 189.406C207.347 189.761 207.48 190.039 207.575 190.02C207.67 190.001 207.683 189.697 207.613 189.342C207.544 188.988 207.411 188.709 207.315 188.728Z" fill="#455A64"/>
<path d="M206.796 186.143C206.701 186.162 206.688 186.466 206.758 186.821C206.828 187.176 206.961 187.454 207.056 187.435C207.151 187.416 207.163 187.112 207.094 186.758C207.024 186.403 206.891 186.124 206.796 186.143Z" fill="#455A64"/>
<path d="M206.283 183.565C206.188 183.584 206.175 183.888 206.245 184.243C206.315 184.597 206.448 184.876 206.543 184.857C206.638 184.838 206.65 184.534 206.581 184.179C206.511 183.824 206.378 183.546 206.283 183.565Z" fill="#455A64"/>
<path d="M205.763 180.98C205.668 180.999 205.656 181.303 205.725 181.658C205.795 182.013 205.928 182.291 206.023 182.272C206.118 182.253 206.131 181.949 206.061 181.594C205.992 181.24 205.859 180.961 205.763 180.98Z" fill="#455A64"/>
<path d="M205.244 178.395C205.149 178.414 205.136 178.718 205.206 179.073C205.276 179.428 205.409 179.706 205.504 179.687C205.599 179.668 205.611 179.364 205.542 179.009C205.472 178.655 205.339 178.376 205.244 178.395Z" fill="#455A64"/>
<path d="M204.731 175.817C204.636 175.836 204.623 176.14 204.693 176.494C204.762 176.849 204.895 177.128 204.991 177.109C205.086 177.09 205.098 176.786 205.029 176.431C204.959 176.076 204.826 175.798 204.731 175.817Z" fill="#455A64"/>
<path d="M153.085 96.1693C153.085 96.1693 148.701 89.5996 148.587 89.5426C148.587 89.5426 144.628 82.8779 143.316 82.8779C141.992 82.8779 142.474 84.2273 143.836 86.6157C145.027 88.7064 145.147 90.0178 145.147 90.0178L141.897 91.9817C141.897 91.9817 139.724 91.1391 139.636 93.1664C139.604 93.8443 139.781 94.6805 140.009 95.9159C140.142 96.6381 140.466 97.4047 141.15 97.1323C141.46 97.0056 141.714 96.7712 141.733 96.3214C141.777 95.124 141.549 94.6869 141.701 94.6869C141.897 94.6869 144.039 100.965 144.039 100.965L153.092 96.182L153.085 96.1693Z" fill="#FFBE9D"/>
<path d="M144.235 91.0123C143.899 90.7843 143.564 90.5499 143.19 90.3915C142.816 90.2331 142.404 90.1381 142.005 90.2078C141.752 90.2521 141.505 90.3598 141.346 90.5562C141.124 90.8286 141.112 91.2214 141.22 91.5572C141.327 91.8866 141.543 92.1717 141.752 92.4504" fill="#FFBE9D"/>
<path d="M145.718 89.6883C145.401 89.4729 145.084 89.2574 144.729 89.1054C144.374 88.9534 143.988 88.871 143.608 88.9344C143.373 88.9724 143.133 89.0801 142.981 89.2638C142.772 89.5172 142.759 89.891 142.86 90.2014C142.962 90.5118 143.671 91.2404 143.868 91.5001" fill="#FFBE9D"/>
<path d="M151.559 92.4631L157.894 106.008L150.913 113.141L147.276 103.043C147.276 103.043 145.325 103.429 144.533 102.137C143.646 100.693 142.48 96.5177 142.48 96.5177L151.565 92.4504L151.559 92.4631Z" fill="#FFBE9D"/>
<path d="M147.035 92.0895C147.105 92.0705 146.947 91.1582 146.288 90.2143C145.952 89.7454 145.528 89.4287 145.205 89.2513C144.881 89.0739 144.66 89.0169 144.634 89.0549C144.571 89.1563 145.395 89.5617 146.009 90.417C146.617 91.2786 146.928 92.1338 147.035 92.0895Z" fill="#EB996E"/>
<path d="M140.01 92.1464C140.041 92.1908 140.257 92.0704 140.624 92.007C140.985 91.9437 141.524 91.95 142.005 92.2161C142.487 92.4822 142.803 92.9257 143.032 93.2361C143.26 93.5529 143.405 93.7556 143.45 93.7302C143.488 93.7112 143.418 93.4705 143.234 93.1094C143.051 92.7609 142.746 92.2415 142.164 91.912C141.581 91.5889 140.941 91.6269 140.554 91.7663C140.155 91.9057 139.978 92.1084 140.003 92.1401L140.01 92.1464Z" fill="#EB996E"/>
<path d="M142.366 90.2332C142.347 90.3345 143.146 90.4739 143.855 91.1074C144.565 91.7346 144.913 92.4695 145.008 92.4188C145.084 92.3998 144.869 91.5509 144.083 90.8477C143.69 90.5056 143.247 90.3092 142.918 90.2395C142.588 90.1698 142.373 90.1888 142.373 90.2395L142.366 90.2332Z" fill="#EB996E"/>
<path d="M140.808 93.1602C140.719 93.1285 140.554 93.648 140.884 94.1738C141.213 94.6996 141.758 94.782 141.764 94.687C141.796 94.5919 141.422 94.4082 141.175 93.9901C140.909 93.5846 140.903 93.1728 140.808 93.1538V93.1602Z" fill="#EB996E"/>
<path d="M153.073 95.9096C153.073 95.9096 153.295 91.8677 152.319 90.9491C151.343 90.0368 148.543 90.9871 148.543 90.9871" fill="#FFBE9D"/>
<path d="M148.144 89.0547C148.068 89.1117 148.72 90.1444 149.595 91.3608C150.469 92.5771 151.242 93.5147 151.324 93.4641C151.4 93.4134 150.754 92.3807 149.873 91.158C148.993 89.9353 148.22 88.9977 148.144 89.0547Z" fill="#EB996E"/>
<path d="M204.224 58.4048L204.319 89.9544L190.787 90.6006L190.394 82.9286C190.394 82.9286 185.585 83.8852 184.344 79.4189C183.552 76.568 183.748 54.5276 183.748 54.5276L204.217 58.4111L204.224 58.4048Z" fill="#FFBE9D"/>
<path d="M181.968 56.7449C184.097 57.3531 184.565 60.8375 184.565 60.8375L187.911 68.2244C189.615 66.8877 191.902 66.97 192.333 69.9603C192.643 72.1206 189.957 72.5577 189.957 72.5577C191.522 75.2249 192.586 77.3789 194.867 79.913C197.331 82.6562 198.718 82.9349 201.392 82.9793H204.344C204.344 82.9793 205.789 78.2912 208.462 66.5646C211.427 53.5583 196.051 55.2308 193.2 51.9111C188.557 46.5071 175.259 54.819 181.981 56.7386L181.968 56.7449Z" fill="#263238"/>
<path d="M208.177 67.7937C210.673 66.1212 210.895 61.4331 209.438 58.6202C207.981 55.8074 204.921 53.9068 201.759 53.8434C201.335 53.8371 200.898 53.8561 200.505 53.7041C199.922 53.476 199.542 52.9248 199.156 52.4243C196.926 49.5291 194.74 46.6782 190.584 46.6846C189.913 46.6846 189.165 46.6846 187.974 47.3308C187.378 47.6539 186.548 48.7435 186.403 49.4087C185.624 49.0413 184.825 48.6612 183.976 48.5345C183.121 48.4078 182.183 48.5535 181.537 49.13C180.891 49.7065 180.65 50.7582 181.157 51.4677C179.757 51.379 178.433 52.5384 178.211 53.9258C177.99 55.3132 179.972 56.2825 180.182 56.3902C180.182 56.3902 179.092 58.6709 181.689 60.0393C182.735 60.5905 184.097 59.9253 184.249 59.8493" fill="#263238"/>
<path d="M198.294 70.8284C198.205 70.8221 198.072 71.9117 198.37 73.2231C198.662 74.5345 199.251 75.4658 199.327 75.4215C199.416 75.3771 198.985 74.4078 198.706 73.1471C198.415 71.8864 198.396 70.8284 198.294 70.8284Z" fill="#455A64"/>
<path d="M196.659 69.2825C196.571 69.2825 196.545 70.3278 196.786 71.5885C197.021 72.8493 197.413 73.8122 197.502 73.7869C197.597 73.7552 197.35 72.7606 197.122 71.5252C196.888 70.2898 196.754 69.2762 196.659 69.2825Z" fill="#455A64"/>
<path d="M191.971 64.0748C191.94 64.1191 192.32 64.3979 192.808 64.9681C193.296 65.5319 193.859 66.4125 194.265 67.4832C194.677 68.5538 194.898 69.5801 195.076 70.3214C195.247 71.0626 195.361 71.5251 195.412 71.5124C195.456 71.5061 195.424 71.0309 195.316 70.277C195.202 69.5231 195.012 68.4715 194.588 67.3628C194.163 66.2541 193.543 65.3482 192.985 64.8034C192.428 64.2522 191.99 64.0368 191.971 64.0748Z" fill="#455A64"/>
<path d="M190.077 60.5272C190.039 60.5146 189.9 60.8313 189.817 61.3825C189.729 61.9273 189.729 62.7129 189.938 63.5365C190.147 64.3601 190.514 65.0506 190.85 65.4941C191.186 65.9375 191.452 66.1529 191.484 66.1213C191.566 66.0579 190.654 65.0379 190.267 63.4541C189.855 61.8766 190.185 60.5462 190.077 60.5272Z" fill="#455A64"/>
<path d="M206.226 68.4081C206.27 68.4905 206.688 68.3448 207.151 68.085C207.613 67.8253 207.955 67.5465 207.911 67.4642C207.867 67.3818 207.448 67.5275 206.986 67.7873C206.523 68.047 206.181 68.3258 206.226 68.4081Z" fill="#455A64"/>
<path d="M199.688 65.0378C199.599 65.0505 199.656 65.722 200.074 66.4126C200.492 67.1094 201.056 67.4642 201.107 67.3945C201.17 67.3185 200.746 66.875 200.366 66.2352C199.979 65.6016 199.783 65.0188 199.688 65.0378Z" fill="#455A64"/>
<path d="M197.68 63.961C197.591 63.98 197.737 64.7782 198.281 65.6018C198.826 66.4254 199.504 66.8689 199.561 66.7928C199.624 66.7168 199.08 66.1847 198.573 65.4118C198.06 64.6452 197.781 63.9293 197.686 63.961H197.68Z" fill="#455A64"/>
<path d="M187.682 50.7455C187.682 50.7455 187.936 50.5555 188.424 50.2767C188.912 50.0106 189.691 49.7129 190.692 49.6875C191.68 49.6559 192.896 49.8903 194.018 50.5808C195.139 51.2714 196.134 52.3927 196.85 53.7358C197.375 54.7178 197.737 55.7377 198.003 56.6944L198.06 56.8908L198.243 56.7957C199.251 56.2699 200.315 56.0355 201.265 56.0228C202.222 55.9975 203.058 56.1685 203.723 56.3966C205.06 56.8527 205.694 57.4546 205.732 57.3976C205.744 57.3849 205.592 57.2329 205.282 56.9985C204.965 56.764 204.471 56.46 203.799 56.2002C203.128 55.9468 202.26 55.7377 201.272 55.7441C200.283 55.7377 199.168 55.9595 198.104 56.5043L198.338 56.6057C198.079 55.6237 197.711 54.5784 197.173 53.5711C196.432 52.1836 195.393 51.018 194.201 50.3084C193.01 49.5989 191.731 49.3771 190.698 49.4405C189.653 49.4975 188.855 49.8396 188.373 50.1564C188.132 50.3211 187.955 50.4541 187.854 50.5681C187.746 50.6758 187.689 50.7329 187.702 50.7392L187.682 50.7455Z" fill="#455A64"/>
<path d="M180.568 52.4622C180.568 52.4622 180.194 52.3609 179.789 52.817C179.605 53.0324 179.44 53.3808 179.478 53.8053C179.516 54.2298 179.814 54.6669 180.264 54.9267C180.707 55.1991 181.322 55.2878 181.911 55.1547C182.507 55.028 183.077 54.7113 183.609 54.3311C184.147 53.9574 184.66 53.5202 185.269 53.1971C185.871 52.8677 186.548 52.6333 187.271 52.4939C188.709 52.2278 190.141 52.3862 191.351 52.7727C192.567 53.1654 193.574 53.7483 194.366 54.3058C195.944 55.4398 196.723 56.3901 196.774 56.3458C196.786 56.3331 196.609 56.086 196.241 55.6805C195.868 55.2751 195.304 54.7113 194.512 54.1157C193.726 53.5202 192.7 52.8994 191.452 52.4812C190.204 52.0631 188.715 51.8857 187.207 52.1645C186.46 52.3102 185.744 52.5636 185.11 52.912C184.47 53.2605 183.945 53.7166 183.431 54.0841C182.918 54.4578 182.392 54.7556 181.854 54.8886C181.322 55.0217 180.796 54.9583 180.397 54.7303C179.991 54.5149 179.732 54.1411 179.681 53.7926C179.63 53.4379 179.757 53.1148 179.909 52.912C180.232 52.4812 180.6 52.5129 180.581 52.4749L180.568 52.4622Z" fill="#455A64"/>
<path d="M218.63 93.2615L230.718 113.56C232.068 115.929 233.322 118.451 234.519 121.067C235.482 123.576 234.925 126.845 233.246 128.929L233.588 128.435C232.245 130.095 230.23 131.058 228.095 131.058H227.785C224.972 131.058 222.432 129.392 221.31 126.813L217.427 120.921L218.637 93.2615H218.63Z" fill="#FF8001"/>
<path d="M182.158 89.378C185.402 87.7181 188.608 87.3443 192.105 87.243C196.178 87.1226 201.912 86.5524 206.302 87.0212C206.302 87.0212 218.802 87.9462 219.67 96.5115L217.965 136.74L220.829 153.782L180.777 154.992L181.062 134.884C180.568 124.418 181.626 109.606 181.626 109.606C181.012 103.981 177.933 101.447 177.496 97.7912C177.109 94.5602 179.269 90.8541 182.171 89.3716L182.158 89.378Z" fill="#FF8001"/>
<path d="M193.448 137.323C193.448 137.323 193.638 137.545 194.037 137.881C194.436 138.217 195.05 138.666 195.861 139.135C197.471 140.073 199.979 141.017 202.862 141.067C205.744 141.118 208.285 140.263 209.926 139.382C210.756 138.945 211.383 138.514 211.795 138.198C212.206 137.874 212.415 137.678 212.403 137.659C212.365 137.602 211.478 138.356 209.818 139.167C208.171 139.978 205.681 140.776 202.868 140.725C200.055 140.675 197.591 139.794 195.975 138.926C194.347 138.058 193.486 137.273 193.441 137.33L193.448 137.323Z" fill="#263238"/>
<path d="M219.726 96.9739C219.726 96.9739 219.701 97.1069 219.682 97.3667C219.663 97.6581 219.644 98.0319 219.612 98.488C219.562 99.508 219.498 100.914 219.422 102.625C219.277 106.16 219.074 110.962 218.852 116.271C218.611 121.58 218.396 126.382 218.231 129.917C218.143 131.628 218.073 133.028 218.022 134.054C218.003 134.51 217.984 134.884 217.971 135.182C217.965 135.442 217.971 135.575 217.978 135.575C217.99 135.575 218.009 135.442 218.041 135.188C218.073 134.897 218.105 134.523 218.155 134.067C218.25 133.091 218.352 131.685 218.472 129.936C218.706 126.446 218.966 121.624 219.188 116.29C219.416 110.962 219.568 106.135 219.657 102.638C219.688 100.921 219.72 99.5207 219.739 98.4943C219.739 98.0382 219.739 97.6644 219.739 97.3667C219.739 97.1069 219.726 96.9739 219.714 96.9739H219.726Z" fill="#263238"/>
<path d="M222.235 99.1026C222.235 99.1026 222.273 99.2166 222.375 99.413C222.495 99.6474 222.647 99.9325 222.831 100.281C223.236 101.028 223.838 102.099 224.605 103.404C226.125 106.033 228.412 109.549 230.724 113.553C231.877 115.549 232.859 117.532 233.708 119.337C234.551 121.143 234.982 122.917 234.874 124.412C234.792 125.913 234.342 127.073 233.949 127.808C233.55 128.549 233.227 128.897 233.252 128.916C233.259 128.923 233.341 128.84 233.493 128.676C233.639 128.505 233.841 128.245 234.063 127.871C234.507 127.142 234.994 125.964 235.115 124.425C235.261 122.885 234.836 121.035 234 119.204C233.157 117.373 232.188 115.391 231.029 113.376C228.71 109.359 226.391 105.869 224.82 103.271C224.053 102.01 223.42 100.971 222.951 100.205C222.748 99.8691 222.577 99.5967 222.444 99.3687C222.324 99.1786 222.254 99.0836 222.248 99.0899L222.235 99.1026Z" fill="#263238"/>
<path d="M148.556 110.151L157.824 104.089L163.672 114.225C163.672 114.225 171.781 102.955 175.468 96.3469C178.857 90.2713 183.248 88.6305 185.364 88.1934C185.991 88.0603 186.555 88.5861 186.485 89.2197L183.286 111.14C182.88 112.28 176.19 121.979 172.452 126.858C166.212 135.005 157.02 129.791 154.498 124.089C152.496 119.566 149.373 112.692 148.556 110.158V110.151Z" fill="#FF8001"/>
<path d="M161.011 123.367C161.062 123.367 161.119 122.816 161.189 121.922C161.265 121.029 161.36 119.794 161.638 118.47C161.917 117.145 162.38 115.999 162.823 115.232C163.26 114.459 163.628 114.041 163.59 114.003C163.564 113.978 163.121 114.339 162.62 115.106C162.113 115.859 161.594 117.038 161.309 118.394C161.024 119.756 160.973 121.004 160.954 121.903C160.941 122.803 160.973 123.36 161.017 123.36L161.011 123.367Z" fill="#263238"/>
<path d="M158.3 118.837C158.357 118.837 158.401 118.368 158.629 117.652C158.857 116.943 159.32 115.986 160.112 115.169C160.891 114.339 161.841 113.832 162.576 113.82C163.317 113.781 163.729 114.079 163.748 114.029C163.78 114.01 163.393 113.604 162.57 113.579C161.746 113.528 160.675 114.06 159.858 114.935C159.016 115.802 158.566 116.835 158.388 117.589C158.211 118.356 158.255 118.843 158.293 118.843L158.3 118.837Z" fill="#263238"/>
<path d="M185.966 90.8921C185.966 90.8921 186.035 90.9871 186.187 91.1518C186.27 91.2405 186.365 91.3356 186.473 91.4433C186.58 91.57 186.701 91.7157 186.827 91.8741C187.34 92.5266 188.018 93.5529 188.43 94.991C188.874 96.4101 189.045 98.2157 188.785 100.167C188.652 101.143 188.411 102.15 187.987 103.132C187.575 104.12 187.036 105.102 186.492 106.109C184.224 110.094 181.886 113.541 180.194 116.03C179.358 117.234 178.667 118.222 178.161 118.957C177.679 119.648 177.4 120.022 177.426 120.041C177.432 120.047 177.514 119.965 177.66 119.794C177.806 119.623 178.015 119.369 178.268 119.04C178.788 118.374 179.516 117.399 180.397 116.176C182.139 113.718 184.509 110.291 186.789 106.287C187.34 105.273 187.885 104.285 188.297 103.271C188.728 102.258 188.969 101.219 189.095 100.218C189.349 98.222 189.146 96.3721 188.665 94.9277C188.208 93.4705 187.486 92.4316 186.929 91.798C186.789 91.646 186.663 91.5129 186.542 91.3862C186.428 91.2849 186.327 91.1962 186.232 91.1138C186.061 90.9681 185.972 90.8984 185.959 90.9048L185.966 90.8921Z" fill="#263238"/>
<path d="M185.947 149.132C185.947 149.132 186.042 149.183 186.232 149.253C186.46 149.329 186.732 149.424 187.062 149.538C187.423 149.664 187.866 149.804 188.392 149.943C188.918 150.089 189.507 150.266 190.179 150.412C191.509 150.741 193.112 151.039 194.911 151.28C196.71 151.502 198.7 151.654 200.79 151.666C202.881 151.666 204.877 151.521 206.676 151.312C208.475 151.077 210.078 150.792 211.415 150.469C212.086 150.33 212.682 150.152 213.201 150.013C213.727 149.873 214.177 149.734 214.538 149.614C214.867 149.5 215.146 149.411 215.374 149.329C215.564 149.259 215.659 149.221 215.659 149.208C215.659 149.196 215.551 149.215 215.355 149.265C215.121 149.329 214.842 149.398 214.506 149.487C214.139 149.588 213.689 149.709 213.163 149.829C212.637 149.949 212.042 150.114 211.37 150.235C210.04 150.52 208.437 150.786 206.65 151.001C204.858 151.191 202.881 151.324 200.803 151.324C198.725 151.312 196.748 151.166 194.962 150.963C193.175 150.741 191.572 150.469 190.248 150.171C189.577 150.044 188.981 149.88 188.456 149.753C187.93 149.633 187.48 149.506 187.112 149.405C186.777 149.316 186.498 149.24 186.264 149.177C186.067 149.126 185.966 149.107 185.959 149.12L185.947 149.132Z" fill="#263238"/>
<g opacity="0.3">
<path d="M220.449 125.514L218.643 122.708L219.587 100.598L220.449 125.514Z" fill="black"/>
</g>
<g opacity="0.3">
<path d="M189.209 99.1025C189.209 99.1025 189.152 107.161 187.29 110.348C185.427 113.541 181.069 120.433 181.088 120.022C181.1 119.61 181.335 114.339 181.335 114.339C181.335 114.339 189.171 103.613 189.209 99.1025Z" fill="black"/>
</g>
<path d="M222.052 126.186C222.052 126.186 222.242 126.3 222.628 126.351C223.015 126.408 223.597 126.382 224.256 126.142C224.915 125.901 225.637 125.451 226.284 124.786C226.93 124.121 227.462 123.253 227.975 122.34C228.482 121.428 228.944 120.554 229.47 119.832C229.99 119.116 230.573 118.552 231.124 118.172C232.239 117.399 233.145 117.45 233.132 117.38C233.132 117.367 232.917 117.329 232.53 117.38C232.144 117.431 231.592 117.602 230.997 117.969C230.401 118.336 229.781 118.907 229.229 119.642C228.672 120.376 228.197 121.263 227.69 122.169C227.183 123.075 226.67 123.918 226.068 124.564C225.466 125.21 224.795 125.66 224.18 125.913C222.926 126.439 222.052 126.104 222.058 126.173L222.052 126.186Z" fill="white"/>
<path d="M219.6 112.305C219.657 112.318 219.796 111.824 220.183 111.114C220.563 110.405 221.247 109.493 222.229 108.745C223.217 108.004 224.275 107.592 225.067 107.421C225.859 107.244 226.372 107.244 226.372 107.187C226.372 107.155 225.859 107.066 225.023 107.187C224.193 107.307 223.065 107.7 222.032 108.473C221.006 109.252 220.316 110.234 219.973 111C219.625 111.767 219.568 112.293 219.6 112.299V112.305Z" fill="white"/>
<path d="M189.064 100.439C189.07 100.471 189.501 100.357 190.286 100.294C191.072 100.23 192.225 100.256 193.6 100.598C194.974 100.927 196.546 101.548 198.193 102.435C199.853 103.303 201.608 104.405 203.597 105.318C205.58 106.249 207.658 106.718 209.546 106.832C211.446 106.939 213.157 106.718 214.544 106.369C215.938 106.027 217.009 105.565 217.718 105.204C218.079 105.032 218.339 104.868 218.523 104.76C218.7 104.652 218.795 104.589 218.789 104.583C218.776 104.557 218.39 104.766 217.661 105.089C216.939 105.413 215.868 105.837 214.487 106.147C213.112 106.464 211.427 106.654 209.565 106.534C207.708 106.401 205.687 105.938 203.73 105.02C201.766 104.127 200.011 103.031 198.326 102.169C196.653 101.288 195.044 100.674 193.644 100.376C192.244 100.059 191.059 100.072 190.267 100.173C189.868 100.224 189.564 100.287 189.361 100.344C189.159 100.401 189.051 100.433 189.057 100.446L189.064 100.439Z" fill="white"/>
<path d="M181.278 122.359C181.278 122.359 181.398 122.41 181.645 122.48C181.892 122.537 182.241 122.67 182.716 122.746C183.653 122.955 185.047 123.107 186.764 123.069C188.487 123.037 190.521 122.733 192.732 122.233C194.943 121.726 197.331 121.004 199.834 120.263C202.336 119.534 204.756 118.964 206.986 118.672C209.216 118.394 211.263 118.375 212.941 118.628C214.62 118.875 215.944 119.3 216.812 119.692C217.68 120.079 218.143 120.345 218.162 120.313C218.162 120.301 218.054 120.231 217.839 120.104C217.617 119.984 217.313 119.762 216.869 119.578C216.014 119.148 214.684 118.679 212.979 118.4C211.275 118.115 209.21 118.109 206.948 118.375C204.686 118.653 202.247 119.217 199.739 119.952C197.23 120.687 194.854 121.422 192.662 121.941C190.47 122.461 188.456 122.778 186.751 122.841C185.053 122.911 183.672 122.79 182.728 122.626C181.791 122.467 181.278 122.334 181.265 122.366L181.278 122.359Z" fill="white"/>
<path d="M181.056 134.891C181.088 134.998 182.931 133.801 186.327 133.471C188.012 133.288 190.033 133.389 192.257 133.674C194.48 133.978 196.9 134.485 199.453 134.967C202.007 135.442 204.452 135.866 206.707 136.063C208.956 136.265 211.003 136.253 212.701 136.025C214.398 135.803 215.741 135.429 216.635 135.081C217.091 134.929 217.414 134.745 217.648 134.65C217.876 134.542 217.99 134.485 217.99 134.472C217.978 134.441 217.496 134.656 216.597 134.96C215.703 135.271 214.36 135.606 212.682 135.79C210.996 135.987 208.975 135.974 206.739 135.758C204.503 135.549 202.07 135.119 199.517 134.643C196.97 134.162 194.537 133.661 192.301 133.376C190.058 133.104 188.012 133.028 186.308 133.243C184.604 133.446 183.261 133.845 182.386 134.232C181.936 134.396 181.62 134.599 181.392 134.7C181.17 134.814 181.056 134.884 181.062 134.891H181.056Z" fill="white"/>
<path d="M201.646 151.046C201.646 151.046 201.886 150.919 202.279 150.646C202.672 150.368 203.242 149.981 203.958 149.506C205.383 148.562 207.411 147.333 209.755 146.193C212.105 145.052 214.316 144.216 215.938 143.678C216.749 143.405 217.414 143.196 217.87 143.063C218.326 142.924 218.58 142.835 218.573 142.81C218.573 142.791 218.307 142.835 217.838 142.936C217.37 143.038 216.692 143.209 215.868 143.456C214.221 143.937 211.972 144.748 209.609 145.895C207.246 147.048 205.225 148.315 203.825 149.316C203.122 149.817 202.57 150.235 202.203 150.545C201.829 150.849 201.633 151.027 201.646 151.046Z" fill="white"/>
<path d="M182.146 150.83C182.146 150.83 182.608 151.179 183.476 151.495C184.344 151.819 185.611 152.091 187.03 152.047C188.449 152.002 189.704 151.647 190.546 151.274C191.395 150.9 191.851 150.551 191.832 150.526C191.807 150.475 191.306 150.748 190.457 151.058C189.609 151.369 188.392 151.673 187.017 151.717C185.643 151.755 184.407 151.527 183.546 151.274C182.678 151.02 182.165 150.78 182.146 150.83Z" fill="white"/>
<path d="M168.278 109.005C168.278 109.005 168.252 109.214 168.354 109.568C168.449 109.923 168.677 110.417 169.095 110.931C169.513 111.437 170.121 111.951 170.875 112.381C171.629 112.812 172.51 113.148 173.416 113.522C174.315 113.889 175.164 114.282 175.823 114.782C176.482 115.283 176.97 115.872 177.255 116.43C177.85 117.564 177.59 118.406 177.66 118.4C177.673 118.4 177.755 118.216 177.781 117.842C177.806 117.475 177.743 116.924 177.464 116.322C177.185 115.72 176.697 115.08 176.007 114.542C175.316 113.997 174.448 113.591 173.536 113.218C172.624 112.844 171.749 112.521 171.021 112.122C170.286 111.722 169.69 111.254 169.266 110.785C168.404 109.841 168.341 108.992 168.278 109.017V109.005Z" fill="white"/>
<path d="M176.064 95.5613C176.064 95.5613 176.083 95.7703 176.171 96.1378C176.216 96.3215 176.273 96.5432 176.368 96.7967C176.457 97.0501 176.545 97.3415 176.691 97.6456C176.951 98.2664 177.337 98.976 177.831 99.7236C178.338 100.458 178.965 101.219 179.713 101.928C180.467 102.631 181.271 103.208 182.032 103.677C182.805 104.127 183.533 104.469 184.173 104.69C184.483 104.817 184.781 104.887 185.041 104.963C185.294 105.039 185.522 105.09 185.706 105.121C186.074 105.191 186.283 105.216 186.289 105.191C186.302 105.128 185.484 104.969 184.255 104.475C183.641 104.228 182.938 103.873 182.19 103.423C181.455 102.955 180.676 102.384 179.941 101.694C179.212 100.997 178.592 100.262 178.078 99.5525C177.578 98.8366 177.179 98.1524 176.9 97.5506C176.33 96.3532 176.121 95.5486 176.057 95.5676L176.064 95.5613Z" fill="white"/>
<path d="M188.259 87.2493C188.259 87.2493 188.576 87.414 189.178 87.6611C189.773 87.9145 190.66 88.2312 191.769 88.5797C192.877 88.9281 194.214 89.2765 195.722 89.5806C197.23 89.8721 198.902 90.1191 200.67 90.2522C202.437 90.3789 204.135 90.3789 205.668 90.3092C207.201 90.2268 208.583 90.0811 209.729 89.8974C210.876 89.72 211.801 89.53 212.428 89.3716C213.055 89.2132 213.404 89.1182 213.397 89.0992C213.397 89.0802 213.036 89.1308 212.403 89.2512C211.769 89.3716 210.844 89.5236 209.698 89.6757C208.551 89.8341 207.182 89.9481 205.662 90.0178C204.135 90.0685 202.456 90.0558 200.701 89.9354C198.947 89.8024 197.287 89.568 195.785 89.2956C194.29 89.0041 192.947 88.6874 191.838 88.3706C190.73 88.0538 189.837 87.7751 189.228 87.5597C188.614 87.3506 188.272 87.2429 188.265 87.2683L188.259 87.2493Z" fill="white"/>
<path d="M163.361 114.82C163.361 114.82 163.247 115.036 163.14 115.46C163.026 115.885 162.905 116.512 162.867 117.291C162.76 118.862 163.057 121.023 163.488 123.348C163.697 124.52 163.957 125.635 164.35 126.604C164.736 127.573 165.268 128.378 165.82 128.942C166.364 129.518 166.928 129.854 167.327 130.038C167.733 130.215 167.974 130.259 167.98 130.24C168.018 130.177 167.023 129.936 165.997 128.783C165.49 128.213 164.996 127.434 164.635 126.49C164.267 125.546 164.027 124.45 163.818 123.284C163.387 120.953 163.057 118.837 163.102 117.297C163.127 115.752 163.431 114.827 163.361 114.814V114.82Z" fill="white"/>
<path d="M150.666 116.448C150.723 116.474 151.02 115.802 151.686 114.839C152.345 113.876 153.428 112.647 154.891 111.621C156.355 110.601 157.882 110.006 159.016 109.72C160.15 109.429 160.884 109.378 160.878 109.321C160.878 109.296 160.694 109.296 160.359 109.309C160.023 109.315 159.548 109.378 158.959 109.492C158.369 109.606 157.691 109.815 156.957 110.113C156.228 110.424 155.455 110.829 154.701 111.349C153.954 111.874 153.307 112.464 152.763 113.04C152.23 113.629 151.8 114.199 151.489 114.706C151.179 115.213 150.951 115.644 150.83 115.954C150.704 116.265 150.647 116.436 150.666 116.442V116.448Z" fill="white"/>
<g opacity="0.3">
<path d="M187.892 149.633C187.233 149.335 187.036 148.429 187.448 147.909C187.866 147.39 188.608 147.27 189.273 147.282C192.548 147.346 195.399 149.538 198.624 150.127C201.075 150.577 203.597 150.07 205.979 149.348C208.361 148.625 210.686 147.681 213.131 147.219C213.645 147.124 214.177 147.048 214.677 147.181C215.178 147.314 215.646 147.713 215.71 148.233C215.773 148.752 215.653 149.132 214.88 149.392C214.88 149.392 206.777 151.641 200.911 151.559C194.689 151.464 187.892 149.633 187.892 149.633Z" fill="black"/>
</g>
<path d="M19.0695 242.628H63.2644V248.704H19.0695V242.628Z" fill="#E38735"/>
<path d="M18.9934 248.773H63.3403V242.552H18.9934V248.773ZM63.1883 248.621H19.1455V242.698H63.1883V248.621Z" fill="#E1A875"/>
<path d="M59.1653 246.677L52.8047 278.061H29.2628L23.1176 248.697L59.1653 246.677Z" fill="#D9873E"/>
<path d="M59.1653 275.096L55.7696 279.759H27.1595L23.1176 275.096H59.1653Z" fill="#E38735"/>
<path d="M42.8203 247.595C42.909 247.595 43.0167 233.056 43.0674 215.127C43.1181 197.192 43.0864 182.652 43.004 182.652C42.9153 182.652 42.8077 197.185 42.757 215.127C42.7063 233.056 42.738 247.595 42.8203 247.595Z" fill="#D9873E"/>
<path d="M32.9816 211.212C32.9816 211.212 33.0133 211.332 33.102 211.547C33.2034 211.795 33.3364 212.105 33.4948 212.491C33.5835 212.7 33.6785 212.922 33.7798 213.169C33.8685 213.423 33.9699 213.701 34.0713 213.993C34.179 214.291 34.293 214.607 34.4134 214.937C34.5337 215.273 34.6225 215.64 34.7428 216.014C35.2243 217.522 35.6107 219.372 35.9782 221.424C36.3013 223.489 36.542 225.776 36.6624 228.19C36.8778 233.018 36.6054 237.395 36.314 240.55C36.1746 242.128 36.0289 243.401 35.9212 244.282C35.8768 244.694 35.8388 245.029 35.8071 245.295C35.7881 245.53 35.7818 245.65 35.7881 245.65C35.8008 245.65 35.8262 245.53 35.8705 245.302C35.9148 245.036 35.9719 244.706 36.0415 244.294C36.1809 243.42 36.3583 242.147 36.5294 240.569C36.8778 237.414 37.1882 233.024 36.9728 228.171C36.8525 225.751 36.599 223.445 36.2569 221.373C35.8705 219.308 35.4587 217.452 34.9456 215.944C34.8252 215.564 34.7238 215.203 34.5971 214.867C34.4704 214.531 34.3437 214.221 34.2297 213.923C34.1156 213.632 34.0079 213.359 33.9066 213.106C33.7989 212.859 33.6848 212.637 33.5898 212.434C33.4061 212.061 33.2604 211.757 33.14 211.516C33.0323 211.307 32.9753 211.199 32.9626 211.205L32.9816 211.212Z" fill="#D9873E"/>
<path d="M34.1094 199.453C34.1094 199.453 34.1474 199.624 34.2487 199.935C34.3628 200.271 34.5148 200.72 34.7112 201.284C34.8126 201.582 34.9266 201.905 35.047 202.26C35.1547 202.621 35.275 203.014 35.4017 203.432C35.6615 204.274 35.9593 205.231 36.2253 206.302C36.3647 206.84 36.5167 207.398 36.6688 207.981C36.8018 208.57 36.9412 209.184 37.0806 209.818C37.391 211.085 37.6128 212.46 37.8978 213.891C38.3857 216.78 38.8165 219.973 39.1079 223.337C39.3866 226.708 39.507 229.926 39.5514 232.859C39.5577 235.786 39.526 238.428 39.4056 240.639C39.3676 241.748 39.298 242.749 39.2409 243.623C39.1903 244.503 39.1332 245.257 39.0762 245.878C39.0319 246.474 38.9938 246.949 38.9685 247.304C38.9495 247.627 38.9432 247.804 38.9495 247.804C38.9622 247.804 38.9875 247.633 39.0319 247.31C39.0762 246.955 39.1269 246.486 39.1966 245.891C39.2726 245.276 39.3423 244.516 39.412 243.642C39.488 242.761 39.5704 241.76 39.6274 240.652C39.7794 238.434 39.8364 235.792 39.8428 232.853C39.8174 229.92 39.7034 226.689 39.4246 223.306C39.1269 219.929 38.6898 216.73 38.1829 213.834C37.8915 212.396 37.6571 211.021 37.334 209.754C37.182 209.121 37.0426 208.506 36.9032 207.917C36.7448 207.334 36.5864 206.771 36.4407 206.238C36.162 205.161 35.8452 204.211 35.5665 203.368C35.4334 202.95 35.3004 202.564 35.1863 202.203C35.0533 201.854 34.9329 201.531 34.8189 201.234C34.6035 200.676 34.4325 200.233 34.3058 199.903C34.1854 199.599 34.1157 199.441 34.103 199.447L34.1094 199.453Z" fill="#D9873E"/>
<path d="M45.6206 250.167C45.6206 250.167 45.6333 250.11 45.646 249.996C45.6586 249.863 45.6713 249.698 45.6903 249.496C45.722 249.033 45.7663 248.387 45.8234 247.57C45.9311 245.872 46.0831 243.458 46.2668 240.487C46.6533 234.506 47.2044 226.252 48.2117 217.167C48.7249 212.624 49.3204 208.31 49.9413 204.401C50.2707 202.45 50.5685 200.594 50.9106 198.864C51.221 197.128 51.5568 195.526 51.8672 194.062C52.1586 192.592 52.4817 191.275 52.7415 190.115C52.9949 188.956 53.2483 187.961 53.451 187.15C53.6474 186.352 53.7995 185.725 53.9072 185.275C53.9515 185.072 53.9895 184.914 54.0212 184.787C54.0465 184.68 54.0529 184.616 54.0465 184.616C54.0465 184.616 54.0212 184.667 53.9895 184.775C53.9515 184.901 53.9072 185.06 53.8502 185.256C53.7234 185.706 53.5524 186.327 53.3307 187.119C53.1026 187.923 52.8428 188.918 52.5704 190.077C52.2917 191.237 51.9559 192.548 51.6518 194.018C51.3287 195.481 50.9803 197.084 50.6572 198.82C50.3087 200.549 49.9983 202.406 49.6625 204.357C49.029 208.272 48.4208 212.586 47.9077 217.135C46.9004 226.226 46.3809 234.494 46.0514 240.481C45.8867 243.471 45.779 245.897 45.7093 247.57C45.6776 248.387 45.6523 249.033 45.6396 249.496C45.6396 249.698 45.6333 249.869 45.627 249.996C45.627 250.11 45.627 250.167 45.6333 250.167H45.6206Z" fill="#D9873E"/>
<path d="M43.1816 189.64C43.3716 187.581 45.4559 186.029 47.5212 186.004C49.5928 185.985 51.5188 187.22 52.7858 188.861C54.0529 190.495 54.7497 192.497 55.3199 194.487C56.7137 199.339 57.4739 204.439 56.8784 209.45C56.2829 214.462 54.2493 219.397 50.6508 222.945C50.068 223.521 49.3078 224.098 48.5032 223.927C48.066 223.832 47.7049 223.527 47.3692 223.23C40.299 216.844 36.2191 207.284 36.4978 197.762C36.5548 195.855 36.8019 193.872 37.8599 192.282C38.9179 190.692 41.376 189.007 43.1752 189.646" fill="#35C732"/>
<path d="M58.6331 173.143C59.6024 174.904 60.578 176.659 61.5473 178.42C61.617 178.541 61.7057 178.68 61.8451 178.693C61.9971 178.705 62.1112 178.56 62.1935 178.433C64.7593 174.492 67.3314 170.552 69.8972 166.611L68.1233 165.604L58.6331 173.143Z" fill="#35C732"/>
<g opacity="0.2">
<path d="M58.6331 173.143C59.6024 174.904 60.578 176.659 61.5473 178.42C61.617 178.541 61.7057 178.68 61.8451 178.693C61.9971 178.705 62.1112 178.56 62.1935 178.433C64.7593 174.492 67.3314 170.552 69.8972 166.611L68.1233 165.604L58.6331 173.143Z" fill="black"/>
</g>
<path d="M43.0039 182.652C51.7656 177.483 60.5209 172.313 69.2826 167.15C69.5487 166.991 69.8401 166.808 69.9225 166.504C70.0302 166.117 69.7324 165.737 69.4537 165.452C65.8426 161.727 60.5906 159.56 55.4147 159.934C50.2388 160.308 45.2529 163.298 42.7188 167.828C40.1847 172.357 40.1024 178.351 43.0103 182.652" fill="#35C732"/>
<path d="M65.4941 162.196C65.4941 162.196 65.3738 162.17 65.152 162.151C64.924 162.139 64.5882 162.101 64.1574 162.101C63.2958 162.082 62.0414 162.139 60.5146 162.392C58.9878 162.645 57.1949 163.133 55.3197 163.969C53.4508 164.799 51.5122 166.003 49.7447 167.587C47.9961 169.183 46.6024 170.995 45.5887 172.775C44.5687 174.556 43.9035 176.292 43.5044 177.787C43.099 179.282 42.9152 180.523 42.8519 181.385C42.8012 181.816 42.8139 182.152 42.8012 182.38C42.8012 182.608 42.8012 182.728 42.8075 182.728C42.8329 182.728 42.8709 182.253 42.9723 181.404C43.0736 180.555 43.289 179.326 43.7135 177.856C44.5434 174.929 46.4757 170.983 49.9537 167.834C53.4381 164.685 57.5497 163.159 60.5463 162.626C62.0541 162.348 63.2958 162.259 64.1511 162.24C65.0063 162.221 65.4878 162.24 65.4878 162.208L65.4941 162.196Z" fill="#263238"/>
<path d="M46.5644 171.946C46.5517 171.984 47.0522 172.218 47.8948 172.547C48.7311 172.877 49.9031 173.301 51.2082 173.713C52.5196 174.131 53.7169 174.461 54.5912 174.67C55.4655 174.885 56.0166 174.987 56.023 174.942C56.0356 174.898 55.5035 174.72 54.6482 174.454C53.6789 174.15 52.5512 173.802 51.3032 173.409C50.0615 173.01 48.9338 172.643 47.9645 172.332C47.1092 172.06 46.5771 171.895 46.5644 171.939V171.946Z" fill="#263238"/>
<path d="M50.7012 160.834C50.6189 160.827 50.4288 162.139 50.3908 163.767C50.3465 165.395 50.4668 166.713 50.5555 166.713C50.6442 166.713 50.6632 165.395 50.7076 163.779C50.7456 162.164 50.7899 160.846 50.7076 160.84L50.7012 160.834Z" fill="#263238"/>
<path d="M69.5108 166.852C69.5234 166.814 68.7949 166.548 67.6038 166.181C66.4128 165.813 64.7466 165.344 62.8967 164.901C61.0405 164.457 59.349 164.115 58.1199 163.894C56.8909 163.678 56.1243 163.583 56.118 163.621C56.1117 163.666 56.8656 163.837 58.0819 164.109C59.2983 164.381 60.9771 164.755 62.827 165.199C64.6769 165.642 66.3431 166.073 67.5468 166.39C68.7569 166.7 69.5044 166.89 69.5171 166.846L69.5108 166.852Z" fill="#263238"/>
<path d="M55.1234 184.762C57.3851 183.045 59.7735 182.709 62.6054 182.823C65.4372 182.937 68.1994 183.799 70.7969 184.939C75.2252 186.878 79.3939 189.741 82.042 193.79C84.6901 197.838 85.6088 203.198 83.6258 207.607C83.4294 208.044 83.1697 208.507 82.7262 208.697C82.2574 208.899 81.7252 208.741 81.2437 208.583C76.2072 206.942 71.1327 205.282 66.4952 202.703C61.8642 200.131 57.6449 196.552 55.1551 191.87C54.5596 190.749 54.0591 189.545 53.9641 188.278C53.869 187.011 54.2175 185.662 55.1171 184.768" fill="#35C732"/>
<path d="M55.0792 184.236C55.0792 184.236 55.1995 184.299 55.4403 184.382C55.7127 184.477 56.0611 184.597 56.4983 184.743C56.7327 184.819 56.9861 184.908 57.2648 184.996C57.5436 185.098 57.835 185.218 58.1581 185.345C58.798 185.604 59.5329 185.858 60.3121 186.238C60.7049 186.415 61.1167 186.605 61.5475 186.802C61.9783 186.998 62.4028 187.245 62.8589 187.473C63.7712 187.923 64.6961 188.493 65.6781 189.076C67.6103 190.299 69.6566 191.769 71.6459 193.498C73.6162 195.253 75.3394 197.09 76.7965 198.852C77.4997 199.751 78.1839 200.6 78.7477 201.449C79.0328 201.867 79.3306 202.26 79.584 202.659C79.8311 203.058 80.0718 203.445 80.2999 203.812C80.775 204.534 81.1235 205.237 81.4592 205.839C81.624 206.143 81.7823 206.416 81.9154 206.682C82.0421 206.942 82.1561 207.189 82.2638 207.41C82.4665 207.822 82.6313 208.152 82.758 208.411C82.872 208.64 82.9417 208.754 82.948 208.754C82.9607 208.754 82.91 208.62 82.815 208.386C82.701 208.12 82.5552 207.778 82.3715 207.36C82.2702 207.132 82.1625 206.885 82.0421 206.619C81.9154 206.352 81.7633 206.067 81.605 205.763C81.2819 205.155 80.9461 204.439 80.4773 203.704C80.2555 203.331 80.0211 202.938 79.7741 202.532C79.527 202.127 79.2356 201.728 78.9505 201.303C78.393 200.442 77.7151 199.586 77.0119 198.674C75.5548 196.894 73.8316 195.031 71.8423 193.264C69.8404 191.515 67.7751 190.045 65.8175 188.829C64.8228 188.253 63.8852 187.682 62.9666 187.239C62.5104 187.011 62.0733 186.77 61.6425 186.58C61.2054 186.39 60.7936 186.206 60.3945 186.035C59.6026 185.668 58.855 185.421 58.2088 185.18C57.8857 185.066 57.5816 184.946 57.3028 184.857C57.0241 184.775 56.7643 184.699 56.5299 184.629C56.0865 184.502 55.7317 184.401 55.453 184.318C55.2059 184.249 55.0728 184.223 55.0728 184.23L55.0792 184.236Z" fill="#263238"/>
<path d="M72.7292 193.796C72.7039 193.878 75.1683 194.67 78.2283 195.57C81.2882 196.463 83.7906 197.122 83.816 197.04C83.8413 196.957 81.3769 196.165 78.317 195.266C75.257 194.373 72.7546 193.714 72.7292 193.796Z" fill="#263238"/>
<path d="M72.9571 205.922C73.0015 205.922 73.0521 205.269 73.0775 204.211C73.1092 203.153 73.1092 201.69 73.0648 200.074C73.0205 198.459 72.9318 196.995 72.8431 195.944C72.7544 194.886 72.672 194.24 72.6277 194.24C72.5833 194.24 72.5897 194.898 72.6277 195.956C72.6657 197.116 72.71 198.528 72.7544 200.087C72.7924 201.645 72.8304 203.058 72.8558 204.218C72.8811 205.276 72.9128 205.928 72.9571 205.928V205.922Z" fill="#263238"/>
<path d="M62.5673 200.632C62.656 200.632 62.9284 197.66 63.1818 193.986C63.4352 190.312 63.5746 187.328 63.4859 187.321C63.3972 187.321 63.1248 190.286 62.8714 193.967C62.618 197.641 62.4786 200.625 62.5673 200.632Z" fill="#263238"/>
<path d="M75.5039 187.036C75.5039 186.992 74.826 186.973 73.7427 186.986C72.653 186.992 71.1579 187.024 69.4981 187.081C67.8446 187.138 66.3431 187.201 65.2598 187.264C64.1764 187.328 63.5049 187.391 63.5049 187.435C63.5049 187.48 64.1764 187.499 65.2661 187.486C66.3494 187.48 67.8509 187.448 69.5107 187.391C71.1706 187.334 72.6657 187.271 73.749 187.207C74.8324 187.144 75.5039 187.081 75.5039 187.036Z" fill="#263238"/>
<path d="M49.5295 224.357C49.5295 224.357 49.5548 224.237 49.5675 223.996C49.5802 223.724 49.5928 223.382 49.6118 222.964C49.6499 222.064 49.6625 220.765 49.6245 219.162C49.5928 217.56 49.4915 215.646 49.3014 213.53C49.0987 211.414 48.8009 209.102 48.3765 206.688C47.9393 204.275 47.4198 202 46.8813 199.948C46.3302 197.895 45.7663 196.07 45.2405 194.55C44.721 193.029 44.2585 191.813 43.9164 190.989C43.7517 190.603 43.6187 190.286 43.5173 190.039C43.4223 189.824 43.3653 189.71 43.3589 189.716C43.3463 189.716 43.3843 189.836 43.4603 190.065C43.549 190.318 43.663 190.641 43.8024 191.04C44.1128 191.883 44.5373 193.105 45.0314 194.626C45.5319 196.146 46.0641 197.977 46.6026 200.024C47.1221 202.076 47.6352 204.344 48.066 206.752C48.4905 209.159 48.7946 211.465 49.01 213.568C49.2127 215.672 49.3458 217.579 49.4028 219.175C49.4661 220.772 49.4915 222.07 49.4851 222.97C49.4851 223.388 49.4915 223.73 49.4978 224.003C49.5041 224.237 49.5105 224.364 49.5231 224.364L49.5295 224.357Z" fill="#263238"/>
<path d="M48.142 206.428C48.142 206.428 48.5094 206.904 49.1873 207.581C49.8651 208.259 50.8345 209.172 51.9305 210.135C53.0328 211.098 54.0591 211.94 54.8193 212.523C55.5796 213.106 56.0674 213.442 56.0991 213.41C56.1244 213.372 55.6873 212.979 54.965 212.352C54.1605 211.649 53.1975 210.819 52.1395 209.9C51.0879 208.969 50.1376 208.133 49.3393 207.423C48.6234 206.79 48.1673 206.403 48.142 206.435V206.428Z" fill="#263238"/>
<path d="M39.8238 213.125C39.8619 213.15 40.28 212.548 40.9389 211.579C41.6547 210.534 42.548 209.229 43.5363 207.791C44.5436 206.365 45.4559 205.079 46.1845 204.04C46.8687 203.084 47.2805 202.482 47.2488 202.456C47.2171 202.431 46.7356 202.982 46.0071 203.907C45.2785 204.832 44.3029 206.137 43.2766 207.613C42.2503 209.089 41.3633 210.458 40.7488 211.459C40.1343 212.466 39.7858 213.106 39.8175 213.125H39.8238Z" fill="#263238"/>
<path d="M44.1824 192.06C44.138 192.136 46.9002 193.992 50.3529 196.216C53.8057 198.44 56.6439 200.176 56.6945 200.106C56.7389 200.03 53.9767 198.174 50.524 195.95C47.0713 193.726 44.2331 191.99 44.1824 192.06Z" fill="#263238"/>
<path d="M36.39 200.467C36.4534 200.53 38.3223 198.801 40.5713 196.609C42.8203 194.411 44.5942 192.586 44.5308 192.523C44.4675 192.459 42.5986 194.189 40.3496 196.387C38.1005 198.579 36.333 200.41 36.39 200.473V200.467Z" fill="#263238"/>
<path d="M34.4324 200.296L32.063 200.1C30.3778 199.96 28.7433 199.46 27.2735 198.636C26.545 198.224 25.8164 197.825 25.0435 197.515C22.1103 196.336 18.8413 196.546 15.6863 196.387C10.5357 196.127 5.44218 194.829 0.79842 192.58C0.532341 192.453 0.291607 192.25 0.152229 191.99C-0.335587 191.104 0.570347 190.312 1.34959 189.83C5.34714 187.366 9.41439 184.876 13.9441 183.653C18.4738 182.431 23.6181 182.64 27.4826 185.3C32.0186 188.424 33.6722 194.841 34.4387 200.296" fill="#35C732"/>
<path d="M0.0889435 191.699C0.0889435 191.699 0.234661 191.642 0.488071 191.509C0.773159 191.357 1.14693 191.167 1.60941 190.92C2.58504 190.407 3.98515 189.653 5.75902 188.798C7.5329 187.955 9.68688 187.005 12.183 186.32C14.6727 185.63 17.549 185.269 20.5139 185.643C23.4661 186.029 26.1839 187.182 28.1099 188.905C30.0485 190.622 31.2268 192.694 32.0631 194.461C32.8993 196.241 33.4125 197.749 33.7863 198.788C33.9636 199.282 34.103 199.682 34.2107 199.986C34.3121 200.258 34.3691 200.397 34.3754 200.397C34.3818 200.397 34.3501 200.245 34.2677 199.967C34.1727 199.656 34.0523 199.257 33.9003 198.75C33.5645 197.705 33.0767 196.178 32.2658 194.373C31.4485 192.586 30.2702 190.464 28.2999 188.696C26.3423 186.916 23.5611 185.738 20.5582 185.338C17.5426 184.952 14.6221 185.332 12.107 186.048C9.58552 186.758 7.43153 187.733 5.65766 188.607C3.89011 189.488 2.5027 190.274 1.54607 190.818C1.08993 191.085 0.728813 191.3 0.450062 191.458C0.202984 191.61 0.0762825 191.693 0.0762825 191.699H0.0889435Z" fill="#263238"/>
<path d="M5.7843 194.759C5.83498 194.829 8.93294 192.827 12.7088 190.28C16.4846 187.733 19.5065 185.611 19.4622 185.535C19.4115 185.465 16.3135 187.467 12.5314 190.014C8.75555 192.561 5.73363 194.683 5.77797 194.759H5.7843Z" fill="#263238"/>
<path d="M8.76176 185.243C8.74275 185.326 9.81975 185.605 11.1818 185.731C12.5439 185.858 13.6526 185.782 13.6526 185.693C13.6526 185.604 12.5566 185.541 11.2135 185.414C9.87043 185.294 8.78076 185.155 8.76176 185.243Z" fill="#263238"/>
<path d="M22.6678 182.747C22.5918 182.792 23.0479 183.704 23.6878 184.781C24.3276 185.858 24.9042 186.7 24.9738 186.656C25.0435 186.612 24.5937 185.7 23.9539 184.623C23.314 183.546 22.7375 182.703 22.6678 182.747Z" fill="#263238"/>
<path d="M19.893 196.59C19.912 196.628 20.4885 196.324 21.3881 195.779C22.2814 195.234 23.4978 194.436 24.7902 193.498C26.0826 192.561 27.2229 191.667 28.0465 191.021C28.8638 190.369 29.3579 189.95 29.3326 189.919C29.3072 189.887 28.7624 190.242 27.9135 190.844C26.9822 191.522 25.8545 192.339 24.6065 193.245C23.3141 194.182 22.1294 195 21.2678 195.595C20.4062 196.184 19.874 196.552 19.893 196.59Z" fill="#263238"/>
<path d="M30.9418 210.375C33.2035 209.78 35.9023 211.978 36.3648 214.272C36.8336 216.565 35.972 218.909 34.9647 221.019C32.7347 225.694 29.6621 230.027 25.6075 233.258C21.5593 236.483 16.4847 238.548 11.3025 238.523C12.2591 234.082 11.0491 229.438 11.5812 224.927C12.0437 220.987 13.8809 217.224 16.7001 214.436C19.5193 211.649 23.3015 209.849 27.242 209.419C28.6865 209.26 30.359 209.039 30.9355 210.369" fill="#35C732"/>
<path d="M11.3089 238.523C11.3089 238.523 11.4229 238.479 11.632 238.371C11.8347 238.257 12.1325 238.079 12.4809 237.801C13.1905 237.262 14.0077 236.223 14.7173 234.81C15.0784 234.107 15.4838 233.347 15.8766 232.511C16.2567 231.668 16.6685 230.769 17.093 229.818C17.5238 228.874 17.9989 227.899 18.5881 226.942C19.1773 225.985 19.8742 225.054 20.6471 224.142C22.1929 222.324 23.8591 220.746 25.2972 219.245C26.7479 217.75 27.9643 216.305 28.8449 214.987C29.7319 213.676 30.2703 212.504 30.5744 211.68C30.7202 211.262 30.8279 210.939 30.8785 210.711C30.9356 210.483 30.9609 210.369 30.9482 210.363C30.9165 210.356 30.7898 210.825 30.4604 211.636C30.1246 212.441 29.5608 213.587 28.6612 214.867C27.7679 216.153 26.5452 217.566 25.0881 219.048C23.6436 220.537 21.9711 222.108 20.4063 223.945C19.6271 224.864 18.9175 225.814 18.3284 226.79C17.7329 227.766 17.2577 228.754 16.8332 229.704C16.4151 230.654 16.016 231.554 15.6422 232.403C15.2621 233.239 14.8693 234.012 14.5209 234.715C13.8367 236.128 13.0764 237.154 12.4049 237.712C11.746 238.282 11.2962 238.491 11.3152 238.523H11.3089Z" fill="#263238"/>
<path d="M23.0036 234.836C23.0416 234.829 22.9719 234.247 22.7945 233.315C22.6171 232.384 22.3257 231.104 21.9329 229.711C21.5402 228.317 21.122 227.075 20.7863 226.188C20.4505 225.301 20.2097 224.769 20.1654 224.782C20.1211 224.794 20.2921 225.358 20.5709 226.264C20.8496 227.164 21.2361 228.412 21.6288 229.799C22.0216 231.187 22.3447 232.447 22.5728 233.366C22.8072 234.285 22.9529 234.848 22.9973 234.842L23.0036 234.836Z" fill="#263238"/>
<path d="M11.7334 223.926C11.746 223.971 12.3542 223.812 13.3298 223.559C14.3055 223.306 15.6485 222.957 17.15 222.621C18.6451 222.286 20.0136 222.019 21.0019 221.836C21.9902 221.646 22.6047 221.532 22.5983 221.481C22.5983 221.437 21.9712 221.481 20.9638 221.614C19.9629 221.747 18.5818 221.975 17.074 222.311C15.5662 222.653 14.2231 223.033 13.2602 223.344C12.2972 223.654 11.7143 223.882 11.727 223.926H11.7334Z" fill="#263238"/>
<path d="M31.398 227.1C31.4424 227.094 31.3536 226.416 31.1509 225.339C30.9545 224.262 30.6378 222.773 30.2133 221.151C29.7888 219.53 29.339 218.079 28.9843 217.04C28.6295 216.001 28.3761 215.367 28.3381 215.38C28.2937 215.393 28.4711 216.052 28.7752 217.103C29.073 218.155 29.4911 219.612 29.9092 221.228C30.3337 222.843 30.6821 224.313 30.9355 225.383C31.1889 226.448 31.3537 227.107 31.398 227.1Z" fill="#263238"/>
<path d="M16.9218 214.43C16.9281 214.519 19.7536 214.29 23.2254 213.917C26.6971 213.549 29.5099 213.182 29.4973 213.093C29.4909 213.004 26.6654 213.232 23.1873 213.606C19.7156 213.974 16.9027 214.341 16.9154 214.43H16.9218Z" fill="#263238"/>
<path d="M18.9934 248.672C18.9934 248.761 28.9208 248.83 41.1605 248.83C53.4003 248.83 63.334 248.761 63.334 248.672C63.334 248.583 53.4066 248.514 41.1605 248.514C28.9145 248.514 18.9934 248.583 18.9934 248.672Z" fill="#FFA04B"/>
<path d="M25.8987 261.45C25.8987 261.539 32.5888 261.609 40.8373 261.609C49.0858 261.609 55.7759 261.539 55.7759 261.45C55.7759 261.362 49.0858 261.292 40.8373 261.292C32.5888 261.292 25.8987 261.362 25.8987 261.45Z" fill="#FFA04B"/>
<path d="M25.639 263.275C25.639 263.364 32.329 263.433 40.5776 263.433C48.8261 263.433 55.5161 263.364 55.5161 263.275C55.5161 263.186 48.8261 263.116 40.5776 263.116C32.329 263.116 25.639 263.186 25.639 263.275Z" fill="#FFA04B"/>
<path d="M25.639 259.943C25.639 260.031 32.5571 260.101 41.0907 260.101C49.6244 260.101 56.5425 260.031 56.5425 259.943C56.5425 259.854 49.6244 259.784 41.0907 259.784C32.5571 259.784 25.639 259.854 25.639 259.943Z" fill="#FFA04B"/>
<path d="M6.69019 279.759C6.69019 279.848 66.6092 279.924 140.504 279.924C214.398 279.924 274.33 279.848 274.33 279.759C274.33 279.671 214.424 279.594 140.504 279.594C66.5838 279.594 6.69019 279.671 6.69019 279.759Z" fill="#263238"/>
</g>
<defs>
<clipPath id="clip0_5331_4316">
<rect width="274.33" height="280" fill="white" transform="matrix(-1 0 0 1 274.33 0)"/>
</clipPath>
</defs>
</svg>
