<svg width="231" height="210" viewBox="0 0 231 210" fill="none" xmlns="http://www.w3.org/2000/svg">
<g clip-path="url(#clip0_7082_982)">
<path d="M159.939 209.471H94.6775C84.8891 209.471 76.9255 201.452 76.9255 191.596V17.8753C76.9255 8.01888 84.8891 0 94.6775 0H159.939C169.727 0 177.691 8.01888 177.691 17.8753C178.906 87.636 180.977 165.757 177.691 191.596C177.691 201.452 169.727 209.471 159.939 209.471Z" fill="#3F3F3F"/>
<path d="M178.601 63.9C178.187 63.9 177.85 64.2392 177.85 64.6563V88.8551C177.85 89.2721 178.187 89.6113 178.601 89.6113C179.015 89.6113 179.352 89.2721 179.352 88.8551V64.6563C179.352 64.2392 179.015 63.9 178.601 63.9Z" fill="#3F3F3F"/>
<path d="M176.001 17.8754V191.593C176.001 200.172 169.37 207.19 160.985 207.734H160.982C160.858 207.742 160.734 207.749 160.606 207.753C160.384 207.764 160.163 207.768 159.938 207.768C159.938 207.768 159.112 207.708 157.602 207.594C156.078 207.481 153.858 207.311 151.091 207.087C150.261 207.023 149.386 206.951 148.462 206.876C146.622 206.724 144.602 206.558 142.436 206.369C141.572 206.297 140.678 206.218 139.766 206.138C135.102 205.734 129.879 205.261 124.37 204.724C123.439 204.637 122.501 204.547 121.554 204.452C121.306 204.426 78.6155 193.619 78.6155 191.593V17.8754C78.6155 8.9408 85.8063 1.70006 94.6793 1.70006H104.269C105.802 1.70006 107.033 2.90243 107.165 4.44133C107.176 4.54343 107.187 4.6455 107.206 4.7476C107.484 6.29406 108.892 7.37166 110.454 7.37166H144.163C145.725 7.37166 147.133 6.29406 147.411 4.7476C147.43 4.6455 147.441 4.54343 147.452 4.44133C147.584 2.90244 148.815 1.70006 150.347 1.70006H159.938C168.811 1.70006 176.001 8.9408 176.001 17.8754Z" fill="white"/>
<path d="M76.5501 45.7509C76.1359 45.7509 75.7991 46.0901 75.7991 46.5071V52.5568C75.7991 52.9739 76.1359 53.3131 76.5501 53.3131C76.9643 53.3131 77.3011 52.9739 77.3011 52.5568V46.5071C77.3011 46.0901 76.9643 45.7509 76.5501 45.7509Z" fill="#3F3F3F"/>
<path d="M76.5501 63.9C76.1359 63.9 75.7991 64.2392 75.7991 64.6562V76.3775C75.7991 76.7946 76.1359 77.1338 76.5501 77.1338C76.9643 77.1338 77.3011 76.7946 77.3011 76.3775V64.6562C77.3011 64.2392 76.9643 63.9 76.5501 63.9Z" fill="#3F3F3F"/>
<path d="M76.5501 80.5367C76.1359 80.5367 75.7991 80.8759 75.7991 81.2929V93.0142C75.7991 93.4313 76.1359 93.7704 76.5501 93.7704C76.9643 93.7704 77.3011 93.4313 77.3011 93.0142V81.2929C77.3011 80.8759 76.9643 80.5367 76.5501 80.5367Z" fill="#3F3F3F"/>
<path d="M104.023 4.34828H89.6309C89.5612 4.34828 89.5046 4.40521 89.5046 4.47544V6.11165C89.5046 6.18188 89.5612 6.23881 89.6309 6.23881H104.023C104.093 6.23881 104.149 6.18188 104.149 6.11165V4.47544C104.149 4.40521 104.093 4.34828 104.023 4.34828Z" fill="#E6E6E6"/>
<path d="M152.72 6.23882C153.55 6.23882 154.222 5.56169 154.222 4.7264C154.222 3.89111 153.55 3.21397 152.72 3.21397C151.891 3.21397 151.219 3.89111 151.219 4.7264C151.219 5.56169 151.891 6.23882 152.72 6.23882Z" fill="#E6E6E6"/>
<path d="M156.851 6.23882C157.68 6.23882 158.353 5.56169 158.353 4.7264C158.353 3.89111 157.68 3.21397 156.851 3.21397C156.021 3.21397 155.349 3.89111 155.349 4.7264C155.349 5.56169 156.021 6.23882 156.851 6.23882Z" fill="#E6E6E6"/>
<path d="M160.981 6.23882C161.811 6.23882 162.483 5.56169 162.483 4.7264C162.483 3.89111 161.811 3.21397 160.981 3.21397C160.152 3.21397 159.479 3.89111 159.479 4.7264C159.479 5.56169 160.152 6.23882 160.981 6.23882Z" fill="#E6E6E6"/>
<path d="M6.82715 209.512C6.82715 209.783 7.04292 210 7.31161 210H230.515C230.784 210 231 209.783 231 209.512C231 209.242 230.784 209.024 230.515 209.024H7.31161C7.04292 209.024 6.82715 209.242 6.82715 209.512Z" fill="#CCCCCC"/>
<path d="M77.9946 206.308L73.4174 206.308L71.24 188.53L77.9956 188.53L77.9946 206.308Z" fill="#FFD5AE"/>
<path d="M62.3124 206.204C62.1699 206.445 62.0947 207.226 62.0947 207.507C62.0947 208.371 62.7902 209.071 63.6483 209.071H77.8234C78.4087 209.071 78.8832 208.593 78.8832 208.004V207.409C78.8832 207.409 79.5844 205.623 78.1407 203.422C78.1407 203.422 76.3464 205.146 73.6652 202.446L72.8745 201.004L67.1512 205.218L63.9789 205.612C63.2848 205.698 62.6695 205.598 62.3124 206.204Z" fill="#3F3F3F"/>
<path d="M52.6817 181.616L48.1045 181.6L45.9832 163.816L52.7387 163.838L52.6817 181.616Z" fill="#FFD5AE"/>
<path d="M36.9999 181.461C36.8566 181.702 36.779 182.482 36.7781 182.763C36.7754 183.627 37.4687 184.33 38.3267 184.332L52.5017 184.378C53.087 184.379 53.563 183.903 53.5649 183.314L53.5668 182.72C53.5668 182.72 54.2736 180.936 52.8369 178.73C52.8369 178.73 51.0371 180.448 48.3644 177.739L47.5783 176.295L41.8418 180.491L38.6682 180.874C37.9739 180.958 37.3588 180.857 36.9999 181.461Z" fill="#3F3F3F"/>
<path d="M71.3187 98.3806L65.6194 98.7905C65.6194 98.7905 46.3251 109.837 44.6967 112.296C43.0684 114.756 40.8293 118.24 42.8648 121.929C44.9003 125.619 43.3511 170.289 43.3511 170.289L53.0776 168.073L59.3095 121.336L72.3364 119.491C72.3364 119.491 76.8144 129.22 75.186 137.268C73.5577 145.316 72.7435 150.235 72.7435 150.235L70.708 197.786L78.6463 197.581L85.7704 153.515L97.9831 118.672L82.1066 99.8153L71.3187 98.3806Z" fill="#3F3F3F"/>
<path d="M99.4078 47.9605L87.6022 49.1903L86.3809 53.2895L74.9824 59.4383L78.6462 85.2632L75.7966 89.7723L77.0178 94.2814C77.0178 94.2814 73.7611 94.6913 74.1682 97.1508L66.8406 98.3806C66.8406 98.3806 76.5595 100.379 78.6206 110.242C80.6817 120.106 97.7795 121.336 97.7795 121.336L111.213 79.1144L112.435 54.1093L103.072 51.6498L99.4078 47.9605Z" fill="#E6E6E6"/>
<path d="M93.1862 46.4051C98.2548 46.4051 102.364 42.2676 102.364 37.1638C102.364 32.0601 98.2548 27.9226 93.1862 27.9226C88.1177 27.9226 84.0088 32.0601 84.0088 37.1638C84.0088 42.2676 88.1177 46.4051 93.1862 46.4051Z" fill="#FFD5AE"/>
<path d="M88.4164 45.501C88.4164 45.501 80.2745 45.0911 81.0887 38.5324C79.0735 31.5481 80.8572 27.0133 87.1951 25.415C87.1951 25.415 88.8234 25.0051 89.2305 25.0051C94.585 25.0051 97.3724 26.6447 97.3724 26.6447C97.3724 26.6447 96.9653 25.0212 97.3724 25.4231C97.7794 25.8249 98.1865 26.6447 98.1865 26.6447C98.1865 26.6447 102.257 28.6943 102.257 32.7935C102.257 36.8927 102.257 35.253 102.257 35.253C102.257 35.253 101.443 35.253 100.629 32.7935C99.8149 30.334 94.5436 31.9737 94.5436 31.9737L94.9298 32.7935L93.7085 32.3836L92.4873 33.6134L91.6731 33.2034C91.6731 33.2034 88.4164 33.2034 88.8234 33.2034C89.2305 33.2034 88.9469 35.9892 88.9469 35.9892L85.9738 39.3522L89.2305 45.501H88.4164Z" fill="#3F3F3F"/>
<path d="M45.0392 94.4265C42.7214 95.7002 41.4951 97.9367 42.3001 99.4219C43.105 100.907 45.6365 101.078 47.9542 99.8047C48.9687 99.2472 49.7741 98.5051 50.2916 97.7224L60.0451 92.2012L57.3746 87.6474L48.0429 93.5736C47.1092 93.5884 46.0537 93.8689 45.0392 94.4265Z" fill="#FFD5AE"/>
<path d="M77.9314 59.6296C77.9314 59.6296 74.1079 58.1637 72.7906 59.9282C71.4732 61.6927 62.7709 83.103 62.7709 83.103L50.0029 89.8174L53.5934 96.1133L70.0347 90.6015L80.8823 70.6247L77.9314 59.6296Z" fill="#E6E6E6"/>
<path d="M198.5 129.943V173.395C198.5 177.238 195.395 180.364 191.579 180.364H84.9215C81.1054 180.364 78.001 177.238 78.001 173.395V129.943C78.001 126.101 81.1054 122.975 84.9215 122.975H191.579C195.395 122.975 198.5 126.101 198.5 129.943Z" fill="white"/>
<path d="M198.5 129.943V173.395C198.5 177.238 195.395 180.364 191.579 180.364H84.9215C81.1054 180.364 78.001 177.238 78.001 173.395V129.943C78.001 126.101 81.1054 122.975 84.9215 122.975H191.579C195.395 122.975 198.5 126.101 198.5 129.943ZM191.579 179.544C194.952 179.544 197.686 176.791 197.686 173.395V151.488C197.686 136.194 185.372 123.795 170.183 123.795H84.9215C81.5491 123.795 78.8152 126.548 78.8152 129.943V173.395C78.8152 176.791 81.5491 179.544 84.9215 179.544H191.579Z" fill="#3F3F3F"/>
<path d="M125.879 149.227H111.948C111.597 149.227 111.311 149.514 111.311 149.868C111.311 150.222 111.597 150.509 111.948 150.509H125.879C126.23 150.509 126.516 150.222 126.516 149.868C126.516 149.514 126.23 149.227 125.879 149.227Z" fill="#FF8001"/>
<path d="M147.048 149.227H133.117C132.766 149.227 132.48 149.514 132.48 149.868C132.48 150.222 132.766 150.509 133.117 150.509H147.048C147.399 150.509 147.685 150.222 147.685 149.868C147.685 149.514 147.399 149.227 147.048 149.227Z" fill="#FF8001"/>
<path d="M125.879 156.239H111.948C111.597 156.239 111.311 156.526 111.311 156.88C111.311 157.234 111.597 157.522 111.948 157.522H125.879C126.23 157.522 126.516 157.234 126.516 156.88C126.516 156.526 126.23 156.239 125.879 156.239Z" fill="#FF8001"/>
<path d="M147.048 156.239H133.117C132.766 156.239 132.48 156.526 132.48 156.88C132.48 157.234 132.766 157.522 133.117 157.522H147.048C147.399 157.522 147.685 157.234 147.685 156.88C147.685 156.526 147.399 156.239 147.048 156.239Z" fill="#FF8001"/>
<path d="M168.853 156.88C168.853 156.526 168.568 156.239 168.217 156.239H154.286C153.934 156.239 153.649 156.526 153.649 156.88C153.649 157.234 153.934 157.522 154.286 157.522H168.217C168.568 157.522 168.853 157.234 168.853 156.88Z" fill="#FF8001"/>
<path d="M117.737 143.628C118.089 143.628 118.374 143.34 118.374 142.986C118.374 142.633 118.089 142.345 117.737 142.345H103.806C103.455 142.345 103.169 142.633 103.169 142.986C103.169 143.34 103.455 143.628 103.806 143.628H117.737Z" fill="#FF8001"/>
<path d="M158.764 143.367H172.695C173.046 143.367 173.331 143.079 173.331 142.725C173.331 142.372 173.046 142.084 172.695 142.084H158.764C158.412 142.084 158.127 142.372 158.127 142.725C158.127 143.079 158.412 143.367 158.764 143.367Z" fill="#FF8001"/>
<path d="M123.606 143.502H152.488C152.839 143.502 153.125 143.214 153.125 142.861C153.125 142.507 152.839 142.219 152.488 142.219H123.606C123.255 142.219 122.969 142.507 122.969 142.861C122.969 143.214 123.255 143.502 123.606 143.502Z" fill="#FF8001"/>
<path d="M134.97 162.61H121.039C120.688 162.61 120.402 162.897 120.402 163.251C120.402 163.605 120.688 163.892 121.039 163.892H134.97C135.321 163.892 135.607 163.605 135.607 163.251C135.607 162.897 135.321 162.61 134.97 162.61Z" fill="#FF8001"/>
<path d="M179.962 129.616V173.067C179.962 176.91 176.857 180.036 173.041 180.036H129.89C126.073 180.036 122.969 176.91 122.969 173.067V129.616C122.969 125.773 126.073 122.647 129.89 122.647H173.041C176.857 122.647 179.962 125.773 179.962 129.616Z" fill="white"/>
<path d="M179.962 129.616V173.067C179.962 176.91 176.857 180.036 173.041 180.036H129.89C126.073 180.036 122.969 176.91 122.969 173.067V129.616C122.969 125.773 126.073 122.647 129.89 122.647H173.041C176.857 122.647 179.962 125.773 179.962 129.616ZM170.364 179.216C175.215 179.216 179.148 175.256 179.148 170.372V151.161C179.148 135.866 166.834 123.467 151.645 123.467H129.89C126.517 123.467 123.783 126.22 123.783 129.616V167.005C123.783 173.749 129.213 179.216 135.91 179.216L170.364 179.216Z" fill="#3F3F3F"/>
<path d="M157.21 140.394H143.279C142.928 140.394 142.642 140.106 142.642 139.752C142.642 139.399 142.928 139.111 143.279 139.111H157.21C157.561 139.111 157.847 139.399 157.847 139.752C157.847 140.106 157.561 140.394 157.21 140.394Z" fill="#FF8001"/>
<path d="M157.21 154.07H143.279C142.928 154.07 142.642 153.782 142.642 153.429C142.642 153.075 142.928 152.787 143.279 152.787H157.21C157.561 152.787 157.847 153.075 157.847 153.429C157.847 153.782 157.561 154.07 157.21 154.07Z" fill="#FF8001"/>
<path d="M150.289 172.926H136.358C136.007 172.926 135.721 172.638 135.721 172.285C135.721 171.931 136.007 171.644 136.358 171.644H150.289C150.64 171.644 150.926 171.931 150.926 172.285C150.926 172.638 150.64 172.926 150.289 172.926Z" fill="#FF8001"/>
<path d="M164.685 147.236H135.803C135.452 147.236 135.166 146.948 135.166 146.595C135.166 146.241 135.452 145.954 135.803 145.954H164.685C165.036 145.954 165.322 146.241 165.322 146.595C165.322 146.948 165.036 147.236 164.685 147.236Z" fill="#FF8001"/>
<path d="M171.843 105.538C171.843 91.9836 160.465 84.5269 147.469 80.9952C130.806 76.4672 118.603 85.6298 123.095 105.538C124.113 110.051 126.548 115.32 129.562 119.828H153.48C161.47 114.591 171.843 116.059 171.843 105.538Z" fill="#FF8001"/>
<path d="M147.111 131.162C148.471 128.551 150.196 126.666 152.097 125.232H129.695C135.46 133.526 143.107 138.848 147.111 131.162Z" fill="#FF8001"/>
<path d="M144.526 91.0259C145.964 91.0259 147.13 92.1999 147.13 93.6481V98.8924H141.922V93.6481C141.922 92.1999 143.088 91.0259 144.526 91.0259ZM148.432 98.8924V93.648C148.432 91.4758 146.683 89.7148 144.526 89.7148C142.369 89.7148 140.62 91.4758 140.62 93.648V98.8924C139.182 98.8924 138.016 100.066 138.016 101.515V108.07C138.016 109.518 139.182 110.692 140.62 110.692H148.432C149.87 110.692 151.036 109.518 151.036 108.07V101.515C151.036 100.066 149.87 98.8924 148.432 98.8924ZM140.62 100.203H148.432C149.151 100.203 149.734 100.79 149.734 101.515V108.07C149.734 108.794 149.151 109.381 148.432 109.381H140.62C139.901 109.381 139.318 108.794 139.318 108.07V101.515C139.318 100.79 139.901 100.203 140.62 100.203Z" fill="white"/>
<path d="M107.312 121.559C106.998 124.199 108.096 126.502 109.764 126.703C111.433 126.904 113.04 124.927 113.354 122.287C113.491 121.132 113.358 120.041 113.025 119.162L114.216 107.959L108.983 107.509L108.364 118.6C107.835 119.375 107.449 120.403 107.312 121.559Z" fill="#FFD5AE"/>
<path d="M108.567 54.7242C108.567 54.7242 114.267 53.0845 115.488 55.544C116.709 58.0036 119.559 90.3872 119.559 90.3872L114.063 116.236L107.753 114.572L111.01 88.3376L106.532 68.6615L108.567 54.7242Z" fill="#E6E6E6"/>
<path d="M24.8148 133.363C37.9674 133.363 48.6296 122.627 48.6296 109.383C48.6296 96.1387 37.9674 85.4024 24.8148 85.4024C11.6623 85.4024 1 96.1387 1 109.383C1 122.627 11.6623 133.363 24.8148 133.363Z" fill="#FF8001"/>
<path d="M24.8149 98.6473C26.4972 98.6473 27.861 100.021 27.861 101.715V107.849H21.7688V101.715C21.7688 100.021 23.1326 98.6473 24.8149 98.6473ZM29.384 107.849V101.715C29.384 99.1736 27.3384 97.1137 24.8149 97.1137C22.2915 97.1137 20.2458 99.1736 20.2458 101.715V107.849C18.5635 107.849 17.1997 109.222 17.1997 110.916V118.584C17.1997 120.278 18.5635 121.652 20.2458 121.652H29.384C31.0663 121.652 32.4301 120.278 32.4301 118.584V110.916C32.4301 109.222 31.0663 107.849 29.384 107.849ZM20.2458 109.383H29.384C30.2252 109.383 30.9071 110.069 30.9071 110.916V118.584C30.9071 119.431 30.2252 120.118 29.384 120.118H20.2458C19.4046 120.118 18.7228 119.431 18.7228 118.584V110.916C18.7228 110.069 19.4046 109.383 20.2458 109.383Z" fill="white"/>
</g>
<defs>
<clipPath id="clip0_7082_982">
<rect width="231" height="210" fill="white"/>
</clipPath>
</defs>
</svg>
