<svg width="118" height="210" viewBox="0 0 118 210" fill="none" xmlns="http://www.w3.org/2000/svg">
<g clip-path="url(#clip0_7082_89789)">
<path d="M86.2079 0H20.299C10.0482 0 1.73828 8.30993 1.73828 18.5608V169.17C1.73828 179.42 10.0482 187.73 20.299 187.73H86.2079C96.4588 187.73 104.769 179.42 104.769 169.17V18.5608C104.769 8.30993 96.4588 0 86.2079 0Z" fill="#3F3F3F"/>
<path d="M103.03 18.562V169.17C103.025 173.63 101.251 177.906 98.0974 181.06C94.9436 184.214 90.6676 185.988 86.2075 185.993H20.2996C15.8394 185.988 11.5634 184.214 8.40961 181.06C5.2558 177.906 3.48172 173.63 3.47656 169.17V18.562C3.48173 14.1019 5.2558 9.82585 8.40961 6.67204C11.5634 3.51823 15.8394 1.74415 20.2996 1.73898H28.9181V4.71612C28.9182 6.06392 29.4536 7.3565 30.4067 8.30955C31.3597 9.26259 32.6523 9.79803 34.0001 9.79811C45.158 13.1687 58.2555 12.6426 72.5069 9.79811C73.8547 9.79804 75.1473 9.26259 76.1004 8.30955C77.0534 7.3565 77.5889 6.06392 77.5889 4.71612V1.73898H86.2075C90.6676 1.74415 94.9436 3.51823 98.0974 6.67204C101.251 9.82585 103.025 14.1019 103.03 18.562Z" fill="white"/>
<path d="M1.26418 38.0833C0.929014 38.0829 0.607688 37.9496 0.370692 37.7126C0.133696 37.4756 0.000383939 37.1543 0 36.8191V34.2908C0 33.9555 0.133189 33.634 0.370268 33.3969C0.607347 33.1598 0.928896 33.0266 1.26418 33.0266C1.59946 33.0266 1.92101 33.1598 2.15809 33.3969C2.39516 33.634 2.52835 33.9555 2.52835 34.2908V36.8191C2.52797 37.1543 2.39466 37.4756 2.15766 37.7126C1.92067 37.9496 1.59934 38.0829 1.26418 38.0833Z" fill="#3F3F3F"/>
<path d="M1.26418 51.0479C0.929014 51.0475 0.607688 50.9142 0.370692 50.6772C0.133696 50.4402 0.000383104 50.1189 0 49.7837V42.824C0 42.4887 0.133189 42.1672 0.370268 41.9301C0.607347 41.693 0.928896 41.5598 1.26418 41.5598C1.59946 41.5598 1.92101 41.693 2.15809 41.9301C2.39516 42.1672 2.52835 42.4887 2.52835 42.824V49.7837C2.52797 50.1189 2.39466 50.4402 2.15766 50.6772C1.92067 50.9142 1.59934 51.0475 1.26418 51.0479Z" fill="#3F3F3F"/>
<path d="M1.26418 61.4706C0.929014 61.4702 0.607688 61.3369 0.370692 61.0999C0.133696 60.8629 0.000383104 60.5416 0 60.2064V53.2467C0 52.9114 0.133189 52.5898 0.370268 52.3528C0.607347 52.1157 0.928896 51.9825 1.26418 51.9825C1.59946 51.9825 1.92101 52.1157 2.15809 52.3528C2.39516 52.5898 2.52835 52.9114 2.52835 53.2467V60.2064C2.52797 60.5416 2.39466 60.8629 2.15766 61.0999C1.92067 61.3369 1.59934 61.4702 1.26418 61.4706Z" fill="#3F3F3F"/>
<path d="M104.927 36.273C104.592 36.2728 104.271 36.4054 104.034 36.6419C103.797 36.8783 103.663 37.1992 103.663 37.534V54.5183C103.663 54.8535 103.796 55.1751 104.033 55.4122C104.27 55.6492 104.592 55.7824 104.927 55.7824C105.262 55.7824 105.584 55.6492 105.821 55.4122C106.058 55.1751 106.191 54.8535 106.191 54.5183V37.534C106.19 37.1994 106.056 36.8788 105.82 36.6425C105.583 36.4061 105.262 36.2733 104.927 36.273Z" fill="#3F3F3F"/>
<path d="M25.1527 9.18837H16.6195C16.2004 9.18837 15.7985 9.02187 15.5021 8.72553C15.2058 8.42918 15.0393 8.02725 15.0393 7.60814C15.0393 7.18904 15.2058 6.78711 15.5021 6.49076C15.7985 6.19441 16.2004 6.02792 16.6195 6.02792H25.1527C25.5718 6.02792 25.9738 6.19441 26.2701 6.49076C26.5665 6.78711 26.7329 7.18904 26.7329 7.60814C26.7329 8.02725 26.5665 8.42918 26.2701 8.72553C25.9738 9.02187 25.5718 9.18837 25.1527 9.18837Z" fill="#E6E6E6"/>
<path d="M74.7314 167.417C72.3534 167.566 71.0391 164.612 72.8383 162.89C72.9041 162.628 72.9514 162.44 73.0173 162.178C72.9937 162.121 72.97 162.064 72.9461 162.007C70.5413 156.273 65.6718 159.492 60.0065 162.055C55.3338 164.169 50.6242 166.924 54.5322 177.648C55.3531 179.9 54.3686 182.451 54.8965 184.785C49.9258 173.942 47.3446 162.157 47.328 150.229C47.3269 147.236 47.4932 144.245 47.8261 141.27C48.1012 138.832 48.4829 136.41 48.9711 134.006C51.0215 124.002 54.8675 114.451 60.3226 105.818C59.6282 105.827 58.9326 105.834 58.236 105.84C56.9823 107.887 55.8141 109.982 54.7312 112.126C54.9792 110.045 55.02 107.943 54.8529 105.853C46.4048 105.85 37.9628 105.58 30.499 105.043C30.7822 127.918 39.226 132.688 49.5807 121.732C49.8706 121.881 50.1532 122.029 50.4431 122.171C47.949 129.239 46.3845 136.601 45.789 144.073C45.4519 148.481 45.4718 152.909 45.8485 157.314C45.8411 157.262 45.8336 157.21 45.8262 157.158C44.8745 152.26 42.2616 147.84 38.4287 144.645C32.7359 139.969 24.6931 138.247 18.5516 134.488C15.5953 132.679 11.807 135.017 12.3229 138.444C12.3312 138.499 12.3396 138.554 12.3481 138.609C13.2636 138.981 14.155 139.411 15.0171 139.895C15.5104 140.173 15.9933 140.468 16.4659 140.781C19.1588 142.562 18.2281 146.736 15.0373 147.229L14.965 147.24C14.913 147.248 14.8683 147.255 14.8164 147.262C16.3806 150.997 18.5761 154.435 21.3068 157.426C22.0681 180.92 34.4295 177.89 47.6551 168.986H47.6626C49.0056 174.823 50.9516 180.503 53.4691 185.937H74.2116C74.286 185.707 74.3529 185.469 74.4199 185.239C72.4999 185.359 70.5723 185.244 68.6803 184.897C70.2193 183.008 71.7582 181.105 73.2972 179.216C73.3315 179.181 73.3638 179.144 73.3938 179.105C74.1745 178.138 74.9626 177.179 75.7432 176.213L75.7436 176.212C75.7852 173.249 75.4452 170.294 74.7321 167.418L74.7314 167.417Z" fill="#FF8001"/>
<path d="M52.6291 95.7701C50.6168 90.9157 46.845 86.8273 43.5236 82.6306C39.5339 77.5898 31.3528 79.7897 30.6499 86.1797C30.6431 86.2416 30.6365 86.3034 30.63 86.3653C31.1234 86.6436 31.6063 86.939 32.0788 87.2515C34.7718 89.0325 33.8411 93.207 30.6502 93.6996L30.578 93.7107C30.7538 95.4888 31.0644 97.2509 31.5073 98.9819C30.9776 100.965 30.6401 102.995 30.4993 105.043C37.9631 105.58 46.405 105.85 54.8531 105.853C54.5792 102.138 53.753 98.479 52.6291 95.7701Z" fill="#E6E6E6"/>
<path d="M74.3454 89.6181C75.0859 88.145 75.6093 86.5723 75.8992 84.9492C75.4458 85.0087 74.1893 78.1018 74.5313 77.6781C73.8993 76.719 72.7681 76.2423 72.0779 75.3065C68.645 70.6522 63.9153 71.4649 61.4463 77.7896C56.1718 80.4517 56.1207 84.8665 59.3571 89.1126C61.4162 91.8139 61.6991 95.4692 63.5057 98.3612C63.3198 98.5992 63.1265 98.8296 62.9407 99.0676C61.0181 101.539 59.2364 104.116 57.6039 106.788C58.3006 106.783 58.9961 106.775 59.6905 106.766C61.3289 104.174 63.1114 101.675 65.0298 99.2832C69.0501 97.0896 72.3013 93.7164 74.3454 89.6181Z" fill="#E6E6E6"/>
<path opacity="0.1" d="M102.822 18.4936V98.9395C102.822 108.215 3.26758 108.215 3.26758 98.9395V18.4936C3.27274 14.0334 5.04682 9.75743 8.20063 6.60362C11.3544 3.44981 15.6304 1.67573 20.0906 1.67056H28.7091V4.6477C28.7092 5.99551 29.2447 7.28809 30.1977 8.24113C31.1507 9.19417 32.4433 9.72961 33.7911 9.72969C44.4751 13.0852 57.6649 12.5328 72.298 9.72969C73.6458 9.72961 74.9383 9.19416 75.8914 8.24112C76.8444 7.28808 77.3799 5.99551 77.3799 4.6477V1.67056H85.9985C90.4586 1.67573 94.7346 3.44981 97.8884 6.60362C101.042 9.75743 102.816 14.0334 102.822 18.4936Z" fill="black"/>
<path d="M62.5108 27.1868H59.6664C58.5771 27.188 57.5328 27.6212 56.7626 28.3915C55.9923 29.1617 55.5591 30.206 55.5579 31.2953V34.4558H50.5012C49.4119 34.457 48.3675 34.8902 47.5973 35.6605C46.827 36.4307 46.3938 37.4751 46.3926 38.5643V44.8852C46.3938 45.9745 46.827 47.0189 47.5973 47.7891C48.3675 48.5593 49.4119 48.9926 50.5012 48.9938H56.822C57.9113 48.9926 58.9557 48.5593 59.7259 47.7891C60.4962 47.0189 60.9294 45.9745 60.9306 44.8852V38.5643C60.9294 37.4751 60.4962 36.4307 59.7259 35.6605C58.9557 34.8902 57.9113 34.457 56.822 34.4558H56.1899V31.2953C56.191 30.3736 56.5576 29.49 57.2093 28.8382C57.8611 28.1865 58.7447 27.8199 59.6664 27.8188H62.5108C63.4325 27.8199 64.3162 28.1865 64.9679 28.8382C65.6197 29.49 65.9863 30.3736 65.9873 31.2953V34.7718H66.6194V31.2953C66.6182 30.206 66.1849 29.1617 65.4147 28.3915C64.6445 27.6212 63.6001 27.188 62.5108 27.1868ZM60.2985 38.5643V44.8852C60.2975 45.8069 59.9309 46.6906 59.2791 47.3423C58.6274 47.9941 57.7437 48.3607 56.822 48.3617H50.5012C49.5795 48.3607 48.6958 47.9941 48.0441 47.3423C47.3923 46.6906 47.0257 45.8069 47.0247 44.8852V38.5643C47.0257 37.6426 47.3923 36.759 48.0441 36.1073C48.6958 35.4555 49.5795 35.0889 50.5012 35.0879C53.4939 36.829 55.1427 35.9285 56.822 35.0879C57.7437 35.0889 58.6274 35.4555 59.2791 36.1073C59.9309 36.759 60.2975 37.6426 60.2985 38.5643Z" fill="white"/>
<path d="M53.6615 44.5692C54.2241 44.5692 54.774 44.4024 55.2418 44.0898C55.7096 43.7773 56.0741 43.333 56.2894 42.8133C56.5047 42.2935 56.561 41.7216 56.4513 41.1699C56.3415 40.6181 56.0706 40.1113 55.6728 39.7135C55.275 39.3157 54.7682 39.0448 54.2165 38.935C53.6647 38.8253 53.0928 38.8816 52.573 39.0969C52.0533 39.3122 51.6091 39.6768 51.2965 40.1445C50.984 40.6123 50.8171 41.1622 50.8171 41.7248C50.818 42.4789 51.118 43.2019 51.6512 43.7351C52.1844 44.2684 52.9074 44.5683 53.6615 44.5692ZM53.6615 41.0927C54.8814 41.0927 55.8738 40.5049 55.8738 41.7248C55.8738 42.3115 55.6408 42.8742 55.2259 43.2891C54.811 43.704 54.2483 43.9371 53.6615 43.9371C53.0748 43.9371 52.5121 43.704 52.0972 43.2891C51.6823 42.8742 51.4492 42.3115 51.4492 41.7248C51.4492 40.5049 52.4416 41.0927 53.6615 41.0927Z" fill="white"/>
<path d="M53.6615 42.6729C54.1852 42.6729 54.6096 42.2484 54.6096 41.7248C54.6096 41.2012 54.1852 40.7767 53.6615 40.7767C53.1379 40.7767 52.7134 41.2012 52.7134 41.7248C52.7134 42.2484 53.1379 42.6729 53.6615 42.6729Z" fill="white"/>
<path d="M106.191 45.5173H103.913V46.1494H106.191V45.5173Z" fill="white"/>
<path opacity="0.1" d="M3.41064 97.3652V98.9454C3.41064 108.221 102.965 108.221 102.965 98.9454V97.3652C102.965 106.641 3.41064 106.641 3.41064 97.3652Z" fill="black"/>
<path d="M91.3428 119.976C91.9611 119.85 92.5058 119.488 92.8611 118.966C93.2164 118.445 93.3541 117.805 93.245 117.184C93.2209 117.058 93.1863 116.934 93.1417 116.814L99.6171 111.383L98.0176 107.128L89.9514 115.526C89.467 115.749 89.0701 116.127 88.8228 116.6C88.5755 117.073 88.4917 117.614 88.5843 118.139C88.6966 118.742 89.0438 119.275 89.5494 119.622C90.0551 119.969 90.6777 120.101 91.2805 119.988C91.3013 119.985 91.3221 119.98 91.3428 119.976Z" fill="#FFD5AE"/>
<path d="M94.3918 87.9324L91.8239 89.9801C91.8239 89.9801 88.7552 95.5593 90.9549 96.7165C93.1546 97.8736 99.993 101.722 99.993 101.722C99.993 101.722 97.1668 104.535 96.8334 105.902C96.5 107.268 97.238 108.483 96.0667 108.197C94.8954 107.911 94.8621 108.842 94.5764 110.013C94.2906 111.184 92.3859 112.263 92.3859 112.263L96.0266 114.949C96.0266 114.949 97.7118 115.544 97.85 114.13C97.9881 112.716 97.6043 112.915 98.7756 113.201C99.9469 113.487 100.934 111.654 101.558 109.945C102.181 108.235 108.547 100.279 108.547 100.279L101.887 92.8687C99.8543 90.6066 97.2729 88.9065 94.3918 87.9324Z" fill="#FF8001"/>
<path d="M93.8067 204.061L91.1554 204.039L89.9819 193.574L93.8949 193.607L93.8067 204.061Z" fill="#FFD5AE"/>
<path d="M85.3145 208.277C85.3121 208.591 85.4345 208.894 85.6548 209.118C85.8751 209.342 86.1754 209.47 86.4897 209.473L91.7609 209.517L92.6836 207.646L93.0226 209.526L95.0115 209.544L94.5093 202.839L93.8173 202.793L90.9948 202.598L90.0842 202.537L90.0682 204.434L85.8339 207.307C85.6753 207.414 85.5451 207.559 85.4546 207.728C85.3642 207.897 85.3161 208.085 85.3145 208.277Z" fill="#3F3F3F"/>
<path d="M69.4661 204.061L66.8151 204.039L65.6414 193.574L69.5543 193.607L69.4661 204.061Z" fill="#FFD5AE"/>
<path d="M60.9742 208.277C60.9718 208.591 61.0942 208.894 61.3145 209.118C61.5348 209.342 61.835 209.47 62.1493 209.473L67.4205 209.517L68.3433 207.646L68.6822 209.526L70.6712 209.544L70.1689 202.839L69.4769 202.793L66.6545 202.598L65.7439 202.537L65.7279 204.434L61.4936 207.307C61.3349 207.414 61.2048 207.559 61.1143 207.728C61.0238 207.897 60.9758 208.085 60.9742 208.277Z" fill="#3F3F3F"/>
<path d="M76.3254 115.447C76.3254 115.447 71.2347 117.955 72.5618 119.464C73.889 120.974 72.7981 121.827 71.1439 123.245C69.4897 124.663 66.1596 141.272 66.1596 141.272L61.8474 167.001C61.8474 167.001 62.9915 189.467 63.7593 190.267C64.5272 191.067 65.7087 189.886 64.5272 191.067C63.3456 192.249 62.4003 191.304 63.3456 192.249C64.2909 193.194 64.5272 195.794 64.5272 195.794L70.6508 195.277C70.6508 195.277 74.6368 178.009 71.9451 170.359L82.5048 142.375L85.6973 169.377C85.6973 169.377 87.4496 191.304 88.6311 192.012C89.8127 192.721 90.664 192.769 89.6476 193.691C88.6311 194.612 88.6311 193.194 88.6311 194.612V196.964L94.3474 197.748C94.3474 197.748 97.0026 176.728 95.7708 167.001L99.5016 134.352L96.5953 119.639L93.5937 115.683L76.3254 115.447Z" fill="#3F3F3F"/>
<path d="M51.7597 107.489C52.2693 107.861 52.904 108.02 53.5287 107.931C54.1535 107.843 54.719 107.514 55.1049 107.014C55.1817 106.912 55.2499 106.803 55.3088 106.689L63.6842 107.817L65.752 103.768L54.1116 103.463C53.6201 103.256 53.0737 103.217 52.5577 103.352C52.0418 103.488 51.5852 103.791 51.2593 104.213C51.0761 104.455 50.9425 104.731 50.8659 105.025C50.7894 105.319 50.7715 105.625 50.8132 105.925C50.8549 106.226 50.9554 106.516 51.1091 106.778C51.2627 107.039 51.4664 107.268 51.7085 107.452C51.7254 107.464 51.7424 107.477 51.7597 107.489Z" fill="#FFD5AE"/>
<path d="M77.4974 88.159L74.2543 87.6403C74.2543 87.6403 70.3618 89.7655 70.9882 92.1708C71.6146 94.576 71.0782 101.587 71.0782 101.587C71.0782 101.587 67.095 101.393 65.8604 102.067C64.6259 102.741 64.2255 104.105 63.6478 103.047C63.0701 101.988 63.6792 101.427 62.621 102.005C61.5628 102.582 58.1633 103.065 58.1633 103.065L56.7966 107.718C56.7966 107.718 58.6954 110.329 59.8336 109.479C60.9719 108.628 61.1959 107.361 61.7736 108.42C62.3514 109.478 62.5125 111.45 64.1961 110.76C65.8797 110.07 77.9059 106.938 77.9059 106.938L79.3594 92.4079L77.4974 88.159Z" fill="#FF8001"/>
<path d="M74.3322 119.034C74.3322 119.034 72.0424 115.38 72.4784 114.844C72.9143 114.308 73.4603 115.234 72.4784 114.299C71.4964 113.363 77.0032 107.118 77.3648 106.198C77.7265 105.278 71.8528 89.2161 71.8528 89.2161L76.8554 86.2031L81.0834 80.2547L88.645 81.4644L91.3055 86.8574L95.0633 88.1833L95.3793 88.4993V98.2967C95.3793 98.2967 97.0518 106.659 93.3722 109.538C93.3722 109.538 95.1278 113.363 94.6552 114.072C94.1825 114.781 102.68 124.096 96.0114 125.16C88.7063 126.326 73.1244 118.621 74.3322 119.034Z" fill="#FF8001"/>
<path d="M36.8264 209.624C36.8263 209.673 36.8359 209.722 36.8547 209.768C36.8736 209.814 36.9013 209.855 36.9363 209.89C36.9712 209.925 37.0127 209.953 37.0584 209.972C37.1041 209.991 37.1531 210 37.2025 210H117.253C117.353 210 117.449 209.96 117.519 209.89C117.59 209.819 117.629 209.724 117.629 209.624C117.629 209.524 117.59 209.429 117.519 209.358C117.449 209.287 117.353 209.248 117.253 209.248H37.2025C37.1531 209.248 37.1041 209.257 37.0584 209.276C37.0127 209.295 36.9712 209.323 36.9363 209.358C36.9013 209.393 36.8736 209.434 36.8548 209.48C36.8359 209.526 36.8263 209.574 36.8264 209.624Z" fill="#CCCCCC"/>
<path d="M85.9782 81.7437C90.2307 81.7437 93.678 78.2964 93.678 74.0439C93.678 69.7913 90.2307 66.344 85.9782 66.344C81.7257 66.344 78.2783 69.7913 78.2783 74.0439C78.2783 78.2964 81.7257 81.7437 85.9782 81.7437Z" fill="#FFD5AE"/>
<path d="M91.928 68.3514C91.8488 67.6584 91.3738 66.802 91.0435 66.1877C90.7131 65.5734 90.0751 65.0718 89.379 65.1146C89.0945 65.1476 88.8223 65.2488 88.5854 65.4098C88.3486 65.5708 88.1542 65.7866 88.0188 66.039C87.7531 66.547 87.6083 67.1096 87.5957 67.6828C87.5229 68.9618 87.7365 70.2408 88.2208 71.4268C88.7051 72.6127 89.448 73.6756 90.3952 74.538C90.9349 75.022 91.5843 75.4527 92.309 75.4691C92.6382 75.4613 92.9624 75.3876 93.2626 75.2526C93.5629 75.1175 93.8331 74.9238 94.0573 74.6828C95.2304 73.508 95.4077 71.5766 94.7813 70.0392C94.1548 68.5018 93.8752 67.9035 92.4431 67.0637" fill="#3F3F3F"/>
<path d="M81.1113 79.4256C81.2401 80.1107 80.0554 83.3686 80.434 83.9558C80.434 83.9558 84.3541 85.3174 85.853 85.4152C87.6841 85.5337 89.1569 84.7825 90.8696 83.6519C90.9006 83.0385 91.0781 82.4416 91.3872 81.9109C91.3613 82.3219 91.4448 82.7325 91.6293 83.1007C98.0437 81.5073 96.4733 75.7511 92.5992 73.0543L90.0238 67.1309C90.7965 67.3884 88.4641 63.4092 86.0046 66.2911C82.927 63.1568 76.965 67.6689 76.218 71.6994C76.9368 70.7897 77.3112 70.8969 77.4955 71.5243C77.7074 70.9966 78.043 70.5276 78.4741 70.1568C78.2597 70.5805 78.1502 71.0494 78.1548 71.5243C83.0094 71.8256 82.1059 75.1007 78.1268 80.0069C79.5982 79.0909 78.6053 83.038 79.391 83.9815C79.4296 83.3222 80.9723 80.0669 81.1113 79.4256Z" fill="#3F3F3F"/>
<path d="M88.1169 73.1177C88.1791 73.1176 88.239 73.0951 88.2858 73.0543C88.3327 73.0135 88.3631 72.9571 88.3717 72.8956C88.3803 72.8341 88.3663 72.7716 88.3324 72.7195C88.2985 72.6675 88.247 72.6295 88.1872 72.6124C88.1319 72.2955 88.126 71.9719 88.1696 71.6532C88.2534 70.2305 88.3936 67.8496 86.082 66.2423C86.0259 66.2036 85.9568 66.1887 85.8898 66.2008C85.8227 66.213 85.7632 66.2512 85.7243 66.3072C85.6854 66.3631 85.6703 66.4322 85.6822 66.4993C85.6941 66.5664 85.7322 66.626 85.788 66.6651C87.8624 68.1076 87.7379 70.2231 87.6554 71.6229C87.6084 72.4232 87.5743 73.0012 88.0597 73.1113C88.0785 73.1156 88.0977 73.1177 88.1169 73.1177Z" fill="#FF8001"/>
<path d="M87.9971 67.4889C89.5689 66.8365 91.2432 66.4655 92.9435 66.3927C94.2922 66.3355 95.9012 66.6362 96.4495 67.8698C96.7821 68.6181 96.6049 69.4952 96.3007 70.2555C95.9964 71.0158 94.5745 72.5506 95.3933 72.5339C97.4497 72.4919 98.3275 74.3307 97.2843 77.1881C96.6793 78.8453 100.433 78.7815 102.183 79.0034C100.869 79.4912 99.5335 79.9837 98.1359 80.1007C96.7382 80.2177 95.2456 79.9139 94.2021 78.9768C93.0729 77.9628 92.639 76.3878 92.4469 74.8823C92.2548 73.3767 92.2449 71.8262 91.7345 70.3969C91.2242 68.9675 90.0519 67.6364 88.5395 67.5096" fill="#3F3F3F"/>
</g>
<defs>
<clipPath id="clip0_7082_89789">
<rect width="117.63" height="210" fill="white"/>
</clipPath>
</defs>
</svg>
