<svg width="20" height="20" viewBox="0 0 20 20" fill="none" xmlns="http://www.w3.org/2000/svg">
<path fill-rule="evenodd" clip-rule="evenodd" d="M14.1011 2.37129C13.9356 2.10683 13.6918 1.90055 13.4036 1.78117C13.1154 1.66179 12.7971 1.63524 12.4931 1.70522L10.3354 2.20087C10.1143 2.2517 9.88452 2.2517 9.6634 2.20087L7.50573 1.70522C7.20171 1.63524 6.88344 1.66179 6.59523 1.78117C6.30701 1.90055 6.06317 2.10683 5.89767 2.37129L4.72164 4.24827C4.60163 4.44029 4.43963 4.60231 4.24762 4.72352L2.37076 5.89963C2.10677 6.065 1.90081 6.30845 1.78146 6.5962C1.66211 6.88394 1.6353 7.20171 1.70474 7.50539L2.20035 9.6656C2.25099 9.88635 2.25099 10.1157 2.20035 10.3365L1.70474 12.4955C1.63503 12.7993 1.66171 13.1174 1.78107 13.4053C1.90043 13.6933 2.10654 13.937 2.37076 14.1024L4.24762 15.2785C4.43963 15.3986 4.60163 15.5606 4.72284 15.7526L5.89887 17.6296C6.23728 18.1708 6.8829 18.4385 7.50573 18.2956L9.6634 17.8C9.88452 17.7492 10.1143 17.7492 10.3354 17.8L12.4943 18.2956C12.7981 18.3654 13.1161 18.3387 13.4041 18.2193C13.6921 18.0999 13.9357 17.8938 14.1011 17.6296L15.2772 15.7526C15.3972 15.5606 15.5592 15.3986 15.7512 15.2785L17.6293 14.1024C17.8935 13.9367 18.0995 13.6928 18.2187 13.4046C18.3378 13.1164 18.3642 12.7982 18.2941 12.4943L17.7997 10.3365C17.7488 10.1153 17.7488 9.88554 17.7997 9.6644L18.2953 7.50539C18.3651 7.20166 18.3386 6.88372 18.2195 6.59574C18.1003 6.30776 17.8945 6.06404 17.6305 5.89843L15.7524 4.72232C15.5607 4.60209 15.3986 4.44002 15.2784 4.24827L14.1011 2.37129Z" fill="#808185"/>
<path d="M13.7088 7.66699L8.86721 12.7374L6.6665 10.4327" stroke="white" stroke-width="2" stroke-linecap="round" stroke-linejoin="round"/>
</svg>
