<svg width="72" height="72" viewBox="0 0 72 72" fill="none" xmlns="http://www.w3.org/2000/svg">
<path d="M36 0.5C16.2214 0.5 0.5 16.2214 0.5 36C0.5 55.7786 16.2214 71.5 36 71.5C55.7786 71.5 71.5 55.7786 71.5 36C71.5 16.2214 55.7786 0.5 36 0.5Z" fill="#FB4646"/>
<path d="M36 38.7429L43.8857 46.6286C44.6431 47.386 45.8712 47.386 46.6286 46.6286C47.386 45.8712 47.386 44.6431 46.6286 43.8857L38.7429 36L46.6286 28.1143C47.386 27.3569 47.386 26.1288 46.6286 25.3714C45.8712 24.614 44.6431 24.614 43.8857 25.3714L36 33.2571L28.1143 25.3714C27.3569 24.614 26.1288 24.614 25.3714 25.3714C24.614 26.1288 24.614 27.3569 25.3714 28.1143L33.2571 36L25.3714 43.8857C24.614 44.6431 24.614 45.8712 25.3714 46.6286C26.1288 47.386 27.3569 47.386 28.1143 46.6286L36 38.7429Z" fill="white"/>
</svg>
