<svg width="36" height="37" viewBox="0 0 36 37" fill="none" xmlns="http://www.w3.org/2000/svg">
<rect y="0.650391" width="35.9961" height="36" rx="17.998" fill="#FF8001"/>
<path d="M17.9999 16.1504C17.3369 16.1504 16.701 16.4138 16.2322 16.8826C15.7633 17.3515 15.4999 17.9873 15.4999 18.6504C15.4999 19.3134 15.7633 19.9493 16.2322 20.4182C16.701 20.887 17.3369 21.1504 17.9999 21.1504C18.663 21.1504 19.2988 20.887 19.7677 20.4182C20.2365 19.9493 20.4999 19.3134 20.4999 18.6504C20.4999 17.9873 20.2365 17.3515 19.7677 16.8826C19.2988 16.4138 18.663 16.1504 17.9999 16.1504ZM17.9999 22.8171C16.8949 22.8171 15.835 22.3781 15.0536 21.5967C14.2722 20.8153 13.8333 19.7555 13.8333 18.6504C13.8333 17.5453 14.2722 16.4855 15.0536 15.7041C15.835 14.9227 16.8949 14.4837 17.9999 14.4837C19.105 14.4837 20.1648 14.9227 20.9462 15.7041C21.7276 16.4855 22.1666 17.5453 22.1666 18.6504C22.1666 19.7555 21.7276 20.8153 20.9462 21.5967C20.1648 22.3781 19.105 22.8171 17.9999 22.8171ZM17.9999 12.4004C13.8333 12.4004 10.2749 14.9921 8.83325 18.6504C10.2749 22.3087 13.8333 24.9004 17.9999 24.9004C22.1666 24.9004 25.7249 22.3087 27.1666 18.6504C25.7249 14.9921 22.1666 12.4004 17.9999 12.4004Z" fill="white"/>
</svg>
