<svg width="30" height="30" viewBox="0 0 30 30" fill="none" xmlns="http://www.w3.org/2000/svg">
<rect width="30" height="30" rx="4" fill="white" fill-opacity="0.16"/>
<path fill-rule="evenodd" clip-rule="evenodd" d="M24.1449 11.1467C24.0884 11.1426 24.0256 11.1426 23.9598 11.1426H21.3626C19.2356 11.1426 17.416 12.8171 17.416 14.9997C17.416 17.1823 19.2366 18.8569 21.3626 18.8569H23.9598C24.0256 18.8569 24.0884 18.8569 24.147 18.8527C24.5842 18.8264 24.9968 18.642 25.3081 18.3339C25.6194 18.0258 25.8081 17.6151 25.839 17.1782C25.8431 17.1165 25.8431 17.0497 25.8431 16.9879V13.0115C25.8431 12.9498 25.8431 12.8829 25.839 12.8212C25.8081 12.3843 25.6194 11.9736 25.3081 11.6655C24.9968 11.3574 24.5842 11.1731 24.147 11.1467H24.1449ZM21.1333 16.0283C21.6805 16.0283 22.1238 15.5675 22.1238 14.9997C22.1238 14.4319 21.6805 13.9711 21.1333 13.9711C20.585 13.9711 20.1417 14.4319 20.1417 14.9997C20.1417 15.5675 20.585 16.0283 21.1333 16.0283Z" fill="white"/>
<path fill-rule="evenodd" clip-rule="evenodd" d="M23.9585 20.4C23.9941 20.3986 24.0295 20.4056 24.0618 20.4204C24.0942 20.4352 24.1226 20.4574 24.1447 20.4853C24.1669 20.5131 24.1821 20.5458 24.1893 20.5807C24.1964 20.6156 24.1952 20.6516 24.1858 20.6859C23.9801 21.4183 23.652 22.0437 23.1264 22.5682C22.356 23.3397 21.3799 23.6801 20.1744 23.8426C19.0018 24 17.5053 24 15.6147 24H13.4424C11.5519 24 10.0543 24 8.88274 23.8426C7.67726 23.6801 6.70114 23.3386 5.93074 22.5693C5.16137 21.7989 4.81989 20.8227 4.65737 19.6173C4.5 18.4447 4.5 16.9481 4.5 15.0576V14.9424C4.5 13.0519 4.5 11.5543 4.65737 10.3817C4.81989 9.17623 5.16137 8.20011 5.93074 7.42971C6.70114 6.66034 7.67726 6.31886 8.88274 6.15634C10.0553 6 11.5519 6 13.4424 6H15.6147C17.5053 6 19.0029 6 20.1744 6.15737C21.3799 6.31989 22.356 6.66137 23.1264 7.43074C23.652 7.95737 23.9801 8.58171 24.1858 9.31406C24.1952 9.34838 24.1964 9.38444 24.1893 9.4193C24.1821 9.45417 24.1669 9.48685 24.1447 9.51471C24.1226 9.54257 24.0942 9.56481 24.0618 9.57963C24.0295 9.59445 23.9941 9.60143 23.9585 9.6H21.3624C18.4443 9.6 15.8729 11.904 15.8729 15C15.8729 18.096 18.4443 20.4 21.3624 20.4H23.9585ZM8.35714 10.1143C8.15255 10.1143 7.95633 10.1956 7.81166 10.3402C7.66699 10.4849 7.58571 10.6811 7.58571 10.8857C7.58571 11.0903 7.66699 11.2865 7.81166 11.4312C7.95633 11.5759 8.15255 11.6571 8.35714 11.6571H12.4714C12.676 11.6571 12.8722 11.5759 13.0169 11.4312C13.1616 11.2865 13.2429 11.0903 13.2429 10.8857C13.2429 10.6811 13.1616 10.4849 13.0169 10.3402C12.8722 10.1956 12.676 10.1143 12.4714 10.1143H8.35714Z" fill="white"/>
</svg>
