<svg width="26" height="23" viewBox="0 0 20 17" fill="none" xmlns="http://www.w3.org/2000/svg">
<path fill-rule="evenodd" clip-rule="evenodd" d="M18.2753 4.76748C18.2163 4.76367 18.1515 4.76367 18.0848 4.76367H15.4439C13.2811 4.76367 11.4297 6.41698 11.4297 8.57314C11.4297 10.7293 13.2811 12.3826 15.4439 12.3826H18.0848C18.1515 12.3826 18.2163 12.3826 18.2753 12.3788C19.1543 12.3255 19.9315 11.6579 19.9972 10.7245C20.001 10.6636 20.001 10.5979 20.001 10.5369V6.60936C20.001 6.54841 20.001 6.48269 19.9972 6.42174C19.9315 5.48842 19.1543 4.82177 18.2753 4.76748ZM15.2115 9.58931C15.7677 9.58931 16.2191 9.13408 16.2191 8.57314C16.2191 8.01124 15.7677 7.55696 15.2115 7.55696C14.6544 7.55696 14.202 8.01219 14.202 8.57314C14.202 9.13503 14.6544 9.58931 15.2115 9.58931Z" fill="#FF8001"/>
<path d="M18.2293 4.76374C18.2293 3.63899 18.1874 2.43234 17.4693 1.56855C17.3991 1.48393 17.325 1.40257 17.2474 1.32474C16.5341 0.612372 15.6303 0.296186 14.5141 0.145712C13.4284 1.13531e-07 12.0427 0 10.2922 0H8.28085C6.5304 0 5.14376 1.13531e-07 4.05806 0.145712C2.94188 0.296186 2.03809 0.612372 1.32477 1.32474C0.612396 2.03806 0.29621 2.94186 0.145736 4.05803C0.00097652 5.14373 0.000976562 6.52943 0.000976562 8.27988V8.38654C0.000976562 10.137 0.000976676 11.5236 0.146689 12.6084C0.297163 13.7246 0.613348 14.6284 1.32572 15.3417C2.03904 16.054 2.94284 16.3702 4.05901 16.5207C5.14471 16.6664 6.5304 16.6664 8.28085 16.6664H10.2922C12.0427 16.6664 13.4293 16.6664 14.5141 16.5207C15.6303 16.3702 16.5341 16.054 17.2474 15.3417C17.4371 15.1514 17.6051 14.9405 17.7483 14.7131C18.1769 14.0274 18.2283 13.1874 18.2283 12.3798L18.0855 12.3808H15.4436C13.2808 12.3808 11.4294 10.7275 11.4294 8.5713C11.4294 6.41514 13.2808 4.76183 15.4436 4.76183H18.0845C18.134 4.76183 18.1836 4.76183 18.2293 4.76374Z" fill="#FFC891"/>
<path d="M3.57194 3.80859C3.3825 3.80859 3.20082 3.88385 3.06687 4.0178C2.93292 4.15175 2.85767 4.33343 2.85767 4.52287C2.85767 4.71231 2.93292 4.89398 3.06687 5.02794C3.20082 5.16189 3.3825 5.23714 3.57194 5.23714H7.38141C7.57085 5.23714 7.75252 5.16189 7.88648 5.02794C8.02043 4.89398 8.09568 4.71231 8.09568 4.52287C8.09568 4.33343 8.02043 4.15175 7.88648 4.0178C7.75252 3.88385 7.57085 3.80859 7.38141 3.80859H3.57194Z" fill="white"/>
</svg>
