<svg width="29" height="12" viewBox="0 0 29 12" fill="none" xmlns="http://www.w3.org/2000/svg">
<rect x="0.333496" width="28" height="12" rx="2" fill="#FF8001"/>
<path d="M5.64071 8L4.84791 7.43953L5.78596 6.28909L4.3335 5.87611L4.63609 4.96755L6.05224 5.48083L5.99778 4H6.97819L6.92372 5.48083L8.33987 4.96755L8.64247 5.87611L7.19 6.28909L8.122 7.43953L7.3292 8L6.48798 6.78466L5.64071 8Z" fill="white"/>
<path d="M10.8711 8L10.0783 7.43953L11.0163 6.28909L9.56384 5.87611L9.86644 4.96755L11.2826 5.48083L11.2281 4H12.2085L12.1541 5.48083L13.5702 4.96755L13.8728 5.87611L12.4203 6.28909L13.3523 7.43953L12.5595 8L11.7183 6.78466L10.8711 8Z" fill="white"/>
<path d="M16.1014 8L15.3086 7.43953L16.2466 6.28909L14.7942 5.87611L15.0968 4.96755L16.5129 5.48083L16.4585 4H17.4389L17.3844 5.48083L18.8006 4.96755L19.1032 5.87611L17.6507 6.28909L18.5827 7.43953L17.7899 8L16.9487 6.78466L16.1014 8Z" fill="white"/>
<path d="M21.3317 8L20.5389 7.43953L21.477 6.28909L20.0245 5.87611L20.3271 4.96755L21.7433 5.48083L21.6888 4H22.6692L22.6148 5.48083L24.0309 4.96755L24.3335 5.87611L22.881 6.28909L23.813 7.43953L23.0202 8L22.179 6.78466L21.3317 8Z" fill="white"/>
</svg>
