<svg width="32" height="32" viewBox="0 0 32 32" fill="none" xmlns="http://www.w3.org/2000/svg">
<path d="M22.1623 26C21.9139 26 21.6668 25.9238 21.454 25.7719L16.4524 22.1849L11.4507 25.7719C11.0246 26.0769 10.4528 26.0769 10.0292 25.767C9.60555 25.4602 9.42724 24.9154 9.58587 24.418L11.4513 18.3975L6.49448 14.9047C6.07331 14.5942 5.89809 14.0482 6.05917 13.5502C6.22149 13.0534 6.68385 12.7159 7.20646 12.7122L13.3456 12.7029L15.3002 6.83187C15.4649 6.33447 15.9291 6 16.4524 6C16.9756 6 17.4398 6.33509 17.6052 6.83187L19.5265 12.7029L25.697 12.7122C26.2215 12.7159 26.6845 13.054 26.8449 13.5502C27.0066 14.0482 26.8314 14.5942 26.4096 14.9047L21.4528 18.3975L23.3182 24.418C23.4781 24.9154 23.2979 25.4602 22.8755 25.767C22.6622 25.9231 22.4126 26 22.1623 26Z" fill="#FF8001"/>
</svg>
