<svg width="32" height="32" viewBox="0 0 32 32" fill="none" xmlns="http://www.w3.org/2000/svg">
<path d="M15.1628 6.00889C13.5814 6.19519 12.312 6.79743 11.2634 7.84594C10.3536 8.7558 9.76868 9.85629 9.52605 11.1041C9.48273 11.3381 9.44373 11.6197 9.44373 11.728C9.44373 11.9056 9.4264 11.9403 9.22277 12.1266C8.84149 12.4732 8.83716 12.4862 8.83716 13.9507C8.83716 14.8302 8.85449 15.2765 8.88915 15.4021C8.95847 15.6361 9.27909 15.9567 9.51305 16.026C9.95065 16.156 10.4142 16.0563 10.6872 15.7747C10.9818 15.4758 10.9818 15.4628 10.9818 13.9983C10.9818 12.6942 10.9818 12.6725 10.8778 12.4646C10.8172 12.3432 10.7045 12.2089 10.6092 12.1396C10.4619 12.04 10.4446 12.0053 10.4402 11.8407C10.4402 11.5894 10.5486 11.0651 10.7045 10.6015C11.2981 8.81645 12.8752 7.45166 14.7599 7.08339C15.2668 6.98374 16.1854 6.98374 16.6923 7.08339C18.8889 7.51232 20.6133 9.27572 20.9686 11.455C21.0466 11.9316 21.0293 12.014 20.843 12.1396C20.7477 12.2089 20.635 12.3432 20.5743 12.4646C20.4747 12.6725 20.4704 12.7115 20.4574 13.8987C20.4487 14.5746 20.4617 15.1898 20.4834 15.2678C20.5267 15.4151 20.5224 15.4151 20.2841 15.5537C19.7641 15.8527 18.9713 16.1127 18.3344 16.1906C18.1394 16.2166 18.0917 16.208 18.0094 16.1343C17.8274 15.9653 17.7364 15.948 17.1212 15.948C16.5666 15.948 16.506 15.9567 16.3717 16.0477C15.9774 16.3076 15.9861 16.8319 16.3847 17.1308C16.4713 17.1958 16.5926 17.2218 16.9089 17.2392C17.5371 17.2695 17.7798 17.2262 17.9791 17.0485C18.1264 16.9142 18.1914 16.8925 18.5597 16.8362C19.4435 16.7019 20.2277 16.4289 20.7953 16.052C20.947 15.9524 20.96 15.948 21.1116 16.013C21.3022 16.091 21.6922 16.0997 21.9391 16.026C22.1731 15.9567 22.4937 15.6361 22.563 15.4021C22.5977 15.2765 22.615 14.8302 22.615 13.9507C22.615 12.4862 22.6107 12.4732 22.2294 12.1266C22.0258 11.9403 22.0085 11.9056 22.0085 11.728C22.0085 11.442 21.8611 10.7358 21.7095 10.2809C21.1939 8.73847 20.0284 7.39967 18.564 6.66312C17.7148 6.23852 16.8786 6.03055 15.8994 6.00456C15.5788 5.99589 15.2452 6.00022 15.1628 6.00889Z" fill="#FF8001"/>
<path d="M15.2708 8.02375C14.7119 8.07574 14.2483 8.20572 13.7543 8.44835C13.0351 8.80363 12.5152 9.30622 12.1296 10.0211C11.471 11.2472 11.3974 12.9716 11.9346 14.5921C12.1902 15.3633 12.6582 16.2081 13.2561 16.988C13.7457 17.6206 13.8367 17.9672 13.6287 18.3918C13.4857 18.6821 13.2301 18.8641 12.6278 19.1067C11.757 19.449 10.4832 20.1205 9.60365 20.7011C9.05773 21.0564 8.42949 21.676 8.26485 22.0139C7.99189 22.5642 7.91824 23.3484 8.09588 23.8423C8.54648 25.1291 10.3402 25.792 13.776 25.9566C16.0723 26.065 18.6892 25.9653 20.1883 25.714C21.8434 25.4367 22.9353 24.8865 23.2862 24.1586C23.4942 23.7296 23.5115 22.8458 23.3295 22.2955C23.1172 21.663 22.515 21.0304 21.6095 20.4802C21.1502 20.1985 19.9544 19.6266 19.3868 19.4143C18.6806 19.15 18.321 18.9637 18.074 18.7428C17.8184 18.5131 17.7404 18.3095 17.775 17.9629L17.7967 17.7462H17.1208C16.3539 17.7462 16.2543 17.7202 15.9423 17.4386C15.3184 16.8754 15.4701 15.9049 16.237 15.5279C16.4753 15.4109 16.5099 15.4066 17.1338 15.4066C17.7621 15.4066 17.7924 15.4109 18.0393 15.5323C18.295 15.6579 18.2993 15.6579 18.6243 15.6059C19.1832 15.5106 19.1875 15.5063 19.3955 14.969C19.8504 13.7862 19.9934 12.8677 19.8851 11.8322C19.7681 10.7057 19.4258 9.89112 18.7846 9.20223C18.1303 8.50034 17.2941 8.11473 16.2283 8.01941C15.964 7.99775 15.73 7.98042 15.704 7.98042C15.6824 7.98475 15.4874 8.00208 15.2708 8.02375Z" fill="#FF8001"/>
</svg>
