<svg width="32" height="32" viewBox="0 0 32 32" fill="none" xmlns="http://www.w3.org/2000/svg">
<path fill-rule="evenodd" clip-rule="evenodd" d="M8.172 7.172C7 8.343 7 10.229 7 14V18C7 21.771 7 23.657 8.172 24.828C9.343 26 11.229 26 15 26H17C20.771 26 22.657 26 23.828 24.828C25 23.657 25 21.771 25 18V14C25 10.229 25 8.343 23.828 7.172C22.657 6 20.771 6 17 6H15C11.229 6 9.343 6 8.172 7.172ZM12 13.25C11.8011 13.25 11.6103 13.329 11.4697 13.4697C11.329 13.6103 11.25 13.8011 11.25 14C11.25 14.1989 11.329 14.3897 11.4697 14.5303C11.6103 14.671 11.8011 14.75 12 14.75H20C20.1989 14.75 20.3897 14.671 20.5303 14.5303C20.671 14.3897 20.75 14.1989 20.75 14C20.75 13.8011 20.671 13.6103 20.5303 13.4697C20.3897 13.329 20.1989 13.25 20 13.25H12ZM12 17.25C11.8011 17.25 11.6103 17.329 11.4697 17.4697C11.329 17.6103 11.25 17.8011 11.25 18C11.25 18.1989 11.329 18.3897 11.4697 18.5303C11.6103 18.671 11.8011 18.75 12 18.75H17C17.1989 18.75 17.3897 18.671 17.5303 18.5303C17.671 18.3897 17.75 18.1989 17.75 18C17.75 17.8011 17.671 17.6103 17.5303 17.4697C17.3897 17.329 17.1989 17.25 17 17.25H12Z" fill="#FF8001"/>
</svg>
