<svg width="32" height="32" viewBox="0 0 32 32" fill="none" xmlns="http://www.w3.org/2000/svg">
<path d="M16.0007 6C14.693 6 13.693 7 13.693 8.30769V12.9231C13.693 14.2308 14.693 15.2308 16.0007 15.2308H20.6161L23.693 18.3077V15.2308C25.0007 15.2308 26.0007 14.2308 26.0007 12.9231V8.30769C26.0007 7 25.0007 6 23.693 6H16.0007ZM19.2223 8.30769H20.5438L21.8423 12.9231H20.6884L20.3753 11.7692H19.2215L18.9338 12.9231H17.9238L19.2223 8.30769ZM19.8469 9.07692C19.77 9.38462 19.6838 9.76 19.6061 9.99077L19.3907 11H20.3038L20.0869 9.99C19.9338 9.76 19.8469 9.38462 19.8469 9.07692ZM8.30842 13.6923C7.00073 13.6923 6.00073 14.6923 6.00073 16V20.6154C6.00073 21.9231 7.00073 22.9231 8.30842 22.9231V26L11.3853 22.9231H16.0007C17.3084 22.9231 18.3084 21.9231 18.3084 20.6154V16H16.0007C14.5392 16 13.3807 15 12.9961 13.6923H8.30842ZM11.8423 15.9277C13.15 15.9277 13.7653 17.0046 13.7653 18.2354C13.7653 19.3123 13.3953 19.9954 12.78 20.3031C13.0877 20.4569 13.4523 20.5385 13.8369 20.6154L13.5492 21.3846C13.0107 21.2308 12.4523 20.9908 11.9138 20.7592C11.8369 20.6823 11.7023 20.6877 11.6253 20.6877C10.7023 20.6108 9.84689 19.8462 9.84689 18.3077C9.84689 17 10.6115 15.9277 11.8423 15.9277ZM11.8423 16.7692C11.2269 16.7692 10.9284 17.4615 10.9284 18.3077C10.9284 19.2308 11.2269 19.8462 11.8423 19.8462C12.4577 19.8462 12.7792 19.1538 12.7792 18.3077C12.7792 17.4615 12.4577 16.7692 11.8423 16.7692Z" fill="#FF8001"/>
</svg>
