<svg width="32" height="32" viewBox="0 0 32 32" fill="none" xmlns="http://www.w3.org/2000/svg">
<path d="M23.8824 22.4286V25H8V22.4286C8 22.4286 8 17.2857 15.9412 17.2857C23.8824 17.2857 23.8824 22.4286 23.8824 22.4286ZM19.9118 10.8571C19.9118 10.0943 19.6789 9.34853 19.2426 8.71423C18.8063 8.07993 18.1862 7.58555 17.4607 7.29361C16.7351 7.00167 15.9368 6.92529 15.1666 7.07412C14.3963 7.22294 13.6888 7.5903 13.1335 8.12973C12.5782 8.66916 12.2001 9.35644 12.0469 10.1047C11.8937 10.8529 11.9723 11.6284 12.2728 12.3332C12.5734 13.038 13.0823 13.6404 13.7352 14.0642C14.3882 14.4881 15.1559 14.7143 15.9412 14.7143C16.9942 14.7143 18.0042 14.3079 18.7488 13.5846C19.4934 12.8612 19.9118 11.8801 19.9118 10.8571Z" fill="#FF8001"/>
</svg>
