<svg width="32" height="32" viewBox="0 0 32 32" fill="none" xmlns="http://www.w3.org/2000/svg">
<path d="M20 21.5714V24H5V21.5714C5 21.5714 5 16.7143 12.5 16.7143C20 16.7143 20 21.5714 20 21.5714ZM16.25 10.6429C16.25 9.92237 16.0301 9.21806 15.618 8.619C15.206 8.01993 14.6203 7.55302 13.9351 7.2773C13.2498 7.00158 12.4958 6.92944 11.7684 7.07C11.041 7.21056 10.3728 7.55751 9.84835 8.06697C9.3239 8.57643 8.96675 9.22553 8.82205 9.93217C8.67736 10.6388 8.75162 11.3713 9.03545 12.0369C9.31928 12.7026 9.79993 13.2715 10.4166 13.6718C11.0333 14.0721 11.7583 14.2857 12.5 14.2857C13.4946 14.2857 14.4484 13.9019 15.1517 13.2187C15.8549 12.5356 16.25 11.609 16.25 10.6429ZM20.25 16.7871C20.9333 17.3995 21.4842 18.138 21.8705 18.9594C22.2568 19.7808 22.4708 20.6688 22.5 21.5714V24H26.25V21.5714C26.25 21.5714 26.25 17.3821 20.25 16.7871ZM18.75 7C18.3723 7.00022 17.997 7.05757 17.6375 7.17C18.3688 8.18875 18.7609 9.40087 18.7609 10.6429C18.7609 11.8849 18.3688 13.097 17.6375 14.1157C17.997 14.2281 18.3723 14.2855 18.75 14.2857C19.7446 14.2857 20.6984 13.9019 21.4017 13.2187C22.1049 12.5356 22.5 11.609 22.5 10.6429C22.5 9.67671 22.1049 8.75014 21.4017 8.06697C20.6984 7.3838 19.7446 7 18.75 7Z" fill="#FF8001"/>
</svg>
