<svg width="32" height="32" viewBox="0 0 32 32" fill="none" xmlns="http://www.w3.org/2000/svg">
<path d="M22.9784 19.4276C22.9123 19.3473 22.8474 19.2669 22.7837 19.1894C21.9079 18.1202 21.378 17.475 21.378 14.4483C21.378 12.8813 21.0066 11.5956 20.2744 10.6313C19.7346 9.91897 19.0049 9.37857 18.0431 8.9792C18.0307 8.97225 18.0197 8.96313 18.0104 8.95228C17.6645 7.78308 16.7178 7 15.6501 7C14.5824 7 13.6361 7.78308 13.2902 8.95107C13.2809 8.96153 13.27 8.97036 13.2579 8.97719C11.0134 9.90973 9.92261 11.6989 9.92261 14.4471C9.92261 17.475 9.39353 18.1202 8.51691 19.1882C8.45322 19.2657 8.38833 19.3445 8.32224 19.4264C8.15154 19.6342 8.04338 19.887 8.01057 20.1549C7.97777 20.4227 8.02168 20.6945 8.13712 20.9379C8.38275 21.4603 8.90626 21.7845 9.50381 21.7845H21.8008C22.3955 21.7845 22.9155 21.4607 23.1619 20.9408C23.2778 20.6972 23.3222 20.4253 23.2896 20.1571C23.2571 19.8889 23.1491 19.6357 22.9784 19.4276ZM15.6501 25C16.2254 24.9995 16.7898 24.8419 17.2835 24.5439C17.7772 24.2459 18.1818 23.8186 18.4543 23.3073C18.4672 23.2828 18.4735 23.2553 18.4727 23.2276C18.472 23.1999 18.4641 23.1729 18.4499 23.1491C18.4357 23.1254 18.4157 23.1058 18.3918 23.0922C18.3679 23.0785 18.3409 23.0714 18.3134 23.0714H12.9876C12.9601 23.0713 12.933 23.0784 12.9091 23.092C12.8851 23.1056 12.865 23.1252 12.8508 23.149C12.8365 23.1727 12.8286 23.1998 12.8279 23.2275C12.8271 23.2553 12.8334 23.2827 12.8463 23.3073C13.1188 23.8185 13.5233 24.2458 14.0169 24.5438C14.5106 24.8418 15.0749 24.9995 15.6501 25Z" fill="#FF8001"/>
</svg>
