<svg width="32" height="32" viewBox="0 0 32 32" fill="none" xmlns="http://www.w3.org/2000/svg">
<path fill-rule="evenodd" clip-rule="evenodd" d="M9.13253 14.4867V12.506C9.13253 10.7805 9.81798 9.12569 11.0381 7.90557C12.2582 6.68545 13.913 6 15.6386 6C17.3641 6 19.0189 6.68545 20.239 7.90557C21.4591 9.12569 22.1446 10.7805 22.1446 12.506V14.4867C23.2193 14.5667 23.9181 14.7692 24.4299 15.281C25.2771 16.1272 25.2771 17.4911 25.2771 20.2169C25.2771 22.9427 25.2771 24.3065 24.4299 25.1528C23.5836 26 22.2198 26 19.494 26H11.7831C9.05735 26 7.69349 26 6.84723 25.1528C6 24.3065 6 22.9427 6 20.2169C6 17.4911 6 16.1272 6.84723 15.281C7.35807 14.7692 8.05783 14.5667 9.13253 14.4867ZM10.5783 12.506C10.5783 11.164 11.1114 9.87687 12.0604 8.92789C13.0094 7.97891 14.2965 7.44578 15.6386 7.44578C16.9806 7.44578 18.2677 7.97891 19.2167 8.92789C20.1657 9.87687 20.6988 11.164 20.6988 12.506V14.4376C20.3296 14.4337 19.9287 14.4337 19.494 14.4337H11.7831C11.3475 14.4337 10.9475 14.4337 10.5783 14.4376V12.506ZM11.7831 21.1807C12.0388 21.1807 12.2839 21.0792 12.4647 20.8984C12.6454 20.7177 12.747 20.4725 12.747 20.2169C12.747 19.9612 12.6454 19.7161 12.4647 19.5353C12.2839 19.3546 12.0388 19.253 11.7831 19.253C11.5275 19.253 11.2823 19.3546 11.1016 19.5353C10.9208 19.7161 10.8193 19.9612 10.8193 20.2169C10.8193 20.4725 10.9208 20.7177 11.1016 20.8984C11.2823 21.0792 11.5275 21.1807 11.7831 21.1807ZM15.6386 21.1807C15.8942 21.1807 16.1393 21.0792 16.3201 20.8984C16.5009 20.7177 16.6024 20.4725 16.6024 20.2169C16.6024 19.9612 16.5009 19.7161 16.3201 19.5353C16.1393 19.3546 15.8942 19.253 15.6386 19.253C15.3829 19.253 15.1378 19.3546 14.957 19.5353C14.7762 19.7161 14.6747 19.9612 14.6747 20.2169C14.6747 20.4725 14.7762 20.7177 14.957 20.8984C15.1378 21.0792 15.3829 21.1807 15.6386 21.1807ZM20.4578 20.2169C20.4578 20.4725 20.3563 20.7177 20.1755 20.8984C19.9948 21.0792 19.7496 21.1807 19.494 21.1807C19.2383 21.1807 18.9932 21.0792 18.8124 20.8984C18.6317 20.7177 18.5301 20.4725 18.5301 20.2169C18.5301 19.9612 18.6317 19.7161 18.8124 19.5353C18.9932 19.3546 19.2383 19.253 19.494 19.253C19.7496 19.253 19.9948 19.3546 20.1755 19.5353C20.3563 19.7161 20.4578 19.9612 20.4578 20.2169Z" fill="#FF8001"/>
</svg>
