<svg width="32" height="32" viewBox="0 0 32 32" fill="none" xmlns="http://www.w3.org/2000/svg">
<path fill-rule="evenodd" clip-rule="evenodd" d="M18.2308 7.23077C18.2308 7.16957 18.2065 7.11087 18.1632 7.06759C18.1199 7.02431 18.0612 7 18 7H11.5385C10.8652 7 10.2196 7.26744 9.7435 7.7435C9.26744 8.21955 9 8.86522 9 9.53846V22.4615C9 23.1348 9.26744 23.7804 9.7435 24.2565C10.2196 24.7326 10.8652 25 11.5385 25H20.7692C21.4425 25 22.0881 24.7326 22.5642 24.2565C23.0402 23.7804 23.3077 23.1348 23.3077 22.4615V13.3665C23.3077 13.3053 23.2834 13.2466 23.2401 13.2033C23.1968 13.16 23.1381 13.1357 23.0769 13.1357H18.9231C18.7395 13.1357 18.5634 13.0628 18.4335 12.9329C18.3037 12.8031 18.2308 12.627 18.2308 12.4434V7.23077ZM18.9231 16.2308C19.1067 16.2308 19.2828 16.3037 19.4126 16.4335C19.5424 16.5634 19.6154 16.7395 19.6154 16.9231C19.6154 17.1067 19.5424 17.2828 19.4126 17.4126C19.2828 17.5424 19.1067 17.6154 18.9231 17.6154H13.3846C13.201 17.6154 13.0249 17.5424 12.8951 17.4126C12.7652 17.2828 12.6923 17.1067 12.6923 16.9231C12.6923 16.7395 12.7652 16.5634 12.8951 16.4335C13.0249 16.3037 13.201 16.2308 13.3846 16.2308H18.9231ZM18.9231 19.9231C19.1067 19.9231 19.2828 19.996 19.4126 20.1258C19.5424 20.2557 19.6154 20.4318 19.6154 20.6154C19.6154 20.799 19.5424 20.9751 19.4126 21.1049C19.2828 21.2348 19.1067 21.3077 18.9231 21.3077H13.3846C13.201 21.3077 13.0249 21.2348 12.8951 21.1049C12.7652 20.9751 12.6923 20.799 12.6923 20.6154C12.6923 20.4318 12.7652 20.2557 12.8951 20.1258C13.0249 19.996 13.201 19.9231 13.3846 19.9231H18.9231Z" fill="#FF8001"/>
<path d="M19.6152 7.52977C19.6152 7.35992 19.7934 7.25192 19.9254 7.35808C20.0371 7.44854 20.1377 7.55377 20.2235 7.67377L23.0048 11.5479C23.0675 11.6365 22.9992 11.751 22.8903 11.751H19.846C19.7848 11.751 19.7261 11.7267 19.6828 11.6834C19.6395 11.6401 19.6152 11.5814 19.6152 11.5202V7.52977Z" fill="#FF8001"/>
</svg>
