<svg width="32" height="32" viewBox="0 0 32 32" fill="none" xmlns="http://www.w3.org/2000/svg">
<path fill-rule="evenodd" clip-rule="evenodd" d="M6 10.7857C6 9.79905 6.8 9 7.78571 9H24.2143C25.2 9 26 9.8 26 10.7857V13.6676C26.0001 13.7931 25.9671 13.9163 25.9044 14.025C25.8417 14.1337 25.7515 14.2239 25.6429 14.2867C25.3167 14.4745 25.0457 14.745 24.8573 15.0708C24.6689 15.3967 24.5697 15.7665 24.5697 16.1429C24.5697 16.5193 24.6689 16.889 24.8573 17.2149C25.0457 17.5408 25.3167 17.8112 25.6429 17.999C25.7515 18.0618 25.8417 18.152 25.9044 18.2607C25.9671 18.3694 26.0001 18.4926 26 18.6181V21.5C26 22.4857 25.2 23.2857 24.2143 23.2857H7.78571C7.31211 23.2857 6.85791 23.0976 6.52302 22.7627C6.18814 22.4278 6 21.9736 6 21.5V18.6181C5.99982 18.4927 6.03265 18.3695 6.09517 18.2609C6.15769 18.1522 6.24772 18.0619 6.35619 17.999C6.68239 17.8112 6.95333 17.5408 7.14172 17.2149C7.33011 16.889 7.42931 16.5193 7.42931 16.1429C7.42931 15.7665 7.33011 15.3967 7.14172 15.0708C6.95333 14.745 6.68239 14.4745 6.35619 14.2867C6.24772 14.2238 6.15769 14.1335 6.09517 14.0249C6.03265 13.9162 5.99982 13.793 6 13.6676V10.7857ZM20.2857 9.71429C20.4752 9.71429 20.6568 9.78954 20.7908 9.9235C20.9247 10.0574 21 10.2391 21 10.4286V11.1429C21 11.3323 20.9247 11.514 20.7908 11.6479C20.6568 11.7819 20.4752 11.8571 20.2857 11.8571C20.0963 11.8571 19.9146 11.7819 19.7806 11.6479C19.6467 11.514 19.5714 11.3323 19.5714 11.1429V10.4286C19.5714 10.2391 19.6467 10.0574 19.7806 9.9235C19.9146 9.78954 20.0963 9.71429 20.2857 9.71429ZM21 14C21 13.8106 20.9247 13.6289 20.7908 13.4949C20.6568 13.361 20.4752 13.2857 20.2857 13.2857C20.0963 13.2857 19.9146 13.361 19.7806 13.4949C19.6467 13.6289 19.5714 13.8106 19.5714 14V14.7143C19.5714 14.9037 19.6467 15.0854 19.7806 15.2194C19.9146 15.3533 20.0963 15.4286 20.2857 15.4286C20.4752 15.4286 20.6568 15.3533 20.7908 15.2194C20.9247 15.0854 21 14.9037 21 14.7143V14ZM20.2857 16.8571C20.4752 16.8571 20.6568 16.9324 20.7908 17.0664C20.9247 17.2003 21 17.382 21 17.5714V18.2857C21 18.4752 20.9247 18.6568 20.7908 18.7908C20.6568 18.9247 20.4752 19 20.2857 19C20.0963 19 19.9146 18.9247 19.7806 18.7908C19.6467 18.6568 19.5714 18.4752 19.5714 18.2857V17.5714C19.5714 17.382 19.6467 17.2003 19.7806 17.0664C19.9146 16.9324 20.0963 16.8571 20.2857 16.8571ZM21 21.1429C21 20.9534 20.9247 20.7717 20.7908 20.6378C20.6568 20.5038 20.4752 20.4286 20.2857 20.4286C20.0963 20.4286 19.9146 20.5038 19.7806 20.6378C19.6467 20.7717 19.5714 20.9534 19.5714 21.1429V21.8571C19.5714 22.0466 19.6467 22.2283 19.7806 22.3622C19.9146 22.4962 20.0963 22.5714 20.2857 22.5714C20.4752 22.5714 20.6568 22.4962 20.7908 22.3622C20.9247 22.2283 21 22.0466 21 21.8571V21.1429ZM10.2857 16.1429C10.2857 15.9534 10.361 15.7717 10.4949 15.6378C10.6289 15.5038 10.8106 15.4286 11 15.4286H16C16.1894 15.4286 16.3711 15.5038 16.5051 15.6378C16.639 15.7717 16.7143 15.9534 16.7143 16.1429C16.7143 16.3323 16.639 16.514 16.5051 16.6479C16.3711 16.7819 16.1894 16.8571 16 16.8571H11C10.8106 16.8571 10.6289 16.7819 10.4949 16.6479C10.361 16.514 10.2857 16.3323 10.2857 16.1429ZM11 18.2857C10.8106 18.2857 10.6289 18.361 10.4949 18.4949C10.361 18.6289 10.2857 18.8106 10.2857 19C10.2857 19.1894 10.361 19.3711 10.4949 19.5051C10.6289 19.639 10.8106 19.7143 11 19.7143H13.8571C14.0466 19.7143 14.2283 19.639 14.3622 19.5051C14.4962 19.3711 14.5714 19.1894 14.5714 19C14.5714 18.8106 14.4962 18.6289 14.3622 18.4949C14.2283 18.361 14.0466 18.2857 13.8571 18.2857H11Z" fill="#FF8001"/>
</svg>
