<svg width="32" height="32" viewBox="0 0 32 32" fill="none" xmlns="http://www.w3.org/2000/svg">
<path d="M25 7H7C6.46957 7 5.96086 7.21071 5.58579 7.58579C5.21071 7.96086 5 8.46957 5 9V12H7V9H25V23H18V25H25C25.5304 25 26.0391 24.7893 26.4142 24.4142C26.7893 24.0391 27 23.5304 27 23V9C27 8.46957 26.7893 7.96086 26.4142 7.58579C26.0391 7.21071 25.5304 7 25 7ZM5 22V25H8C8 24.2043 7.68393 23.4413 7.12132 22.8787C6.55871 22.3161 5.79565 22 5 22ZM5 18V20C5.65661 20 6.30679 20.1293 6.91342 20.3806C7.52005 20.6319 8.07124 21.0002 8.53553 21.4645C8.99983 21.9288 9.36812 22.48 9.6194 23.0866C9.87067 23.6932 10 24.3434 10 25H12C12 23.1435 11.2625 21.363 9.94975 20.0503C8.63699 18.7375 6.85652 18 5 18ZM5 14V16C6.1819 16 7.35222 16.2328 8.44415 16.6851C9.53608 17.1374 10.5282 17.8003 11.364 18.636C12.1997 19.4718 12.8626 20.4639 13.3149 21.5558C13.7672 22.6478 14 23.8181 14 25H16C16 18.92 11.07 14 5 14ZM15 15.09V17.09L18.5 19L22 17.09V15.09L18.5 17L15 15.09ZM18.5 10L13 13L18.5 16L24 13L18.5 10Z" fill="#FF8001"/>
</svg>
