<svg width="32" height="32" viewBox="0 0 32 32" fill="none" xmlns="http://www.w3.org/2000/svg">
<path fill-rule="evenodd" clip-rule="evenodd" d="M24.6449 12.1467C24.5884 12.1426 24.5256 12.1426 24.4598 12.1426H21.8626C19.7356 12.1426 17.916 13.8171 17.916 15.9997C17.916 18.1823 19.7366 19.8569 21.8626 19.8569H24.4598C24.5256 19.8569 24.5884 19.8569 24.647 19.8527C25.0842 19.8264 25.4968 19.642 25.8081 19.3339C26.1194 19.0258 26.3081 18.6151 26.339 18.1782C26.3431 18.1165 26.3431 18.0497 26.3431 17.9879V14.0115C26.3431 13.9498 26.3431 13.8829 26.339 13.8212C26.3081 13.3843 26.1194 12.9736 25.8081 12.6655C25.4968 12.3574 25.0842 12.1731 24.647 12.1467H24.6449ZM21.6333 17.0283C22.1805 17.0283 22.6238 16.5675 22.6238 15.9997C22.6238 15.4319 22.1805 14.9711 21.6333 14.9711C21.085 14.9711 20.6417 15.4319 20.6417 15.9997C20.6417 16.5675 21.085 17.0283 21.6333 17.0283Z" fill="#FF8001"/>
<path fill-rule="evenodd" clip-rule="evenodd" d="M24.4585 21.4C24.4941 21.3986 24.5295 21.4056 24.5618 21.4204C24.5942 21.4352 24.6226 21.4574 24.6447 21.4853C24.6669 21.5131 24.6821 21.5458 24.6893 21.5807C24.6964 21.6156 24.6952 21.6516 24.6858 21.6859C24.4801 22.4183 24.152 23.0437 23.6264 23.5682C22.856 24.3397 21.8799 24.6801 20.6744 24.8426C19.5018 25 18.0053 25 16.1147 25H13.9424C12.0519 25 10.5543 25 9.38274 24.8426C8.17726 24.6801 7.20114 24.3386 6.43074 23.5693C5.66137 22.7989 5.31989 21.8227 5.15737 20.6173C5 19.4447 5 17.9481 5 16.0576V15.9424C5 14.0519 5 12.5543 5.15737 11.3817C5.31989 10.1762 5.66137 9.20011 6.43074 8.42971C7.20114 7.66034 8.17726 7.31886 9.38274 7.15634C10.5553 7 12.0519 7 13.9424 7H16.1147C18.0053 7 19.5029 7 20.6744 7.15737C21.8799 7.31989 22.856 7.66137 23.6264 8.43074C24.152 8.95737 24.4801 9.58171 24.6858 10.3141C24.6952 10.3484 24.6964 10.3844 24.6893 10.4193C24.6821 10.4542 24.6669 10.4869 24.6447 10.5147C24.6226 10.5426 24.5942 10.5648 24.5618 10.5796C24.5295 10.5944 24.4941 10.6014 24.4585 10.6H21.8624C18.9443 10.6 16.3729 12.904 16.3729 16C16.3729 19.096 18.9443 21.4 21.8624 21.4H24.4585ZM8.85714 11.1143C8.65255 11.1143 8.45633 11.1956 8.31166 11.3402C8.16699 11.4849 8.08571 11.6811 8.08571 11.8857C8.08571 12.0903 8.16699 12.2865 8.31166 12.4312C8.45633 12.5759 8.65255 12.6571 8.85714 12.6571H12.9714C13.176 12.6571 13.3722 12.5759 13.5169 12.4312C13.6616 12.2865 13.7429 12.0903 13.7429 11.8857C13.7429 11.6811 13.6616 11.4849 13.5169 11.3402C13.3722 11.1956 13.176 11.1143 12.9714 11.1143H8.85714Z" fill="#FF8001"/>
</svg>
