<svg width="16" height="17" viewBox="0 0 16 17" fill="none" xmlns="http://www.w3.org/2000/svg">
<path d="M4.67057 0.678711C4.21032 0.678711 3.83724 1.05204 3.83724 1.51204C1.99632 1.51204 0.503823 3.00454 0.503906 4.84538V5.73039L15.5039 5.67871V4.84538C15.5039 3.00454 14.0115 1.51204 12.1706 1.51204C12.1706 1.05204 11.7975 0.678711 11.3372 0.678711C10.877 0.678711 10.5039 1.05204 10.5039 1.51204H5.5039C5.5039 1.05204 5.13082 0.678711 4.67057 0.678711ZM0.503906 7.34538V13.1787C0.503906 15.0195 1.99632 16.512 3.83724 16.512H12.1706C14.0115 16.512 15.504 15.0195 15.5039 13.1787V7.34538H0.503906ZM4.67057 9.01204C5.13082 9.01204 5.5039 9.38538 5.5039 9.84538C5.5039 10.3054 5.13082 10.6787 4.67057 10.6787C4.21032 10.6787 3.83724 10.3054 3.83724 9.84538C3.83724 9.38538 4.21032 9.01204 4.67057 9.01204ZM8.0039 9.01204C8.46415 9.01204 8.83724 9.38538 8.83724 9.84538C8.83724 10.3054 8.46415 10.6787 8.0039 10.6787C7.54365 10.6787 7.17057 10.3054 7.17057 9.84538C7.17057 9.38538 7.54365 9.01204 8.0039 9.01204ZM11.3372 9.01204C11.7975 9.01204 12.1706 9.38538 12.1706 9.84538C12.1706 10.3054 11.7975 10.6787 11.3372 10.6787C10.877 10.6787 10.5039 10.3054 10.5039 9.84538C10.5039 9.38538 10.877 9.01204 11.3372 9.01204ZM4.67057 11.512C5.13082 11.512 5.5039 11.8854 5.5039 12.3454C5.5039 12.8054 5.13082 13.1787 4.67057 13.1787C4.21032 13.1787 3.83724 12.8054 3.83724 12.3454C3.83724 11.8854 4.21032 11.512 4.67057 11.512ZM8.0039 11.512C8.46415 11.512 8.83724 11.8854 8.83724 12.3454C8.83724 12.8054 8.46415 13.1787 8.0039 13.1787C7.54365 13.1787 7.17057 12.8054 7.17057 12.3454C7.17057 11.8854 7.54365 11.512 8.0039 11.512ZM11.3372 11.512C11.7975 11.512 12.1706 11.8854 12.1706 12.3454C12.1706 12.8054 11.7975 13.1787 11.3372 13.1787C10.877 13.1787 10.5039 12.8054 10.5039 12.3454C10.5039 11.8854 10.877 11.512 11.3372 11.512Z" fill="#FF8001"/>
</svg>
