<svg width="20" height="14" viewBox="0 0 20 14" fill="none" xmlns="http://www.w3.org/2000/svg">
<path d="M3.3125 0.331055C2.8525 0.331055 2.47917 0.704138 2.47917 1.16439C2.47917 1.62464 2.8525 1.99772 3.3125 1.99772H16.6458C17.1058 1.99772 17.4792 1.62464 17.4792 1.16439C17.4792 0.704138 17.1058 0.331055 16.6458 0.331055H3.3125ZM3.3125 3.66439C1.93167 3.66439 0.8125 4.78364 0.8125 6.16439V11.1644C0.8125 12.5452 1.93167 13.6644 3.3125 13.6644H16.6458C18.0267 13.6644 19.1458 12.5452 19.1458 11.1644V6.16439C19.1458 4.78364 18.0267 3.66439 16.6458 3.66439H3.3125ZM3.59916 5.33105H4.14583C4.14583 6.25189 3.4 6.99772 2.47917 6.99772V6.45105C2.47917 5.83689 2.98499 5.33097 3.59916 5.33105ZM15.8125 5.33105H16.3592C16.9733 5.33105 17.4792 5.83689 17.4792 6.45105V6.99772C16.5583 6.99772 15.8125 6.25189 15.8125 5.33105ZM9.97916 6.16439C11.36 6.16439 12.4792 7.28355 12.4792 8.66439C12.4792 10.0452 11.36 11.1644 9.97916 11.1644C8.59833 11.1644 7.47916 10.0452 7.47916 8.66439C7.47916 7.28355 8.59833 6.16439 9.97916 6.16439ZM9.97916 7.83105C9.51916 7.83105 9.14583 8.20439 9.14583 8.66439C9.14583 9.12438 9.51916 9.49772 9.97916 9.49772C10.4392 9.49772 10.8125 9.12438 10.8125 8.66439C10.8125 8.20439 10.4392 7.83105 9.97916 7.83105ZM2.47917 10.3311C3.4 10.3311 4.14583 11.0769 4.14583 11.9977H3.59916C2.98499 11.9977 2.47917 11.4919 2.47917 10.8777V10.3311ZM17.4792 10.3311V10.8777C17.4792 11.4919 16.9733 11.9977 16.3592 11.9977H15.8125C15.8125 11.0769 16.5583 10.3311 17.4792 10.3311Z" fill="#FF8001"/>
</svg>
