<svg width="18" height="16" viewBox="0 0 18 16" fill="none" xmlns="http://www.w3.org/2000/svg">
<path d="M6.09123 0.441406C4.02039 0.441406 2.34123 2.12032 2.34123 4.19141C2.34123 6.26249 4.02039 7.94141 6.09123 7.94141C8.16206 7.94141 9.84123 6.26249 9.84123 4.19141C9.84123 2.12032 8.16206 0.441406 6.09123 0.441406ZM12.3412 3.77474C11.8812 3.77474 11.5079 4.14782 11.5079 4.60807C11.5079 5.06832 11.8812 5.44141 12.3412 5.44141H16.5079C16.9679 5.44141 17.3412 5.06832 17.3412 4.60807C17.3412 4.14782 16.9679 3.77474 16.5079 3.77474H12.3412ZM11.5079 7.10807C11.0479 7.10807 10.6746 7.48116 10.6746 7.94141C10.6746 8.40166 11.0479 8.77474 11.5079 8.77474H16.5079C16.9679 8.77474 17.3412 8.40166 17.3412 7.94141C17.3412 7.48116 16.9679 7.10807 16.5079 7.10807H11.5079ZM3.22622 9.06124C1.69789 9.69191 0.674561 11.2382 0.674561 12.9414V14.6081C0.674561 15.0683 1.04789 15.4414 1.50789 15.4414H10.6746C11.1346 15.4414 11.5079 15.0683 11.5079 14.6081V12.9414C11.5079 11.2782 10.4787 9.76949 8.95623 9.11324C8.74123 9.02091 8.49206 9.01807 8.27873 9.11324C7.54123 9.44374 6.82289 9.60791 6.09123 9.60807C5.36206 9.60807 4.64122 9.43474 3.87789 9.08724C3.66789 8.99174 3.43956 8.97349 3.22622 9.06124ZM14.0079 10.4414C13.5479 10.4414 13.1746 10.8145 13.1746 11.2747C13.1746 11.735 13.5479 12.1081 14.0079 12.1081H16.5079C16.9679 12.1081 17.3412 11.735 17.3412 11.2747C17.3412 10.8145 16.9679 10.4414 16.5079 10.4414H14.0079Z" fill="#FF8001"/>
</svg>
