<svg width="18" height="18" viewBox="0 0 18 18" fill="none" xmlns="http://www.w3.org/2000/svg">
<path fill-rule="evenodd" clip-rule="evenodd" d="M12.4487 2.93955L13.9737 4.46455C16.2137 6.70622 17.3345 7.82622 17.3345 9.21789C17.3345 10.6104 16.2137 11.7304 13.9729 13.9712C11.732 16.2137 10.612 17.3329 9.21952 17.3329C7.82786 17.3329 6.70702 16.2121 4.46619 13.9712L2.94119 12.4462C1.65369 11.1587 1.00952 10.5154 0.770357 9.67955C0.530357 8.84372 0.735357 7.95622 1.14536 6.18205L1.38119 5.15872C1.72536 3.66539 1.89786 2.91872 2.40869 2.40705C2.92036 1.89622 3.66702 1.72372 5.16036 1.37955L6.18369 1.14289C7.95869 0.73372 8.84536 0.52872 9.68119 0.767887C10.517 1.00789 11.1612 1.65205 12.4487 2.93955ZM8.29036 10.9396C7.72952 10.3796 7.73369 9.57455 8.06952 8.93705C7.98638 8.81697 7.94793 8.67155 7.96083 8.52606C7.97374 8.38057 8.03719 8.2442 8.14018 8.14062C8.24316 8.03704 8.37917 7.97281 8.52458 7.95906C8.66999 7.94532 8.81563 7.98294 8.93619 8.06539C9.21952 7.91539 9.53036 7.83539 9.84036 7.83872C10.0061 7.84027 10.1645 7.9076 10.2806 8.0259C10.3967 8.14421 10.4611 8.30379 10.4595 8.46955C10.458 8.63531 10.3906 8.79367 10.2723 8.90979C10.154 9.0259 9.99445 9.09027 9.82869 9.08872C9.63573 9.09585 9.45337 9.1788 9.32119 9.31955C8.99869 9.64205 9.08286 9.96539 9.17369 10.0562C9.26536 10.1471 9.58786 10.2312 9.91036 9.90872C10.5637 9.25539 11.692 9.03872 12.4145 9.76122C12.9754 10.3221 12.9712 11.1271 12.6354 11.7646C12.718 11.8847 12.756 12.0299 12.7429 12.1751C12.7297 12.3203 12.6662 12.4563 12.5634 12.5596C12.4606 12.663 12.3248 12.7271 12.1797 12.7409C12.0346 12.7548 11.8892 12.7174 11.7687 12.6354C11.3947 12.8405 10.961 12.9089 10.542 12.8287C10.3796 12.7953 10.237 12.6988 10.1458 12.5603C10.0545 12.4219 10.022 12.2528 10.0554 12.0904C10.0887 11.9279 10.1853 11.7854 10.3237 11.6941C10.4622 11.6029 10.6312 11.5703 10.7937 11.6037C10.9412 11.6346 11.1795 11.5862 11.3837 11.3821C11.7062 11.0587 11.622 10.7362 11.5312 10.6454C11.4395 10.5546 11.117 10.4704 10.7945 10.7929C10.1412 11.4462 9.01286 11.6629 8.29036 10.9396ZM7.35202 7.57705C7.50676 7.42226 7.6295 7.2385 7.71323 7.03627C7.79695 6.83404 7.84002 6.6173 7.83998 6.39843C7.83994 6.17955 7.7968 5.96283 7.713 5.76063C7.6292 5.55843 7.5064 5.37471 7.35161 5.21997C7.19681 5.06523 7.01305 4.94249 6.81082 4.85877C6.60859 4.77504 6.39186 4.73197 6.17298 4.73201C5.9541 4.73205 5.73738 4.7752 5.53518 4.85899C5.33298 4.94279 5.14926 5.06559 4.99452 5.22039C4.68201 5.53301 4.50649 5.95698 4.50656 6.39901C4.50664 6.84105 4.68232 7.26496 4.99494 7.57747C5.30756 7.88998 5.73153 8.06551 6.17357 8.06543C6.61561 8.06535 7.03951 7.88968 7.35202 7.57705Z" fill="#FF8001"/>
</svg>
