<svg width="20" height="21" viewBox="0 0 20 21" fill="none" xmlns="http://www.w3.org/2000/svg">
<path d="M10 1.75C5.16797 1.75 1.25 5.66797 1.25 10.5C1.25 15.332 5.16797 19.25 10 19.25C14.832 19.25 18.75 15.332 18.75 10.5C18.75 5.66797 14.832 1.75 10 1.75ZM10.4355 14.7422L10.4395 15.3613C10.4395 15.4473 10.3691 15.5195 10.2832 15.5195H9.72852C9.64258 15.5195 9.57227 15.4492 9.57227 15.3633V14.75C7.83789 14.6211 7.02148 13.6328 6.93359 12.5586C6.92578 12.4668 6.99805 12.3887 7.08984 12.3887H7.99219C8.06836 12.3887 8.13477 12.4434 8.14648 12.5176C8.24609 13.1367 8.72852 13.5996 9.59375 13.7148V10.9277L9.11133 10.8047C8.08984 10.5605 7.11719 9.92383 7.11719 8.60352C7.11719 7.17969 8.19922 6.41406 9.58203 6.2793V5.63477C9.58203 5.54883 9.65234 5.47852 9.73828 5.47852H10.2871C10.373 5.47852 10.4434 5.54883 10.4434 5.63477V6.27344C11.7812 6.4082 12.7852 7.18945 12.9023 8.40625C12.9121 8.49805 12.8398 8.57812 12.7461 8.57812H11.8691C11.791 8.57812 11.7246 8.51953 11.7148 8.44336C11.6367 7.87305 11.1797 7.4082 10.4355 7.30664V9.92969L10.9316 10.0449C12.1973 10.3574 13.0586 10.9629 13.0586 12.3184C13.0586 13.7891 11.9648 14.6094 10.4355 14.7422ZM8.33203 8.51367C8.33203 9.00977 8.63867 9.39453 9.29883 9.63281C9.39062 9.66992 9.48242 9.69922 9.5918 9.73047V7.30859C8.87109 7.40039 8.33203 7.80469 8.33203 8.51367ZM10.6074 11.1543C10.5527 11.1426 10.498 11.1289 10.4355 11.1113V13.7227C11.2676 13.6484 11.8418 13.1914 11.8418 12.4258C11.8418 11.8262 11.5312 11.4355 10.6074 11.1543Z" fill="#929598"/>
</svg>
