<svg width="28" height="28" viewBox="0 0 20 20" fill="none" xmlns="http://www.w3.org/2000/svg">
<g id="mdi:cash">
<path id="Vector" d="M0 2.5H20V17.5H0V2.5ZM10 6.25C10.8841 6.25 11.7319 6.64509 12.357 7.34835C12.9821 8.05161 13.3333 9.00544 13.3333 10C13.3333 10.9946 12.9821 11.9484 12.357 12.6517C11.7319 13.3549 10.8841 13.75 10 13.75C9.11595 13.75 8.2681 13.3549 7.64298 12.6517C7.01786 11.9484 6.66667 10.9946 6.66667 10C6.66667 9.00544 7.01786 8.05161 7.64298 7.34835C8.2681 6.64509 9.11595 6.25 10 6.25ZM4.44444 5C4.44444 5.66304 4.21032 6.29893 3.79357 6.76777C3.37682 7.23661 2.81159 7.5 2.22222 7.5V12.5C2.81159 12.5 3.37682 12.7634 3.79357 13.2322C4.21032 13.7011 4.44444 14.337 4.44444 15H15.5556C15.5556 14.337 15.7897 13.7011 16.2064 13.2322C16.6232 12.7634 17.1884 12.5 17.7778 12.5V7.5C17.1884 7.5 16.6232 7.23661 16.2064 6.76777C15.7897 6.29893 15.5556 5.66304 15.5556 5H4.44444Z" fill="#ABADB3"/>
</g>
</svg>
