<svg width="20" height="20" viewBox="0 0 20 20" fill="none" xmlns="http://www.w3.org/2000/svg">
<path d="M16.2267 13.0468C16.1706 12.9754 16.1154 12.9039 16.0613 12.835C15.3171 11.8846 14.8669 11.3111 14.8669 8.62071C14.8669 7.22786 14.5513 6.085 13.9293 5.22786C13.4706 4.59464 12.8506 4.11429 12.0333 3.75929C12.0228 3.75311 12.0134 3.74501 12.0056 3.73536C11.7117 2.69607 10.9073 2 10.0001 2C9.09288 2 8.28884 2.69607 7.9949 3.73429C7.98706 3.74358 7.97779 3.75143 7.9675 3.7575C6.06041 4.58643 5.13359 6.17679 5.13359 8.61964C5.13359 11.3111 4.68405 11.8846 3.93921 12.8339C3.88509 12.9029 3.82995 12.9729 3.7738 13.0457C3.62876 13.2304 3.53686 13.4551 3.50898 13.6932C3.48111 13.9313 3.51842 14.1729 3.61651 14.3893C3.82521 14.8536 4.27002 15.1418 4.77774 15.1418H15.2261C15.7315 15.1418 16.1733 14.8539 16.3826 14.3918C16.4812 14.1753 16.5188 13.9336 16.4912 13.6952C16.4635 13.4568 16.3718 13.2318 16.2267 13.0468ZM10.0001 18C10.4889 17.9996 10.9684 17.8595 11.3879 17.5946C11.8074 17.3297 12.1512 16.9498 12.3828 16.4954C12.3937 16.4736 12.3991 16.4492 12.3984 16.4246C12.3977 16.3999 12.3911 16.3759 12.379 16.3548C12.367 16.3337 12.35 16.3162 12.3296 16.3041C12.3093 16.292 12.2864 16.2857 12.263 16.2857H7.73783C7.71446 16.2856 7.69147 16.2919 7.6711 16.304C7.65073 16.3161 7.63366 16.3335 7.62157 16.3546C7.60948 16.3758 7.60277 16.3998 7.6021 16.4245C7.60143 16.4491 7.60682 16.4735 7.61774 16.4954C7.84929 16.9498 8.193 17.3296 8.61242 17.5945C9.03185 17.8594 9.51135 17.9995 10.0001 18Z" fill="white"/>
</svg>
