<svg width="28" height="28" viewBox="0 0 21 20" fill="none" xmlns="http://www.w3.org/2000/svg">
<path d="M9.66675 2.65V17.35C9.66675 17.8833 9.17508 18.2833 8.65841 18.1667C4.93341 17.3333 2.16675 13.9917 2.16675 10C2.16675 6.00834 4.93341 2.66667 8.65841 1.83334C8.78012 1.80688 8.90622 1.80809 9.0274 1.83689C9.14858 1.86569 9.26174 1.92134 9.35853 1.99974C9.45532 2.07813 9.53326 2.17726 9.58661 2.28981C9.63996 2.40236 9.66734 2.52545 9.66675 2.65ZM11.3584 2.65V8.325C11.3584 8.78334 11.7334 9.15834 12.1917 9.15834H17.8501C18.3834 9.15834 18.7834 8.66667 18.6667 8.14167C17.9584 5.00834 15.5001 2.54167 12.3751 1.83334C11.8501 1.71667 11.3584 2.11667 11.3584 2.65ZM11.3584 11.675V17.35C11.3584 17.8833 11.8501 18.2833 12.3751 18.1667C15.5084 17.4583 17.9667 14.9833 18.6751 11.85C18.7917 11.3333 18.3834 10.8333 17.8584 10.8333H12.2001C11.7334 10.8417 11.3584 11.2167 11.3584 11.675Z" fill="#FFBE2E"/>
</svg>
