<svg width="37" height="36" viewBox="0 0 37 36" fill="none" xmlns="http://www.w3.org/2000/svg">
<rect x="0.248779" width="35.9961" height="36" rx="17.998" fill="#2F3336"/>
<path d="M24.6665 13.9151H17.1665M19.6665 22.2484H12.1665" stroke="white" stroke-width="2" stroke-linecap="round" stroke-linejoin="round"/>
<path d="M22.1665 24.7484C23.5472 24.7484 24.6665 23.6292 24.6665 22.2484C24.6665 20.8677 23.5472 19.7484 22.1665 19.7484C20.7858 19.7484 19.6665 20.8677 19.6665 22.2484C19.6665 23.6292 20.7858 24.7484 22.1665 24.7484Z" fill="white" stroke="white" stroke-width="2" stroke-linecap="round" stroke-linejoin="round"/>
<path d="M13.8333 16.4151C15.214 16.4151 16.3333 15.2958 16.3333 13.9151C16.3333 12.5344 15.214 11.4151 13.8333 11.4151C12.4525 11.4151 11.3333 12.5344 11.3333 13.9151C11.3333 15.2958 12.4525 16.4151 13.8333 16.4151Z" fill="white" stroke="white" stroke-width="2" stroke-linecap="round" stroke-linejoin="round"/>
</svg>
