<svg width="30" height="30" viewBox="0 0 30 30" fill="none" xmlns="http://www.w3.org/2000/svg">
<rect width="30" height="30" rx="4" fill="#FF8001" fill-opacity="0.1"/>
<path d="M19 20.5714V23H4V20.5714C4 20.5714 4 15.7143 11.5 15.7143C19 15.7143 19 20.5714 19 20.5714ZM15.25 9.64286C15.25 8.92237 15.0301 8.21806 14.618 7.619C14.206 7.01993 13.6203 6.55302 12.9351 6.2773C12.2498 6.00158 11.4958 5.92944 10.7684 6.07C10.041 6.21056 9.3728 6.55751 8.84835 7.06697C8.3239 7.57643 7.96675 8.22553 7.82205 8.93217C7.67736 9.63882 7.75162 10.3713 8.03545 11.0369C8.31928 11.7026 8.79993 12.2715 9.41661 12.6718C10.0333 13.0721 10.7583 13.2857 11.5 13.2857C12.4946 13.2857 13.4484 12.9019 14.1517 12.2187C14.8549 11.5356 15.25 10.609 15.25 9.64286ZM19.25 15.7871C19.9333 16.3995 20.4842 17.138 20.8705 17.9594C21.2568 18.7808 21.4708 19.6688 21.5 20.5714V23H25.25V20.5714C25.25 20.5714 25.25 16.3821 19.25 15.7871ZM17.75 6C17.3723 6.00022 16.997 6.05757 16.6375 6.17C17.3688 7.18875 17.7609 8.40087 17.7609 9.64286C17.7609 10.8849 17.3688 12.097 16.6375 13.1157C16.997 13.2281 17.3723 13.2855 17.75 13.2857C18.7446 13.2857 19.6984 12.9019 20.4017 12.2187C21.1049 11.5356 21.5 10.609 21.5 9.64286C21.5 8.67671 21.1049 7.75014 20.4017 7.06697C19.6984 6.3838 18.7446 6 17.75 6Z" fill="#FF8001"/>
</svg>
