<svg width="27" height="26" viewBox="0 0 27 26" fill="none" xmlns="http://www.w3.org/2000/svg">
<path d="M4.5625 22.6992C4.5625 23.1486 4.92559 23.5117 5.375 23.5117H12.6367V13.9648H4.5625V22.6992ZM14.3633 23.5117H21.625C22.0744 23.5117 22.4375 23.1486 22.4375 22.6992V13.9648H14.3633V23.5117ZM22.8438 7.87109H19.0961C19.4414 7.32773 19.6445 6.68281 19.6445 5.99219C19.6445 4.05996 18.0729 2.48828 16.1406 2.48828C15.0895 2.48828 14.1424 2.95547 13.5 3.6918C12.8576 2.95547 11.9105 2.48828 10.8594 2.48828C8.92715 2.48828 7.35547 4.05996 7.35547 5.99219C7.35547 6.68281 7.55606 7.32773 7.90391 7.87109H4.15625C3.70684 7.87109 3.34375 8.23418 3.34375 8.68359V12.2383H12.6367V7.87109H14.3633V12.2383H23.6562V8.68359C23.6562 8.23418 23.2932 7.87109 22.8438 7.87109ZM12.6367 7.76953H10.8594C9.8793 7.76953 9.08203 6.97227 9.08203 5.99219C9.08203 5.01211 9.8793 4.21484 10.8594 4.21484C11.8395 4.21484 12.6367 5.01211 12.6367 5.99219V7.76953ZM16.1406 7.76953H14.3633V5.99219C14.3633 5.01211 15.1605 4.21484 16.1406 4.21484C17.1207 4.21484 17.918 5.01211 17.918 5.99219C17.918 6.97227 17.1207 7.76953 16.1406 7.76953Z" fill="#FF8001"/>
</svg>
