<svg width="25" height="24" viewBox="0 0 25 24" fill="none" xmlns="http://www.w3.org/2000/svg">
<path d="M21.1429 11.6263C22.0014 10.9471 22.6677 10.0555 23.0757 9.0397C23.3554 9.85684 23.5 10.7714 23.5 11.7928C23.5 14.2317 22.6389 15.9414 21.7557 17.0414C21.3514 17.5472 20.881 17.9965 20.3571 18.3771V20.0146C20.3571 20.6397 20.1088 21.2393 19.6668 21.6813C19.2247 22.1234 18.6252 22.3717 18 22.3717H17.2143C16.7975 22.3717 16.3978 22.2061 16.1031 21.9114C15.8084 21.6167 15.6429 21.217 15.6429 20.8003H12.5C12.5 21.217 12.3344 21.6167 12.0397 21.9114C11.745 22.2061 11.3453 22.3717 10.9286 22.3717H10.1429C9.5177 22.3717 8.91816 22.1234 8.47611 21.6813C8.03405 21.2393 7.78571 20.6397 7.78571 20.0146V19.6798C6.78238 19.3595 5.87129 18.8016 5.13 18.0534C4.20129 17.109 3.67957 15.9288 3.41714 15.1887C3.38656 15.0868 3.33233 14.9935 3.25887 14.9165C3.18541 14.8395 3.09481 14.7809 2.99443 14.7456C2.56457 14.6239 2.1861 14.3653 1.91642 14.0092C1.64674 13.653 1.50054 13.2186 1.5 12.7718V11.5241C1.5 10.619 2.10029 9.82384 2.96929 9.57555C3.13271 9.52841 3.30871 9.3697 3.39514 9.10727C3.60729 8.4677 4.01429 7.5217 4.76229 6.76427C5.40582 6.11996 6.14205 5.57547 6.94657 5.14884V2.19927C6.94749 1.96043 7.02001 1.72735 7.15475 1.53015C7.28949 1.33294 7.48026 1.18066 7.70243 1.09298C7.91853 1.00325 8.15593 0.977764 8.38616 1.01957C8.61639 1.06138 8.82967 1.16871 9.00043 1.3287C9.398 1.70427 9.91971 2.15213 10.4776 2.51827C11.0511 2.89384 11.5886 3.13113 12.027 3.17513H12.0349C11.1935 4.42303 10.8267 5.93091 11.0009 7.42584C11.191 9.04284 12.4419 10.014 13.4916 10.4493L17.2473 12.0034C18.2954 12.4387 19.8669 12.6351 21.1444 11.6263H21.1429ZM7.39286 10.586C7.70543 10.586 8.00521 10.4618 8.22623 10.2408C8.44726 10.0198 8.57143 9.71999 8.57143 9.40741C8.57143 9.09484 8.44726 8.79506 8.22623 8.57404C8.00521 8.35301 7.70543 8.22884 7.39286 8.22884C7.08028 8.22884 6.78051 8.35301 6.55948 8.57404C6.33846 8.79506 6.21429 9.09484 6.21429 9.40741C6.21429 9.71999 6.33846 10.0198 6.55948 10.2408C6.78051 10.4618 7.08028 10.586 7.39286 10.586ZM12.8614 4.96027C13.1278 4.28782 13.5454 3.68568 14.0817 3.20045C14.6181 2.71523 15.259 2.35993 15.9547 2.16206C16.6504 1.9642 17.3823 1.92906 18.0937 2.05938C18.8052 2.1897 19.4771 2.48198 20.0575 2.9136C20.6379 3.34522 21.1112 3.90459 21.4408 4.54844C21.7704 5.19229 21.9474 5.90333 21.9581 6.62655C21.9688 7.34976 21.813 8.06575 21.5027 8.71909C21.1924 9.37244 20.7359 9.94562 20.1686 10.3943C19.5149 10.9097 18.6176 10.8704 17.8476 10.5514L14.0919 8.9957C13.3219 8.67827 12.6587 8.07013 12.5613 7.24355C12.5148 6.84331 12.52 6.43874 12.577 6.03984L12.8614 4.96027ZM12.8614 4.96027L12.6477 5.64855C12.7014 5.41403 12.7728 5.18394 12.8614 4.96027Z" fill="#FFBE2E"/>
</svg>
