<svg width="30" height="25" viewBox="0 0 30 25" fill="none" xmlns="http://www.w3.org/2000/svg">
<g clip-path="url(#clip0_7550_12653)">
<path d="M27.3812 7.6475L27.3825 7.64759C28.4796 7.71534 29.4173 8.54248 29.4973 9.66306C29.5017 9.73565 29.5019 9.81761 29.5019 9.91139V15.8028C29.5019 15.8966 29.5017 15.9786 29.4973 16.0512C29.4173 17.1722 28.4792 18.0001 27.3831 18.0666L27.3812 18.0667C27.3117 18.0712 27.2315 18.0714 27.1276 18.0714H23.1662C20.164 18.0714 17.6448 15.7823 17.6448 12.8571C17.6448 9.93188 20.164 7.64282 23.1662 7.64282H27.1276C27.2315 7.64282 27.3117 7.64302 27.3812 7.6475Z" fill="#CA7511" stroke="#FEC239"/>
<path fill-rule="evenodd" clip-rule="evenodd" d="M26.2029 2.35286C27.28 3.64857 27.3429 5.45857 27.3429 7.14571C27.2743 7.14286 27.2 7.14286 27.1257 7.14286H27.1257H23.1643C19.92 7.14286 17.1429 9.62286 17.1429 12.8571C17.1429 16.0914 19.92 18.5714 23.1643 18.5714H27.1271L27.3414 18.57C27.3414 19.7814 27.2643 21.0414 26.6214 22.07C26.4066 22.4111 26.1546 22.7274 25.87 23.0129C24.8 24.0814 23.4443 24.5557 21.77 24.7814C20.1429 25 18.0629 25 15.4371 25H12.42C9.79429 25 7.71571 25 6.08714 24.7814C4.41286 24.5557 3.05714 24.0814 1.98714 23.0129C0.918571 21.9429 0.444286 20.5871 0.218572 18.9129C0 17.2857 0 15.2057 0 12.58V12.42C0 9.79429 0 7.71571 0.217143 6.08714C0.442857 4.41286 0.917143 3.05714 1.98571 1.98714C3.05571 0.918571 4.41143 0.444286 6.08571 0.218572C7.71429 0 9.79429 0 12.42 0H15.4371C18.0629 0 20.1414 0 21.77 0.218572C23.4443 0.444286 24.8 0.918571 25.87 1.98714C25.9865 2.10389 26.0976 2.22592 26.2029 2.35286ZM4.59726 6.02841C4.79819 5.82748 5.07072 5.7146 5.35488 5.7146H11.0692C11.3533 5.7146 11.6258 5.82748 11.8268 6.02841C12.0277 6.22935 12.1406 6.50187 12.1406 6.78603C12.1406 7.07019 12.0277 7.34271 11.8268 7.54364C11.6258 7.74457 11.3533 7.85746 11.0692 7.85746H5.35488C5.07072 7.85746 4.79819 7.74457 4.59726 7.54364C4.39633 7.34271 4.28345 7.07019 4.28345 6.78603C4.28345 6.50187 4.39633 6.22935 4.59726 6.02841Z" fill="#CA7511"/>
<circle cx="23.5" cy="13" r="1.5" fill="#FEC239"/>
</g>
<defs>
<clipPath id="clip0_7550_12653">
<rect width="30" height="25" fill="white"/>
</clipPath>
</defs>
</svg>
