<svg width="27" height="26" viewBox="0 0 27 26" fill="none" xmlns="http://www.w3.org/2000/svg">
<path fill-rule="evenodd" clip-rule="evenodd" d="M23.3584 8.67099C23.2988 8.66666 23.2327 8.66666 23.1634 8.66666H20.428C18.1877 8.66666 16.2712 10.4303 16.2712 12.7292C16.2712 15.028 18.1887 16.7917 20.428 16.7917H23.1634C23.2327 16.7917 23.2988 16.7917 23.3606 16.7873C23.821 16.7596 24.2557 16.5653 24.5835 16.2409C24.9114 15.9164 25.1101 15.4838 25.1427 15.0237C25.147 14.9587 25.147 14.8882 25.147 14.8232V10.6351C25.147 10.5701 25.147 10.4997 25.1427 10.4347C25.1101 9.97453 24.9114 9.54192 24.5835 9.21744C24.2557 8.89297 23.821 8.69875 23.3606 8.67099H23.3584ZM20.1864 13.8125C20.7627 13.8125 21.2297 13.3272 21.2297 12.7292C21.2297 12.1312 20.7627 11.6458 20.1864 11.6458C19.609 11.6458 19.1421 12.1312 19.1421 12.7292C19.1421 13.3272 19.609 13.8125 20.1864 13.8125Z" fill="#FF8001"/>
<path fill-rule="evenodd" clip-rule="evenodd" d="M23.1612 18.4167C23.1987 18.4152 23.236 18.4225 23.2701 18.4381C23.3041 18.4537 23.3341 18.4772 23.3574 18.5065C23.3807 18.5358 23.3968 18.5703 23.4043 18.607C23.4118 18.6437 23.4106 18.6817 23.4007 18.7178C23.184 19.4892 22.8384 20.1478 22.2848 20.7003C21.4734 21.5128 20.4453 21.8714 19.1757 22.0426C17.9407 22.2083 16.3644 22.2083 14.3732 22.2083H12.0852C10.0941 22.2083 8.51675 22.2083 7.28283 22.0426C6.01316 21.8714 4.98508 21.5117 4.17366 20.7014C3.36333 19.89 3.00366 18.8619 2.8325 17.5922C2.66675 16.3572 2.66675 14.781 2.66675 12.7898V12.6685C2.66675 10.6773 2.66675 9.1 2.8325 7.865C3.00366 6.59533 3.36333 5.56725 4.17366 4.75583C4.98508 3.9455 6.01316 3.58583 7.28283 3.41467C8.51783 3.25 10.0941 3.25 12.0852 3.25H14.3732C16.3644 3.25 17.9417 3.25 19.1757 3.41575C20.4453 3.58692 21.4734 3.94658 22.2848 4.75692C22.8384 5.31158 23.184 5.96917 23.4007 6.7405C23.4106 6.77665 23.4118 6.81463 23.4043 6.85135C23.3968 6.88807 23.3807 6.9225 23.3574 6.95184C23.3341 6.98118 23.3041 7.0046 23.2701 7.02021C23.236 7.03582 23.1987 7.04317 23.1612 7.04167H20.4269C17.3535 7.04167 14.6452 9.46833 14.6452 12.7292C14.6452 15.99 17.3535 18.4167 20.4269 18.4167H23.1612ZM6.72925 7.58333C6.51376 7.58333 6.3071 7.66894 6.15472 7.82131C6.00235 7.97368 5.91675 8.18034 5.91675 8.39583C5.91675 8.61132 6.00235 8.81798 6.15472 8.97036C6.3071 9.12273 6.51376 9.20833 6.72925 9.20833H11.0626C11.2781 9.20833 11.4847 9.12273 11.6371 8.97036C11.7895 8.81798 11.8751 8.61132 11.8751 8.39583C11.8751 8.18034 11.7895 7.97368 11.6371 7.82131C11.4847 7.66894 11.2781 7.58333 11.0626 7.58333H6.72925Z" fill="#FF8001"/>
</svg>
